<?xml version="1.0" encoding="utf-8"?>
<!-- Generator: Adobe Illustrator 16.0.0, SVG Export Plug-In . SVG Version: 6.00 Build 0)  -->
<!DOCTYPE svg PUBLIC "-//W3C//DTD SVG 1.1//EN" "http://www.w3.org/Graphics/SVG/1.1/DTD/svg11.dtd">
<svg version="1.1"
	 id="Шар_1" xmlns:sodipodi="http://sodipodi.sourceforge.net/DTD/sodipodi-0.dtd" xmlns:cc="http://creativecommons.org/ns#" xmlns:rdf="http://www.w3.org/1999/02/22-rdf-syntax-ns#" xmlns:inkscape="http://www.inkscape.org/namespaces/inkscape" xmlns:svg="http://www.w3.org/2000/svg" xmlns:dc="http://purl.org/dc/elements/1.1/" sodipodi:docname="partners.svg" inkscape:version="0.91 r13725"
	 xmlns="http://www.w3.org/2000/svg" xmlns:xlink="http://www.w3.org/1999/xlink" x="0px" y="0px" width="104px" height="42px"
	 viewBox="180 10 104 42" enable-background="new 180 10 104 42" xml:space="preserve">
<g id="g291">
	<path id="path293" fill="#878787" d="M201.561,32.221c0.486-3.915,2.31-7.464,6.85-7.464c3.892,0,6.403,2.813,6.688,7.464H201.561z
		 M208.492,22.638c-5.593,0-9.525,4.649-9.525,11.297c0,6.648,3.77,10.93,9.565,10.93c4.904,0,8.025-2.936,8.917-7.585h-2.472
		c-0.811,3.631-3.04,5.507-6.363,5.507c-5.025,0-7.053-4.078-7.053-8.483h16.091v-0.734
		C217.652,27.776,214.654,22.638,208.492,22.638"/>
	<path id="path295" fill="#878787" d="M232.932,36.177c0,3.997-3.283,6.444-7.094,6.444c-2.918,0-4.782-1.551-4.782-3.997
		c0-3.427,3.565-4.038,6.2-4.404c2.798-0.367,4.863-0.571,5.675-1.468L232.932,36.177L232.932,36.177z M235.445,40.092V28.673
		c0-3.956-2.959-6.036-7.66-6.036c-5.146,0-8.187,2.569-8.39,7.055h2.432c0.324-3.385,2.148-4.935,5.674-4.935
		c3.324,0,5.432,1.061,5.432,4.527c0,1.061-0.203,1.631-0.729,1.997c-1.013,0.694-2.797,0.775-6.08,1.102
		c-5.146,0.53-7.741,2.651-7.741,6.484c0,3.67,2.554,5.871,6.81,5.871c3.525,0,6.161-1.468,7.863-4.2
		c0,1.917,0.242,3.834,2.716,3.834c0.729,0,1.338-0.081,2.026-0.327v-1.958c-0.445,0.123-0.647,0.123-0.973,0.123
		C235.405,42.213,235.445,41.357,235.445,40.092"/>
	<path id="path297" fill="#878787" d="M248.577,42.662c-4.378,0-7.134-3.427-7.134-8.933c0-5.628,2.675-9.013,7.053-9.013
		s7.134,3.548,7.134,9.053C255.629,39.155,252.833,42.662,248.577,42.662 M248.82,22.596c-3.485,0-5.958,1.55-7.458,4.649v-4.038
		h-2.31V52h2.472V40.296c1.419,3.018,4.013,4.526,7.377,4.526c5.593,0,9.322-4.404,9.322-11.052
		C258.223,27.042,254.494,22.596,248.82,22.596"/>
	<rect id="rect299" x="260.614" y="15.011" fill="#878787" width="2.553" height="4.201"/>
	<rect id="rect301" x="260.614" y="23.208" fill="#878787" width="2.553" height="20.962"/>
	<path id="path303" fill="#878787" d="M267.909,32.221c0.487-3.915,2.311-7.464,6.85-7.464c3.892,0,6.403,2.813,6.688,7.464H267.909
		z M284,33.567c0-5.791-2.999-10.93-9.16-10.93c-5.593,0-9.524,4.649-9.524,11.297c0,6.648,3.769,10.93,9.564,10.93
		c4.904,0,8.025-2.936,8.917-7.585h-2.472c-0.81,3.631-3.04,5.507-6.363,5.507c-5.025,0-7.053-4.078-7.053-8.483h16.09L284,33.567
		L284,33.567L284,33.567z"/>
	<path id="path305" fill="#878787" d="M195.024,11.529c0.687,0,1.244,0.562,1.244,1.251c0,0.691-0.557,1.251-1.244,1.251
		s-1.244-0.561-1.244-1.251C193.781,12.089,194.337,11.529,195.024,11.529 M195.024,10c-1.526,0-2.763,1.245-2.763,2.78
		c0,1.069,0.599,1.995,1.479,2.462v20.323c0,3.834-0.689,6.975-5.431,6.975c-4.445,0-5.507-2.438-5.623-6.136l1.392,0.722
		c0,0-0.701-0.938-1.403-2.143V34.79h-0.11c-0.35-0.613-0.689-1.283-0.935-1.929c-0.782-2.062-1.604-5.376-1.604-5.376v7.535
		C180,35.423,180,35.619,180,35.931c0,5.669,2.27,8.89,8.31,8.89c5.715,0,8.146-3.222,8.146-8.522V15.155
		c0.798-0.486,1.333-1.367,1.333-2.375C197.788,11.245,196.55,10,195.024,10"/>
</g>
</svg>
