<?xml version="1.0" encoding="utf-8"?>
<!-- Generator: Adobe Illustrator 16.0.0, SVG Export Plug-In . SVG Version: 6.00 Build 0)  -->
<!DOCTYPE svg PUBLIC "-//W3C//DTD SVG 1.1//EN" "http://www.w3.org/Graphics/SVG/1.1/DTD/svg11.dtd">
<svg version="1.1"
	 id="Шар_1" xmlns:sodipodi="http://sodipodi.sourceforge.net/DTD/sodipodi-0.dtd" xmlns:cc="http://creativecommons.org/ns#" xmlns:rdf="http://www.w3.org/1999/02/22-rdf-syntax-ns#" xmlns:inkscape="http://www.inkscape.org/namespaces/inkscape" xmlns:svg="http://www.w3.org/2000/svg" xmlns:dc="http://purl.org/dc/elements/1.1/" sodipodi:docname="partners.svg" inkscape:version="0.91 r13725"
	 xmlns="http://www.w3.org/2000/svg" xmlns:xlink="http://www.w3.org/1999/xlink" x="0px" y="0px" width="222px" height="34.996px"
	 viewBox="-0.929 -1.116 222 34.996" enable-background="new -0.929 -1.116 222 34.996" xml:space="preserve">
<g>
	<path fill="#3C3C3C" d="M100.409,26.395V5.631L91.678,26.4h-0.791L82.12,5.631V26.4h-2.052V2.881h3.059l8.156,19.394l8.115-19.394
		h3.095V26.4L100.409,26.395L100.409,26.395z"/>
	<path fill="#3C3C3C" d="M107.883,5.28c0-0.774,0.682-1.375,1.438-1.375c0.791,0,1.438,0.601,1.438,1.375
		c0,0.771-0.646,1.41-1.438,1.41C108.564,6.69,107.883,6.053,107.883,5.28z M108.387,26.395V9.368h1.867v17.025L108.387,26.395
		L108.387,26.395z"/>
	<path fill="#3C3C3C" d="M127.789,26.395V14.868c0-3.278-1.689-4.268-4.204-4.268c-2.229,0-4.526,1.375-5.646,2.928v12.865h-1.863
		V9.368h1.863v2.573c1.262-1.48,3.736-2.996,6.254-2.996c3.521,0,5.463,1.688,5.463,5.533v11.916H127.789z"/>
	<path fill="#3C3C3C" d="M148.27,26.395V23.68c-1.221,1.768-3.445,3.142-6.037,3.142c-4.598,0-7.76-3.455-7.76-8.919
		c0-5.396,3.162-8.954,7.76-8.954c2.48,0,4.639,1.229,6.037,3.173V2.882h1.904v23.519L148.27,26.395L148.27,26.395z M148.27,22.129
		v-8.427c-1.006-1.656-3.27-3.104-5.713-3.104c-3.844,0-6.072,3.175-6.072,7.299c0,4.122,2.23,7.262,6.072,7.262
		C144.998,25.162,147.264,23.751,148.27,22.129z"/>
	<path fill="#2DBCA6" d="M157.867,23.645v9.235h-1.869V9.368h1.869v2.68c1.223-1.728,3.445-3.103,6.033-3.103
		c4.639,0,7.764,3.455,7.764,8.919c0,5.43-3.125,8.954-7.764,8.954C161.457,26.819,159.266,25.584,157.867,23.645z M169.648,17.865
		c0-4.125-2.188-7.264-6.068-7.264c-2.406,0-4.707,1.407-5.713,3.029v8.429c1.006,1.619,3.307,3.104,5.713,3.104
		C167.457,25.162,169.648,21.99,169.648,17.865z"/>
	<path fill="#2DBCA6" d="M187.4,26.395v-2.011c-1.545,1.657-3.479,2.437-5.891,2.437c-2.982,0-6.072-2.011-6.072-5.677
		c0-3.7,3.057-5.643,6.072-5.643c2.406,0,4.383,0.775,5.891,2.436v-3.453c0-2.538-2.082-3.913-4.67-3.913
		c-2.152,0-3.844,0.738-5.426,2.503l-1.041-1.271c1.795-1.898,3.807-2.854,6.682-2.854c3.521,0,6.324,1.655,6.324,5.465V26.4H187.4
		V26.395z M187.4,23.046v-3.734c-1.221-1.554-3.156-2.36-5.24-2.36c-2.875,0-4.74,1.798-4.74,4.229c0,2.396,1.865,4.195,4.74,4.195
		C184.242,25.373,186.18,24.596,187.4,23.046z"/>
	<path fill="#2DBCA6" d="M195.094,26.395V9.368h1.867v2.927c1.475-1.9,3.449-3.275,5.854-3.275v2.011
		c-0.318-0.071-0.57-0.071-0.934-0.071c-1.762,0-4.133,1.552-4.924,3.032v12.409L195.094,26.395L195.094,26.395z"/>
	<path fill="#2DBCA6" d="M218.518,26.395l-6.934-8.106l-3.232,2.996v5.11h-1.869V2.881h1.869v16.216l10.24-9.729h2.479l-8.09,7.686
		l8.053,9.347h-2.518L218.518,26.395L218.518,26.395z"/>
</g>
<g>
	
		<linearGradient id="SVGID_1_" gradientUnits="userSpaceOnUse" x1="-17.3286" y1="263.8206" x2="-17.3286" y2="228.8811" gradientTransform="matrix(1 0 0 1 50.3994 -229.9404)">
		<stop  offset="0" style="stop-color:#2DBCA6"/>
		<stop  offset="0.9959" style="stop-color:#3FD6C9"/>
	</linearGradient>
	<path fill="url(#SVGID_1_)" d="M66.717,30.452L49.637,0.047c-0.32-0.565-0.81-0.958-1.377-1.069c-0.566-0.11-1.121,0.057-1.58,0.47
		L33.057,10.983L19.462-0.555c-0.459-0.413-1.015-0.58-1.581-0.473c-0.566,0.115-1.056,0.505-1.377,1.072l-17.08,30.405
		c-0.431,0.768-0.469,1.52-0.105,2.334c0.363,0.813,1.076,1.089,1.854,1.089h10.389c0,0,2,0.17,3.662-1.104
		c1.545-1.187,15.914-15.26,17.838-16.989c1.924,1.729,16.317,15.808,17.863,16.989c1.661,1.271,3.662,1.104,3.662,1.104h10.389
		c0.772,0,1.486-0.271,1.854-1.089C67.186,31.97,67.148,31.218,66.717,30.452z M13.374,26.999c-0.729,0.367-2.233,0.792-3.245,0.625
		c-1.05-0.174-1.85-1.125-1.291-2.583c0.044-0.114,9.038-21.568,9.038-21.568c0.224-0.396,0.576-0.646,0.974-0.725
		c0.396-0.079,0.807,0.051,1.125,0.34l10.363,10.07C30.338,13.16,15.107,26.124,13.374,26.999z M56.012,27.624
		c-1.013,0.167-2.517-0.258-3.246-0.625c-1.729-0.875-16.928-13.84-16.928-13.84l10.329-10.07c0.319-0.289,0.728-0.419,1.125-0.34
		c0.396,0.079,0.749,0.325,0.974,0.725c0,0,8.993,21.454,9.037,21.568C57.859,26.499,57.061,27.451,56.012,27.624z"/>
	<g>
		
			<linearGradient id="SVGID_2_" gradientUnits="userSpaceOnUse" x1="-0.6479" y1="260.304" x2="-0.648" y2="228.8254" gradientTransform="matrix(1 0 0 1 50.3994 -229.9404)">
			<stop  offset="0" style="stop-color:#2DBCA6"/>
			<stop  offset="0.9959" style="stop-color:#27A28F"/>
		</linearGradient>
		<path fill="url(#SVGID_2_)" d="M66.068,29.245L49.634-0.01c-0.319-0.569-0.81-0.958-1.377-1.071
			c-0.567-0.112-1.122,0.055-1.581,0.468L33.113,10.87l-0.078,0.063l2.797,2.229l0.005-0.006L46.166,3.055
			c0.316-0.289,0.729-0.436,1.125-0.354c0.396,0.08,0.749,0.317,0.973,0.719c0,0,8.994,21.45,9.037,21.563
			c0.559,1.458-0.24,2.407-1.291,2.582c-0.64,0.104-1.478-0.026-2.189-0.229c2.441,1.88,5.625,3.027,9.121,3.027
			c1.226,0,2.397-0.152,3.525-0.414L66.068,29.245z"/>
		
			<linearGradient id="SVGID_3_" gradientUnits="userSpaceOnUse" x1="-29.73" y1="263.7229" x2="-29.73" y2="243.0647" gradientTransform="matrix(1 0 0 1 50.3994 -229.9404)">
			<stop  offset="0" style="stop-color:#2DBCA6"/>
			<stop  offset="0.9959" style="stop-color:#27A28F"/>
		</linearGradient>
		<path fill="url(#SVGID_3_)" d="M30.311,13.124c-0.521,0.443-15.231,12.959-16.938,13.817c-0.729,0.366-2.232,0.792-3.245,0.625
			c-1.045-0.174-1.839-1.117-1.297-2.563c-0.324,0.969-0.521,2.203-0.521,3.28c0,1.948,0.578,3.489,1.563,5.489h1.678
			c0,0,2.001,0.188,3.662-1.081c1.524-1.168,17.368-16.524,17.813-16.96L30.311,13.124z"/>
	</g>
</g>
</svg>
