<?xml version="1.0" encoding="utf-8"?>
<!-- Generator: Adobe Illustrator 16.0.0, SVG Export Plug-In . SVG Version: 6.00 Build 0)  -->
<!DOCTYPE svg PUBLIC "-//W3C//DTD SVG 1.1//EN" "http://www.w3.org/Graphics/SVG/1.1/DTD/svg11.dtd">
<svg version="1.1"
	 id="Шар_1" xmlns:sodipodi="http://sodipodi.sourceforge.net/DTD/sodipodi-0.dtd" xmlns:cc="http://creativecommons.org/ns#" xmlns:rdf="http://www.w3.org/1999/02/22-rdf-syntax-ns#" xmlns:inkscape="http://www.inkscape.org/namespaces/inkscape" xmlns:svg="http://www.w3.org/2000/svg" xmlns:dc="http://purl.org/dc/elements/1.1/" sodipodi:docname="partners.svg" inkscape:version="0.91 r13725"
	 xmlns="http://www.w3.org/2000/svg" xmlns:xlink="http://www.w3.org/1999/xlink" x="0px" y="0px" width="98.001px"
	 height="58.317px" viewBox="250 79.999 98.001 58.317" enable-background="new 250 79.999 98.001 58.317" xml:space="preserve">
<sodipodi:namedview  gridtolerance="10" inkscape:cy="367.284" showgrid="false" pagecolor="#ffffff" inkscape:zoom="0.20304997" borderopacity="1" inkscape:cx="687.02301" bordercolor="#666666" guidetolerance="10" objecttolerance="10" id="namedview616" inkscape:pageshadow="2" inkscape:window-height="480" inkscape:window-maximized="0" inkscape:pageopacity="0" inkscape:window-y="0" inkscape:window-width="640" inkscape:window-x="0" inkscape:current-layer="Шар_1">
	</sodipodi:namedview>
<g>
	<path fill="#878787" d="M315.803,108.145c-0.027-0.06-0.057-0.119-0.088-0.177l-13.163-26.391h-0.001
		c-0.3-0.916-1.161-1.578-2.176-1.578h-16.257c-1.266,0-2.291,1.025-2.291,2.291c0,0.301,0.06,0.587,0.165,0.85h-0.001l0.004,0.009
		c0.042,0.105,0.093,0.205,0.15,0.303l13.266,26.66h0.002c0.377,0.749,1.151,1.265,2.045,1.265h16.257
		c1.266,0,2.291-1.026,2.291-2.291c-0.001-0.322-0.068-0.627-0.188-0.905L315.803,108.145z"/>
	<path fill="#878787" d="M279.843,84.237c-0.04-0.069-0.072-0.146-0.108-0.219l-8.717,14.231l13.388-4.846L279.843,84.237z"/>
	<path fill="#878787" d="M312.566,97.924l4.622,9.267c0.045,0.081,0.085,0.164,0.123,0.249l8.839-14.431L312.566,97.924z"/>
	<polygon fill="#878787" points="262.891,130.952 254.136,119.081 250,119.081 250,137.978 254.023,137.978 254.023,125.654 
		263.032,137.978 266.914,137.978 266.914,119.081 262.891,119.081 	"/>
	<path fill="#878787" d="M283.601,130.3c0,2.635-1.501,4.448-4.42,4.448s-4.448-1.813-4.448-4.448v-11.22h-4.08v11.36
		c0,4.646,2.777,7.876,8.528,7.876s8.527-3.202,8.527-7.904v-11.333h-4.107V130.3L283.601,130.3z"/>
	<polygon fill="#878787" points="307.713,132.736 304.142,119.081 300.997,119.081 297.399,132.736 294.084,119.081 289.58,119.081 
		294.991,137.978 299.269,137.978 302.555,125.002 305.87,137.978 310.149,137.978 315.532,119.081 310.999,119.081 	"/>
	<path fill="#878787" d="M329.555,128.231c1.785-0.368,3.258-1.954,3.258-4.335c0-2.521-1.841-4.815-5.439-4.815h-9.943v18.897
		l10.256-0.001c3.597,0,5.496-2.266,5.496-5.099C333.181,130.498,331.567,128.543,329.555,128.231z M321.453,122.536h5.043
		c1.36,0,2.21,0.879,2.21,2.068c0,1.191-0.85,2.04-2.21,2.039h-5.043V122.536z M326.638,134.492h-5.185v-4.392h5.185
		c1.586,0,2.436,1.021,2.436,2.21C329.074,133.672,328.169,134.493,326.638,134.492z"/>
	<rect x="336.215" y="119.08" fill="#878787" width="4.022" height="18.897"/>
	<rect x="343.977" y="119.08" fill="#878787" width="4.023" height="18.897"/>
</g>
</svg>
