<?xml version="1.0" encoding="utf-8"?>
<!-- Generator: Adobe Illustrator 16.0.0, SVG Export Plug-In . SVG Version: 6.00 Build 0)  -->
<!DOCTYPE svg PUBLIC "-//W3C//DTD SVG 1.1//EN" "http://www.w3.org/Graphics/SVG/1.1/DTD/svg11.dtd">
<svg version="1.1"
	 id="Шар_1" xmlns:sodipodi="http://sodipodi.sourceforge.net/DTD/sodipodi-0.dtd" xmlns:cc="http://creativecommons.org/ns#" xmlns:rdf="http://www.w3.org/1999/02/22-rdf-syntax-ns#" xmlns:inkscape="http://www.inkscape.org/namespaces/inkscape" xmlns:svg="http://www.w3.org/2000/svg" xmlns:dc="http://purl.org/dc/elements/1.1/" sodipodi:docname="partners.svg" inkscape:version="0.91 r13725"
	 xmlns="http://www.w3.org/2000/svg" xmlns:xlink="http://www.w3.org/1999/xlink" x="0px" y="0px" width="118.999px"
	 height="22.002px" viewBox="190 180 118.999 22.002" enable-background="new 190 180 118.999 22.002" xml:space="preserve">
<sodipodi:namedview  gridtolerance="10" inkscape:cy="367.284" showgrid="false" pagecolor="#ffffff" inkscape:zoom="0.20304997" borderopacity="1" inkscape:cx="687.02301" bordercolor="#666666" guidetolerance="10" objecttolerance="10" id="namedview616" inkscape:pageshadow="2" inkscape:window-height="480" inkscape:window-maximized="0" inkscape:pageopacity="0" inkscape:window-y="0" inkscape:window-width="640" inkscape:window-x="0" inkscape:current-layer="Шар_1">
	</sodipodi:namedview>
<g id="g359">
	<g id="g361" enable-background="new    ">
		<path id="path363" fill="#878787" d="M190,199.216v-3.768h2.088l0.51,2.905c0.527,0.437,1.158,0.793,1.892,1.071
			c0.732,0.279,1.609,0.418,2.629,0.418c1.381,0,2.474-0.292,3.276-0.876c0.802-0.584,1.204-1.377,1.204-2.377
			c0-0.927-0.349-1.703-1.044-2.328c-0.696-0.626-1.927-1.152-3.689-1.578c-2.144-0.509-3.82-1.26-5.025-2.251
			c-1.206-0.992-1.81-2.239-1.81-3.74c0-1.585,0.673-2.904,2.019-3.956c1.346-1.053,3.097-1.579,5.248-1.579
			c1.417,0,2.707,0.245,3.869,0.731c1.162,0.487,2.097,1.078,2.799,1.774v3.767h-2.06l-0.515-2.891
			c-0.418-0.353-0.975-0.645-1.671-0.876c-0.696-0.232-1.505-0.349-2.423-0.349c-1.458,0-2.574,0.31-3.355,0.925
			c-0.78,0.617-1.169,1.422-1.169,2.412c0,0.883,0.396,1.615,1.189,2.204c0.793,0.588,2.077,1.105,3.851,1.55
			c2.135,0.528,3.757,1.307,4.866,2.336c1.108,1.029,1.662,2.304,1.662,3.823c0,1.637-0.666,2.952-1.998,3.946
			c-1.331,0.995-3.074,1.491-5.227,1.491c-1.559,0-2.945-0.255-4.155-0.77C191.747,200.717,190.76,200.046,190,199.216z"/>
		<path id="path365" fill="#878787" d="M206.538,201.706v-1.768l2.27-0.389v-17.395l-2.27-0.39V180h5.012v12.606h1.756l3.215-4.006
			l-1.378-0.182v-1.768h6.306v1.768l-1.837,0.362l-3.968,4.745l4.83,6.079l1.712,0.333v1.768h-6.251v-1.768l1.405-0.18l-3.996-4.997
			h-1.796v4.788l2.27,0.389v1.768H206.538L206.538,201.706z"/>
		<path id="path367" fill="#878787" d="M224.246,201.706v-1.768l2.27-0.39v-10.742l-2.27-0.39v-1.768h5.012v12.898l2.27,0.39v1.768
			L224.246,201.706L224.246,201.706z M226.515,182.797V180h2.742v2.797H226.515z"/>
		<path id="path369" fill="#878787" d="M233.072,201.706v-1.768l2.269-0.39v-10.742l-2.269-0.39v-1.768h4.733l0.181,1.961
			c0.481-0.714,1.104-1.266,1.865-1.654c0.76-0.391,1.642-0.585,2.645-0.585s1.863,0.231,2.582,0.695s1.26,1.159,1.622,2.087
			c0.473-0.853,1.1-1.529,1.879-2.03c0.78-0.501,1.689-0.751,2.729-0.751c1.536,0,2.748,0.524,3.638,1.576
			c0.888,1.053,1.332,2.635,1.332,4.746v6.854l2.283,0.39v1.768h-7.31v-1.768l2.283-0.39v-6.879c0-1.483-0.256-2.532-0.766-3.148
			c-0.511-0.616-1.268-0.925-2.27-0.925c-0.956,0-1.724,0.336-2.304,1.007c-0.58,0.672-0.916,1.519-1.009,2.537v7.407l2.269,0.39
			v1.768h-7.281v-1.768l2.27-0.39v-6.879c0-1.409-0.262-2.439-0.787-3.092c-0.525-0.653-1.284-0.98-2.276-0.98
			c-0.836,0-1.522,0.171-2.06,0.514c-0.538,0.344-0.951,0.825-1.239,1.446v8.992l2.27,0.39v1.768L233.072,201.706L233.072,201.706z"
			/>
	</g>
	<g id="g371" enable-background="new    ">
		<path id="path373" fill="#878787" d="M260.094,201.706v-2.449l2.157-0.418v-14.527l-2.157-0.417v-2.449h2.157h6.954
			c2.476,0,4.517,0.791,6.12,2.372c1.604,1.582,2.406,3.61,2.406,6.088v3.354c0,2.486-0.802,4.515-2.406,6.087
			c-1.604,1.572-3.645,2.359-6.12,2.359L260.094,201.706L260.094,201.706z M266.317,198.575h2.687c1.457,0,2.6-0.491,3.426-1.474
			c0.825-0.981,1.238-2.266,1.238-3.85v-3.378c0-1.566-0.413-2.84-1.238-3.822c-0.826-0.982-1.968-1.474-3.426-1.474h-2.687V198.575
			z"/>
		<path id="path375" fill="#878787" d="M279.835,194.332v-0.292c0-2.246,0.628-4.084,1.887-5.518
			c1.257-1.433,2.994-2.149,5.213-2.149c2.231,0,3.977,0.714,5.236,2.143c1.261,1.429,1.891,3.271,1.891,5.525v0.292
			c0,2.263-0.63,4.106-1.891,5.529c-1.26,1.425-2.997,2.136-5.21,2.136c-2.236,0-3.983-0.711-5.24-2.136
			C280.463,198.439,279.835,196.595,279.835,194.332z M283.9,194.325c0,1.37,0.241,2.471,0.724,3.3s1.263,1.244,2.339,1.244
			c1.05,0,1.816-0.417,2.305-1.25c0.487-0.834,0.731-1.933,0.731-3.293v-0.292c0-1.334-0.246-2.424-0.738-3.266
			c-0.491-0.843-1.267-1.265-2.324-1.265c-1.059,0-1.828,0.421-2.312,1.265c-0.482,0.843-0.724,1.933-0.724,3.266L283.9,194.325
			L283.9,194.325z"/>
		<path id="path377" fill="#878787" d="M295.872,194.402v-0.417c0-2.217,0.624-4.04,1.873-5.469c1.248-1.429,3.028-2.143,5.34-2.143
			c1.216,0,2.306,0.18,3.271,0.543c0.965,0.361,1.768,0.872,2.408,1.529l0.055,4.021h-3.299l-0.668-2.352
			c-0.204-0.177-0.455-0.322-0.751-0.438c-0.297-0.116-0.636-0.173-1.018-0.173c-1.15,0-1.963,0.417-2.437,1.25
			c-0.473,0.834-0.71,1.908-0.71,3.223v0.417c0,1.343,0.218,2.425,0.654,3.244c0.436,0.82,1.201,1.229,2.297,1.229
			c0.724,0,1.303-0.209,1.739-0.63c0.437-0.42,0.654-0.979,0.654-1.681h3.676l0.042,0.08c0,0.044,0,0.089,0,0.132
			c0,1.451-0.569,2.677-1.712,3.682c-1.178,1.022-2.645,1.537-4.398,1.547c-2.246,0-3.978-0.709-5.193-2.129
			C296.479,198.448,295.872,196.628,295.872,194.402z"/>
	</g>
</g>
</svg>
