<?xml version="1.0" encoding="utf-8"?>
<!-- Generator: Adobe Illustrator 16.0.0, SVG Export Plug-In . SVG Version: 6.00 Build 0)  -->
<!DOCTYPE svg PUBLIC "-//W3C//DTD SVG 1.1//EN" "http://www.w3.org/Graphics/SVG/1.1/DTD/svg11.dtd">
<svg version="1.1"
	 id="Шар_1" xmlns:sodipodi="http://sodipodi.sourceforge.net/DTD/sodipodi-0.dtd" xmlns:cc="http://creativecommons.org/ns#" xmlns:rdf="http://www.w3.org/1999/02/22-rdf-syntax-ns#" xmlns:inkscape="http://www.inkscape.org/namespaces/inkscape" xmlns:svg="http://www.w3.org/2000/svg" xmlns:dc="http://purl.org/dc/elements/1.1/" sodipodi:docname="partners.svg" inkscape:version="0.91 r13725"
	 xmlns="http://www.w3.org/2000/svg" xmlns:xlink="http://www.w3.org/1999/xlink" x="0px" y="0px" width="150.001px" height="28px"
	 viewBox="320.001 20 150.001 28" enable-background="new 320.001 20 150.001 28" xml:space="preserve">
<sodipodi:namedview  gridtolerance="10" inkscape:cy="367.284" showgrid="false" pagecolor="#ffffff" inkscape:zoom="0.20304997" borderopacity="1" inkscape:cx="687.02301" bordercolor="#666666" guidetolerance="10" objecttolerance="10" id="namedview616" inkscape:pageshadow="2" inkscape:window-height="480" inkscape:window-maximized="0" inkscape:pageopacity="0" inkscape:window-y="0" inkscape:window-width="640" inkscape:window-x="0" inkscape:current-layer="Шар_1">
	</sodipodi:namedview>
<g>
	<path fill="#878787" d="M366.8,32.377l-1.013-0.143c-2.588-0.371-3.516-1.281-3.516-2.62c0-1.509,1.069-2.591,3.009-2.591
		c1.604,0,3.037,0.484,4.584,1.511c0.142,0.085,0.282,0.057,0.395-0.086l1.35-2.106c0.113-0.171,0.085-0.285-0.056-0.399
		c-1.519-1.167-3.797-1.937-6.188-1.937c-3.937,0-6.468,2.336-6.468,5.838c0,3.217,2.081,5.012,5.765,5.524l1.013,0.142
		c2.643,0.371,3.486,1.282,3.486,2.677c0,1.623-1.321,2.79-3.6,2.79c-2.137,0-3.964-1.054-5.202-2.05
		c-0.113-0.113-0.281-0.113-0.394,0.029l-1.743,2.05c-0.113,0.142-0.058,0.312,0.056,0.427c1.49,1.424,4.218,2.563,7.031,2.563
		c4.752,0,7.199-2.563,7.199-6.008C372.509,34.655,370.483,32.889,366.8,32.377z"/>
	<path fill="#878787" d="M381.055,29.957h-1.799c-0.113,0-0.169-0.058-0.169-0.17v-3.76c0-0.17-0.112-0.284-0.281-0.284h-2.587
		c-0.169,0-0.281,0.113-0.281,0.284v3.76c0,0.113-0.057,0.17-0.169,0.17h-0.9c-0.169,0-0.28,0.113-0.28,0.285v1.906
		c0,0.171,0.111,0.286,0.28,0.286h0.9c0.113,0,0.169,0.057,0.169,0.17v7.232c0,2.676,1.04,4.015,3.768,4.015h1.351
		c0.169,0,0.281-0.114,0.281-0.285v-2.277c0-0.171-0.112-0.285-0.281-0.285h-0.703c-0.873,0-1.266-0.313-1.266-1.281v-7.119
		c0-0.114,0.057-0.17,0.169-0.17h1.799c0.169,0,0.281-0.114,0.281-0.286v-1.906C381.337,30.071,381.224,29.957,381.055,29.957z"/>
	<path fill="#878787" d="M390.026,29.643c-2.7,0-4.781,1.396-5.54,3.787c-0.281,0.883-0.45,1.965-0.45,3.389
		c0,1.425,0.197,2.479,0.479,3.36c0.759,2.392,2.783,3.815,5.651,3.816c2.504,0,4.415-0.969,5.568-2.335
		c0.112-0.144,0.112-0.285-0.028-0.399l-1.658-1.481c-0.141-0.113-0.281-0.085-0.422,0.058c-0.675,0.741-1.658,1.31-3.178,1.31
		c-1.519,0-2.586-0.741-3.036-2.079c-0.112-0.313-0.196-0.654-0.196-1.054c0-0.114,0.057-0.17,0.169-0.17h8.352
		c0.197,0,0.31-0.114,0.31-0.285c0-2.222-0.142-3.161-0.45-4.129C394.836,31.095,392.81,29.643,390.026,29.643z M392.698,35.452
		h-5.314c-0.113,0-0.169-0.058-0.169-0.172c0-0.482,0.057-0.825,0.169-1.167c0.364-1.11,1.378-1.766,2.671-1.766
		c1.265,0,2.277,0.656,2.643,1.766c0.112,0.343,0.168,0.684,0.17,1.167C392.867,35.395,392.811,35.452,392.698,35.452z"/>
	<path fill="#878787" d="M402.286,29.957h-2.587c-0.168,0-0.28,0.113-0.28,0.285v13.155c0,0.17,0.112,0.285,0.28,0.285h2.587
		c0.169,0,0.281-0.114,0.281-0.285V30.241C402.567,30.071,402.455,29.957,402.286,29.957z"/>
	<path fill="#878787" d="M402.286,24.319h-2.587c-0.168,0-0.28,0.114-0.28,0.285v2.478c0,0.171,0.112,0.285,0.28,0.285h2.587
		c0.169,0,0.281-0.114,0.281-0.285v-2.478C402.567,24.433,402.455,24.319,402.286,24.319z"/>
	<path fill="#878787" d="M413.423,29.643c-1.801,0-2.981,0.74-3.572,1.594h-0.028v-0.995c0-0.171-0.111-0.285-0.281-0.285h-2.587
		c-0.168,0-0.28,0.113-0.28,0.285v13.155c0,0.17,0.112,0.285,0.28,0.285h2.587c0.17,0,0.281-0.114,0.281-0.285v-7.916
		c0-1.765,0.956-2.99,2.587-2.99c1.688,0,2.56,1.226,2.56,2.99v7.916c0,0.17,0.111,0.285,0.28,0.285h2.589
		c0.169,0,0.28-0.114,0.28-0.285V34.74C418.118,31.808,416.318,29.643,413.423,29.643z"/>
	<path fill="#878787" d="M428.86,29.643c-1.828,0-2.953,0.684-3.6,1.623h-0.028v-6.663c0-0.171-0.112-0.285-0.281-0.285h-2.587
		c-0.168,0-0.281,0.114-0.281,0.285v18.794c0,0.17,0.113,0.285,0.281,0.285h2.587c0.169,0,0.281-0.114,0.281-0.285v-1.024h0.028
		c0.646,0.939,1.771,1.623,3.6,1.621c2.307,0,3.993-1.11,4.697-3.304c0.338-1.053,0.478-2.021,0.478-3.872
		c0-1.85-0.141-2.817-0.478-3.872C432.853,30.753,431.166,29.643,428.86,29.643z M430.548,39.382
		c-0.366,1.139-1.238,1.765-2.503,1.765c-1.294,0-2.166-0.626-2.531-1.765c-0.197-0.626-0.281-1.311-0.281-2.563
		s0.085-1.937,0.281-2.562c0.365-1.14,1.237-1.766,2.531-1.766c1.265,0,2.137,0.626,2.503,1.766c0.196,0.625,0.28,1.308,0.28,2.562
		C430.829,38.072,430.745,38.756,430.548,39.382z"/>
	<path fill="#878787" d="M442.667,29.643c-2.699,0-4.78,1.396-5.539,3.787c-0.281,0.883-0.45,1.965-0.45,3.389
		c0,1.425,0.196,2.479,0.478,3.36c0.76,2.392,2.784,3.815,5.652,3.816c2.503,0,4.415-0.969,5.567-2.335
		c0.112-0.144,0.112-0.285-0.027-0.399l-1.659-1.481c-0.14-0.113-0.28-0.085-0.421,0.058c-0.675,0.741-1.659,1.31-3.178,1.31
		c-1.52,0-2.586-0.741-3.036-2.079c-0.113-0.313-0.197-0.654-0.197-1.054c0-0.114,0.057-0.17,0.169-0.17h8.353
		c0.196,0,0.309-0.114,0.309-0.285c0-2.222-0.141-3.161-0.45-4.129C447.476,31.095,445.451,29.643,442.667,29.643z M445.34,35.452
		h-5.315c-0.113,0-0.169-0.058-0.169-0.172c0-0.482,0.057-0.825,0.169-1.167c0.365-1.11,1.378-1.766,2.671-1.766
		c1.266,0,2.278,0.656,2.644,1.766c0.112,0.343,0.168,0.684,0.17,1.167C445.509,35.395,445.452,35.452,445.34,35.452z"/>
	<path fill="#878787" d="M454.927,24.319h-2.587c-0.168,0-0.281,0.114-0.281,0.285v2.478c0,0.171,0.113,0.285,0.281,0.285h2.587
		c0.169,0,0.28-0.114,0.28-0.285v-2.478C455.208,24.433,455.096,24.319,454.927,24.319z"/>
	<path fill="#878787" d="M454.927,29.957h-2.587c-0.168,0-0.281,0.113-0.281,0.285v13.155c0,0.17,0.113,0.285,0.281,0.285h2.587
		c0.169,0,0.28-0.114,0.28-0.285V30.241C455.208,30.071,455.096,29.957,454.927,29.957z"/>
	<path fill="#878787" d="M465.81,35.338l-1.462-0.143c-1.744-0.171-2.222-0.654-2.222-1.451c0-0.826,0.702-1.425,2.053-1.425
		c1.349,0,2.699,0.541,3.543,1.14c0.141,0.085,0.281,0.085,0.394-0.058l1.378-1.68c0.084-0.114,0.084-0.285-0.056-0.398
		c-1.209-0.969-2.98-1.68-5.09-1.68c-3.375,0-5.259,1.679-5.259,4.327c0,2.335,1.405,3.759,4.162,4.043l1.462,0.142
		c1.771,0.172,2.25,0.685,2.25,1.511c0,0.938-0.845,1.623-2.503,1.623c-1.406,0-2.98-0.655-3.966-1.566
		c-0.111-0.114-0.28-0.114-0.393,0l-1.604,1.708c-0.111,0.114-0.111,0.285,0,0.399c1.125,1.054,3.037,2.164,5.822,2.163
		c3.712,0,5.681-1.907,5.681-4.642C470.001,37.103,468.65,35.622,465.81,35.338z"/>
	<path fill="#878787" d="M323.255,44.706h22.772V23.294h-22.772V44.706z M336.647,27.368c0-0.089,0.058-0.147,0.145-0.147h0.437
		c0.058,0,0.087-0.029,0.087-0.088V25.22c0-0.089,0.059-0.147,0.146-0.147h1.729c0.088,0,0.146,0.06,0.146,0.147v1.913
		c0,0.059,0.028,0.088,0.087,0.088h0.9c0.088,0,0.146,0.059,0.146,0.147v1.221c0,0.089-0.059,0.146-0.146,0.146h-0.9
		c-0.059,0-0.087,0.029-0.087,0.09v3.147c0,0.53,0.174,0.706,0.64,0.706h0.349c0.088,0,0.146,0.059,0.146,0.147v1.458
		c0,0.089-0.059,0.146-0.146,0.146h-0.77c-1.628,0-2.238-0.736-2.238-2.369v-3.236c0-0.06-0.029-0.09-0.087-0.09h-0.437
		c-0.088,0-0.145-0.059-0.145-0.146V27.368z M335.429,35.732l1.329,4.561h0.031l1.188-4.561c0.032-0.11,0.094-0.159,0.203-0.159
		h1.923c0.11,0,0.157,0.064,0.125,0.159l-2.424,7.348c-0.031,0.095-0.094,0.158-0.188,0.158h-1.563
		c-0.094,0-0.157-0.063-0.188-0.158l-1.297-4.449h-0.032l-1.328,4.449c-0.032,0.095-0.095,0.158-0.188,0.158h-1.548
		c-0.094,0-0.156-0.063-0.188-0.158l-2.424-7.348c-0.032-0.095,0.017-0.159,0.109-0.159h1.923c0.125,0,0.187,0.048,0.219,0.159
		l1.251,4.561h0.031l1.298-4.561c0.031-0.11,0.109-0.159,0.219-0.159h1.313C335.337,35.573,335.398,35.621,335.429,35.732z
		 M328.666,33.195l0.944-1.073c0.06-0.06,0.131-0.06,0.204,0c0.625,0.485,1.424,0.779,2.151,0.779c0.74,0,1.09-0.278,1.09-0.677
		c0-0.339-0.189-0.545-1.003-0.617l-0.785-0.089c-1.482-0.146-2.296-0.897-2.296-2.178c0-1.398,1.061-2.281,2.892-2.281
		c1.191,0,2.195,0.383,2.85,0.883c0.058,0.06,0.072,0.147,0.014,0.221l-0.814,1.016c-0.058,0.074-0.13,0.074-0.202,0.029
		c-0.48-0.31-1.178-0.573-1.904-0.573c-0.596,0-0.887,0.236-0.887,0.589c0,0.323,0.174,0.515,0.973,0.589l0.77,0.088
		c1.657,0.162,2.34,0.972,2.34,2.164c-0.015,1.457-1.135,2.442-3.14,2.442c-1.467-0.001-2.528-0.515-3.196-1.104
		C328.608,33.343,328.608,33.254,328.666,33.195z"/>
	<path fill="#878787" d="M320.001,48h29.279V20h-29.279V48z M321.628,21.646h26.026v24.706h-26.026V21.646z"/>
</g>
</svg>
