<?xml version="1.0" encoding="utf-8"?>
<!-- Generator: Adobe Illustrator 16.0.0, SVG Export Plug-In . SVG Version: 6.00 Build 0)  -->
<svg version="1.2" baseProfile="tiny" id="Слой_1"
	 xmlns="http://www.w3.org/2000/svg" xmlns:xlink="http://www.w3.org/1999/xlink" x="0px" y="0px" width="180px" height="180px"
	 viewBox="0 0 180 180" xml:space="preserve">
<circle fill="#FFFFFF" cx="90" cy="90" r="90"/>
<path display="none" fill="#7D7D7D" d="M92.293,137.225l-30.326-0.006c-3.896-0.347-11.264-2.748-11.264-9.375V53.675L70.285,34
	h50.734c4.067,0.116,11.684,2.41,11.684,10.265v54.387h-2.86V44.265c0-7.023-8.504-7.383-8.864-7.396H71.473l-17.91,17.994v72.981
	c0,5.444,7.865,6.432,8.602,6.512h30.128V137.225z"/>
<path display="none" fill="#2DBCA6" d="M63.937,57.766h-6.531v-2.87h6.348c0.836-0.122,8.333-1.357,8.333-6.217v-7.946h2.859v7.946
	c0,7.659-10.478,9.022-10.924,9.077L63.937,57.766z"/>
<path display="none" fill="#2DBCA6" d="M110.578,133.756c-10.061,0-18.244-8.222-18.244-18.326c0-10.107,8.184-18.328,18.244-18.328
	s18.242,8.221,18.242,18.328C128.82,125.534,120.637,133.756,110.578,133.756z M110.578,99.971c-8.482,0-15.385,6.934-15.385,15.459
	c0,8.522,6.902,15.457,15.385,15.457c8.48,0,15.383-6.935,15.383-15.457C125.961,106.904,119.061,99.971,110.578,99.971z"/>
<polygon display="none" fill="#2DBCA6" points="101.906,154 101.906,131.652 104.768,131.652 104.768,146.438 110.578,139.859 
	116.391,146.438 116.391,131.652 119.251,131.652 119.251,154 110.578,144.186 "/>
<rect x="67.19" y="64.987" display="none" fill="#7D7D7D" width="46" height="3"/>
<rect x="67.19" y="73.35" display="none" fill="#2DBCA6" width="46" height="3"/>
<rect x="67.199" y="81.704" transform="matrix(-1 0.0068 -0.0068 -1 158.967 165.867)" display="none" fill="#7D7D7D" width="24.003" height="3"/>
<rect x="67.19" y="90.075" display="none" fill="#7D7D7D" width="24" height="3"/>
<g>
	<circle display="none" fill="#FFFFFF" cx="89.5" cy="85.5" r="90"/>
	<g>
		<path fill="#7D7D7D" d="M82.86,135.9l-20.322-0.006c-3.903-0.342-11.286-2.726-11.286-9.297V53.35l19.59-19.449h50.703
			c4.075,0.115,11.707,2.39,11.707,10.176v53.698c0,0.806-0.656,1.457-1.466,1.457c-0.809,0-1.463-0.651-1.463-1.457V44.077
			c0-6.896-8.463-7.25-8.823-7.262H72.053L54.182,54.558v72.04c0,5.338,7.82,6.312,8.559,6.389h20.123
			c0.81,0,1.463,0.652,1.463,1.457C84.326,135.249,83.67,135.9,82.86,135.9z"/>
	</g>
	<path fill="#2DBCA6" d="M64.512,57.447h-6.527c-0.809,0-1.463-0.653-1.463-1.457c0-0.806,0.654-1.457,1.463-1.457h6.34
		c0.84-0.121,8.293-1.338,8.293-6.099v-7.845c0-0.805,0.654-1.457,1.463-1.457c0.812,0,1.466,0.652,1.466,1.457v7.845
		c0,7.598-10.498,8.948-10.945,9.002L64.512,57.447z"/>
	<path fill="#2DBCA6" d="M99.004,102.189c-0.746,0-1.388-0.564-1.455-1.32c-0.027-0.289-0.613-7.143,3.61-11.756
		c2.427-2.648,5.888-3.992,10.287-3.992c4.451,0,7.939,1.348,10.367,4.003c4.139,4.526,3.557,11.162,3.531,11.44
		c-0.076,0.804-0.797,1.394-1.599,1.314c-0.805-0.076-1.395-0.787-1.317-1.588c0.006-0.053,0.475-5.66-2.795-9.221
		c-1.851-2.016-4.604-3.037-8.188-3.037c-3.543,0-6.274,1.023-8.123,3.039c-3.362,3.674-2.867,9.467-2.858,9.523
		c0.073,0.803-0.519,1.512-1.324,1.586C99.096,102.188,99.051,102.189,99.004,102.189z"/>
	<path fill="#2DBCA6" d="M129.567,135.092H93.012c-1.775,0-3.224-1.389-3.224-3.098v-23.803c0-1.709,1.447-3.101,3.224-3.101h36.557
		c1.777,0,3.221,1.392,3.221,3.101v23.803C132.788,133.703,131.346,135.092,129.567,135.092z M93.012,107.93
		c-0.174,0-0.314,0.117-0.314,0.262v23.804c0,0.144,0.142,0.26,0.314,0.26h36.557c0.174,0,0.314-0.116,0.314-0.26v-23.804
		c0-0.141-0.146-0.262-0.314-0.262H93.012z"/>
	<path fill="#7D7D7D" d="M111.446,122.639c-2.772,0-5.028-2.24-5.028-4.996c0-2.754,2.258-4.996,5.028-4.996
		c2.771,0,5.027,2.242,5.027,4.996C116.475,120.398,114.221,122.639,111.446,122.639z M111.446,115.563c-1.158,0-2.1,0.935-2.1,2.08
		c0,1.148,0.94,2.082,2.1,2.082c1.156,0,2.101-0.934,2.101-2.082C113.547,116.496,112.604,115.563,111.446,115.563z"/>
	<path fill="#7D7D7D" d="M111.446,129.799c-0.809,0-1.465-0.652-1.465-1.457v-6.102c0-0.805,0.656-1.457,1.465-1.457
		c0.81,0,1.463,0.652,1.463,1.457v6.102C112.911,129.146,112.256,129.799,111.446,129.799z"/>
</g>
</svg>
