<?xml version="1.0" encoding="utf-8"?>
<!-- Generator: Adobe Illustrator 16.0.0, SVG Export Plug-In . SVG Version: 6.00 Build 0)  -->
<svg version="1.2" baseProfile="tiny" id="Слой_1"
	 xmlns="http://www.w3.org/2000/svg" xmlns:xlink="http://www.w3.org/1999/xlink" x="0px" y="0px" width="180px" height="180px"
	 viewBox="0 0 180 180" xml:space="preserve">
<circle fill="#FFFFFF" cx="90" cy="90" r="90"/>
<g>
	<path fill="#2DBCA6" d="M90.798,96.225c-0.303,0-7.466-0.117-11.674-10.264c-2.633-6.348-3.667-15.183-0.043-20.609
		c2.223-3.326,5.819-5.014,10.692-5.014l0.287,0.002c4.643,0.064,8.133,1.411,10.372,4.006c3.855,4.468,2.923,11.435,2.421,15.179
		l-0.092,0.7C102.046,85.802,97.803,96.225,90.798,96.225z M89.774,63.261c-3.837,0-6.616,1.248-8.263,3.715
		c-3.01,4.504-1.948,12.42,0.312,17.869c3.398,8.192,8.696,8.451,8.986,8.46c4.813-0.013,8.454-8.761,9.056-13.451l0.095-0.716
		c0.472-3.52,1.261-9.409-1.736-12.883c-1.67-1.934-4.43-2.94-8.201-2.991L89.774,63.261z"/>
	<path fill="#2DBCA6" d="M118.966,120.338l-2.911-0.237c0.174-2.144,0.336-8.305-0.995-11.044c-0.621-1.279-2.49-2.198-3.184-2.457
		l-12.553-3.094l-9.295,9.775l-9.174-9.856l-13.272,3.553c-0.183,0.088-1.177,0.632-2.229,2.462
		c-0.956,1.66-1.202,7.354-1.132,10.553l-2.921,0.063c-0.02-0.931-0.149-9.172,1.521-12.073c1.71-2.97,3.507-3.671,3.85-3.782
		l15.126-4.053l8.256,8.87l8.323-8.754l14.41,3.558c0.368,0.129,3.631,1.339,4.903,3.958
		C119.64,111.799,118.994,119.991,118.966,120.338z"/>
	<path fill="#7D7D7D" d="M123.026,89.681c-0.251,0-6.177-0.096-9.625-8.405c-2.14-5.16-2.971-12.354-0.007-16.791
		c1.264-1.892,3.817-4.147,8.809-4.147l0.235,0.002c3.808,0.053,6.677,1.166,8.527,3.312c3.176,3.678,2.417,9.346,2.01,12.392
		l-0.074,0.561C132.317,81.162,128.82,89.681,123.026,89.681z M122.203,63.259c-2.971,0-5.117,0.959-6.38,2.85
		c-2.353,3.521-1.506,9.751,0.276,14.049c2.634,6.347,6.689,6.593,6.939,6.604c3.378-0.017,6.428-6.343,6.965-10.528l0.076-0.577
		c0.371-2.771,0.992-7.411-1.325-10.095c-1.281-1.485-3.421-2.258-6.356-2.298L122.203,63.259z"/>
	<path fill="#7D7D7D" d="M145.893,108.74l-2.912-0.238c0.138-1.694,0.269-6.563-0.77-8.7c-0.444-0.919-1.842-1.612-2.379-1.818
		l-9.877-2.436l-7.546,7.937l-7.444-7.998l-10.54,2.821l-0.755-2.822l12.237-3.276l6.525,7.011l6.574-6.914l11.739,2.9
		c0.307,0.107,3.025,1.114,4.094,3.319C146.411,101.764,145.95,108.035,145.893,108.74z"/>
	<path fill="#7D7D7D" d="M56.972,89.681c-5.793,0-9.291-8.519-9.876-13.078l-0.074-0.562c-0.408-3.045-1.166-8.713,2.009-12.391
		c1.851-2.146,4.721-3.259,8.528-3.312l0.234-0.002c4.991,0,7.545,2.256,8.81,4.147c2.965,4.438,2.133,11.631-0.006,16.79
		C63.148,89.585,57.222,89.681,56.972,89.681z M57.794,63.259L57.6,63.262c-2.937,0.04-5.075,0.813-6.357,2.298
		c-2.317,2.684-1.696,7.323-1.325,10.095l0.076,0.577c0.537,4.186,3.588,10.512,6.965,10.527c0.25-0.01,4.307-0.256,6.94-6.604
		c1.782-4.297,2.628-10.526,0.274-14.048C62.911,64.218,60.766,63.259,57.794,63.259z"/>
	<path fill="#7D7D7D" d="M34.106,108.74c-0.059-0.705-0.52-6.977,1.054-10.215c1.069-2.204,3.787-3.211,4.093-3.319l0.136-0.04
		l11.604-2.86l6.575,6.914l6.524-7.011l12.236,3.276l-0.756,2.822l-10.539-2.821l-7.444,7.998l-7.546-7.937l-9.878,2.436
		c-0.531,0.203-1.932,0.898-2.378,1.816c-1.041,2.145-0.909,7.009-0.77,8.702L34.106,108.74z"/>
</g>
</svg>
