<?xml version="1.0" encoding="utf-8"?>
<!-- Generator: Adobe Illustrator 16.0.0, SVG Export Plug-In . SVG Version: 6.00 Build 0)  -->
<svg version="1.2" baseProfile="tiny" id="Слой_1"
	 xmlns="http://www.w3.org/2000/svg" xmlns:xlink="http://www.w3.org/1999/xlink" x="0px" y="0px" width="100px" height="99.999px"
	 viewBox="0 0 100 99.999" xml:space="preserve">
<circle fill="#D7DADF" cx="50" cy="50" r="50"/>
<circle fill="#FFFFFF" cx="50" cy="50" r="49"/>
<g>
	<path fill="none" stroke="#2DBCA6" stroke-miterlimit="10" d="M76.907,62.197c0.404-1.58,0.641-3.226,0.641-4.933
		s-0.236-3.354-0.641-4.934h-3.203c-0.299-0.97-0.689-1.896-1.15-2.78l2.273-2.295c-1.684-2.877-4.063-5.278-6.912-6.978
		l-2.271,2.295c-0.877-0.466-1.795-0.86-2.756-1.163v-3.232c-1.564-0.407-3.195-0.646-4.887-0.646c-1.689,0-3.322,0.239-4.887,0.647
		v3.232c-0.96,0.302-1.878,0.697-2.753,1.163l-2.273-2.295c-2.848,1.699-5.227,4.102-6.91,6.978l2.273,2.295
		c-0.461,0.884-0.854,1.811-1.152,2.78h-3.203c-0.402,1.58-0.641,3.227-0.641,4.934s0.238,3.354,0.641,4.933h3.203
		c0.299,0.971,0.691,1.897,1.152,2.781l-2.273,2.295c1.684,2.877,4.063,5.278,6.91,6.978l2.273-2.296
		c0.877,0.467,1.795,0.861,2.753,1.163v3.233c1.564,0.407,3.197,0.646,4.887,0.646c1.691,0,3.322-0.239,4.887-0.646v-3.233
		c0.961-0.301,1.881-0.696,2.756-1.163l2.271,2.296c2.85-1.699,5.229-4.102,6.912-6.978l-2.273-2.295
		c0.461-0.884,0.854-1.811,1.15-2.781L76.907,62.197L76.907,62.197z"/>
	<ellipse fill="none" stroke="#2DBCA6" stroke-miterlimit="10" cx="58" cy="57.264" rx="11.453" ry="11.564"/>
	<path fill="#2DBCA6" d="M32.64,43.234c0-6.098,4.914-11.06,10.953-11.06c3.039,0,5.789,1.256,7.777,3.279l0.706-0.713
		c-2.167-2.206-5.168-3.575-8.483-3.575c-6.59,0-11.953,5.413-11.953,12.068c0,3.345,1.357,6.375,3.541,8.563l0.707-0.714
		C33.884,49.078,32.64,46.302,32.64,43.234z"/>
	<path fill="#2DBCA6" d="M35.806,57.362l-2.201,2.224c-2.516-1.57-4.649-3.726-6.205-6.265l2.257-2.277l-0.172-0.329
		c-0.464-0.892-0.84-1.798-1.116-2.696l-0.109-0.354h-3.18c-0.354-1.495-0.533-2.983-0.533-4.429c0-1.444,0.18-2.932,0.533-4.429
		h3.18l0.109-0.354c0.276-0.898,0.652-1.806,1.116-2.694l0.172-0.328L27.4,33.151c1.556-2.539,3.689-4.694,6.205-6.264l2.258,2.277
		l0.324-0.173c0.881-0.469,1.779-0.848,2.67-1.127l0.352-0.109v-3.211c2.955-0.713,5.813-0.715,8.775-0.001v3.21l0.35,0.109
		c0.893,0.28,1.791,0.659,2.67,1.127l0.326,0.173l2.255-2.277c2.516,1.569,4.65,3.725,6.205,6.264l-2.252,2.274h1.412l2.096-2.117
		l-0.197-0.337c-1.723-2.943-4.172-5.416-7.088-7.155l-0.334-0.198l-2.289,2.312c-0.713-0.361-1.436-0.667-2.158-0.913v-3.257
		l-0.375-0.099c-3.379-0.879-6.656-0.88-10.023,0.001l-0.375,0.098v3.257c-0.723,0.246-1.445,0.552-2.16,0.913l-2.289-2.312
		l-0.334,0.198c-2.914,1.738-5.365,4.212-7.086,7.155l-0.197,0.337l2.289,2.311c-0.356,0.722-0.66,1.451-0.903,2.181h-3.227
		l-0.097,0.378c-0.437,1.706-0.657,3.408-0.657,5.059c0,1.652,0.221,3.355,0.657,5.059l0.097,0.378h3.227
		c0.242,0.729,0.547,1.46,0.903,2.181l-2.289,2.311l0.197,0.337c1.722,2.943,4.172,5.416,7.086,7.155l0.334,0.198l2.047-2.065
		v-1.425H35.806L35.806,57.362z"/>
</g>
</svg>
