<?xml version="1.0" encoding="utf-8"?>
<!-- Generator: Adobe Illustrator 16.0.0, SVG Export Plug-In . SVG Version: 6.00 Build 0)  -->
<svg version="1.2" baseProfile="tiny" id="Слой_1"
	 xmlns="http://www.w3.org/2000/svg" xmlns:xlink="http://www.w3.org/1999/xlink" x="0px" y="0px" width="180px" height="180px"
	 viewBox="0 0 180 180" xml:space="preserve">
<circle fill="#FFFFFF" cx="90" cy="90" r="90"/>
<g>
	<path fill="#7D7D7D" d="M115.124,140.999c-6.689,0-9.058-5.678-9.376-8.679c-0.084-0.801,0.496-1.518,1.296-1.602
		c0.805-0.088,1.517,0.493,1.603,1.292c0.072,0.631,0.86,6.075,6.478,6.075c5.531,0,5.925-5.365,5.95-5.977
		c0.035-0.803,0.717-1.39,1.515-1.396c0.802,0.031,1.427,0.703,1.398,1.505C123.881,135.255,121.891,140.999,115.124,140.999z"/>
	<path fill="#7D7D7D" d="M67.177,140.999c-6.69,0-9.059-5.678-9.376-8.68c-0.084-0.8,0.496-1.517,1.296-1.601
		c0.801-0.088,1.516,0.493,1.602,1.291c0.072,0.632,0.859,6.076,6.479,6.076c5.531,0,5.924-5.364,5.95-5.977
		c0.035-0.803,0.726-1.39,1.514-1.396c0.802,0.031,1.428,0.703,1.398,1.505C75.933,135.255,73.942,140.999,67.177,140.999z"/>
	<path fill="#2DBCA6" d="M128.683,132.499H55.785c-3.854-0.103-11.071-2.189-11.071-9.352v-8.928c0-0.805,0.651-1.457,1.457-1.457
		c0.805,0,1.457,0.653,1.457,1.457v8.928c0,6.146,7.861,6.429,8.196,6.439l72.858-0.001c2.896,0,4.871-1.183,6.034-3.613
		c0.932-1.948,0.955-3.973,0.955-3.994V50.163c0-6.658-6.214-8.077-7.116-8.248H56.044c-7.889,0-8.402,7.493-8.421,7.813l0.002,8.07
		c0,0.805-0.651,1.457-1.456,1.457c-0.806,0-1.457-0.653-1.457-1.457v-8.153c0.209-3.736,2.843-10.645,11.333-10.645h72.749
		l0.109,0.017c3.35,0.513,9.684,3.503,9.684,11.146v71.82C138.587,125.62,136.517,132.499,128.683,132.499z"/>
	<path fill="#2DBCA6" d="M46.139,93.37c-0.806,0-1.457-0.652-1.457-1.457V79.749c0-0.804,0.651-1.456,1.457-1.456
		c0.805,0,1.457,0.652,1.457,1.456v12.164C47.596,92.718,46.943,93.37,46.139,93.37z"/>
	<path fill="#7D7D7D" d="M54.156,76.619H39.603c-1.663,0-3.016-1.35-3.016-3.009v-9.447c0-1.659,1.353-3.01,3.016-3.01h14.553
		c1.663,0,3.017,1.351,3.017,3.01l0.001,9.447C57.173,75.27,55.819,76.619,54.156,76.619z M39.603,64.067
		c-0.056,0-0.103,0.043-0.103,0.096v9.447c0,0.052,0.047,0.095,0.103,0.095h14.554c0.056,0,0.103-0.043,0.103-0.095l-0.001-9.447
		c0-0.053-0.047-0.096-0.103-0.096H39.603z"/>
	<path fill="#7D7D7D" d="M54.156,110.511H39.603c-1.663,0-3.016-1.351-3.016-3.01v-9.447c0-1.66,1.353-3.01,3.016-3.01h14.553
		c1.663,0,3.017,1.35,3.017,3.01l0.001,9.447C57.173,109.16,55.819,110.511,54.156,110.511z M39.603,97.958
		c-0.056,0-0.103,0.044-0.103,0.097v9.447c0,0.053,0.047,0.096,0.103,0.096h14.554c0.056,0,0.103-0.043,0.103-0.096l-0.001-9.447
		c0-0.053-0.047-0.097-0.103-0.097H39.603z"/>
	<path fill="#2DBCA6" d="M91.889,109.378c-12.841,0-23.288-10.407-23.288-23.198s10.447-23.198,23.288-23.198
		s23.287,10.407,23.287,23.198S104.729,109.378,91.889,109.378z M91.889,65.896c-11.234,0-20.373,9.099-20.373,20.283
		s9.139,20.283,20.373,20.283c11.233,0,20.373-9.1,20.373-20.283C112.262,74.994,103.122,65.896,91.889,65.896z"/>
	<path fill="#2DBCA6" d="M91.889,69.954c-0.806,0-1.457-0.652-1.457-1.457V58.403c0-0.804,0.651-1.457,1.457-1.457
		c0.805,0,1.457,0.653,1.457,1.457v10.094C93.346,69.303,92.693,69.954,91.889,69.954z"/>
	<path fill="#7D7D7D" d="M91.889,84.138c-0.806,0-1.457-0.653-1.457-1.457v-6.403c0-0.805,0.651-1.457,1.457-1.457
		c0.805,0,1.457,0.653,1.457,1.457v6.403C93.346,83.484,92.693,84.138,91.889,84.138z"/>
	<path fill="#7D7D7D" d="M89.229,85.141c-0.372,0-0.744-0.142-1.028-0.425l-4.547-4.528c-0.57-0.567-0.572-1.49-0.004-2.06
		s1.49-0.573,2.061-0.005l4.548,4.528c0.569,0.567,0.571,1.49,0.004,2.061C89.977,84.996,89.602,85.141,89.229,85.141z"/>
	<path fill="#7D7D7D" d="M88.058,87.723h-6.432c-0.805,0-1.457-0.653-1.457-1.457c0-0.805,0.652-1.457,1.457-1.457h6.432
		c0.805,0,1.457,0.653,1.457,1.457C89.516,87.069,88.862,87.723,88.058,87.723z"/>
	<path fill="#7D7D7D" d="M84.518,94.9c-0.374,0-0.748-0.143-1.033-0.429c-0.568-0.57-0.566-1.493,0.004-2.061l4.547-4.527
		c0.571-0.569,1.493-0.565,2.062,0.004c0.567,0.57,0.565,1.493-0.004,2.06l-4.547,4.528C85.261,94.76,84.889,94.9,84.518,94.9z"/>
	<path fill="#7D7D7D" d="M91.657,97.942c-0.805,0-1.457-0.653-1.457-1.457v-6.404c0-0.804,0.652-1.456,1.457-1.456
		c0.806,0,1.457,0.652,1.457,1.456v6.404C93.114,97.289,92.463,97.942,91.657,97.942z"/>
	<path fill="#7D7D7D" d="M98.865,95.063c-0.372,0-0.744-0.141-1.028-0.425l-4.547-4.528c-0.569-0.567-0.571-1.49-0.004-2.06
		c0.568-0.57,1.49-0.572,2.062-0.004l4.547,4.527c0.57,0.567,0.572,1.49,0.004,2.061C99.613,94.92,99.238,95.063,98.865,95.063z"/>
	<path fill="#7D7D7D" d="M101.918,87.952h-6.431c-0.805,0-1.457-0.652-1.457-1.457c0-0.804,0.652-1.457,1.457-1.457h6.431
		c0.806,0,1.457,0.653,1.457,1.457C103.376,87.301,102.724,87.952,101.918,87.952z"/>
	<path fill="#7D7D7D" d="M94.482,85.303c-0.374,0-0.748-0.144-1.033-0.43c-0.567-0.569-0.565-1.492,0.004-2.06L98,78.285
		c0.571-0.567,1.493-0.565,2.062,0.004c0.568,0.57,0.566,1.493-0.004,2.061l-4.547,4.528C95.227,85.16,94.854,85.303,94.482,85.303z
		"/>
	<path fill="#7D7D7D" d="M91.817,91.687c-3.007,0-5.453-2.439-5.453-5.438c0-2.997,2.446-5.436,5.453-5.436s5.453,2.438,5.453,5.436
		C97.27,89.247,94.823,91.687,91.817,91.687z M91.817,83.729c-1.4,0-2.539,1.131-2.539,2.522c0,1.391,1.139,2.521,2.539,2.521
		s2.539-1.132,2.539-2.521C94.356,84.86,93.217,83.729,91.817,83.729z"/>
</g>
</svg>
