<?xml version="1.0" encoding="utf-8"?>
<!-- Generator: Adobe Illustrator 16.0.0, SVG Export Plug-In . SVG Version: 6.00 Build 0)  -->
<svg version="1.2" baseProfile="tiny" id="Шар_1"
	 xmlns="http://www.w3.org/2000/svg" xmlns:xlink="http://www.w3.org/1999/xlink" x="0px" y="0px" width="36.802px" height="43.2px"
	 viewBox="498 560 36.802 43.2" xml:space="preserve">
<g>
	<path fill="#B3B3B3" d="M500.673,574.024c-1.478,0-2.673,1.18-2.673,2.637v11.078c0,1.457,1.195,2.638,2.673,2.638
		c1.476,0,2.672-1.181,2.672-2.638v-11.078C503.344,575.204,502.148,574.024,500.673,574.024z"/>
	<path fill="#B3B3B3" d="M532.13,574.024c-1.478,0-2.673,1.18-2.677,2.637v11.078c0.004,1.457,1.199,2.638,2.677,2.638
		c1.473,0,2.672-1.181,2.672-2.638v-11.078C534.802,575.204,533.602,574.024,532.13,574.024z"/>
	<path fill="#B3B3B3" d="M504.438,574.485h-0.133v17.383c0,1.453,1.203,2.638,2.672,2.638h2.253v6.062
		c0,1.453,1.196,2.633,2.672,2.633c1.478,0,2.672-1.18,2.672-2.633v-6.062h3.649v6.058c0,1.457,1.199,2.637,2.672,2.637
		c1.476,0,2.671-1.18,2.675-2.637v-6.058h2.25c1.473,0,2.676-1.188,2.676-2.638v-17.383H504.438z"/>
	<path fill="#B3B3B3" d="M510.898,567.102c0.629,0,1.137,0.5,1.137,1.121c0,0.618-0.512,1.121-1.137,1.121
		c-0.628,0-1.136-0.503-1.136-1.121C509.762,567.602,510.27,567.102,510.898,567.102z M521.902,567.102
		c0.629,0,1.137,0.5,1.137,1.121c0,0.618-0.508,1.121-1.137,1.121s-1.136-0.503-1.136-1.121
		C520.766,567.602,521.273,567.102,521.902,567.102z M528.473,573.563v-1.273c-0.035-0.359-0.09-0.715-0.164-1.063
		c-0.661-3.093-2.848-5.715-5.848-7.234l1.844-3.358c0.117-0.207,0.035-0.47-0.176-0.579c-0.212-0.113-0.474-0.035-0.587,0.172
		l-1.87,3.398c-1.586-0.672-3.367-1.051-5.25-1.051c-1.896,0-3.692,0.383-5.289,1.066l-1.875-3.414
		c-0.113-0.211-0.379-0.289-0.591-0.175c-0.211,0.112-0.288,0.375-0.176,0.582l1.856,3.375c-2.86,1.46-4.974,3.925-5.724,6.839
		c-0.194,0.758-0.301,1.543-0.301,2.352c0,0.121,0.004,0.242,0.008,0.363H528.473L528.473,573.563z"/>
</g>
</svg>
