<?xml version="1.0" encoding="utf-8"?>
<!-- Generator: Adobe Illustrator 16.0.0, SVG Export Plug-In . SVG Version: 6.00 Build 0)  -->
<svg version="1.2" baseProfile="tiny" id="Шар_1"
	 xmlns="http://www.w3.org/2000/svg" xmlns:xlink="http://www.w3.org/1999/xlink" x="0px" y="0px" width="132.987px" height="36px"
	 viewBox="478.039 800.001 132.987 36" xml:space="preserve">
<g>
	<polygon fill="#B3B3B3" points="529.26,823.507 519.26,810.339 517.156,810.339 517.156,826.701 519.156,826.701 519.156,813.403 
		529.156,826.701 531.26,826.701 531.26,810.339 529.26,810.339 	"/>
	<path fill="#B3B3B3" d="M534.403,818.286c0,5.688,2.961,8.52,8.883,8.52c1.508,0,2.936-0.26,4.261-0.753v-6.779h-2.104v5.481
		c-0.856,0.182-1.636,0.285-2.338,0.285c-4.39,0-6.597-2.26-6.597-6.805c0-4.208,2.233-6.338,6.701-6.338
		c1.479,0,2.935,0.26,4.338,0.805v-1.817c-1.403-0.442-2.936-0.675-4.571-0.675C537.26,810.208,534.403,812.909,534.403,818.286z"/>
	<path fill="#B3B3B3" d="M562.429,820.39c0,3.143-1.584,4.727-4.701,4.727c-3.143,0-4.701-1.584-4.701-4.727v-10.052h-2.104v10.052
		c0,4.286,2.26,6.442,6.805,6.442s6.805-2.156,6.805-6.442v-10.052h-2.104V820.39z"/>
	<polygon fill="#B3B3B3" points="570.403,810.339 568.3,810.339 568.3,826.701 578.975,826.701 578.975,824.987 570.403,824.987 	
		"/>
	<polygon fill="#B3B3B3" points="579.806,826.701 582.013,826.701 587.858,812.442 590.924,819.844 586.794,819.844 
		586.221,821.558 591.625,821.558 593.728,826.701 596.065,826.701 587.936,808.182 	"/>
	<path fill="#B3B3B3" d="M605.416,818.987c3.039-1.013,4.571-2.597,4.571-4.727c0-2.623-1.558-3.922-4.675-3.922h-6.987v16.363
		h2.156v-14.597h4.675c1.74,0,2.598,0.753,2.598,2.26c0,1.922-1.584,3.117-4.701,3.61v1.377l5.194,7.351h2.779L605.416,818.987z"/>
	<path fill="#B3B3B3" d="M478.039,805.974l2.571,22.156l14.183,7.87l14.416-7.975l2.778-22.156l-17.194-5.869L478.039,805.974z
		 M505.702,827.481l-3.714-0.078l-2.286-5.299h-4.883h-4.441l-2.104,5.247l-3.896,0.078l10.441-23.222L505.702,827.481z"/>
	<polygon fill="#B3B3B3" points="495,819.039 498.378,819.039 494.845,811.662 491.755,819.039 494.819,819.039 	"/>
</g>
</svg>
