<?xml version="1.0" encoding="utf-8"?>
<!-- Generator: Adobe Illustrator 16.0.0, SVG Export Plug-In . SVG Version: 6.00 Build 0)  -->
<svg version="1.2" baseProfile="tiny" id="Шар_1"
	 xmlns="http://www.w3.org/2000/svg" xmlns:xlink="http://www.w3.org/1999/xlink" x="0px" y="0px" width="41.856px"
	 height="36.799px" viewBox="259.202 730 41.856 36.799" xml:space="preserve">
<g>
	<polygon fill="#B3B3B3" points="300.264,747.972 300.259,747.972 300.264,747.976 	"/>
	<path fill="#B3B3B3" d="M277.565,739.449c0-1.207-0.977-2.184-2.179-2.184c-1.207,0-2.185,0.98-2.185,2.184
		s0.978,2.185,2.185,2.185C276.593,741.634,277.565,740.656,277.565,739.449z M274.112,738.48c0-0.433,0.57-0.789,1.274-0.789
		c0.698,0,1.269,0.356,1.269,0.789c0,0.438-0.57,0.793-1.269,0.793C274.682,739.273,274.112,738.919,274.112,738.48z"/>
	<path fill="#B3B3B3" d="M300.257,747.972h0.002c-2.161-2.068-12.918-3.359-16.311-3.734c0.164-0.387,0.305-0.793,0.422-1.203
		c0.461-0.203,0.961-0.395,1.48-0.551c0.063,0.188,0.359,0.899,0.527,1.238c6.832,0.188,7.184-5.078,7.461-6.52
		c0.27-1.409,0.259-2.773,2.602-5.266c-3.492-1.015-8.511,1.574-10.191,5.438c-0.633-0.234-1.27-0.409-1.895-0.52
		c-0.449-1.813-2.789-6.855-8.922-6.855c-3.969,0-7.977,1.641-10.992,4.5c-1.621,1.544-2.895,3.371-3.785,5.441
		c-0.965,2.235-1.453,4.692-1.453,7.309c0,9.121,6.223,17.109,9.738,17.109c1.535,0,2.859-1.152,3.168-2.18
		c0.262,0.707,1.059,2.907,1.321,3.461c0.386,0.828,2.175,1.543,2.961,0.684c1.007,0.563,2.854,0.895,3.862-0.598
		c1.941,0.41,3.656-0.746,3.691-2.129c0.953-0.046,1.422-1.386,1.211-2.453c-0.152-0.781-1.789-3.597-2.43-4.566
		c1.266,1.031,4.469,1.32,4.855,0c2.039,1.599,5.22,0.763,5.47-0.543c2.476,0.645,5.319-0.77,4.851-2.48
		C301.886,753.281,301.374,749.048,300.257,747.972z M287.081,742.57c-0.227-0.5-0.461-1.328-0.434-1.815
		c0.387-0.009,1.133,0.136,1.25,0.164c-0.047,0.229-0.07,0.729-0.07,0.797c0.074-0.125,0.281-0.563,0.363-0.739
		c0.746,0.145,1.727,0.383,2.301,0.649C289.815,742.062,288.671,742.535,287.081,742.57z M294.444,732.871
		c-2.09,1.898-1.304,5.684-3.066,7.927l-0.523-0.489c-0.539-0.504-1.093-0.957-1.672-1.363c0.859-1.699,1.934-3.559,3.293-4.703
		c-1.496,0.602-2.977,2.402-3.848,4.332c-0.445-0.28-0.902-0.535-1.355-0.754C288.491,735.216,291.327,733.039,294.444,732.871z
		 M289.901,740.957c-1.051-0.413-2.379-0.672-3.309-0.672c-1.32,0-2.129,0.746-3.37,0.746c-0.263,0-0.888,0.004-1.388-0.176
		c0.332,0.348,0.738,0.531,1.531,0.531c0.473,0,1.414-0.242,2.172-0.469c0.008,0.16,0.027,0.316,0.051,0.477
		c-1.422,0.34-2.918,1.242-3.352,1.48c-0.961-2.125-0.133-4.133,0.629-5.055C286.288,737.828,289.054,740.177,289.901,740.957z
		 M297.929,750.992c-0.521,0.849-1.707,1.453-3.493,1.035c0.965,1.313-0.91,2.896-3.523,2.024c0.574,1.292-1.75,2.453-4.395,1.108
		c0.036,1.293-3.277,1.441-4.589,0.013c0.026,0.168,0.183,0.496,0.25,0.636c-0.423,3.778-3.513,6.118-6.677,6.118
		c-7.754,0-14.504-6.297-14.504-14.672c0-8.856,6.543-15.461,14.438-15.461c4.52,0,6.563,3.562,6.984,4.909
		c-2.727,2.766-1.652,6.266-0.656,7.849c-1.414,2.351-4.195,3.957-7.422,4.69c3.625,0,5.758-0.934,6.996-1.844
		c0.793-0.586,1.223-1.16,1.441-1.479c5.371,0.347,13.879,2.077,14.711,2.64c0.332,0.223,0.676,0.719,0.727,1.196
		c-4.035-0.563-11.316-1.161-13.223-1.259C286.35,748.687,296.218,750.558,297.929,750.992z"/>
</g>
</svg>
