<?xml version="1.0" encoding="utf-8"?>
<!-- Generator: Adobe Illustrator 16.0.0, SVG Export Plug-In . SVG Version: 6.00 Build 0)  -->
<svg version="1.2" baseProfile="tiny" id="Шар_1"
	 xmlns="http://www.w3.org/2000/svg" xmlns:xlink="http://www.w3.org/1999/xlink" x="0px" y="0px" width="93.234px"
	 height="30.397px" viewBox="459.202 660.001 93.234 30.397" xml:space="preserve">
<g>
	<path fill="#B3B3B3" d="M467.051,673.332c-0.34,0.199-1.286,0.621-2.25-0.098c-0.618-0.457-0.59-1.562-0.414-2.101
		C465.547,671.785,466.604,672.656,467.051,673.332z M462.706,671.242c-0.065,0.595,0.309,1.138,0.309,1.138
		c0.04-0.446,0.133-0.763,0.243-0.985c0.022,0.61,0.183,1.399,0.754,2.028c0.41,0.453,2.108,1.382,3.25,0.358
		c0.062,0.148,0.125,0.316,0.175,0.504c0.172,0.609-0.156,1.5-0.156,1.5s0.892-1.012,0.82-1.93c0.641-0.026,1.27-0.5,1.254-1.16
		c0,0-1.117,0.617-2.104-0.519c-0.574-0.665-2.423-2.497-4.927-1.887c0.258,0.058,0.527,0.144,0.802,0.245c0,0-0.005,0-0.005,0.005
		C462.879,670.644,462.741,670.945,462.706,671.242z"/>
	<path fill="#B3B3B3" d="M468.551,684.847h-1.743c-0.324,0-0.484,0.094-0.563,0.172c-0.108,0.114-0.129,0.27-0.051,0.469
		c0.207,0.527,0.676,0.957,0.813,1.078c0.179,0.156,0.44,0.246,0.694,0.246c0.263,0,0.496-0.094,0.656-0.261
		c0.446-0.481,0.707-0.993,0.771-1.149c0.039-0.09,0.077-0.262-0.052-0.394C468.975,684.902,468.797,684.847,468.551,684.847z"/>
	<path fill="#B3B3B3" d="M476.518,671.134c0.176,0.539,0.204,1.644-0.414,2.101c-0.964,0.719-1.91,0.297-2.246,0.099
		C474.301,672.656,475.362,671.785,476.518,671.134z M473.526,673.664c1.137,1.212,2.946,0.227,3.367-0.241
		c0.571-0.634,0.731-1.418,0.758-2.028c0.106,0.223,0.199,0.539,0.239,0.981c0,0,0.378-0.539,0.308-1.138
		c-0.03-0.293-0.168-0.594-0.41-0.699c-0.004-0.004-0.004-0.004-0.008-0.004c0.277-0.102,0.547-0.188,0.802-0.246
		c-2.505-0.609-4.349,1.223-4.927,1.888c-0.983,1.136-2.101,0.519-2.101,0.519C471.526,673.613,472.758,674.169,473.526,673.664z"/>
	<path fill="#B3B3B3" d="M474.1,684.847h-1.746c-0.246,0-0.422,0.055-0.523,0.161c-0.129,0.132-0.09,0.304-0.055,0.394
		c0.067,0.156,0.328,0.672,0.774,1.149c0.16,0.171,0.39,0.265,0.655,0.261c0.255,0,0.517-0.09,0.695-0.246
		c0.137-0.121,0.606-0.551,0.813-1.078c0.078-0.199,0.058-0.354-0.052-0.469C474.581,684.941,474.426,684.847,474.1,684.847z"/>
	<path fill="#B3B3B3" d="M470.448,671.144c0.004,0,0.004,0,0.004,0h0.004c0.759-0.008,1.613-1.058,1.613-1.058
		c-0.59,0.354-1.113,0.479-1.617,0.491c-0.504-0.012-1.026-0.137-1.616-0.491C468.836,670.087,469.694,671.136,470.448,671.144z"/>
	<path fill="#B3B3B3" d="M479.768,684.023c-0.453,0.754-1.195,1.258-2.019,1.528h-0.082c0,0.007-0.005,0.015-0.005,0.026
		c-0.434,0.134-0.891,0.203-1.34,0.211c0.267-0.793,0.188-1.43-0.237-1.891c-0.028-0.031-0.056-0.058-0.086-0.086
		c-0.109-0.144-0.255-0.347-0.414-0.597c1.608-0.071,3.762-0.653,4.405-2.696C480.288,680.812,480.491,682.841,479.768,684.023z
		 M475.147,688.234c0.325-0.461,0.586-0.969,0.809-1.488c0.435-0.034,0.855-0.09,1.263-0.176
		C476.836,687.173,476.179,687.876,475.147,688.234z M470.452,689.578c-3.586-0.004-4.637-2.723-5.026-3.844
		c-0.22-0.621-0.2-1.082,0.05-1.371c0.168-0.194,0.563-0.426,1.457-0.426h0.938c0.691-0.004,1.56-0.004,2.586-0.004
		c1.023,0,1.892,0,2.582,0.004h0.935c0.897,0,1.289,0.231,1.46,0.426c0.25,0.289,0.266,0.75,0.051,1.371
		C475.094,686.855,474.043,689.574,470.452,689.578z M463.625,686.558c0.426,0.09,0.87,0.153,1.327,0.188
		c0.228,0.535,0.496,1.059,0.836,1.531C464.679,687.91,464,687.164,463.625,686.558z M461.136,684.023
		c-0.719-1.183-0.521-3.211-0.224-3.504c0.648,2.043,2.798,2.625,4.41,2.696c-0.16,0.25-0.309,0.453-0.418,0.597
		c-0.026,0.028-0.058,0.059-0.082,0.086c-0.43,0.461-0.508,1.098-0.242,1.891C463.245,685.765,461.847,685.195,461.136,684.023z
		 M462.522,675.433c-0.16-0.093-0.328-0.183-0.5-0.277c-0.879-0.477-1.789-0.969-1.789-1.809c0-0.66,0.254-0.867,0.524-1.086
		l0.03-0.023c0.043-0.035,0.087-0.069,0.13-0.104c-0.056,0.429-0.113,0.793-0.16,0.886c0,0,0.718-0.894,0.933-2.633
		c0.082-0.688-0.065-2.039-0.304-2.559c0.011,0.293,0,0.582-0.021,0.855c-0.022-0.05-0.047-0.093-0.073-0.129
		c-0.192-0.238-0.703-1.039-0.556-1.578c0.056-0.207,0.185-0.355,0.396-0.465c0.222-0.113,0.522-0.171,0.894-0.171
		c0.728,0,1.531,0.222,1.949,0.351c1.485,0.473,3.282,1.836,3.793,2.242c0.016,0.012,0.024,0.016,0.028,0.02l0.328,0.227
		l-0.207-0.343c-0.013-0.021-1.134-1.864-3.149-2.763c0.118-0.172,0.434-0.48,1.278-0.895c1.269-0.621,2.754-0.938,4.405-0.938
		c1.652,0.004,3.134,0.316,4.402,0.938c0.844,0.414,1.16,0.723,1.282,0.895c-2.021,0.898-3.137,2.742-3.153,2.763l-0.203,0.343
		l0.328-0.227c0.004-0.004,0.013-0.012,0.028-0.02c0.511-0.406,2.308-1.77,3.793-2.242c0.418-0.133,1.222-0.351,1.949-0.351
		c0.371,0,0.672,0.054,0.894,0.171c0.211,0.105,0.34,0.258,0.399,0.465c0.144,0.539-0.367,1.34-0.556,1.578
		c-0.026,0.036-0.055,0.079-0.077,0.129c-0.021-0.273-0.031-0.563-0.021-0.855c-0.238,0.52-0.386,1.871-0.304,2.556
		c0.215,1.742,0.933,2.632,0.933,2.632c-0.047-0.089-0.104-0.457-0.16-0.882c0.043,0.035,0.091,0.069,0.129,0.104l0.031,0.023
		c0.271,0.219,0.528,0.426,0.528,1.082c0,0.844-0.911,1.336-1.793,1.813c-0.168,0.094-0.336,0.185-0.5,0.277
		c-0.512,0.297-1.067,0.993-1.129,2.032c-0.051,0.866,0.054,2.961,0.203,4.5c-0.738,0.289-1.582,0.382-2.353,0.405
		c-0.121-0.246-0.229-0.508-0.324-0.78c-0.038-0.118-1.159-3.032-1.562-3.696c0.32,2.313,1.039,4.375,1.39,5.321
		c-0.203-0.028-0.433-0.048-0.69-0.048c0,0-2.461,0-3.461,0h-0.009c-0.995,0-3.456,0-3.456,0c-0.263,0-0.488,0.02-0.695,0.048
		c0.354-0.946,1.07-3.005,1.394-5.321c-0.401,0.664-1.522,3.578-1.562,3.696c-0.094,0.272-0.207,0.534-0.328,0.78
		c-0.771-0.023-1.614-0.116-2.353-0.405c0.152-1.539,0.255-3.634,0.203-4.5C463.59,676.427,463.034,675.73,462.522,675.433z
		 M465.254,664.501c-0.156-0.324-0.492-0.813-1.224-1.328c-0.492-0.349-1.082-0.532-1.703-0.532c-0.219,0-0.401,0.023-0.547,0.051
		c-0.19-0.133-0.39-0.238-0.574-0.32c0.281-0.116,0.813-0.297,1.466-0.297c0.358,0,0.711,0.056,1.043,0.164
		c1.062,0.34,1.875,1.375,2.237,1.91c-0.094,0.043-0.188,0.082-0.28,0.129C465.522,664.351,465.383,664.427,465.254,664.501z
		 M463.133,665.578c-0.2-0.262-0.231-0.625-0.267-1.008c-0.03-0.367-0.062-0.746-0.258-1.059c-0.043-0.066-0.09-0.128-0.136-0.191
		c0.44,0.021,0.828,0.156,1.156,0.414c0.472,0.379,0.715,1.055,0.801,1.34c-0.289,0.246-0.489,0.478-0.625,0.66
		C463.604,665.679,463.375,665.626,463.133,665.578z M477.163,662.156c1.188-0.387,2.281-0.02,2.75,0.22
		c-0.202,0.081-0.434,0.194-0.663,0.34c-0.149-0.036-0.384-0.075-0.669-0.075c-0.62,0-1.211,0.184-1.702,0.532
		c-0.731,0.515-1.067,1.004-1.224,1.328c-0.129-0.074-0.269-0.149-0.418-0.224c-0.121-0.059-0.242-0.113-0.362-0.164
		C475.229,663.587,476.065,662.511,477.163,662.156z M477.1,665.734c-0.132-0.183-0.332-0.414-0.625-0.66
		c0.086-0.284,0.329-0.961,0.805-1.34c0.349-0.276,0.767-0.418,1.246-0.418c0.008,0,0.017,0.004,0.021,0.004
		c-0.063,0.074-0.121,0.152-0.177,0.238c-0.184,0.293-0.215,0.664-0.245,1.02c-0.031,0.363-0.06,0.707-0.228,0.98
		C477.608,665.605,477.336,665.673,477.1,665.734z M479.768,678.841c-0.14,1.058-0.769,2.003-1.457,2.593
		c-0.179-1.347-0.218-3.293-0.218-3.703c0-0.871,0.562-1.453,0.722-1.547c0.153-0.086,0.317-0.175,0.492-0.269
		c1.067-0.574,2.395-1.285,2.395-2.599c0-0.961-0.551-1.375-0.914-1.651c-0.047-0.035-0.09-0.067-0.129-0.099
		c-0.121-0.101-0.219-0.18-0.254-0.258c-0.258-0.582-0.211-2.035-0.101-2.234c0.035-0.039,0.992-1.241,0.699-2.323
		c-0.121-0.442-0.41-0.789-0.836-1.013c-0.337-0.168-0.755-0.258-1.242-0.266c-0.017-0.265-0.138-0.535-0.11-0.836
		c0.024-0.289,0.047-0.559,0.141-0.707c0.523-0.832,1.767-1.082,1.777-1.086l0.578-0.113l-0.382-0.453
		c-0.051-0.059-1.633-1.569-4.079-0.776c-1.382,0.444-2.472,1.754-2.867,2.28c-0.211-0.065-0.426-0.129-0.644-0.184
		c-0.254-0.941,0.522-2.293,0.522-2.293s-0.801-0.175-1.992,0.907c-0.155-0.388-0.479-1.22-0.105-2.211
		c-1.746,0.616-2.188,1.562-2.316,2.414c-0.448-0.321-0.401-1.367-0.426-1.638c-0.445,0.056-1.726,1.301-1.668,2.871
		c-0.117,0.031-0.234,0.067-0.347,0.103c-0.383-0.521-1.489-1.867-2.926-2.332c-0.481-0.157-0.957-0.235-1.427-0.235
		c-1.723,0-2.733,1.028-2.746,1.039l-0.479,0.563l0.726,0.145c0.013,0.004,1.22,0.258,1.72,1.047
		c0.086,0.133,0.104,0.391,0.129,0.668c0.015,0.164-0.021,0.324-0.056,0.481c-0.022,0.112-0.047,0.233-0.055,0.351
		c-0.449,0.016-0.843,0.102-1.156,0.266c-0.426,0.22-0.715,0.566-0.836,1.009c-0.293,1.082,0.664,2.284,0.699,2.323
		c0.11,0.199,0.157,1.652-0.101,2.234c-0.035,0.082-0.134,0.16-0.255,0.258c-0.038,0.031-0.082,0.067-0.129,0.099
		c-0.362,0.276-0.914,0.694-0.914,1.651c0,1.313,1.328,2.024,2.396,2.599c0.175,0.094,0.343,0.183,0.492,0.269
		c0.16,0.094,0.722,0.676,0.722,1.551c0,0.406-0.039,2.353-0.218,3.703c-0.685-0.59-1.317-1.535-1.457-2.597
		c0,0-1.731,1.339-1.224,4.207c0.298,1.679,1.285,2.651,2.609,3.183c0.387,0.992,1.614,2.778,4.16,3.012
		c0.86,0.703,2.043,1.156,3.766,1.156h0.009c1.726,0,2.909-0.457,3.766-1.156c2.449-0.233,3.679-1.948,4.113-2.995
		c1.347-0.524,2.354-1.5,2.659-3.203C481.504,680.179,479.768,678.841,479.768,678.841z"/>
	<path fill="#B3B3B3" d="M498.038,669.712c-0.348-0.211-0.737-0.396-1.159-0.548c-0.418-0.152-0.879-0.273-1.375-0.359
		s-1.028-0.132-1.586-0.132c-1.087,0-2.082,0.164-2.966,0.483c-0.887,0.32-1.651,0.777-2.276,1.359
		c-0.629,0.578-1.118,1.282-1.457,2.082c-0.336,0.801-0.508,1.688-0.508,2.641c0,0.938,0.18,1.816,0.53,2.617
		c0.353,0.801,0.849,1.5,1.47,2.082c0.616,0.582,1.358,1.047,2.207,1.375c0.844,0.328,1.772,0.496,2.762,0.496
		c0.546,0,1.062-0.023,1.535-0.074c0.476-0.055,0.929-0.137,1.354-0.246c0.422-0.108,0.828-0.254,1.207-0.426
		c0.375-0.172,0.742-0.383,1.09-0.621c0.063-0.043,0.099-0.113,0.099-0.19v-5.235c0-0.129-0.103-0.23-0.231-0.23h-4.69
		c-0.13,0-0.231,0.102-0.231,0.23v2.094c0,0.129,0.102,0.234,0.231,0.234h1.687v1.484c-0.234,0.082-0.479,0.152-0.738,0.207
		c-0.309,0.063-0.672,0.099-1.073,0.099c-0.524,0-1.013-0.09-1.453-0.263c-0.435-0.172-0.817-0.426-1.129-0.75
		c-0.321-0.327-0.571-0.734-0.755-1.215c-0.18-0.479-0.273-1.043-0.273-1.672c0-0.565,0.086-1.082,0.25-1.539
		c0.165-0.457,0.398-0.848,0.7-1.168c0.297-0.32,0.664-0.574,1.09-0.75c0.429-0.176,0.917-0.266,1.46-0.266
		c0.297,0,0.571,0.012,0.805,0.04c0.235,0.026,0.461,0.069,0.672,0.128s0.418,0.137,0.621,0.23c0.211,0.099,1.195,0.656,1.426,0.785
		c0.152,0.086,0.25,0.094,0.355-0.055l1.328-1.938c0.066-0.094,0.051-0.227-0.035-0.305
		C498.702,670.152,498.386,669.923,498.038,669.712"/>
	<path fill="#B3B3B3" d="M509.729,676.863c-0.144-0.223-0.316-0.418-0.515-0.574c-0.063-0.051-0.125-0.098-0.192-0.141
		c0.271-0.125,0.521-0.272,0.746-0.433c0.344-0.254,0.645-0.543,0.883-0.864c0.242-0.324,0.426-0.679,0.547-1.058
		s0.185-0.785,0.185-1.211c0-0.56-0.106-1.082-0.31-1.56c-0.211-0.479-0.547-0.906-1-1.258c-0.448-0.343-1.03-0.617-1.729-0.808
		c-0.688-0.192-1.532-0.285-2.5-0.285h-4.293c-0.129,0-0.235,0.104-0.235,0.229v12.402c0,0.129,0.106,0.23,0.235,0.23h3.058
		c0.129,0,0.235-0.102,0.235-0.23v-4.355h0.547c0.242,0,0.374,0.039,0.44,0.074c0.091,0.047,0.173,0.137,0.246,0.254l2.195,3.603
		c0.266,0.437,0.703,0.655,1.301,0.655h2.781c0.125,0,0.231-0.102,0.231-0.23c0-0.066-0.028-0.128-0.074-0.168L509.729,676.863z
		 M507.815,673.476c-0.074,0.203-0.187,0.375-0.347,0.528c-0.164,0.151-0.375,0.272-0.637,0.362
		c-0.267,0.091-0.599,0.138-0.988,0.138h-1v-3.216h1c0.729,0,1.272,0.138,1.604,0.41c0.324,0.263,0.481,0.621,0.481,1.095
		C507.929,673.039,507.89,673.269,507.815,673.476z"/>
	<path fill="#B3B3B3" d="M525.12,668.673h-3.059c-0.129,0-0.23,0.104-0.23,0.233v7.345c0,0.409-0.059,0.776-0.168,1.093
		c-0.105,0.313-0.262,0.579-0.461,0.79c-0.198,0.21-0.444,0.378-0.733,0.492c-0.59,0.229-1.442,0.229-2.032,0
		c-0.289-0.114-0.535-0.282-0.734-0.496c-0.198-0.216-0.354-0.485-0.461-0.793c-0.108-0.317-0.164-0.685-0.164-1.095v-7.336
		c0-0.129-0.104-0.233-0.233-0.233h-3.06c-0.129,0-0.233,0.104-0.233,0.233v7.345c0,0.784,0.136,1.519,0.405,2.179
		c0.273,0.664,0.668,1.247,1.181,1.727c0.507,0.478,1.136,0.855,1.862,1.117c0.724,0.266,1.548,0.399,2.453,0.399
		c0.898,0,1.72-0.134,2.441-0.399c0.727-0.262,1.352-0.64,1.864-1.117c0.511-0.479,0.909-1.063,1.183-1.727
		c0.274-0.66,0.41-1.395,0.41-2.179v-7.345C525.354,668.777,525.25,668.673,525.12,668.673"/>
	<path fill="#B3B3B3" d="M539.543,668.673h-2.695c-0.129,0-0.235,0.104-0.235,0.233v6.563c0,0.195,0.008,0.402,0.021,0.625
		l-5.806-6.898c-0.094-0.104-0.18-0.19-0.25-0.254c-0.086-0.074-0.176-0.129-0.27-0.168c-0.089-0.039-0.195-0.066-0.304-0.082
		c-0.099-0.012-0.224-0.015-0.367-0.015h-1.61c-0.129,0-0.229,0.101-0.229,0.229v12.398c0,0.129,0.101,0.234,0.229,0.234h2.699
		c0.125,0,0.23-0.105,0.23-0.234v-6.645c0-0.164-0.004-0.34-0.016-0.523l5.762,6.84c0.177,0.211,0.363,0.36,0.563,0.442
		c0.192,0.077,0.422,0.12,0.684,0.12h1.595c0.129,0,0.233-0.105,0.233-0.234v-12.398
		C539.776,668.777,539.672,668.673,539.543,668.673"/>
	<path fill="#B3B3B3" d="M552.206,668.673h-10.483c-0.129,0-0.235,0.104-0.235,0.233v2.281c0,0.125,0.106,0.231,0.235,0.231h3.479
		v9.886c0,0.129,0.103,0.23,0.23,0.23h3.063c0.125,0,0.23-0.102,0.23-0.23v-9.886h3.48c0.13,0,0.23-0.106,0.23-0.231v-2.281
		C552.436,668.777,552.336,668.673,552.206,668.673"/>
</g>
</svg>
