<?xml version="1.0" encoding="utf-8"?>
<!-- Generator: Adobe Illustrator 16.0.0, SVG Export Plug-In . SVG Version: 6.00 Build 0)  -->
<svg version="1.2" baseProfile="tiny" id="Шар_1"
	 xmlns="http://www.w3.org/2000/svg" xmlns:xlink="http://www.w3.org/1999/xlink" x="0px" y="0px" width="36.802px"
	 height="68.801px" viewBox="426 560.001 36.802 68.801" xml:space="preserve">
<g>
	<path fill="#B3B3B3" d="M438.169,596.496c0,0-1.794,1.048,1.276,1.402c3.719,0.426,5.621,0.367,9.719-0.414
		c0,0,1.078,0.68,2.582,1.271C442.559,602.712,430.949,598.523,438.169,596.496z"/>
	<path fill="#B3B3B3" d="M437.044,591.328c0,0-2.013,1.496,1.062,1.816c3.973,0.414,7.11,0.449,12.543-0.601
		c0,0,0.75,0.765,1.93,1.183C441.469,596.992,429.094,593.98,437.044,591.328z"/>
	<path fill="#B3B3B3" d="M446.509,582.562c2.265,2.625-0.595,4.981-0.595,4.981s5.75-2.985,3.113-6.72
		c-2.468-3.483-4.358-5.215,5.879-11.184C454.906,569.64,438.837,573.673,446.509,582.562z"/>
	<path fill="#B3B3B3" d="M458.664,600.316c0,0,1.328,1.103-1.461,1.953c-5.305,1.614-22.078,2.102-26.737,0.063
		c-1.672-0.73,1.465-1.745,2.453-1.961c1.03-0.227,1.62-0.184,1.62-0.184c-1.862-1.32-12.043,2.59-5.168,3.711
		C448.105,606.949,463.523,602.519,458.664,600.316z"/>
	<path fill="#B3B3B3" d="M439.031,585.976c0,0-8.535,2.035-3.022,2.778c2.328,0.312,6.965,0.237,11.285-0.125
		c3.53-0.297,7.077-0.938,7.077-0.938s-1.246,0.539-2.144,1.156c-8.668,2.289-25.403,1.223-20.586-1.117
		C435.716,585.751,439.031,585.976,439.031,585.976z"/>
	<path fill="#B3B3B3" d="M454.337,594.574c8.809-4.602,4.733-9.02,1.891-8.426c-0.696,0.149-1.004,0.274-1.004,0.274
		s0.257-0.407,0.75-0.582c5.625-1.989,9.949,5.858-1.813,8.968C454.16,594.808,454.298,594.683,454.337,594.574z"/>
	<path fill="#B3B3B3" d="M449.027,560.001c0,0,4.875,4.905-4.629,12.444c-7.621,6.051-1.738,9.5-0.003,13.445
		c-4.45-4.035-7.711-7.589-5.524-10.895C442.087,570.144,450.992,567.789,449.027,560.001z"/>
	<path fill="#B3B3B3" d="M439.895,607.044c8.453,0.543,21.437-0.302,21.746-4.325c0,0-0.594,1.523-6.989,2.734
		c-7.214,1.367-16.117,1.207-21.394,0.332C433.259,605.785,434.341,606.683,439.895,607.044z"/>
	<path fill="#B3B3B3" d="M462.634,614.294l-0.259,0.683h-0.116l-0.254-0.683H462v0.683h-0.168v-0.867h0.25l0.234,0.613l0.235-0.613
		h0.25v0.867h-0.164L462.634,614.294z M461.25,614.255h-0.258v-0.146h0.696v0.146h-0.258v0.722h-0.181V614.255L461.25,614.255z"/>
	<path fill="#B3B3B3" d="M440.712,624.902v-7.726c0-1.974-1.121-3.278-3.82-3.278c-1.575,0-2.957,0.396-4.079,0.891l0.325,1.371
		c0.883-0.328,2.026-0.629,3.147-0.629c1.556,0,2.228,0.629,2.228,1.93v0.977h-0.778c-3.777,0-5.484,1.473-5.484,3.688
		c0,1.91,1.125,2.996,3.238,2.996c1.36,0,2.375-0.566,3.324-1.391l0.172,1.172H440.712L440.712,624.902z M438.512,622.406
		c-0.797,0.695-1.642,1.086-2.399,1.086c-1.078,0-1.66-0.648-1.66-1.69c0-1.129,0.625-1.954,3.134-1.954h0.926V622.406z"/>
	<path fill="#B3B3B3" d="M448.055,624.902h-2.746l-3.305-10.805h2.397l2.051,6.641l0.453,1.996c1.035-2.887,1.771-5.815,2.138-8.637
		h2.331C450.755,617.656,449.63,621.562,448.055,624.902z"/>
	<path fill="#B3B3B3" d="M460.785,624.902v-7.726c0-1.974-1.125-3.278-3.819-3.278c-1.578,0-2.957,0.396-4.078,0.891l0.319,1.371
		c0.888-0.328,2.031-0.629,3.152-0.629c1.555,0,2.228,0.629,2.228,1.93v0.977h-0.777c-3.782,0-5.485,1.473-5.485,3.688
		c0,1.91,1.121,2.996,3.238,2.996c1.36,0,2.372-0.566,3.325-1.391l0.172,1.172H460.785L460.785,624.902z M458.587,622.406
		c-0.802,0.695-1.646,1.086-2.398,1.086c-1.079,0-1.665-0.648-1.665-1.69c0-1.129,0.629-1.954,3.133-1.954h0.93L458.587,622.406
		L458.587,622.406z"/>
	<path fill="#B3B3B3" d="M429.837,626.738c-0.625,0.922-1.642,1.652-2.75,2.063l-1.087-1.29c0.845-0.434,1.566-1.136,1.906-1.793
		c0.289-0.582,0.41-1.332,0.41-3.128v-12.336h2.34v12.168C430.656,624.82,430.466,625.794,429.837,626.738z"/>
</g>
</svg>
