<?xml version="1.0" encoding="utf-8"?>
<!-- Generator: Adobe Illustrator 16.0.0, SVG Export Plug-In . SVG Version: 6.00 Build 0)  -->
<svg version="1.2" baseProfile="tiny" id="Шар_1"
	 xmlns="http://www.w3.org/2000/svg" xmlns:xlink="http://www.w3.org/1999/xlink" x="0px" y="0px" width="51.201px"
	 height="48.309px" viewBox="547.2 730 51.201 48.309" xml:space="preserve">
<g>
	<path fill="#B3B3B3" d="M551.065,770.591c-0.144,0-0.293,0.007-0.44,0.022c-1.021,0.117-1.938,0.625-2.582,1.435
		c-0.642,0.808-0.935,1.815-0.817,2.839c0.223,1.95,1.872,3.422,3.832,3.422c0.145,0,0.293-0.007,0.442-0.027
		c1.019-0.112,1.937-0.621,2.581-1.43c0.642-0.808,0.931-1.816,0.816-2.84C554.676,772.058,553.026,770.591,551.065,770.591z"/>
	<path fill="#B3B3B3" d="M598.245,751.332c-0.668-5.898-3.487-11.316-7.938-15.262c-4.414-3.914-10.074-6.07-15.938-6.07
		c-0.905,0-1.827,0.055-2.733,0.156c-13.176,1.5-22.676,13.438-21.176,26.613c0.668,5.895,3.487,11.317,7.937,15.262
		c4.418,3.914,10.075,6.07,15.938,6.07c0.905,0,1.827-0.054,2.733-0.156C590.245,776.445,599.745,764.509,598.245,751.332z
		 M561.456,746.347h0.352v5.743c0,1.246,1.262,1.918,2.454,1.918c1.187,0,2.453-0.677,2.453-1.931v-5.73h0.347v5.739
		c0,1.101-0.98,2.272-2.8,2.272c-1.36,0-2.806-0.801-2.806-2.285V746.347z M559.836,755.304h-1.653v7.254h1.653v0.34h-3.646v-0.34
		h1.653v-7.254h-1.653v-0.328h3.646V755.304z M560.143,750.902c0,2.109-1.445,3.367-3.867,3.367h-0.086v-0.347h0.086
		c2.207,0,3.528-1.129,3.528-3.021v-4.226h-2.396v-0.329h2.734V750.902z M573.241,762.886L573.241,762.886h-1.129v-5.574
		l-2.069,3.074h-0.646l-2.07-3.074v5.586h-1.207l-4.987-7.215v7.215h-0.353v-7.949l0.289,0.02l5.021,7.258v-7.261h0.34v0.003h0.679
		l2.617,3.848l2.61-3.844h0.905V762.886L573.241,762.886z M573.386,753.324c-0.508,0.633-1.422,1.023-2.388,1.023
		c-1.219,0-2.586-0.691-2.723-1.972l-0.022-0.164l0.347-0.043l0.023,0.163c0.117,1.091,1.316,1.677,2.388,1.677
		c0.847,0,1.647-0.336,2.086-0.879c0.324-0.399,0.437-0.896,0.324-1.435c-0.22-1.022-1.259-1.125-2.36-1.233
		c-1.281-0.13-2.609-0.263-2.718-1.871c-0.047-0.497,0.086-0.966,0.382-1.356c0.48-0.621,1.344-0.992,2.305-0.992
		c1.106,0,2.32,0.547,2.551,1.763l0.02,0.172l-0.336,0.065l-0.023-0.18c-0.062-0.308-0.194-0.57-0.397-0.793
		c-0.403-0.433-1.071-0.683-1.825-0.683h-0.05c-0.828,0.015-1.563,0.331-1.961,0.854c-0.25,0.309-0.36,0.688-0.325,1.125
		c0.094,1.324,1.23,1.434,2.434,1.555c1.172,0.113,2.379,0.234,2.652,1.504C573.905,752.259,573.772,752.847,573.386,753.324z
		 M573.929,746.687v-0.351h5.707v0.351h-2.685v7.617h-0.34v-7.617H573.929z M578.432,756.113h-1.472v5.629h1.472v1.145h-4.082
		v-1.145h1.469v-5.629h-1.469v-1.133h4.082V756.113z M585.315,762.886L585.315,762.886h-0.902l-3.823-5.531v5.531h-1.142v-7.925
		l0.884,0.011l3.854,5.575v-5.575h1.129V762.886L585.315,762.886z M589.397,762.886h-2.836v-7.906h2.836
		c2.59,0,3.891,1.981,3.891,3.961C593.288,760.919,591.987,762.886,589.397,762.886z"/>
	<path fill="#B3B3B3" d="M589.397,756.126h-1.695v5.616h1.695c1.832,0,2.762-1.401,2.762-2.801
		C592.159,757.539,591.229,756.126,589.397,756.126z"/>
</g>
</svg>
