<?xml version="1.0" encoding="utf-8"?>
<!-- Generator: Adobe Illustrator 16.0.0, SVG Export Plug-In . SVG Version: 6.00 Build 0)  -->
<svg version="1.2" baseProfile="tiny" id="Шар_1"
	 xmlns="http://www.w3.org/2000/svg" xmlns:xlink="http://www.w3.org/1999/xlink" x="0px" y="0px" width="134.566px"
	 height="37.999px" viewBox="640.858 794.384 134.566 37.999" xml:space="preserve">
<g>
	<path fill="#B3B3B3" d="M774.496,813.249l-8.922-5.151c-0.279-0.16-0.6-0.228-0.928-0.228s-0.646,0.068-0.928,0.228l-8.922,5.151
		c-0.577,0.332-0.929,0.962-0.929,1.63v10.286c0,0.668,0.352,1.296,0.929,1.629l2.33,1.345c1.132,0.558,1.549,0.549,2.064,0.549
		c1.676,0,2.633-1.017,2.633-2.784v-10.152c0-0.145-0.124-0.246-0.265-0.246h-1.118c-0.143,0-0.265,0.103-0.265,0.246v10.152
		c0,0.783-0.816,1.571-2.142,0.909l-2.425-1.421c-0.086-0.047-0.151-0.129-0.151-0.228v-10.285c0-0.099,0.064-0.197,0.151-0.246
		l8.903-5.134c0.083-0.048,0.183-0.048,0.265,0l8.903,5.134c0.085,0.051,0.152,0.146,0.152,0.246v10.285
		c0,0.099-0.05,0.199-0.134,0.246l-8.922,5.134c-0.077,0.045-0.182,0.045-0.265,0l-2.292-1.364c-0.068-0.04-0.161-0.037-0.228,0
		c-0.633,0.358-0.752,0.399-1.345,0.605c-0.146,0.052-0.368,0.13,0.076,0.379l2.993,1.763c0.285,0.165,0.602,0.246,0.928,0.246
		c0.33,0,0.643-0.081,0.928-0.246l8.922-5.133c0.577-0.336,0.929-0.961,0.929-1.63v-10.285
		C775.425,814.211,775.073,813.583,774.496,813.249z"/>
	<path fill="#B3B3B3" d="M767.393,823.535c-2.358,0-2.876-0.589-3.05-1.762c-0.021-0.126-0.117-0.227-0.246-0.227h-1.155
		c-0.142,0-0.265,0.122-0.265,0.265c0,1.501,0.816,3.277,4.717,3.277c2.823,0,4.451-1.108,4.451-3.051
		c0-1.925-1.315-2.44-4.055-2.803c-2.767-0.366-3.03-0.545-3.03-1.193c0-0.534,0.224-1.25,2.272-1.25
		c1.831,0,2.507,0.396,2.785,1.63c0.024,0.115,0.127,0.208,0.246,0.208h1.155c0.07,0,0.14-0.044,0.188-0.096
		c0.048-0.055,0.083-0.115,0.076-0.188c-0.179-2.126-1.596-3.126-4.451-3.126c-2.541,0-4.054,1.081-4.054,2.879
		c0,1.951,1.502,2.486,3.94,2.728c2.916,0.286,3.144,0.715,3.144,1.288C770.063,823.11,769.269,823.535,767.393,823.535z"/>
	<path fill="#B3B3B3" d="M718.104,797.585l-5.626-3.145c-0.088-0.049-0.186-0.058-0.284-0.057l0,0
		c-0.098,0.001-0.197,0.024-0.284,0.076c-0.174,0.102-0.283,0.289-0.283,0.491v14.491c0,0.143-0.066,0.271-0.189,0.341
		c-0.123,0.072-0.274,0.072-0.398,0l-2.367-1.363c-0.354-0.203-0.784-0.203-1.138,0l-9.452,5.454
		c-0.353,0.204-0.567,0.597-0.567,1.005v10.911c0,0.407,0.215,0.78,0.567,0.984l9.452,5.455c0.354,0.204,0.783,0.204,1.138,0
		l9.451-5.455c0.354-0.204,0.568-0.577,0.568-0.984v-27.201C718.692,798.175,718.467,797.786,718.104,797.585z M711.607,822.19
		c0,0.102-0.063,0.196-0.152,0.246l-3.238,1.875c-0.088,0.05-0.196,0.05-0.284,0l-3.239-1.875c-0.088-0.051-0.152-0.145-0.152-0.246
		v-3.751c0-0.102,0.064-0.195,0.152-0.246l3.239-1.875c0.044-0.024,0.083-0.038,0.133-0.038l0,0c0.049,0,0.107,0.013,0.152,0.038
		l3.238,1.875c0.089,0.051,0.152,0.146,0.152,0.246L711.607,822.19L711.607,822.19z"/>
	<path fill="#B3B3B3" d="M661.467,813.591l-9.452-5.455c-0.16-0.094-0.33-0.125-0.511-0.133h-0.114
		c-0.181,0.007-0.351,0.039-0.511,0.133l-9.452,5.455c-0.353,0.204-0.568,0.573-0.568,0.984l0.019,14.643
		c0,0.204,0.105,0.393,0.284,0.493c0.177,0.104,0.394,0.104,0.568,0l5.606-3.221c0.355-0.211,0.588-0.578,0.588-0.984v-6.838
		c0-0.408,0.215-0.782,0.567-0.985l2.388-1.383c0.178-0.104,0.368-0.151,0.567-0.151c0.195,0,0.396,0.048,0.568,0.151l2.387,1.383
		c0.354,0.203,0.568,0.577,0.568,0.985v6.838c0,0.406,0.233,0.775,0.587,0.984l5.606,3.221c0.177,0.104,0.395,0.104,0.568,0
		c0.174-0.101,0.284-0.289,0.284-0.493l0.019-14.643C662.035,814.165,661.821,813.795,661.467,813.591z"/>
	<path fill="#B3B3B3" d="M746.291,813.741l-9.395-5.455c-0.177-0.103-0.371-0.15-0.568-0.151l0,0c-0.197,0-0.391,0.05-0.567,0.151
		l-9.452,5.455c-0.354,0.204-0.568,0.577-0.568,0.985v10.911c0,0.41,0.231,0.782,0.587,0.984l9.377,5.343
		c0.347,0.197,0.77,0.213,1.118,0.019l5.684-3.163c0.18-0.1,0.302-0.287,0.303-0.492c0.001-0.206-0.106-0.39-0.284-0.491
		l-9.509-5.455c-0.178-0.103-0.303-0.308-0.303-0.512v-3.41c0-0.203,0.127-0.391,0.303-0.491l2.955-1.705
		c0.176-0.103,0.392-0.103,0.567,0l2.955,1.705c0.178,0.102,0.284,0.289,0.284,0.491v2.69c0,0.204,0.108,0.391,0.284,0.492
		c0.177,0.102,0.392,0.102,0.568,0l5.663-3.296c0.353-0.204,0.568-0.578,0.568-0.985v-2.633
		C746.859,814.32,746.643,813.946,746.291,813.741z"/>
	<path fill="#B3B3B3" d="M689.804,813.667l-9.452-5.438c-0.176-0.102-0.371-0.152-0.568-0.152c-0.196,0-0.392,0.051-0.567,0.152
		l-9.452,5.438c-0.354,0.203-0.568,0.596-0.568,1.004v10.91c0,0.408,0.215,0.781,0.568,0.985l9.452,5.455
		c0.353,0.204,0.783,0.204,1.137,0l9.452-5.455c0.353-0.204,0.567-0.577,0.567-0.985v-10.91
		C690.373,814.262,690.158,813.87,689.804,813.667z"/>
	<path fill="#B3B3B3" d="M736.403,817.833c-0.034-0.02-0.057-0.019-0.095-0.019s-0.08,0-0.114,0.019l-1.817,1.062
		c-0.068,0.039-0.114,0.111-0.114,0.188v2.084c0,0.078,0.045,0.15,0.114,0.189l1.817,1.042c0.068,0.039,0.142,0.039,0.208,0
		l1.818-1.042c0.066-0.039,0.114-0.111,0.114-0.189v-2.084c0-0.077-0.047-0.149-0.114-0.188L736.403,817.833z"/>
</g>
</svg>
