<?xml version="1.0" encoding="utf-8"?>
<!-- Generator: Adobe Illustrator 16.0.0, SVG Export Plug-In . SVG Version: 6.00 Build 0)  -->
<!DOCTYPE svg PUBLIC "-//W3C//DTD SVG 1.1//EN" "http://www.w3.org/Graphics/SVG/1.1/DTD/svg11.dtd">
<svg version="1.1"
	 id="Шар_1" xmlns:sodipodi="http://sodipodi.sourceforge.net/DTD/sodipodi-0.dtd" xmlns:cc="http://creativecommons.org/ns#" xmlns:rdf="http://www.w3.org/1999/02/22-rdf-syntax-ns#" xmlns:inkscape="http://www.inkscape.org/namespaces/inkscape" xmlns:svg="http://www.w3.org/2000/svg" xmlns:dc="http://purl.org/dc/elements/1.1/" sodipodi:docname="partners.svg" inkscape:version="0.91 r13725"
	 xmlns="http://www.w3.org/2000/svg" xmlns:xlink="http://www.w3.org/1999/xlink" x="0px" y="0px" width="72px" height="38px"
	 viewBox="10 360 72 38" enable-background="new 10 360 72 38" xml:space="preserve">
<sodipodi:namedview  gridtolerance="10" inkscape:cy="367.284" showgrid="false" pagecolor="#ffffff" inkscape:zoom="0.20304997" borderopacity="1" inkscape:cx="687.02301" bordercolor="#666666" guidetolerance="10" objecttolerance="10" id="namedview616" inkscape:pageshadow="2" inkscape:window-height="480" inkscape:window-maximized="0" inkscape:pageopacity="0" inkscape:window-y="0" inkscape:window-width="640" inkscape:window-x="0" inkscape:current-layer="Шар_1">
	</sodipodi:namedview>
<g>
	<path fill="#adadad" d="M71.292,365.445C64.525,361.934,55.543,360,46,360s-18.523,1.935-25.292,5.444
		C13.803,369.028,10,373.842,10,379s3.805,9.973,10.708,13.556C27.475,396.066,36.457,398,46,398s18.525-1.935,25.292-5.444
		C78.197,388.972,82,384.158,82,379S78.197,369.028,71.292,365.445z M46,396.666c-19.11,0-34.661-7.924-34.661-17.665
		S26.888,361.335,46,361.335c19.112,0,34.66,7.924,34.661,17.665C80.661,388.741,65.112,396.666,46,396.666z"/>
	<path fill="#adadad" d="M33.416,370.316h-8.954l-3.872,19.539h4.6l0.968-5.064h4.356c4.112,0.242,8.712-3.137,8.712-8.925
		C39.224,372.487,37.288,370.557,33.416,370.316z M30.029,381.171h-2.904l1.21-7.236h3.146c1.692,0,2.902,0.725,2.902,2.171
		C34.143,380.206,32.206,380.93,30.029,381.171z"/>
	<path fill="#adadad" d="M49.63,370.316h-4.354l0.968-5.064h-4.598l-3.872,19.539h4.597l2.178-10.854h3.632
		c1.692,0,1.692,0.724,1.45,1.93l-1.692,8.926h4.84l1.694-9.891C54.954,372.487,53.501,370.558,49.63,370.316z"/>
	<path fill="#adadad" d="M65.843,370.316H56.89l-3.872,19.539h4.598l0.968-5.064h4.356c4.114,0.242,8.712-3.137,8.712-8.925
		C71.651,372.487,69.715,370.557,65.843,370.316z M62.455,381.171h-2.904l1.212-7.236h3.146c1.694,0,2.904,0.725,2.904,2.171
		C66.569,380.206,64.633,380.93,62.455,381.171z"/>
</g>
</svg>
