<?xml version="1.0" encoding="utf-8"?>
<!-- Generator: Adobe Illustrator 16.0.0, SVG Export Plug-In . SVG Version: 6.00 Build 0)  -->
<!DOCTYPE svg PUBLIC "-//W3C//DTD SVG 1.1//EN" "http://www.w3.org/Graphics/SVG/1.1/DTD/svg11.dtd">
<svg version="1.1" id="Шар_1" xmlns="http://www.w3.org/2000/svg" xmlns:xlink="http://www.w3.org/1999/xlink" x="0px" y="0px"
	 width="120px" height="22.229px" viewBox="137.666 870.001 120 22.229" enable-background="new 137.666 870.001 120 22.229"
	 xml:space="preserve">
<g>
	<path fill="#B3B3B3" d="M145.275,872.695l-7.609,0.026v15.273l1.538-0.023l-0.014-6.497h5.659c1.419,0,2.535-0.389,3.351-1.167
		s1.222-1.854,1.222-3.229l0.001,0.012c0-1.374-0.365-2.45-1.099-3.229C147.601,873.085,146.585,872.695,145.275,872.695z
		 M144.506,880.267h-5.315v-6.36l5.604,0.024c2.049,0,3.075,1.07,3.077,3.209C147.869,879.224,146.748,880.267,144.506,880.267z"/>
	<path fill="#B3B3B3" d="M155.122,877.615c-1.73,0-3.067,0.522-4.011,1.566c-0.853,0.934-1.277,2.198-1.277,3.791
		c0,1.584,0.44,2.866,1.319,3.846c0.485,0.522,1.048,0.907,1.688,1.154c0.65,0.239,1.41,0.356,2.28,0.356
		c1.822,0,3.21-0.513,4.162-1.538c0.853-0.916,1.277-2.188,1.277-3.818c0-1.64-0.431-2.916-1.291-3.832
		C158.336,878.123,156.953,877.615,155.122,877.615z M159.228,882.971c0,0.678-0.078,1.272-0.233,1.786
		c-0.156,0.513-0.397,0.947-0.728,1.305c-0.688,0.797-1.735,1.195-3.146,1.195c-1.272,0-2.253-0.386-2.938-1.154
		c-0.679-0.778-1.017-1.822-1.017-3.132c0-0.668,0.087-1.264,0.262-1.786c0.183-0.531,0.443-0.98,0.782-1.346
		c0.705-0.761,1.677-1.141,2.912-1.141C157.859,878.7,159.228,880.123,159.228,882.971L159.228,882.971z"/>
	<path fill="#B3B3B3" d="M169.892,882.963c-0.494-0.257-1.406-0.457-2.733-0.604c-1.483-0.183-2.431-0.348-2.843-0.494
		c-0.705-0.266-1.059-0.705-1.059-1.318c0-0.659,0.262-1.146,0.783-1.456c0.522-0.319,1.314-0.481,2.376-0.481
		c2.088,0,3.132,0.783,3.132,2.349h1.36c0-2.225-1.483-3.338-4.45-3.338c-0.742,0-1.396,0.061-1.964,0.179
		c-0.559,0.109-1.025,0.271-1.4,0.48c-0.761,0.504-1.141,1.269-1.141,2.294c0,1.053,0.426,1.781,1.277,2.185
		c0.394,0.183,1.387,0.393,2.98,0.632c1.603,0.229,2.478,0.374,2.623,0.438c0.724,0.284,1.085,0.802,1.085,1.553
		c0,1.291-1.081,1.937-3.241,1.937c-1.374,0-2.33-0.229-2.871-0.687c-0.504-0.386-0.755-0.98-0.755-1.786l-1.429,0.023
		c0.056,0.604,0.174,1.113,0.357,1.525c0.183,0.403,0.43,0.728,0.742,0.975c0.402,0.33,0.925,0.567,1.565,0.714
		c0.65,0.147,1.447,0.22,2.391,0.22c3.086,0,4.629-1.03,4.629-3.091v-0.011C171.306,884.147,170.835,883.401,169.892,882.963z"/>
	<path fill="#B3B3B3" d="M177.07,887.033c-0.101,0.024-0.192,0.024-0.275,0.024c-0.576,0-0.979-0.096-1.209-0.288
		c-0.22-0.192-0.33-0.54-0.33-1.044v-6.744l2.28,0.024v-1.044l-2.28,0.023v-3.324h-1.305l-0.014,3.311h-1.689v1.029h1.703v6.937
		c0,0.815,0.206,1.387,0.618,1.717c0.412,0.319,1.085,0.481,2.019,0.481c0.073,0,0.192-0.002,0.357-0.026
		c0.174-0.019,0.371-0.051,0.591-0.096l0.001-0.032l-0.014-1.044C177.322,886.982,177.171,887.01,177.07,887.033z"/>
	<path fill="#B3B3B3" d="M188.216,877.947h-1.305l-0.014,1.731c-0.577-0.705-0.989-1.149-1.236-1.332
		c-0.732-0.485-1.68-0.729-2.843-0.729c-1.703,0-3.003,0.468-3.901,1.401c-0.852,0.852-1.276,2.083-1.276,3.695
		c0,0.806,0.104,1.524,0.315,2.155c0.22,0.623,0.536,1.154,0.948,1.595c0.896,0.896,2.166,1.346,3.805,1.346
		c1.97,0,3.365-0.646,4.189-1.937l0.014,1.785c0,1.146-0.302,2.028-0.907,2.651c-0.595,0.623-1.58,0.934-2.952,0.934
		c-1.291,0-2.212-0.215-2.762-0.646c-0.412-0.32-0.695-0.888-0.852-1.703l-1.347,0.024c0.147,1.116,0.546,1.928,1.195,2.431
		c0.751,0.586,2.02,0.879,3.805,0.879c3.416,0,5.123-1.52,5.123-4.56v-0.011V877.947z M185.895,885.68
		c-0.357,0.356-0.766,0.628-1.223,0.811c-0.457,0.184-0.983,0.275-1.58,0.275c-2.737,0-4.106-1.352-4.106-4.052
		c0-1.255,0.348-2.234,1.044-2.939c0.705-0.714,1.694-1.071,2.967-1.071c1.282,0,2.253,0.362,2.912,1.085
		c0.668,0.715,1.003,1.672,1.003,2.87C186.911,883.969,186.572,884.975,185.895,885.68z"/>
	<path fill="#B3B3B3" d="M194.935,877.644c-1.035,0-1.813,0.174-2.335,0.521c-0.477,0.357-0.824,0.889-1.044,1.594h-0.069v-1.8
		l-1.305,0.024l0.014,9.986h1.305l-0.014-4.876c0-2.812,1.076-4.217,3.228-4.217c0.34,0,0.705,0.039,1.1,0.11v-0.001v-1.318
		c-0.092-0.024-0.211-0.024-0.357-0.024C195.32,877.644,195.146,877.644,194.935,877.644z"/>
	<path fill="#B3B3B3" d="M205.317,879.249c-0.458-0.539-1.026-0.938-1.703-1.194c-0.678-0.267-1.47-0.398-2.376-0.398
		c-1.694,0-3.008,0.472-3.942,1.415c-0.934,0.935-1.4,2.207-1.4,3.818c0,1.621,0.449,2.908,1.346,3.859
		c0.971,1.063,2.34,1.594,4.107,1.594c0.705,0,1.354-0.101,1.949-0.303c0.604-0.191,1.132-0.467,1.58-0.823
		c0.787-0.679,1.287-1.512,1.497-2.5h-1.415c-0.484,1.73-1.693,2.596-3.626,2.596c-1.363,0-2.413-0.421-3.145-1.264
		c-0.632-0.725-0.948-1.658-0.948-2.803h9.326C206.567,881.552,206.151,880.22,205.317,879.249z M205.194,882.341h-7.953
		c0.165-1.136,0.536-2.015,1.113-2.638c0.375-0.365,0.801-0.637,1.276-0.81c0.477-0.183,1.013-0.275,1.607-0.275
		c1.163,0,2.111,0.38,2.843,1.141C204.823,880.517,205.194,881.379,205.194,882.341L205.194,882.341z"/>
	<path fill="#B3B3B3" d="M221.917,880.247c-0.847-0.571-2.479-1.077-4.899-1.518c-2.574-0.506-4.125-0.902-4.653-1.188
		c-0.99-0.507-1.485-1.369-1.485-2.591c0-1.166,0.386-2.051,1.155-2.655c0.814-0.562,2.102-0.842,3.861-0.842
		c3.509,0,5.263,1.403,5.263,4.207h1.963c0-3.751-2.365-5.626-7.094-5.626c-2.618,0-4.466,0.44-5.544,1.32
		c-1.001,0.792-1.501,2.013-1.501,3.663c0,1.749,0.588,2.992,1.765,3.729c0.814,0.507,2.59,1.008,5.329,1.501
		c2.178,0.419,3.547,0.765,4.108,1.039c0.989,0.518,1.484,1.414,1.484,2.689c0,1.287-0.362,2.227-1.089,2.821
		c-0.857,0.692-2.249,1.04-4.174,1.04c-4.015,0-6.022-1.667-6.022-4.999h-1.946c0,2.067,0.544,3.607,1.633,4.619
		c1.331,1.232,3.443,1.849,6.336,1.849c4.829,0,7.243-1.793,7.243-5.379C223.65,882.188,223.072,880.963,221.917,880.247z"/>
	<path fill="#B3B3B3" d="M242.402,883.876c0.484-1.221,0.726-2.629,0.726-4.224c0-2.849-0.792-5.131-2.376-6.847
		c-0.847-0.946-1.87-1.65-3.068-2.112c-1.199-0.462-2.568-0.692-4.108-0.692c-2.992,0-5.34,0.868-7.045,2.606
		s-2.557,4.086-2.557,7.045c0,2.894,0.857,5.23,2.573,7.012c1.728,1.771,4.081,2.656,7.063,2.656c1.166,0,2.183-0.1,3.052-0.297
		c0.869-0.198,1.606-0.489,2.211-0.874l2.871,2.393l1.188-1.287l-2.772-2.293C241.17,886.115,241.918,885.087,242.402,883.876z
		 M239.118,885.758c-0.726,0.692-1.545,1.215-2.458,1.567s-1.936,0.528-3.069,0.528c-2.31,0-4.18-0.742-5.609-2.227
		c-1.419-1.496-2.128-3.487-2.128-5.974c0-2.585,0.704-4.598,2.111-6.039c1.419-1.44,3.294-2.161,5.626-2.161
		c2.365,0,4.225,0.753,5.577,2.261c0.715,0.736,1.243,1.6,1.584,2.59c0.342,0.979,0.512,2.095,0.512,3.349l0,0
		C241.263,882.226,240.548,884.261,239.118,885.758z"/>
	<polygon fill="#B3B3B3" points="257.649,888.833 257.649,888.826 257.649,888.826 	"/>
	<polygon fill="#B3B3B3" points="246.199,887.3 246.199,870.47 244.368,870.505 244.368,888.85 257.649,888.826 257.666,887.3 	"/>
</g>
</svg>
