<?xml version="1.0" encoding="utf-8"?>
<!-- Generator: Adobe Illustrator 16.0.0, SVG Export Plug-In . SVG Version: 6.00 Build 0)  -->
<svg version="1.2" baseProfile="tiny" id="Шар_1"
	 xmlns="http://www.w3.org/2000/svg" xmlns:xlink="http://www.w3.org/1999/xlink" x="0px" y="0px" width="40.677px" height="40px"
	 viewBox="691.202 730.001 40.677 40" xml:space="preserve">
<g>
	<path fill="#B3B3B3" d="M691.202,730.001v40h40.677v-40H691.202z M728.643,766.82L728.643,766.82h-34.207v-33.641h34.207V766.82
		L728.643,766.82z"/>
	<path fill="#B3B3B3" d="M704.469,752.406c0,0,0.601-0.004,1.254-0.03c2.351-0.099,3.734-0.813,4.914-2.017
		c0.91-0.933,1.414-2.262,1.414-3.883s-0.66-3.047-1.642-3.883c-1.022-0.882-2.551-1.386-4.687-1.386
		c-2.118,0-4.692,0.065-4.692,0.065v16.406h3.438V752.406z M704.469,743.82c0,0,0.729-0.022,1.437,0
		c1.771,0.066,2.707,1.316,2.707,2.84c0,1.695-1.137,2.816-2.979,2.841c-0.556,0.008-0.789,0.022-1.164-0.013V743.82z"/>
	<path fill="#B3B3B3" d="M716.629,752.281c1.414,0.478,1.784,1.133,1.784,1.763c0,0.625-0.473,1.026-1.608,1.026
		c-1.114,0-2.75-0.637-3.442-1.062v2.726c0.914,0.5,2.242,0.978,3.442,1.012c3.492,0.109,5.246-1.698,5.246-3.98
		c-0.024-1.8-0.989-2.977-3.293-3.777c-1.485-0.526-1.953-0.828-1.953-1.401c0-0.629,0.519-1.004,1.433-1.004
		c1.039,0,2.613,0.672,3.156,0.972v-2.766c-0.742-0.375-1.867-0.836-3.281-0.836c-2.992,0-4.922,1.727-4.922,4.031
		C713.163,750.41,714.129,751.429,716.629,752.281z"/>
</g>
</svg>
