<?xml version="1.0" encoding="utf-8"?>
<!-- Generator: Adobe Illustrator 16.0.0, SVG Export Plug-In . SVG Version: 6.00 Build 0)  -->
<svg version="1.2" baseProfile="tiny" id="Шар_1"
	 xmlns="http://www.w3.org/2000/svg" xmlns:xlink="http://www.w3.org/1999/xlink" x="0px" y="0px" width="36.801px"
	 height="36.797px" viewBox="406.702 800.001 36.801 36.797" xml:space="preserve">
<g>
	<path fill="#B3B3B3" d="M420.081,806.039c-0.918,0-1.664-0.745-1.664-1.668c0-0.926,0.746-1.68,1.664-1.68s1.668,0.754,1.668,1.68
		C421.749,805.294,420.999,806.039,420.081,806.039z M420.64,817.742h8.867c2.468,0,4.437-2.008,4.437-4.461v-8.358
		c0-2.379-2.026-4.164-4.437-4.563c-1.524-0.254-3.106-0.367-4.625-0.358c-1.517,0.008-2.965,0.136-4.242,0.358
		c-3.754,0.656-4.438,2.027-4.438,4.563v3.347h8.875v1.114H412.87c-2.578,0-4.836,1.535-5.543,4.453
		c-0.815,3.343-0.852,5.429,0,8.922c0.629,2.597,2.137,4.448,4.715,4.448h3.056v-4.008
		C415.097,820.302,417.632,817.742,420.64,817.742z"/>
	<path fill="#B3B3B3" d="M430.065,830.554c0.922,0,1.668,0.747,1.668,1.668c0,0.926-0.746,1.676-1.668,1.676
		c-0.918,0-1.664-0.75-1.664-1.676C428.401,831.302,429.147,830.554,430.065,830.554z M442.823,813.837
		c-0.641-2.539-1.854-4.453-4.44-4.453h-3.328v3.897c0,3.023-2.594,5.566-5.547,5.566h-8.867c-2.431,0-4.438,2.055-4.438,4.461v8.36
		c0,2.379,2.094,3.78,4.438,4.461c2.812,0.815,5.503,0.964,8.867,0c2.233-0.642,4.437-1.927,4.437-4.461v-3.345h-8.867v-1.117
		h13.306c2.582,0,3.543-1.777,4.44-4.448C443.749,820.009,443.711,817.363,442.823,813.837z"/>
</g>
</svg>
