<?xml version="1.0" encoding="utf-8"?>
<!-- Generator: Adobe Illustrator 16.0.0, SVG Export Plug-In . SVG Version: 6.00 Build 0)  -->
<svg version="1.2" baseProfile="tiny" id="Шар_1"
	 xmlns="http://www.w3.org/2000/svg" xmlns:xlink="http://www.w3.org/1999/xlink" x="0px" y="0px" width="46.802px"
	 height="52.747px" viewBox="467.202 730.004 46.802 52.747" xml:space="preserve">
<g>
	<path fill="#B3B3B3" d="M491.097,738.567c-10.267,0-18.586,8.32-18.586,18.586s8.319,18.59,18.586,18.59
		c10.265,0,18.589-8.324,18.589-18.59S501.362,738.567,491.097,738.567z M491.163,769.591c-6.844,0-12.391-5.547-12.391-12.391
		s5.547-12.391,12.391-12.391c6.845,0,12.392,5.547,12.392,12.391S498.008,769.591,491.163,769.591z"/>
	<circle fill="#B3B3B3" cx="491.163" cy="757.2" r="6.281"/>
	<path fill="#B3B3B3" d="M470.1,744.341c0.317-0.464,0.664-0.551,1.301-0.32c0.582,0.203,0.989,0.332,1.146,0.336l0.34-0.543
		c-0.207-0.016-0.664-0.164-1.317-0.387c-0.479-0.168-0.89-0.16-1.194,0.086l-0.021-0.012c0.125-0.52-0.019-1.082-0.558-1.418
		c-0.317-0.199-0.668-0.258-0.978-0.164c-0.39,0.109-0.719,0.41-1.069,0.973c-0.228,0.359-0.438,0.762-0.548,1.063l4.023,2.516
		l0.329-0.527l-1.767-1.105L470.1,744.341z M469.39,744.587l-1.489-0.93c0.028-0.102,0.117-0.297,0.278-0.551
		c0.351-0.551,0.82-0.789,1.347-0.461c0.465,0.293,0.551,0.84,0.199,1.402L469.39,744.587z"/>
	<polygon fill="#B3B3B3" points="476.711,739.825 476.354,739.446 474.831,740.868 473.647,739.606 475.011,738.325 474.659,737.95 
		473.297,739.231 472.258,738.122 473.698,736.77 473.344,736.391 471.444,738.165 474.737,741.673 	"/>
	<path fill="#B3B3B3" d="M480.655,737.368c0.082-0.043,0.188-0.055,0.289-0.07c0.586-0.086,1.238-0.207,1.896-0.352l-0.082-0.543
		c-0.396,0.121-0.91,0.262-1.392,0.371l-0.012-0.023c0.582-0.617,0.727-1.583,0.16-2.68c-0.652-1.262-1.874-1.773-3.035-1.172
		c-1.152,0.598-1.535,1.91-0.824,3.281C478.366,737.555,479.62,737.856,480.655,737.368z M478.694,733.36
		c0.906-0.469,1.806,0.184,2.25,1.039c0.504,0.977,0.422,2.031-0.461,2.484c-0.858,0.449-1.785-0.109-2.246-1.023
		C477.75,734.938,477.761,733.841,478.694,733.36z"/>
	<path fill="#B3B3B3" d="M487.086,735.165c1.026-0.184,1.683-0.918,1.426-2.371l-0.497-2.762l-0.617,0.109l0.5,2.805
		c0.188,1.047-0.179,1.59-0.883,1.715c-0.632,0.113-1.179-0.25-1.371-1.313l-0.5-2.801l-0.617,0.109l0.496,2.789
		C485.288,734.915,486.116,735.337,487.086,735.165z"/>
	
		<rect x="492.282" y="730.018" transform="matrix(0.9983 0.0584 -0.0584 0.9983 43.5779 -27.4958)" fill="#B3B3B3" width="0.619" height="4.813"/>
	<path fill="#B3B3B3" d="M497.008,733.364l0.562,0.16c0.539,0.172,0.719,0.484,0.676,1.16c-0.034,0.613-0.043,1.043-0.004,1.191
		l0.617,0.176c-0.047-0.203-0.027-0.684,0.004-1.371c0.024-0.512-0.094-0.902-0.418-1.125l0.004-0.02
		c0.535-0.027,1.035-0.324,1.207-0.938c0.103-0.355,0.06-0.707-0.112-0.98c-0.216-0.344-0.599-0.574-1.235-0.758
		c-0.41-0.113-0.855-0.203-1.171-0.227l-1.293,4.566l0.597,0.172L497.008,733.364z M497.612,731.219c0.106,0,0.32,0.031,0.606,0.113
		c0.632,0.184,0.992,0.566,0.819,1.164c-0.147,0.531-0.651,0.766-1.293,0.586l-0.608-0.172L497.612,731.219z"/>
	<polygon fill="#B3B3B3" points="504.081,738.173 502.284,737.114 503.168,735.622 504.776,736.571 505.038,736.126 
		503.429,735.177 504.198,733.868 505.901,734.872 506.168,734.423 503.929,733.102 501.483,737.251 503.819,738.622 	"/>
	<path fill="#B3B3B3" d="M505.554,737.446c-0.172,0.215-0.146,0.496,0.065,0.656c0.22,0.168,0.488,0.113,0.656-0.105
		c0.164-0.23,0.146-0.495-0.065-0.656C505.995,737.18,505.719,737.227,505.554,737.446z"/>
	<path fill="#B3B3B3" d="M505.94,739.579l-0.41,0.305c0.07,0.156,0.238,0.379,0.406,0.535c0.606,0.566,1.332,0.707,2.204-0.227
		l2.195-2.352l-0.453-0.426l-2.16,2.316c-0.646,0.691-1.055,0.648-1.461,0.27C506.108,739.86,506.004,739.704,505.94,739.579z"/>
	<path fill="#B3B3B3" d="M513.581,741.606c-0.538-0.766-1.352-0.953-1.965-0.52c-0.551,0.391-0.604,1.023-0.379,1.824
		c0.168,0.672,0.11,1.031-0.258,1.293c-0.398,0.277-0.886,0.168-1.254-0.352c-0.246-0.348-0.363-0.766-0.382-1.09l-0.517,0.172
		c0.009,0.309,0.188,0.801,0.457,1.18c0.652,0.926,1.496,1.008,2.103,0.578c0.578-0.406,0.66-0.973,0.445-1.815
		c-0.173-0.692-0.16-1.06,0.206-1.317c0.27-0.191,0.734-0.211,1.113,0.324c0.25,0.355,0.321,0.699,0.34,0.879l0.513-0.152
		C513.979,742.364,513.866,742.009,513.581,741.606z"/>
	<polygon fill="#B3B3B3" points="501.801,780.927 483.051,780.927 483.159,780.817 481.53,779.208 481.215,779.524 482.629,780.927 
		481.862,780.927 481.969,780.817 480.344,779.208 480.026,779.524 481.44,780.927 480.676,780.927 480.78,780.817 479.155,779.208 
		478.84,779.524 480.254,780.927 479.483,780.927 479.594,780.817 477.969,779.208 477.651,779.524 479.065,780.927 
		477.815,780.927 477.815,781.376 478.715,781.376 477.651,782.43 477.969,782.751 479.354,781.376 479.905,781.376 478.84,782.43 
		479.155,782.751 480.543,781.376 481.094,781.376 480.026,782.43 480.344,782.751 481.729,781.376 482.28,781.376 481.215,782.43 
		481.53,782.751 482.918,781.376 501.801,781.376 501.801,782.387 504.668,780.954 501.801,779.575 	"/>
</g>
</svg>
