<?xml version="1.0" encoding="utf-8"?>
<!-- Generator: Adobe Illustrator 16.0.0, SVG Export Plug-In . SVG Version: 6.00 Build 0)  -->
<!DOCTYPE svg PUBLIC "-//W3C//DTD SVG 1.1//EN" "http://www.w3.org/Graphics/SVG/1.1/DTD/svg11.dtd">
<svg version="1.1"
	 id="Шар_1" xmlns:sodipodi="http://sodipodi.sourceforge.net/DTD/sodipodi-0.dtd" xmlns:cc="http://creativecommons.org/ns#" xmlns:rdf="http://www.w3.org/1999/02/22-rdf-syntax-ns#" xmlns:inkscape="http://www.inkscape.org/namespaces/inkscape" xmlns:svg="http://www.w3.org/2000/svg" xmlns:dc="http://purl.org/dc/elements/1.1/" sodipodi:docname="partners.svg" inkscape:version="0.91 r13725"
	 xmlns="http://www.w3.org/2000/svg" xmlns:xlink="http://www.w3.org/1999/xlink" x="0px" y="0px" width="48.004px"
	 height="33.999px" viewBox="269.999 270.001 48.004 33.999" enable-background="new 269.999 270.001 48.004 33.999"
	 xml:space="preserve">
<sodipodi:namedview  gridtolerance="10" inkscape:cy="367.284" showgrid="false" pagecolor="#ffffff" inkscape:zoom="0.20304997" borderopacity="1" inkscape:cx="687.02301" bordercolor="#666666" guidetolerance="10" objecttolerance="10" id="namedview616" inkscape:pageshadow="2" inkscape:window-height="480" inkscape:window-maximized="0" inkscape:pageopacity="0" inkscape:window-y="0" inkscape:window-width="640" inkscape:window-x="0" inkscape:current-layer="Шар_1">
	</sodipodi:namedview>
<g id="_x23_000000ff">
	<path id="path554" fill="#adadad" d="M312.983,277.399c0-2.467-0.002-4.931,0.002-7.396c0.514-0.002,1.03-0.002,1.547-0.002
		c0.008,2.329,0,4.656,0.004,6.984c1.156-0.311,2.31-0.628,3.466-0.938c0.002,1.299,0.002,2.598,0,3.897
		c-1.154,0.316-2.313,0.627-3.466,0.945c0,3.175-0.002,6.351,0,9.524c1.156-0.311,2.31-0.628,3.466-0.938
		c0.002,1.298,0,2.597,0,3.896c-1.154,0.317-2.312,0.627-3.466,0.944c-0.004,2.298,0,4.597-0.002,6.895c-0.516,0-1.032,0-1.55-0.002
		c-0.002-2.166,0.002-4.333,0-6.498c-2.304,0.627-4.604,1.253-6.908,1.887c-0.002,2.468,0.002,4.935-0.002,7.403
		c-0.52,0-1.04,0-1.56,0c-0.004-2.329,0.002-4.658-0.002-6.986c-1.152,0.31-2.301,0.628-3.452,0.937
		c-0.002-1.306-0.002-2.611,0-3.919c1.15-0.317,2.302-0.624,3.452-0.941c0-3.167,0.004-6.335,0-9.502
		c-1.152,0.31-2.301,0.627-3.452,0.938c-0.002-1.301-0.002-2.6,0-3.897c1.15-0.317,2.302-0.624,3.452-0.941
		c0.002-2.3,0-4.603,0.002-6.903c0.52,0,1.04,0,1.562,0.003c0.002,2.167-0.002,4.337,0,6.506
		C308.381,278.657,310.681,278.031,312.983,277.399 M306.076,283.186c-0.004,3.168-0.002,6.338-0.002,9.506
		c2.306-0.628,4.606-1.257,6.908-1.886c0-3.168,0.002-6.335-0.002-9.505C310.679,281.927,308.381,282.56,306.076,283.186z"/>
	<path id="path556" fill="#adadad" d="M278.036,271.857c2.738-1.354,5.878-1.725,8.887-1.388c2.86,0.325,5.654,1.604,7.614,3.767
		c1.423,1.541,2.355,3.479,2.944,5.488c-1.369,0.33-2.738,0.657-4.109,0.983c-0.724-2.354-2.104-4.666-4.35-5.8
		c-2.497-1.246-5.495-1.139-8.1-0.292c-2.88,0.958-4.891,3.598-5.772,6.448c-1.014,3.27-0.982,6.795-0.402,10.145
		c0.464,2.699,1.781,5.327,4.029,6.935c2.461,1.827,5.774,2.146,8.676,1.401c2.222-0.571,4.088-2.196,5.125-4.25
		c0.591-1.11,0.977-2.322,1.271-3.545c1.392,0.359,2.785,0.708,4.176,1.079c-0.773,2.975-2.185,5.905-4.597,7.86
		c-2.491,2.072-5.775,2.961-8.968,2.857c-3.585-0.035-7.39-1.043-9.924-3.756c-2.542-2.786-3.959-6.493-4.384-10.229
		c-0.354-3.507-0.152-7.159,1.181-10.451C272.588,275.972,275.03,273.344,278.036,271.857z"/>
</g>
</svg>
