<?xml version="1.0" encoding="utf-8"?>
<!-- Generator: Adobe Illustrator 16.0.0, SVG Export Plug-In . SVG Version: 6.00 Build 0)  -->
<svg version="1.2" baseProfile="tiny" id="Шар_1"
	 xmlns="http://www.w3.org/2000/svg" xmlns:xlink="http://www.w3.org/1999/xlink" x="0px" y="0px" width="80px" height="33.597px"
	 viewBox="147.202 730.001 80 33.597" xml:space="preserve">
<g>
	<path fill="#B3B3B3" d="M158.1,750.117c-4.359,0.27-8.921-2.883-8.921-2.883l-1.978,2.211c0,0,0.797,0.582,3.066,1.699
		c1,0.492,3.496,1.344,6.336,1.453c7.355,0.293,9.672-2.949,9.605-5.363c-0.069-2.414-2.453-3.555-7.836-4.226
		c-5.383-0.668-7.426-1.207-7.426-2.747c0-1.543,2.453-1.477,2.453-1.477h9.539l1.836-2.616c0,0-11.328,0.047-12.418,0.047
		c-1.094,0-3.953,1.519-4.406,3.218c-0.457,1.7,0.406,3.442,2.359,4.379c1.953,0.942,9.176,1.879,10.402,2.016
		c1.227,0.134,2.293,0.734,2.359,1.609C163.143,748.308,162.46,749.851,158.1,750.117z"/>
	<polygon fill="#B3B3B3" points="175.202,736.216 169.749,739.074 169.749,752.087 175.202,752.087 	"/>
	<polygon fill="#B3B3B3" points="167.569,733.89 176.882,736.437 177.925,732.594 168.706,730.001 	"/>
	<rect x="181.378" y="730.492" fill="#B3B3B3" width="3.496" height="21.685"/>
	<path fill="#B3B3B3" d="M207.628,748.554l-2.227-2.148c0,0-2.949,3.938-7.355,3.802c-1.875-0.056-3.969-0.824-5.043-1.875
		c-1.445-1.423-1.543-3.224-1.543-3.224h13.578c0,0,2.637-0.445,2-3.483c-0.637-3.039-4.313-5.992-9.672-5.724
		c-5.359,0.267-9.723,3.711-9.629,8.762c0.09,5.052,5.723,8.227,10.492,7.867c1.844-0.137,3.766-0.354,5.313-1.069
		C205.983,750.324,207.628,748.554,207.628,748.554z M197.862,738.406c5.543,0,5.949,3.129,5.949,3.129s0.273,1.027-0.77,1.027
		h-11.535C191.507,742.562,192.323,738.406,197.862,738.406z"/>
	<polygon fill="#B3B3B3" points="227.202,736.371 223.432,736.371 217.397,742.484 211.171,736.371 207.331,736.371 
		215.452,744.312 207.401,752.219 211.194,752.289 217.397,746.16 223.432,752.087 227.202,752.152 219.253,744.312 	"/>
	<path fill="#B3B3B3" d="M149.823,756.808l-0.703,0.184v0.935h-0.613v0.539h0.613v2.125c0,0.457,0.074,0.804,0.277,1.015
		c0.172,0.192,0.441,0.297,0.777,0.297c0.277,0,0.5-0.043,0.637-0.098l-0.031-0.531c-0.09,0.024-0.23,0.047-0.418,0.047
		c-0.398,0-0.539-0.272-0.539-0.754v-2.101h1.031v-0.539h-1.031V756.808L149.823,756.808z"/>
	<path fill="#B3B3B3" d="M157.432,757.841c-1.152,0-1.855,0.925-1.855,2.101c0,1.172,0.73,1.961,1.945,1.961
		c0.633,0,1.063-0.129,1.316-0.242l-0.12-0.504c-0.271,0.109-0.582,0.199-1.095,0.199c-0.723,0-1.344-0.394-1.359-1.351h2.777
		c0.013-0.071,0.027-0.185,0.027-0.328C159.069,758.957,158.725,757.841,157.432,757.841z M156.272,759.496
		c0.059-0.491,0.375-1.152,1.105-1.152c0.809,0,1.004,0.704,0.996,1.152H156.272z"/>
	<path fill="#B3B3B3" d="M166.05,758.41c0.395,0,0.664,0.091,0.837,0.184l0.159-0.546c-0.195-0.095-0.57-0.2-0.996-0.2
		c-1.293,0-2.125,0.868-2.125,2.066c0,1.191,0.777,1.988,1.969,1.988c0.531,0,0.949-0.129,1.137-0.226l-0.121-0.532
		c-0.203,0.09-0.473,0.196-0.883,0.196c-0.785,0-1.371-0.556-1.371-1.457C164.655,759.07,165.143,758.41,166.05,758.41z"/>
	<path fill="#B3B3B3" d="M174.112,757.837c-0.273,0-0.523,0.082-0.738,0.202c-0.219,0.121-0.398,0.298-0.516,0.5h-0.016v-2.43
		h-0.719v5.711h0.719v-2.348c0-0.136,0.012-0.242,0.051-0.339c0.133-0.388,0.5-0.707,0.965-0.707c0.68,0,0.914,0.531,0.914,1.16
		v2.233h0.719v-2.315C175.491,758.16,174.643,757.837,174.112,757.837z"/>
	<path fill="#B3B3B3" d="M182.882,757.841c-0.652,0-1.113,0.358-1.309,0.729h-0.016l-0.039-0.644h-0.641
		c0.027,0.324,0.035,0.651,0.035,1.054v2.84h0.719v-2.34c0-0.121,0.016-0.242,0.048-0.328c0.125-0.394,0.491-0.726,0.964-0.726
		c0.68,0,0.918,0.522,0.918,1.151v2.242h0.719v-2.324C184.28,758.16,183.429,757.841,182.882,757.841z"/>
	<path fill="#B3B3B3" d="M191.374,757.837c-1.094,0-1.961,0.765-1.961,2.069c0,1.23,0.824,2.004,1.898,2.004
		c0.957,0,1.969-0.629,1.969-2.069C193.28,758.652,192.511,757.841,191.374,757.837z M191.343,761.38
		c-0.702,0-1.202-0.646-1.202-1.496c0-0.743,0.371-1.513,1.218-1.513c0.852,0,1.188,0.837,1.188,1.496
		C192.546,760.742,192.03,761.38,191.343,761.38z"/>
	<rect x="198.44" y="756.109" fill="#B3B3B3" width="0.719" height="5.711"/>
	<path fill="#B3B3B3" d="M206.296,757.837c-1.098,0-1.965,0.765-1.965,2.069c0,1.23,0.828,2.004,1.898,2.004
		c0.957,0,1.969-0.629,1.969-2.069C208.198,758.652,207.432,757.841,206.296,757.837z M206.261,761.38c-0.704,0-1.2-0.646-1.2-1.496
		c0-0.743,0.368-1.513,1.215-1.513c0.852,0,1.188,0.837,1.188,1.496C207.464,760.742,206.948,761.38,206.261,761.38z"/>
	<path fill="#B3B3B3" d="M216.104,758.515h-0.016c-0.172-0.324-0.547-0.675-1.234-0.675c-0.906,0-1.781,0.746-1.781,2.065
		c0,1.078,0.703,1.898,1.684,1.898c0.613,0,1.039-0.289,1.258-0.652h0.016v0.438c0,0.979-0.539,1.358-1.273,1.358
		c-0.492,0-0.898-0.145-1.159-0.309l-0.181,0.539c0.316,0.211,0.84,0.325,1.316,0.325c0.496,0,1.055-0.114,1.438-0.47
		c0.384-0.336,0.563-0.883,0.563-1.776v-2.263c0-0.473,0.016-0.788,0.035-1.069h-0.628L216.104,758.515z M216.022,760.164
		c0,0.121-0.016,0.259-0.054,0.38c-0.157,0.448-0.56,0.722-1,0.722c-0.778,0-1.169-0.632-1.169-1.398
		c0-0.901,0.492-1.473,1.176-1.473c0.523,0,0.875,0.336,1.008,0.746c0.031,0.098,0.039,0.203,0.039,0.325V760.164z"/>
	<path fill="#B3B3B3" d="M223.831,760.212c-0.098,0.28-0.18,0.582-0.254,0.812h-0.016c-0.066-0.229-0.164-0.539-0.254-0.797
		l-0.867-2.3l0,0h-0.785l1.465,3.589c0.031,0.09,0.047,0.145,0.047,0.184c0,0.043-0.023,0.099-0.059,0.172
		c-0.16,0.359-0.406,0.634-0.602,0.789c-0.215,0.177-0.449,0.289-0.633,0.345l0.184,0.593c0.18-0.031,0.531-0.152,0.883-0.457
		c0.489-0.418,0.84-1.101,1.355-2.438l1.078-2.776h-0.758L223.831,760.212z"/>
</g>
</svg>
