<?xml version="1.0" encoding="utf-8"?>
<!-- Generator: Adobe Illustrator 16.0.0, SVG Export Plug-In . SVG Version: 6.00 Build 0)  -->
<!DOCTYPE svg PUBLIC "-//W3C//DTD SVG 1.1//EN" "http://www.w3.org/Graphics/SVG/1.1/DTD/svg11.dtd">
<svg version="1.1" id="Шар_1" xmlns="http://www.w3.org/2000/svg" xmlns:xlink="http://www.w3.org/1999/xlink" x="0px" y="0px"
	 width="43.707px" height="21.586px" viewBox="10 560.001 43.707 21.586" enable-background="new 10 560.001 43.707 21.586"
	 xml:space="preserve">
<g>
	<path fill="#1B7164" d="M10.508,581.359v-14.776h3.555v14.776H10.508z M10,562.277c0-0.315,0.063-0.617,0.185-0.891
		c0.121-0.277,0.285-0.516,0.483-0.718c0.203-0.2,0.441-0.364,0.715-0.485s0.563-0.183,0.875-0.183c0.316,0,0.613,0.062,0.891,0.183
		c0.273,0.121,0.516,0.282,0.719,0.485c0.207,0.202,0.371,0.44,0.5,0.718c0.125,0.273,0.188,0.575,0.188,0.891
		c0,0.31-0.063,0.599-0.188,0.863c-0.129,0.27-0.293,0.504-0.5,0.703c-0.203,0.204-0.445,0.363-0.719,0.488
		c-0.277,0.121-0.574,0.18-0.891,0.18c-0.313,0-0.602-0.059-0.875-0.18c-0.273-0.125-0.512-0.284-0.715-0.488
		c-0.198-0.199-0.362-0.434-0.483-0.703C10.062,562.876,10,562.587,10,562.277z"/>
	<path fill="#1B7164" d="M20.742,570.962c0,1.144,0.156,2.172,0.465,3.077c0.313,0.902,0.75,1.673,1.324,2.302
		c0.571,0.628,1.262,1.112,2.074,1.448c0.809,0.341,1.723,0.509,2.734,0.509c1.02,0,1.938-0.168,2.75-0.509
		c0.809-0.336,1.5-0.82,2.066-1.448c0.567-0.629,1.004-1.399,1.309-2.302c0.306-0.905,0.457-1.934,0.457-3.077
		c0-1.146-0.151-2.173-0.457-3.082c-0.305-0.911-0.741-1.685-1.309-2.317c-0.566-0.633-1.258-1.117-2.066-1.457
		c-0.813-0.336-1.727-0.508-2.75-0.508s-1.938,0.172-2.741,0.508c-0.81,0.34-1.496,0.824-2.067,1.457
		c-0.574,0.633-1.015,1.406-1.324,2.317C20.898,568.789,20.742,569.816,20.742,570.962z M16.793,570.962
		c0-1.528,0.25-2.946,0.758-4.25c0.509-1.306,1.223-2.431,2.152-3.375c0.926-0.95,2.039-1.692,3.332-2.224
		c1.293-0.535,2.728-0.805,4.305-0.805c1.056,0,2.052,0.121,2.984,0.368c0.93,0.242,1.785,0.589,2.563,1.035
		c0.776,0.444,1.472,0.987,2.09,1.632c0.617,0.641,1.144,1.355,1.573,2.137c0.43,0.785,0.759,1.637,0.984,2.563
		c0.223,0.922,0.336,1.894,0.336,2.918c0,1.526-0.254,2.94-0.758,4.237c-0.508,1.297-1.218,2.422-2.136,3.371
		c-0.918,0.953-2.024,1.691-3.321,2.224c-1.297,0.526-2.734,0.793-4.316,0.793c-1.577,0-3.012-0.267-4.305-0.793
		c-1.293-0.532-2.406-1.271-3.332-2.224c-0.93-0.949-1.644-2.078-2.152-3.379C17.047,573.89,16.793,572.48,16.793,570.962z"/>
	<path fill="#1B7164" d="M39.613,578.832l1.137-1.852c0.095-0.129,0.22-0.242,0.375-0.336c0.152-0.093,0.316-0.14,0.484-0.14
		c0.239,0,0.496,0.097,0.77,0.293c0.27,0.198,0.599,0.414,0.98,0.651c0.383,0.238,0.832,0.453,1.348,0.648
		c0.513,0.2,1.129,0.297,1.849,0.297c1.108,0,1.965-0.261,2.573-0.785c0.605-0.522,0.906-1.272,0.906-2.242
		c0-0.543-0.133-0.987-0.406-1.332c-0.27-0.348-0.625-0.637-1.066-0.87c-0.441-0.231-0.949-0.435-1.52-0.61
		c-0.573-0.171-1.16-0.347-1.758-0.527c-0.601-0.18-1.187-0.405-1.765-0.672c-0.579-0.265-1.09-0.613-1.54-1.047
		c-0.453-0.433-0.813-0.972-1.085-1.617c-0.271-0.644-0.407-1.437-0.407-2.379c0-0.761,0.149-1.508,0.446-2.234
		c0.3-0.723,0.733-1.362,1.308-1.918c0.57-0.559,1.278-1.004,2.113-1.344c0.84-0.34,1.801-0.508,2.891-0.508
		c1.234,0,2.371,0.192,3.414,0.582c1.043,0.391,1.93,0.938,2.664,1.641l-0.976,1.806c-0.114,0.202-0.239,0.351-0.371,0.437
		c-0.129,0.09-0.289,0.133-0.481,0.133c-0.207,0-0.43-0.073-0.664-0.219c-0.237-0.144-0.52-0.308-0.844-0.484
		c-0.324-0.176-0.707-0.34-1.148-0.484s-0.961-0.218-1.551-0.218c-0.535,0-1.008,0.065-1.41,0.194
		c-0.405,0.133-0.746,0.313-1.023,0.539c-0.277,0.231-0.48,0.504-0.613,0.824c-0.133,0.325-0.195,0.676-0.195,1.059
		c0,0.484,0.138,0.888,0.414,1.211c0.281,0.32,0.648,0.599,1.109,0.832c0.461,0.23,0.98,0.441,1.555,0.629s1.164,0.384,1.771,0.578
		c0.604,0.199,1.199,0.435,1.772,0.711c0.574,0.273,1.086,0.621,1.535,1.035c0.453,0.414,0.813,0.922,1.09,1.523
		c0.273,0.602,0.414,1.329,0.414,2.188c0,0.938-0.164,1.82-0.487,2.648c-0.324,0.825-0.798,1.543-1.419,2.157
		c-0.625,0.608-1.387,1.086-2.284,1.433c-0.899,0.348-1.922,0.524-3.075,0.524c-0.66,0-1.309-0.067-1.949-0.192
		c-0.637-0.129-1.25-0.313-1.836-0.554c-0.586-0.239-1.14-0.532-1.66-0.872C40.477,579.63,40.016,579.251,39.613,578.832z"/>
</g>
</svg>
