<?xml version="1.0" encoding="utf-8"?>
<!-- Generator: Adobe Illustrator 16.0.0, SVG Export Plug-In . SVG Version: 6.00 Build 0)  -->
<!DOCTYPE svg PUBLIC "-//W3C//DTD SVG 1.1//EN" "http://www.w3.org/Graphics/SVG/1.1/DTD/svg11.dtd">
<svg version="1.1"
	 id="Шар_1" xmlns:sodipodi="http://sodipodi.sourceforge.net/DTD/sodipodi-0.dtd" xmlns:cc="http://creativecommons.org/ns#" xmlns:rdf="http://www.w3.org/1999/02/22-rdf-syntax-ns#" xmlns:inkscape="http://www.inkscape.org/namespaces/inkscape" xmlns:svg="http://www.w3.org/2000/svg" xmlns:dc="http://purl.org/dc/elements/1.1/" sodipodi:docname="partners.svg" inkscape:version="0.91 r13725"
	 xmlns="http://www.w3.org/2000/svg" xmlns:xlink="http://www.w3.org/1999/xlink" x="0px" y="0px" width="46px" height="86px"
	 viewBox="80 240 46 86" enable-background="new 80 240 46 86" xml:space="preserve">
<sodipodi:namedview  gridtolerance="10" inkscape:cy="367.284" showgrid="false" pagecolor="#ffffff" inkscape:zoom="0.20304997" borderopacity="1" inkscape:cx="687.02301" bordercolor="#666666" guidetolerance="10" objecttolerance="10" id="namedview616" inkscape:pageshadow="2" inkscape:window-height="480" inkscape:window-maximized="0" inkscape:pageopacity="0" inkscape:window-y="0" inkscape:window-width="640" inkscape:window-x="0" inkscape:current-layer="Шар_1">
	</sodipodi:namedview>
<g id="g501">
	<path id="path503" fill="#1B7164" d="M95.208,285.619c0,0-2.241,1.311,1.598,1.754c4.649,0.533,7.025,0.457,12.148-0.517
		c0,0,1.35,0.849,3.231,1.584C100.697,293.387,86.185,288.153,95.208,285.619L95.208,285.619z"/>
	<path id="path505" fill="#1B7164" d="M93.803,279.161c0,0-2.515,1.87,1.326,2.271c4.969,0.516,8.891,0.558,15.681-0.755
		c0,0,0.937,0.957,2.412,1.479C99.335,286.238,83.866,282.476,93.803,279.161L93.803,279.161z"/>
	<path id="path507" fill="#1B7164" d="M105.637,268.205c2.832,3.276-0.742,6.224-0.742,6.224s7.187-3.729,3.887-8.401
		c-3.084-4.354-5.447-6.518,7.35-13.979C116.132,252.049,96.043,257.091,105.637,268.205L105.637,268.205z"/>
	<path id="path509" fill="#1B7164" d="M120.831,290.396c0,0,1.66,1.375-1.827,2.439c-6.629,2.019-27.598,2.627-33.423,0.081
		c-2.092-0.915,1.833-2.187,3.068-2.453c1.288-0.28,2.022-0.229,2.022-0.229c-2.327-1.647-15.05,3.237-6.46,4.639
		C107.634,298.687,126.905,293.151,120.831,290.396L120.831,290.396z"/>
	<path id="path511" fill="#1B7164" d="M96.287,272.469c0,0-10.665,2.547-3.777,3.472c2.91,0.392,8.706,0.301,14.108-0.154
		c4.414-0.372,8.845-1.171,8.845-1.171s-1.555,0.672-2.681,1.444c-10.832,2.863-31.753,1.53-25.729-1.397
		C92.144,272.188,96.287,272.469,96.287,272.469L96.287,272.469z"/>
	<path id="path513" fill="#1B7164" d="M115.419,283.218c11.011-5.75,5.919-11.276,2.366-10.531c-0.869,0.184-1.258,0.34-1.258,0.34
		s0.324-0.509,0.939-0.729c7.03-2.483,12.436,7.326-2.267,11.211C115.199,283.509,115.369,283.355,115.419,283.218L115.419,283.218z
		"/>
	<path id="path515" fill="#1B7164" d="M108.782,240c0,0,6.097,6.131-5.784,15.558c-9.526,7.564-2.172,11.876-0.004,16.804
		c-5.562-5.044-9.64-9.483-6.904-13.615C100.107,252.681,111.242,249.738,108.782,240L108.782,240z"/>
	<path id="path517" fill="#1B7164" d="M97.369,298.804c10.566,0.679,26.797-0.378,27.18-5.404c0,0-0.737,1.905-8.731,3.417
		c-9.021,1.707-20.146,1.508-26.743,0.413C89.074,297.231,90.426,298.355,97.369,298.804L97.369,298.804z"/>
	<path id="path519" fill="#1B7164" d="M124.062,307.818h-0.322v-0.18h0.867v0.18h-0.321v0.903h-0.225L124.062,307.818
		L124.062,307.818L124.062,307.818z M125.793,307.864h-0.004l-0.319,0.858h-0.147l-0.317-0.858h-0.003v0.858h-0.213v-1.085h0.313
		l0.294,0.768l0.294-0.768H126v1.085h-0.206L125.793,307.864L125.793,307.864z"/>
	<path id="path521" fill="#1B7164" d="M95.638,318.01c-0.996,0.868-2.051,1.356-2.996,1.356c-1.348,0-2.078-0.813-2.078-2.116
		c0-1.41,0.782-2.441,3.916-2.441h1.158V318.01L95.638,318.01L95.638,318.01z M98.388,321.128v-9.656c0-2.468-1.4-4.097-4.774-4.097
		c-1.968,0-3.695,0.488-5.099,1.112l0.403,1.71c1.106-0.408,2.534-0.785,3.938-0.785c1.943,0,2.782,0.785,2.782,2.414v1.221h-0.973
		c-4.723,0-6.854,1.842-6.854,4.611c0,2.386,1.403,3.742,4.048,3.742c1.698,0,2.969-0.706,4.154-1.736l0.215,1.465L98.388,321.128
		L98.388,321.128z"/>
	<path id="path523" fill="#1B7164" d="M107.567,321.128h-3.43l-4.131-13.506h2.996l2.563,8.3l0.569,2.494
		c1.294-3.607,2.212-7.27,2.67-10.793h2.913C110.941,312.069,109.535,316.952,107.567,321.128L107.567,321.128z"/>
	<path id="path525" fill="#1B7164" d="M120.73,318.01c-1,0.868-2.055,1.356-2.997,1.356c-1.349,0-2.078-0.813-2.078-2.116
		c0-1.41,0.784-2.441,3.914-2.441h1.161V318.01L120.73,318.01L120.73,318.01z M123.481,321.128v-9.656
		c0-2.468-1.404-4.097-4.775-4.097c-1.971,0-3.698,0.488-5.1,1.112l0.403,1.71c1.106-0.408,2.537-0.785,3.941-0.785
		c1.942,0,2.78,0.785,2.78,2.414v1.221h-0.973c-4.723,0-6.854,1.842-6.854,4.611c0,2.386,1.403,3.742,4.047,3.742
		c1.701,0,2.967-0.706,4.156-1.736l0.217,1.465L123.481,321.128L123.481,321.128z"/>
	<path id="path527" fill="#1B7164" d="M84.796,323.423c-0.783,1.151-2.051,2.063-3.437,2.577L80,324.392
		c1.057-0.546,1.96-1.424,2.382-2.242c0.362-0.729,0.515-1.667,0.515-3.911v-15.422h2.923v15.209
		C85.82,321.027,85.581,322.241,84.796,323.423L84.796,323.423z"/>
</g>
</svg>
