<?xml version="1.0" encoding="utf-8"?>
<!-- Generator: Adobe Illustrator 16.0.0, SVG Export Plug-In . SVG Version: 6.00 Build 0)  -->
<!DOCTYPE svg PUBLIC "-//W3C//DTD SVG 1.1//EN" "http://www.w3.org/Graphics/SVG/1.1/DTD/svg11.dtd">
<svg version="1.1"
	 id="Шар_1" xmlns:sodipodi="http://sodipodi.sourceforge.net/DTD/sodipodi-0.dtd" xmlns:cc="http://creativecommons.org/ns#" xmlns:rdf="http://www.w3.org/1999/02/22-rdf-syntax-ns#" xmlns:inkscape="http://www.inkscape.org/namespaces/inkscape" xmlns:svg="http://www.w3.org/2000/svg" xmlns:dc="http://purl.org/dc/elements/1.1/" sodipodi:docname="partners.svg" inkscape:version="0.91 r13725"
	 xmlns="http://www.w3.org/2000/svg" xmlns:xlink="http://www.w3.org/1999/xlink" x="0px" y="0px" width="50.002px"
	 height="55.998px" viewBox="259.999 350 50.002 55.998" enable-background="new 259.999 350 50.002 55.998" xml:space="preserve">
<sodipodi:namedview  gridtolerance="10" inkscape:cy="367.284" showgrid="false" pagecolor="#ffffff" inkscape:zoom="0.20304997" borderopacity="1" inkscape:cx="687.02301" bordercolor="#666666" guidetolerance="10" objecttolerance="10" id="namedview616" inkscape:pageshadow="2" inkscape:window-height="480" inkscape:window-maximized="0" inkscape:pageopacity="0" inkscape:window-y="0" inkscape:window-width="640" inkscape:window-x="0" inkscape:current-layer="Шар_1">
	</sodipodi:namedview>
<g id="g590">
	<path id="path592" fill="#1B7164" d="M291.871,387.349c-4.025,0-7.349-1.355-7.49-5.246h-3.215c0,5.186,4.417,7.566,10.422,7.566
		c4.807,0,9.786-1.748,9.786-6.512c0-4.521-5.229-5.608-9.327-6.332c-3.886-0.693-6.817-1.206-6.817-3.617
		c0-2.262,2.085-3.559,5.688-3.559c3.71,0,5.865,1.267,6.254,4.372h3.217c-0.212-4.611-3.888-6.725-9.223-6.725
		c-4.521,0-9.114,1.72-9.114,6.12c0,4.521,4.698,5.095,8.763,5.878c4.133,0.813,7.313,1.355,7.313,4.13
		C298.127,386.474,294.803,387.349,291.871,387.349z"/>
	<path id="path594" fill="#1B7164" d="M308.548,362.933l-22.146-12.563c-0.437-0.247-0.918-0.37-1.402-0.37
		c-0.482,0-0.966,0.123-1.4,0.37l-22.146,12.563c-0.896,0.51-1.453,1.466-1.453,2.504v25.125c0,1.038,0.557,1.995,1.453,2.504
		l6.11,3.467l0.015-0.016c1.075,0.518,2.427,0.785,4.098,0.785c5.796,0,7.242-3.629,7.242-8.396v-21.644h-3.319v21.322
		c0,3.06-0.106,5.939-3.957,5.939c-0.831,0-1.648-0.035-2.22-0.238l-6.566-3.727v-25.125l22.145-12.563l22.146,12.563v25.125
		l-22.146,12.563l-6.771-3.843c-0.241-0.181-0.537-0.288-0.86-0.288c-0.795,0-1.439,0.648-1.439,1.449
		c0,0.607,0.37,1.127,0.898,1.344l6.774,3.843c0.435,0.247,0.918,0.37,1.4,0.37c0.484,0,0.966-0.123,1.402-0.37l22.146-12.563
		c0.896-0.51,1.451-1.466,1.451-2.504v-25.125C309.999,364.399,309.444,363.442,308.548,362.933z"/>
</g>
</svg>
