<?xml version="1.0" encoding="utf-8"?>
<!-- Generator: Adobe Illustrator 16.0.0, SVG Export Plug-In . SVG Version: 6.00 Build 0)  -->
<svg version="1.2" baseProfile="tiny" id="Слой_1"
	 xmlns="http://www.w3.org/2000/svg" xmlns:xlink="http://www.w3.org/1999/xlink" x="0px" y="0px" width="180px" height="180px"
	 viewBox="0 0 180 180" xml:space="preserve">
<circle fill="#FFFFFF" cx="90" cy="90" r="90"/>
<path fill="#7D7D7D" d="M118.129,139.522H60.984c-7.897,0-9.984-7.226-9.984-11.047V49.474c0-6.677,6.144-8.828,9.392-9.031
	l13.099-0.004v2.974H60.483c-0.173,0.016-6.522,0.519-6.522,6.062v79.002c0,0.018,0.022,2.174,0.968,4.248
	c1.173,2.574,3.153,3.825,6.056,3.825h56.901c0.996-0.185,8.152-1.737,8.152-8.073V48.661c-0.25-0.864-1.777-5.249-7.023-5.249
	h-15.008v-2.974h15.008c6.473,0,9.338,5.034,9.949,7.695L129,48.468v80.009c0,7.373-7.035,10.438-10.756,11.029L118.129,139.522z"/>
<path fill="#2DBCA6" d="M97.836,47.103H80.827c-1.92,0-3.481-1.569-3.481-3.499v-6.542c0-1.93,1.562-3.5,3.481-3.5h17.009
	c1.92,0,3.482,1.57,3.482,3.5v6.542C101.318,45.533,99.756,47.103,97.836,47.103z M80.827,36.536c-0.286,0-0.52,0.236-0.52,0.525
	v6.542c0,0.289,0.233,0.526,0.52,0.526h17.009c0.285,0,0.52-0.236,0.52-0.526v-6.542c0-0.289-0.232-0.525-0.52-0.525H80.827z"/>
<path fill="#2DBCA6" d="M97.316,34.712h-2.961v-3.499c0-0.608-1.246-0.717-1.26-0.718l-6.43,0.002c-0.895,0-1.507,0.218-1.522,0.542
	l0.001,3.286h-2.962v-3.207c-0.012-0.35,0.033-1.375,0.869-2.286c0.798-0.869,2.014-1.31,3.612-1.31h6.504
	c2.033,0.098,4.148,1.293,4.148,3.69V34.712L97.316,34.712z"/>
<polygon fill="#7D7D7D" points="79.446,78.032 65.106,63.606 67.202,61.506 81.542,75.931 "/>
<polygon fill="#7D7D7D" points="67.202,78.032 65.106,75.931 79.446,61.506 81.542,63.606 "/>
<rect x="70.489" y="115.919" fill="#7D7D7D" width="18.509" height="2.973"/>
<rect x="78.263" y="108.096" fill="#7D7D7D" width="2.962" height="18.618"/>
<path fill="#7D7D7D" d="M109.176,112.183c-4.953,0-8.984-4.053-8.984-9.035c0-4.981,4.031-9.035,8.984-9.035
	c4.955,0,8.984,4.054,8.984,9.035C118.16,108.13,114.131,112.183,109.176,112.183z M109.176,97.086c-3.32,0-6.023,2.72-6.023,6.062
	c0,3.343,2.703,6.062,6.023,6.062s6.023-2.719,6.023-6.062C115.197,99.806,112.496,97.086,109.176,97.086z"/>
<path fill="#2DBCA6" d="M65.203,99.087c-2,0-3.226-0.144-3.402-0.166l0.365-2.95c0.156,0.021,15.663,1.786,30.649-8.797
	c14.873-10.504,16.717-20.076,16.734-20.171l2.922,0.496c-0.072,0.436-1.953,10.807-17.951,22.105
	C82.727,97.933,70.865,99.087,65.203,99.087z"/>
<polygon fill="#2DBCA6" points="113.744,77.524 111.076,67.213 101.773,72.885 100.234,70.343 112.943,62.596 116.611,76.776 "/>
</svg>
