<?xml version="1.0" encoding="utf-8"?>
<!-- Generator: Adobe Illustrator 16.0.0, SVG Export Plug-In . SVG Version: 6.00 Build 0)  -->
<!DOCTYPE svg PUBLIC "-//W3C//DTD SVG 1.1//EN" "http://www.w3.org/Graphics/SVG/1.1/DTD/svg11.dtd">
<svg version="1.1"
	 id="Шар_1" xmlns:sodipodi="http://sodipodi.sourceforge.net/DTD/sodipodi-0.dtd" xmlns:cc="http://creativecommons.org/ns#" xmlns:rdf="http://www.w3.org/1999/02/22-rdf-syntax-ns#" xmlns:inkscape="http://www.inkscape.org/namespaces/inkscape" xmlns:svg="http://www.w3.org/2000/svg" xmlns:dc="http://purl.org/dc/elements/1.1/" sodipodi:docname="partners.svg" inkscape:version="0.91 r13725"
	 xmlns="http://www.w3.org/2000/svg" xmlns:xlink="http://www.w3.org/1999/xlink" x="0px" y="0px" width="77.449px" height="70px"
	 viewBox="200 439.999 77.449 70" enable-background="new 200 439.999 77.449 70" xml:space="preserve">
<sodipodi:namedview  gridtolerance="10" inkscape:cy="367.284" showgrid="false" pagecolor="#ffffff" inkscape:zoom="0.20304997" borderopacity="1" inkscape:cx="687.02301" bordercolor="#666666" guidetolerance="10" objecttolerance="10" id="namedview616" inkscape:window-maximized="0" inkscape:pageopacity="0" inkscape:window-x="0" inkscape:current-layer="Шар_1" inkscape:window-y="0" inkscape:window-width="640" inkscape:pageshadow="2" inkscape:window-height="480">
	</sodipodi:namedview>
<g>
	<path fill="#2DBCA6" d="M277.009,448.583c-0.586-0.587-1.535-0.587-2.12,0l-39.244,39.243l-18.031-18.03
		c-0.586-0.586-1.536-0.586-2.121,0c-0.586,0.586-0.586,1.535,0,2.121l19.092,19.092c0.586,0.586,1.536,0.586,2.121,0l40.305-40.306
		C277.595,450.117,277.595,449.169,277.009,448.583z"/>
	<path fill="#D5D5D5" d="M267.69,465.679c0.847,2.964,1.31,6.089,1.31,9.32c0,18.748-15.252,34-34,34s-34-15.252-34-34
		c0-18.747,15.252-34,34-34c11.364,0,21.438,5.61,27.614,14.2l0.727-0.727c-6.359-8.768-16.682-14.474-28.341-14.474
		c-19.33,0-35,15.671-35,35c0,19.33,15.67,35,35,35s35-15.67,35-35c0-3.524-0.526-6.926-1.496-10.135L267.69,465.679z"/>
</g>
</svg>
