<?xml version="1.0" encoding="utf-8"?>
<!-- Generator: Adobe Illustrator 16.0.0, SVG Export Plug-In . SVG Version: 6.00 Build 0)  -->
<svg version="1.2" baseProfile="tiny" id="Слой_1"
	 xmlns="http://www.w3.org/2000/svg" xmlns:xlink="http://www.w3.org/1999/xlink" x="0px" y="0px" width="180px" height="180px"
	 viewBox="0 0 180 180" xml:space="preserve">
<circle fill="#FFFFFF" cx="90" cy="90" r="90"/>
<path fill="#2DBCA6" d="M119.149,109.774c-0.231,0-5.704-0.086-8.876-7.519c-1.937-4.535-2.708-10.897-0.072-14.889
	c1.163-1.762,3.53-3.859,8.205-3.859l0.212,0.001c3.55,0.047,6.216,1.078,7.924,3.064c2.855,3.319,2.166,8.324,1.795,11.015
	l-0.065,0.489C127.733,102.155,124.504,109.774,119.149,109.774z M118.407,86.508c-2.72,0-4.585,0.821-5.702,2.513
	c-2.011,3.045-1.24,8.385,0.328,12.059c2.365,5.541,6.081,5.695,6.117,5.695c2.974,0,5.67-5.472,6.147-9.09l0.069-0.507
	c0.327-2.376,0.875-6.354-1.098-8.648c-1.123-1.306-3.037-1.984-5.689-2.021L118.407,86.508z"/>
<path fill="#2DBCA6" d="M140.041,126.368l-2.989-0.252c0.123-1.476,0.243-5.702-0.672-7.532c-0.373-0.746-1.574-1.326-2.047-1.504
	l-8.858-2.122l-6.886,7.037l-6.791-7.092l-9.358,2.436c-0.146,0.077-0.743,0.445-1.395,1.544c-0.543,0.918-0.813,4.444-0.754,7.187
	l-2.999,0.067c-0.025-1.095-0.084-6.663,1.172-8.783c1.327-2.239,2.769-2.783,3.043-2.87l11.24-2.925l5.865,6.124l5.908-6.039
	l10.729,2.578c0.285,0.097,2.809,1.008,3.815,3.021C140.517,120.15,140.094,125.74,140.041,126.368z"/>
<path fill="#2DBCA6" d="M58.998,121.48c-0.231,0-5.704-0.086-8.876-7.52c-1.935-4.534-2.708-10.896-0.072-14.888
	c1.163-1.762,3.531-3.859,8.206-3.859l0.212,0.001c3.55,0.047,6.216,1.077,7.924,3.063c2.856,3.32,2.166,8.326,1.796,11.016
	l-0.066,0.489C67.581,113.861,64.353,121.48,58.998,121.48z M58.256,98.214c-2.72,0-4.585,0.822-5.702,2.513
	c-2.011,3.045-1.239,8.384,0.327,12.058c2.328,5.453,5.897,5.688,6.132,5.696c2.969-0.018,5.656-5.478,6.135-9.09l0.068-0.507
	c0.327-2.377,0.875-6.354-1.098-8.649c-1.123-1.305-3.037-1.983-5.688-2.02L58.256,98.214z"/>
<path fill="#2DBCA6" d="M79.889,138.073L76.9,137.82c0.123-1.475,0.242-5.701-0.672-7.533c-0.373-0.744-1.574-1.324-2.048-1.502
	l-8.857-2.123l-6.886,7.038l-6.792-7.092l-9.359,2.436c-0.146,0.077-0.743,0.445-1.395,1.544c-0.544,0.918-0.813,4.444-0.754,7.187
	l-2.999,0.067c-0.024-1.095-0.084-6.663,1.173-8.783c1.326-2.239,2.768-2.783,3.043-2.87l11.239-2.925l5.865,6.124l5.908-6.04
	l10.729,2.579c0.285,0.097,2.81,1.008,3.815,3.021C80.365,131.855,79.942,137.444,79.889,138.073z"/>
<path fill="#7D7D7D" d="M60.365,91.961v-9.784h-0.542c-5.126,0-9.297-4.173-9.297-9.303V58.011c0-5.13,4.171-9.303,9.297-9.303
	h27.662c5.126,0,9.297,4.173,9.297,9.303v14.863c0,5.13-4.171,9.303-9.297,9.303H73.988L60.365,91.961z M59.823,51.708
	c-3.473,0-6.297,2.827-6.297,6.303v14.863c0,3.476,2.824,6.303,6.297,6.303h3.542v6.937l9.658-6.937h14.462
	c3.472,0,6.297-2.827,6.297-6.303V58.011c0-3.476-2.825-6.303-6.297-6.303H59.823z"/>
<path fill="#7D7D7D" d="M114.604,80.326l-13.964-11.495l1.907-2.316l9.057,7.456v-7.24h5.608c0.739-0.177,4.603-1.298,4.603-5.374
	V43.979c-0.087-0.659-0.826-4.53-6.112-4.53h-28.1c-0.827,0.142-6.416,1.273-6.416,5.932h-3c0-6.025,5.941-8.467,9.084-8.917
	l0.212-0.015h28.219c6.661,0,8.869,4.778,9.104,7.306l0.007,0.14v17.464c0,5.54-4.687,7.884-7.164,8.35l-0.277,0.024h-2.77v10.595
	H114.604L114.604,80.326z"/>
<circle fill="#2DBCA6" cx="62.422" cy="65.814" r="2.787"/>
<circle fill="#2DBCA6" cx="74.489" cy="65.814" r="2.787"/>
<circle fill="#2DBCA6" cx="86.557" cy="65.814" r="2.787"/>
</svg>
