<?xml version="1.0" encoding="utf-8"?>
<!-- Generator: Adobe Illustrator 16.0.0, SVG Export Plug-In . SVG Version: 6.00 Build 0)  -->
<svg version="1.2" baseProfile="tiny" id="Слой_1"
	 xmlns="http://www.w3.org/2000/svg" xmlns:xlink="http://www.w3.org/1999/xlink" x="0px" y="0px" width="100px" height="99.999px"
	 viewBox="0 0 100 99.999" xml:space="preserve">
<circle fill="#D7DADF" cx="50" cy="50" r="50"/>
<circle fill="#FFFFFF" cx="50" cy="50" r="49"/>
<g>
	<path fill="none" stroke="#2DBCA6" stroke-miterlimit="10" d="M50.527,53.257c3.877,0,6.504-6.054,6.941-9.327
		s2.002-11.428-7.441-11.552c-9.443-0.123-8.613,9.637-6.316,14.948C46.275,53.257,50.527,53.257,50.527,53.257z"/>
	<path fill="none" stroke="#2DBCA6" stroke-miterlimit="10" d="M32.019,69.256c0,0-0.125-5.497,0.875-7.165s2-1.977,2-1.977
		l9.379-2.409l5.754,5.93l5.814-5.868l8.879,2.1c0,0,1.998,0.674,2.689,2.038c1.188,2.347,0.75,7.474,0.75,7.474"/>
	<path fill="none" stroke="#2DBCA6" stroke-miterlimit="10" d="M71.804,49.113c3.105,0,5.213-4.851,5.563-7.476
		c0.35-2.624,1.604-9.158-5.965-9.259c-7.568-0.099-6.902,7.723-5.061,11.98C68.396,49.113,71.804,49.113,71.804,49.113z"/>
	<path fill="none" stroke="#2DBCA6" stroke-miterlimit="10" d="M59.275,54.608l7.518-1.93l4.611,4.753l4.66-4.703l7.117,1.683
		c0,0,1.602,0.54,2.154,1.634c0.953,1.883,0.604,5.99,0.604,5.99"/>
	<path fill="none" stroke="#2DBCA6" stroke-miterlimit="10" d="M28.197,49.113c-3.107,0-5.213-4.851-5.563-7.476
		c-0.351-2.624-1.604-9.158,5.965-9.259c7.567-0.1,6.903,7.723,5.061,11.98C31.605,49.113,28.197,49.113,28.197,49.113z"/>
	<path fill="none" stroke="#2DBCA6" stroke-miterlimit="10" d="M40.726,54.608l-7.518-1.93l-4.611,4.753l-4.661-4.703l-7.117,1.683
		c0,0-1.602,0.54-2.155,1.634c-0.952,1.883-0.602,5.99-0.602,5.99"/>
</g>
</svg>
