<?xml version="1.0" encoding="utf-8"?>
<!-- Generator: Adobe Illustrator 16.0.0, SVG Export Plug-In . SVG Version: 6.00 Build 0)  -->
<!DOCTYPE svg PUBLIC "-//W3C//DTD SVG 1.1//EN" "http://www.w3.org/Graphics/SVG/1.1/DTD/svg11.dtd">
<svg version="1.1"
	 id="Шар_1" xmlns:sodipodi="http://sodipodi.sourceforge.net/DTD/sodipodi-0.dtd" xmlns:cc="http://creativecommons.org/ns#" xmlns:rdf="http://www.w3.org/1999/02/22-rdf-syntax-ns#" xmlns:inkscape="http://www.inkscape.org/namespaces/inkscape" xmlns:svg="http://www.w3.org/2000/svg" xmlns:dc="http://purl.org/dc/elements/1.1/" sodipodi:docname="partners.svg" inkscape:version="0.91 r13725"
	 xmlns="http://www.w3.org/2000/svg" xmlns:xlink="http://www.w3.org/1999/xlink" x="0px" y="0px" width="148.119px"
	 height="51.999px" viewBox="500 10 148.119 51.999" enable-background="new 500 10 148.119 51.999" xml:space="preserve">
<g>
	<path fill="#878787" d="M544.757,22.319l-20.994-12.104c-0.498-0.286-1.321-0.286-1.818,0l-21.041,12.104
		c-0.51,0.293-0.903,0.972-0.903,1.575v24.204c0,0.606,0.394,1.283,0.901,1.575l21.034,12.104c0.249,0.143,0.571,0.223,0.908,0.223
		s0.643-0.079,0.891-0.224l21.021-12.104c0.51-0.293,0.861-0.971,0.861-1.575V23.894C545.617,23.289,545.264,22.612,544.757,22.319z
		 M544.831,48.098c0,0.309-0.216,0.723-0.47,0.869L523.34,61.071c-0.25,0.145-0.759,0.146-1.009,0l-21.036-12.104
		c-0.252-0.146-0.508-0.561-0.508-0.869V23.895c0-0.309,0.256-0.723,0.51-0.869l21.06-12.104c0.126-0.072,0.309-0.113,0.502-0.113
		c0.194,0,0.367,0.041,0.492,0.112l21.016,12.104c0.252,0.146,0.467,0.561,0.467,0.869v24.204H544.831z"/>
	<path fill="#878787" d="M555.082,30.061h-4.219v11.876h4.219c3.737,0,6.128-2.226,6.128-5.963
		C561.211,32.238,558.818,30.061,555.082,30.061z M554.966,39.446h-1.196v-6.893h1.196c1.96,0,3.238,1.163,3.238,3.422
		C558.204,38.25,556.976,39.446,554.966,39.446z"/>
	<rect x="563.101" y="30.061" fill="#878787" width="2.906" height="11.876"/>
	<path fill="#878787" d="M575.01,37.702h1.678v0.912c-0.681,0.532-1.545,0.864-2.408,0.864c-1.844,0-3.406-1.346-3.406-3.604
		c0-1.762,1.015-3.355,3.505-3.355c1.014,0,2.209,0.482,2.891,1.096l1.395-2.176c-1.263-1.112-2.957-1.578-4.567-1.578
		c-3.622,0-6.229,2.658-6.229,6.113c0,3.886,2.791,6.162,5.83,6.162c1.162,0,2.408-0.4,3.122-1.03h0.033
		c0,0-0.016,0.249-0.016,0.499v0.332h2.425v-6.71h-4.252V37.702z"/>
	<rect x="581.335" y="30.061" fill="#878787" width="2.905" height="11.876"/>
	<polygon fill="#878787" points="595.799,30.061 585.683,30.061 585.683,32.553 589.288,32.553 589.288,41.938 592.194,41.938 
		592.194,32.553 595.799,32.553 	"/>
	<path fill="#878787" d="M599.052,30.061l-4.036,11.876h2.99l0.714-2.492h3.704l0.73,2.492h2.99l-4.036-11.876H599.052z
		 M599.401,37.121l0.68-2.31c0.217-0.748,0.482-2.043,0.482-2.043h0.033c0,0,0.266,1.296,0.48,2.043l0.665,2.31H599.401z"/>
	<polygon fill="#878787" points="610.242,30.061 607.337,30.061 607.337,41.938 615.093,41.938 615.093,39.446 610.242,39.446 	"/>
	<path fill="#878787" d="M627.198,35.725v-0.033c0.897-0.514,1.379-1.526,1.379-2.524c0-2.043-1.66-3.106-4.035-3.106h-4.368v11.875
		h4.368c2.358,0,4.518-0.947,4.518-3.538C629.058,37.353,628.56,36.14,627.198,35.725z M623.078,32.553h1.445
		c0.782,0,1.097,0.465,1.097,1.013c0,0.565-0.314,1.097-1.047,1.097h-1.495V32.553z M624.823,39.446h-1.744v-2.458h1.761
		c0.847,0,1.245,0.548,1.245,1.213C626.085,38.865,625.67,39.446,624.823,39.446z"/>
	<polygon fill="#878787" points="633.821,37.204 637.442,37.204 637.442,34.712 633.821,34.712 633.821,32.553 638.356,32.553 
		638.356,30.061 630.915,30.061 630.915,41.938 638.589,41.938 638.589,39.446 633.821,39.446 	"/>
	<polygon fill="#878787" points="643.352,39.446 643.352,37.204 646.973,37.204 646.973,34.712 643.352,34.712 643.352,32.553 
		647.887,32.553 647.887,30.061 640.446,30.061 640.446,41.938 648.119,41.938 648.119,39.446 	"/>
	<path fill="#878787" d="M523.493,26.438c0.004-0.073,0.01-0.162,0.016-0.263c0.005-0.104,0.007-0.22,0.046-0.323
		c0.028-0.11,0.061-0.229,0.094-0.356c0.019-0.133,0.107-0.254,0.164-0.391c0.068-0.132,0.119-0.283,0.225-0.4
		c0.096-0.127,0.191-0.257,0.288-0.386c0.12-0.108,0.24-0.216,0.358-0.322c0.11-0.119,0.257-0.183,0.385-0.267
		c0.134-0.071,0.252-0.173,0.389-0.208c0.134-0.048,0.26-0.094,0.375-0.135c0.115-0.052,0.229-0.064,0.328-0.077
		c0.009-0.002,0.015-0.002,0.023-0.003c0.079,0.241,0.298,0.418,0.564,0.418c0.333,0,0.603-0.27,0.603-0.602
		c0-0.333-0.271-0.603-0.603-0.603c-0.333,0-0.602,0.271-0.602,0.603c0,0.05,0.017,0.096,0.029,0.142
		c-0.009,0.001-0.014,0.001-0.021,0.002c-0.102,0.005-0.219,0.007-0.34,0.048c-0.123,0.032-0.256,0.068-0.396,0.105
		c-0.146,0.023-0.274,0.116-0.423,0.179c-0.141,0.074-0.302,0.13-0.429,0.243c-0.135,0.102-0.273,0.207-0.411,0.311
		c-0.116,0.128-0.231,0.258-0.346,0.385c-0.126,0.119-0.196,0.275-0.284,0.414c-0.078,0.145-0.182,0.268-0.222,0.421
		c-0.052,0.146-0.102,0.286-0.146,0.414c-0.054,0.132-0.065,0.244-0.079,0.345s-0.027,0.188-0.038,0.261
		c-0.021,0.146-0.032,0.228-0.032,0.228l0.471,0.05C523.48,26.668,523.485,26.584,523.493,26.438z"/>
	<path fill="#878787" d="M518.17,23.725c0.269,0,0.488-0.179,0.565-0.423c0.012,0.002,0.02,0.002,0.031,0.005
		c0.1,0.013,0.213,0.026,0.328,0.077c0.116,0.042,0.242,0.087,0.375,0.135c0.138,0.035,0.256,0.135,0.389,0.208
		c0.128,0.083,0.274,0.146,0.385,0.267c0.118,0.106,0.238,0.215,0.358,0.322c0.097,0.129,0.192,0.258,0.288,0.386
		c0.105,0.117,0.156,0.27,0.225,0.4c0.058,0.136,0.146,0.258,0.164,0.391c0.033,0.127,0.064,0.245,0.094,0.356
		c0.039,0.104,0.041,0.221,0.047,0.323c0.005,0.102,0.011,0.189,0.015,0.263c0.008,0.146,0.013,0.23,0.013,0.23l0.471-0.051
		c0,0-0.012-0.083-0.032-0.227c-0.011-0.072-0.023-0.16-0.038-0.261c-0.014-0.102-0.025-0.213-0.079-0.346
		c-0.045-0.128-0.094-0.267-0.146-0.413c-0.04-0.153-0.144-0.276-0.222-0.422c-0.088-0.138-0.158-0.294-0.284-0.413
		c-0.114-0.128-0.229-0.256-0.346-0.385c-0.138-0.104-0.275-0.208-0.411-0.311c-0.127-0.113-0.288-0.169-0.429-0.243
		c-0.146-0.063-0.275-0.154-0.422-0.179c-0.142-0.037-0.274-0.072-0.396-0.105c-0.12-0.041-0.237-0.043-0.34-0.048
		c-0.011-0.001-0.019-0.001-0.029-0.002c0.011-0.046,0.028-0.09,0.028-0.139c0-0.333-0.271-0.603-0.602-0.603
		c-0.334,0-0.603,0.271-0.603,0.603C517.567,23.455,517.837,23.725,518.17,23.725z"/>
	<path fill="#878787" d="M527.725,30.479c0-0.017,0.013-0.02,0.013-0.035c0-1.674-2.149-2.987-4.89-2.987
		c-2.739,0-4.889,1.313-4.889,2.987c0,0.016,0.017,0.021,0.017,0.035c-1.618,0.084-3.943,0.495-5.565,2.109
		c-2.249,2.254-2.403,4.198-0.49,6.125c0.569,0.565,1.469,1.322,2.691,1.322c0.91,0,1.85-0.444,2.856-1.308
		c-0.044,0.42-0.097,0.823-0.097,1.308c0,5.112,4.913,9.15,5.121,9.322c0.108,0.084,0.231,0.123,0.355,0.123
		c0.128,0,0.252-0.04,0.355-0.123c0.208-0.172,5.121-4.21,5.121-9.322c0-0.484-0.048-0.887-0.092-1.308
		c1.002,0.863,1.945,1.308,2.856,1.308c1.222,0,2.12-0.757,2.691-1.322c1.914-1.925,1.758-3.87-0.491-6.125
		C531.672,30.97,529.344,30.563,527.725,30.479z M519.43,36.088c0.816-1.155,2.084-1.402,3.422-1.402c1.339,0,2.6,0.249,3.424,1.402
		c0.116,0.289,0.269,0.832,0.423,0.832h-7.696C519.158,36.92,519.309,36.376,519.43,36.088z M517.887,36.611
		c-0.185,0.287-0.393,0.568-0.639,0.815c-0.987,0.987-1.873,1.49-2.637,1.49c-0.616,0-1.219-0.32-1.897-0.999
		c-0.975-0.979-1.822-2.217,0.491-4.533c1.586-1.586,4.143-1.825,5.524-1.825c0.123,0,0.236,0.004,0.335,0.007
		c0.021,0.8-0.031,2.478-0.65,4.015C518.219,35.884,518.039,36.215,517.887,36.611z M525.948,44.109c-0.013,0-0.02-0.11-0.027-0.11
		h-6.141c-0.011,0-0.02,0.11-0.031,0.113c-0.442-0.79-0.807-1.687-1.025-2.474h8.256C526.756,42.425,526.391,43.318,525.948,44.109z
		 M532.985,37.917c-0.679,0.679-1.281,0.999-1.896,0.999c-0.764,0-1.649-0.503-2.637-1.49c-0.252-0.248-0.455-0.528-0.643-0.815
		c-0.149-0.392-0.327-0.727-0.524-1.025c-0.617-1.543-0.674-3.221-0.649-4.021c1.182-0.03,4.126,0.088,5.858,1.818
		C534.808,35.7,533.962,36.938,532.985,37.917z"/>
</g>
</svg>
