<?xml version="1.0" encoding="utf-8"?>
<!-- Generator: Adobe Illustrator 16.0.0, SVG Export Plug-In . SVG Version: 6.00 Build 0)  -->
<!DOCTYPE svg PUBLIC "-//W3C//DTD SVG 1.1//EN" "http://www.w3.org/Graphics/SVG/1.1/DTD/svg11.dtd">
<svg version="1.1"
	 id="Шар_1" xmlns:sodipodi="http://sodipodi.sourceforge.net/DTD/sodipodi-0.dtd" xmlns:cc="http://creativecommons.org/ns#" xmlns:rdf="http://www.w3.org/1999/02/22-rdf-syntax-ns#" xmlns:inkscape="http://www.inkscape.org/namespaces/inkscape" xmlns:svg="http://www.w3.org/2000/svg" xmlns:dc="http://purl.org/dc/elements/1.1/" sodipodi:docname="partners.svg" inkscape:version="0.91 r13725"
	 xmlns="http://www.w3.org/2000/svg" xmlns:xlink="http://www.w3.org/1999/xlink" x="0px" y="0px" width="108px" height="58px"
	 viewBox="390.001 80 108 58" enable-background="new 390.001 80 108 58" xml:space="preserve">
<sodipodi:namedview  gridtolerance="10" inkscape:cy="367.284" showgrid="false" pagecolor="#ffffff" inkscape:zoom="0.20304997" borderopacity="1" inkscape:cx="687.02301" bordercolor="#666666" guidetolerance="10" objecttolerance="10" id="namedview616" inkscape:pageshadow="2" inkscape:window-height="480" inkscape:window-maximized="0" inkscape:pageopacity="0" inkscape:window-y="0" inkscape:window-width="640" inkscape:window-x="0" inkscape:current-layer="Шар_1">
	</sodipodi:namedview>
<g>
	<polygon fill="#878787" points="423.832,99.362 419.629,119.999 431.884,115.86 431.884,100.742 425.135,92.26 	"/>
	<polygon fill="#878787" points="402.401,138 402.486,138 406.218,138 403.023,134.158 	"/>
	<polygon fill="#878787" points="431.884,133.682 431.884,116.829 420.239,120.815 	"/>
	<polygon fill="#878787" points="425.963,91.774 425.805,91.762 431.884,99.403 431.884,93.257 437.746,93.257 437.746,84.38 
		425.564,91.371 	"/>
	<polygon fill="#878787" points="423.814,90.786 423.061,90.026 418.48,85.438 418.48,85.739 418.48,90.396 422.015,90.655 	"/>
	<polygon fill="#878787" points="424.447,90.242 424.225,80 418.48,80 418.48,84.394 424.094,89.886 	"/>
	<polygon fill="#878787" points="401.909,104.414 393.988,94.914 390.001,94.914 390.001,105.352 390.001,107.953 390.001,110.607 
		401.322,104.726 	"/>
	<polygon fill="#878787" points="402.997,116.386 402.21,105.202 401.653,105.49 390.001,111.59 390.001,119.702 390.001,119.855 
		402.28,132.052 402.946,117.56 	"/>
	<polygon fill="#878787" points="401.975,132.964 390.001,120.718 390.001,136.421 390.001,138 392.495,138 400.455,133.813 	"/>
	<polygon fill="#878787" points="425.307,80 425.307,90.561 437.746,83.422 437.746,80 431.402,80 	"/>
	<polygon fill="#878787" points="424.393,91.66 420.967,91.409 418.48,91.226 418.48,100.875 418.48,120.718 423.185,98.247 	"/>
	<polygon fill="#878787" points="412.617,98.562 412.617,95.672 410.686,94.914 402.606,94.914 403.074,103.783 	"/>
	<polygon fill="#878787" points="394.663,138 399.201,138 401.463,138 401.99,133.944 400.865,134.536 	"/>
	<polygon fill="#878787" points="403.286,133.111 403.332,133.158 403.295,133.179 403.361,133.26 408.531,138 417.891,138 
		419.629,137.562 419.114,121.435 	"/>
	<polygon fill="#878787" points="412.617,99.669 403.358,104.654 406.674,107.343 412.617,107.343 	"/>
	<polygon fill="#878787" points="403.737,118.591 403.144,132.183 412.106,125.571 411.142,125.571 403.739,118.555 	"/>
	<polygon fill="#878787" points="420.59,138 421.545,138 431.884,138 431.884,134.937 419.969,121.762 	"/>
	<polygon fill="#878787" points="401.728,94.914 395.266,94.914 402.086,103.299 	"/>
	<path fill="#878787" d="M444.833,99.823h-3.319v10.719h3.001c1.824,0,3.221-0.467,4.191-1.404c0.972-0.935,1.457-2.289,1.457-4.057
		c0-1.656-0.467-2.947-1.4-3.871C447.828,100.286,446.518,99.823,444.833,99.823z M447.695,108.369
		c-0.756,0.73-1.885,1.095-3.387,1.095h-1.535v-8.563h1.83c1.399,0,2.453,0.355,3.161,1.063c0.71,0.709,1.063,1.762,1.063,3.16
		C448.828,106.557,448.45,107.639,447.695,108.369z"/>
	<rect x="454.677" y="102.207" fill="#878787" width="0.979" height="8.336"/>
	<path fill="#878787" d="M465.068,110.549c0.461-0.072,0.915-0.178,1.36-0.319v-4.054h-2.865l-0.001,0.866h1.885v2.565
		c-0.557,0.134-1.128,0.2-1.712,0.2c-1.076,0-1.891-0.291-2.447-0.872c-0.555-0.582-0.833-1.435-0.833-2.56
		c0-1.072,0.288-1.911,0.864-2.516c0.576-0.604,1.378-0.905,2.404-0.905c0.704,0,1.436,0.159,2.196,0.479l0.38-0.854
		c-0.776-0.326-1.613-0.49-2.514-0.49c-0.887,0-1.662,0.172-2.322,0.515c-0.661,0.345-1.167,0.843-1.52,1.494
		c-0.352,0.653-0.528,1.412-0.528,2.279c0,1.353,0.355,2.406,1.066,3.157s1.705,1.126,2.98,1.126
		C464.073,110.656,464.606,110.621,465.068,110.549z"/>
	<rect x="470.342" y="102.207" fill="#878787" width="0.979" height="8.336"/>
	<polygon fill="#878787" points="474.468,103.067 477.136,103.067 477.136,110.543 478.116,110.543 478.116,103.067 
		480.785,103.067 480.785,102.207 474.468,102.207 	"/>
	<path fill="#878787" d="M486.938,102.172h-0.824l-3.332,8.371h0.992l1.038-2.651h3.378l1.05,2.651h1.015L486.938,102.172z
		 M485.157,107.019l0.992-2.583c0.158-0.438,0.279-0.839,0.364-1.203c0.135,0.476,0.266,0.877,0.392,1.203l0.98,2.583H485.157z"/>
	<polygon fill="#878787" points="494.282,109.664 494.282,102.207 493.302,102.207 493.302,110.543 498.001,110.543 
		498.001,109.664 	"/>
	<polygon fill="#878787" points="441.513,126.013 442.773,126.013 442.773,121.431 447.264,121.431 447.264,120.323 
		442.773,120.323 442.773,116.402 447.553,116.402 447.553,115.295 441.513,115.295 	"/>
	<path fill="#878787" d="M456.829,117.675v5.429c0,0.7-0.191,1.237-0.575,1.612c-0.385,0.374-0.932,0.561-1.644,0.561
		c-0.745,0-1.31-0.186-1.695-0.558c-0.384-0.373-0.575-0.906-0.575-1.602v-5.44h-0.98v5.372c0,0.958,0.277,1.71,0.833,2.258
		c0.555,0.548,1.34,0.821,2.355,0.821c1.014,0,1.812-0.272,2.392-0.815c0.58-0.544,0.87-1.291,0.87-2.241v-5.394v-0.001h-0.98
		V117.675z"/>
	<polygon fill="#878787" points="460.876,118.538 463.544,118.538 463.544,126.013 464.523,126.013 464.524,126.013 
		464.524,118.538 467.193,118.538 467.193,117.677 460.876,117.677 	"/>
	<path fill="#878787" d="M475.733,117.675v5.429c0,0.7-0.191,1.237-0.576,1.612c-0.384,0.374-0.931,0.561-1.643,0.561
		c-0.745,0-1.311-0.186-1.695-0.558c-0.384-0.373-0.576-0.906-0.576-1.602v-5.44h-0.979v5.372c0,0.958,0.276,1.71,0.833,2.258
		c0.556,0.548,1.34,0.821,2.354,0.821c1.016,0,1.813-0.272,2.393-0.815c0.58-0.544,0.87-1.291,0.87-2.241v-5.394v-0.001h-0.98
		V117.675z"/>
	<path fill="#878787" d="M486.177,120.031c0-0.785-0.247-1.375-0.74-1.767c-0.494-0.392-1.258-0.587-2.292-0.587h-2.313v8.336h0.98
		v-3.467h1.759l2.04,3.467h1.158l-2.288-3.746C485.613,121.878,486.177,121.133,486.177,120.031z M483.156,121.714h-1.343v-3.188
		h1.274c0.726,0,1.254,0.121,1.582,0.365c0.327,0.244,0.492,0.64,0.492,1.191c0,0.544-0.161,0.952-0.483,1.224
		C484.355,121.578,483.848,121.714,483.156,121.714z"/>
	<polygon fill="#878787" points="490.02,126.013 494.719,126.013 494.719,125.146 491.001,125.146 491.001,122.078 494.493,122.078 
		494.493,121.223 491.001,121.223 491.001,118.538 494.719,118.538 494.719,117.677 490.02,117.677 	"/>
</g>
</svg>
