<?xml version="1.0" encoding="utf-8"?>
<!-- Generator: Adobe Illustrator 16.0.0, SVG Export Plug-In . SVG Version: 6.00 Build 0)  -->
<!DOCTYPE svg PUBLIC "-//W3C//DTD SVG 1.1//EN" "http://www.w3.org/Graphics/SVG/1.1/DTD/svg11.dtd">
<svg version="1.1"
	 id="Шар_1" xmlns:sodipodi="http://sodipodi.sourceforge.net/DTD/sodipodi-0.dtd" xmlns:cc="http://creativecommons.org/ns#" xmlns:rdf="http://www.w3.org/1999/02/22-rdf-syntax-ns#" xmlns:inkscape="http://www.inkscape.org/namespaces/inkscape" xmlns:svg="http://www.w3.org/2000/svg" xmlns:dc="http://purl.org/dc/elements/1.1/" sodipodi:docname="partners.svg" inkscape:version="0.91 r13725"
	 xmlns="http://www.w3.org/2000/svg" xmlns:xlink="http://www.w3.org/1999/xlink" x="0px" y="0px" width="108px" height="58px"
	 viewBox="10 80 108 58" enable-background="new 10 80 108 58" xml:space="preserve">
<sodipodi:namedview  gridtolerance="10" inkscape:cy="367.284" showgrid="false" pagecolor="#ffffff" inkscape:zoom="0.20304997" borderopacity="1" inkscape:cx="687.02301" bordercolor="#666666" guidetolerance="10" objecttolerance="10" id="namedview616" inkscape:pageshadow="2" inkscape:window-height="480" inkscape:window-maximized="0" inkscape:pageopacity="0" inkscape:window-y="0" inkscape:window-width="640" inkscape:window-x="0" inkscape:current-layer="Шар_1">
	</sodipodi:namedview>
<g id="g155">
	<path id="path157" fill="#878787" d="M56.662,124.474h1.482l0.2-0.04l0.16-0.04l0.16-0.08l0.08-0.08l0.08-0.08l0.04-0.118
		l0.04-0.241l-0.04-0.159l-0.04-0.121l-0.04-0.12l-0.08-0.08l-0.12-0.08l-0.161-0.04l-0.36-0.039h-1.402L56.662,124.474
		L56.662,124.474L56.662,124.474z M56.662,127.228h1.482h0.2l0.199-0.04l0.161-0.08l0.12-0.12l0.12-0.118l0.08-0.16l0.04-0.159
		l0.04-0.2l-0.04-0.2l-0.04-0.199l-0.08-0.16l-0.08-0.119l-0.16-0.08l-0.161-0.08l-0.16-0.04h-0.24h-1.482L56.662,127.228
		L56.662,127.228L56.662,127.228z M55.54,128.264v-6.184h2.645l0.4,0.039l0.4,0.08l0.321,0.118l0.279,0.199l0.241,0.241l0.161,0.279
		l0.08,0.318l0.04,0.359l-0.04,0.159l-0.04,0.199l-0.04,0.16l-0.08,0.2l-0.12,0.119l-0.12,0.16l-0.12,0.119l-0.159,0.08l0.279,0.159
		l0.161,0.12l0.161,0.159l0.12,0.16l0.12,0.239l0.04,0.238l0.04,0.319l-0.04,0.439l-0.12,0.398l-0.16,0.319l-0.241,0.279
		l-0.32,0.239l-0.361,0.159l-0.441,0.08l-0.48,0.039L55.54,128.264L55.54,128.264z"/>
	<path id="path159" fill="#878787" d="M58.145,124.474h-1.482v-1.315h1.402l0.36,0.038l0.161,0.04l0.12,0.08l0.08,0.08l0.04,0.12
		l0.04,0.121l0.04,0.159l-0.04,0.24l-0.04,0.119l-0.08,0.08l-0.08,0.08l-0.16,0.08l-0.16,0.04L58.145,124.474z M58.145,127.228
		h-1.482v-1.756h1.482h0.241l0.159,0.04l0.161,0.08l0.16,0.08l0.08,0.119l0.08,0.16l0.04,0.199l0.04,0.2l-0.04,0.2l-0.04,0.159
		l-0.08,0.159l-0.12,0.119l-0.12,0.12l-0.161,0.08l-0.199,0.04L58.145,127.228L58.145,127.228z M60.307,126.309L60.307,126.309
		l-0.04-0.319l-0.04-0.238l-0.12-0.239l-0.12-0.16l-0.161-0.159l-0.16-0.12l-0.279-0.159l0.159-0.08l0.12-0.12l0.12-0.16l0.12-0.119
		l0.08-0.2l0.04-0.16l0.04-0.199l0.04-0.159l-0.04-0.36l-0.08-0.318l-0.161-0.279l-0.241-0.241l-0.279-0.2l-0.321-0.119l-0.4-0.079
		l-0.399-0.039H55.54v6.184h2.604l0.48-0.04l0.441-0.08l0.361-0.159l0.32-0.239l0.241-0.279l0.16-0.319l0.12-0.398L60.307,126.309z"
		/>
	<polygon id="polygon161" fill="#878787" points="62.551,128.345 62.31,128.304 62.11,128.264 61.91,128.144 61.75,128.065 
		61.63,127.905 61.389,127.626 61.229,127.307 61.149,126.947 61.109,126.629 61.109,126.309 61.109,123.756 62.231,123.756 
		62.231,126.23 62.231,126.509 62.271,126.748 62.351,126.908 62.431,127.067 62.551,127.187 62.671,127.267 62.872,127.347 
		63.072,127.347 63.232,127.347 63.433,127.267 63.553,127.187 63.673,127.067 63.794,126.908 63.833,126.748 63.874,126.509 
		63.913,126.269 63.913,123.756 64.995,123.756 64.995,128.264 63.913,128.264 63.913,127.905 63.673,128.105 63.433,128.264 
		63.112,128.345 62.792,128.385 	"/>
	<polygon id="polygon163" fill="#878787" points="62.792,128.384 62.792,128.384 63.112,128.345 63.433,128.264 63.673,128.105 
		63.913,127.905 63.913,128.264 64.995,128.264 64.995,123.756 63.913,123.756 63.913,126.269 63.874,126.509 63.833,126.748 
		63.794,126.908 63.673,127.067 63.553,127.187 63.433,127.267 63.232,127.346 63.072,127.346 62.872,127.346 62.671,127.267 
		62.551,127.187 62.431,127.067 62.351,126.908 62.271,126.748 62.231,126.509 62.231,126.23 62.231,123.756 61.109,123.756 
		61.109,126.309 61.109,126.629 61.149,126.947 61.229,127.307 61.389,127.626 61.63,127.905 61.75,128.065 61.91,128.144 
		62.11,128.264 62.31,128.304 62.551,128.345 	"/>
	<polygon id="polygon165" fill="#878787" points="79.859,128.264 79.859,125.791 79.859,125.51 79.819,125.312 79.738,125.112 
		79.659,124.952 79.538,124.832 79.418,124.753 79.218,124.713 79.057,124.674 78.857,124.713 78.657,124.753 78.537,124.832 
		78.416,124.952 78.296,125.112 78.216,125.312 78.177,125.51 78.177,125.791 78.177,128.264 77.054,128.264 77.054,123.756 
		78.177,123.756 78.177,124.155 78.416,123.916 78.697,123.795 78.977,123.675 79.298,123.675 79.698,123.675 80.019,123.795 
		80.299,123.955 80.54,124.195 80.74,124.474 80.86,124.832 80.941,125.231 80.98,125.711 80.98,128.264 	"/>
	<polygon id="polygon167" fill="#878787" points="78.177,125.79 78.177,125.79 78.177,125.51 78.216,125.312 78.296,125.111 
		78.416,124.952 78.537,124.832 78.657,124.753 78.857,124.713 79.057,124.674 79.218,124.713 79.418,124.753 79.538,124.832 
		79.659,124.952 79.738,125.111 79.819,125.312 79.859,125.51 79.859,125.79 79.859,128.264 80.98,128.264 80.98,125.711 
		80.941,125.231 80.86,124.832 80.74,124.474 80.54,124.195 80.299,123.954 80.019,123.795 79.698,123.675 79.298,123.675 
		78.977,123.675 78.697,123.795 78.416,123.916 78.177,124.155 78.177,123.756 77.054,123.756 77.054,128.264 78.177,128.264 	"/>
	<rect id="rect169" x="66.037" y="123.756" fill="#878787" width="1.121" height="4.508"/>
	<rect id="rect171" x="66.037" y="123.755" fill="#878787" width="1.121" height="4.509"/>
	<polygon id="polygon173" fill="#878787" points="68.12,128.264 68.12,122.439 69.242,121.88 69.242,128.264 	"/>
	<polygon id="polygon175" fill="#878787" points="68.12,128.264 69.242,128.264 69.242,121.88 68.12,122.439 	"/>
	<path id="path177" fill="#878787" d="M71.886,124.712l-0.161,0.04l-0.16,0.039l-0.12,0.119l-0.12,0.159l-0.08,0.24l-0.04,0.279
		l-0.04,0.358l0.04,0.399l0.04,0.319l0.08,0.24l0.12,0.159l0.16,0.121l0.12,0.08l0.161,0.08h0.16l0.24-0.039l0.241-0.119l0.16-0.121
		l0.12-0.158v-1.797l-0.12-0.118l-0.16-0.16l-0.241-0.12l-0.28-0.039L71.886,124.712z M71.405,128.345l-0.36-0.121l-0.279-0.2
		l-0.281-0.278l-0.2-0.359l-0.12-0.399l-0.08-0.479l-0.04-0.52l0.04-0.518l0.08-0.479l0.16-0.36l0.2-0.359l0.241-0.241l0.32-0.198
		l0.321-0.119l0.4-0.04h0.279l0.28,0.08l0.241,0.121l0.2,0.2v-1.637l1.122-0.559v6.384h-1.122v-0.319l-0.241,0.159l-0.24,0.16
		l-0.241,0.08l-0.279,0.039L71.405,128.345z"/>
	<path id="path179" fill="#878787" d="M72.046,127.346L72.046,127.346h-0.161l-0.16-0.08l-0.12-0.08l-0.16-0.121l-0.12-0.16
		l-0.08-0.238l-0.04-0.319l-0.04-0.399l0.04-0.358l0.04-0.279l0.08-0.24l0.12-0.159l0.12-0.119l0.16-0.039l0.16-0.04l0.12-0.039
		l0.28,0.039l0.241,0.12l0.16,0.16l0.12,0.118v1.795l-0.12,0.16l-0.16,0.121l-0.241,0.119L72.046,127.346z M72.808,124.073
		L72.808,124.073l-0.2-0.199l-0.241-0.121l-0.28-0.08h-0.279l-0.4,0.04l-0.321,0.119l-0.32,0.199l-0.241,0.241l-0.2,0.359
		l-0.16,0.36l-0.08,0.479l-0.04,0.518l0.04,0.52l0.08,0.479l0.12,0.399l0.2,0.359l0.281,0.278l0.279,0.2l0.36,0.121l0.4,0.039
		l0.279-0.039l0.241-0.08l0.24-0.16l0.241-0.159v0.319h1.122v-6.384l-1.122,0.559L72.808,124.073L72.808,124.073z"/>
	<path id="path181" fill="#878787" d="M96.806,124.712l-0.241,0.08l-0.16,0.16l-0.161,0.199v1.755l0.12,0.121l0.161,0.16
		l0.241,0.119l0.12,0.039h0.16l0.2-0.039l0.161-0.04l0.16-0.12l0.12-0.159l0.08-0.199l0.041-0.24l0.04-0.279l0.04-0.318l-0.04-0.319
		l-0.04-0.279l-0.081-0.2l-0.12-0.199l-0.12-0.12l-0.161-0.08l-0.161-0.04l-0.12-0.039L96.806,124.712z M96.965,128.345l-0.279-0.08
		l-0.241-0.16l-0.2-0.159v0.319h-1.121v-5.705l1.121-0.56v2.076l0.2-0.16l0.281-0.16l0.239-0.08h0.281l0.4,0.04l0.319,0.119
		l0.321,0.2l0.24,0.24l0.201,0.359l0.16,0.36l0.079,0.479l0.04,0.519l-0.04,0.519l-0.079,0.479l-0.12,0.399l-0.2,0.359l-0.28,0.278
		l-0.28,0.2l-0.36,0.121l-0.4,0.039L96.965,128.345z"/>
	<path id="path183" fill="#878787" d="M97.047,124.673L97.047,124.673l0.12,0.04l0.161,0.04l0.161,0.08l0.12,0.12l0.12,0.199
		l0.081,0.199l0.04,0.28l0.04,0.319l-0.04,0.318l-0.04,0.279l-0.041,0.24l-0.08,0.199l-0.12,0.159l-0.16,0.12l-0.161,0.04
		l-0.2,0.039h-0.16l-0.12-0.039l-0.241-0.119l-0.161-0.161l-0.12-0.118v-1.756l0.161-0.199l0.16-0.16l0.241-0.08L97.047,124.673z
		 M97.247,123.675L97.247,123.675h-0.281l-0.239,0.08l-0.281,0.16l-0.2,0.16V122l-1.121,0.559v5.705h1.121v-0.319l0.2,0.159
		l0.241,0.16l0.279,0.08l0.281,0.039l0.4-0.039l0.36-0.121l0.28-0.2l0.28-0.278l0.2-0.36l0.12-0.398l0.079-0.479l0.04-0.52
		l-0.04-0.518l-0.079-0.479l-0.16-0.359l-0.2-0.359l-0.241-0.241l-0.321-0.199l-0.319-0.119L97.247,123.675z"/>
	<path id="path185" fill="#878787" d="M83.424,124.712l-0.16,0.08l-0.12,0.119l-0.12,0.159l-0.08,0.24l-0.04,0.279l-0.04,0.358
		l0.04,0.398l0.04,0.28l0.08,0.278l0.12,0.16l0.12,0.121l0.16,0.08l0.16,0.08h0.12l0.28-0.039l0.2-0.119l0.199-0.121l0.12-0.159
		v-1.796l-0.12-0.158l-0.159-0.12l-0.241-0.12l-0.28-0.04h-0.161L83.424,124.712z M83.024,129.221h0.04l0.48-0.039l0.361-0.08
		l0.241-0.12l0.2-0.159l0.08-0.199l0.079-0.2v-0.399v-0.08l-0.24,0.159l-0.241,0.16l-0.241,0.08l-0.321,0.039l-0.359-0.039
		l-0.361-0.161l-0.281-0.199l-0.279-0.238l-0.2-0.36l-0.12-0.398l-0.12-0.479v-0.56v-0.479l0.12-0.479l0.12-0.397l0.241-0.319
		l0.239-0.279l0.321-0.16l0.321-0.119l0.399-0.04h0.28l0.281,0.08l0.241,0.16l0.199,0.16v-0.319h1.121v4.109l-0.04,0.519
		l-0.08,0.438l-0.199,0.398l-0.08,0.16l-0.161,0.159l-0.12,0.12l-0.16,0.12l-0.401,0.159l-0.44,0.121l-0.521,0.039L83.024,129.221z"
		/>
	<path id="path187" fill="#878787" d="M84.506,125.111v1.795l-0.119,0.16l-0.201,0.119l-0.2,0.119l-0.28,0.04h-0.12l-0.16-0.08
		l-0.16-0.08l-0.12-0.119l-0.12-0.16l-0.08-0.278l-0.04-0.28l-0.04-0.398l0.04-0.358l0.04-0.279l0.08-0.24l0.12-0.159l0.12-0.12
		l0.16-0.08l0.12-0.04h0.161l0.28,0.04l0.241,0.12l0.161,0.12L84.506,125.111z M84.506,124.073L84.506,124.073l-0.199-0.159
		l-0.241-0.16l-0.281-0.08h-0.28l-0.399,0.04l-0.321,0.119l-0.321,0.16l-0.239,0.279l-0.241,0.319l-0.12,0.397l-0.12,0.479v0.479
		v0.559l0.12,0.479l0.12,0.398l0.2,0.36l0.279,0.238l0.281,0.2l0.361,0.16l0.359,0.04l0.321-0.04l0.241-0.08l0.241-0.16l0.24-0.159
		v0.08v0.399l-0.08,0.2l-0.079,0.199l-0.2,0.159l-0.241,0.12l-0.361,0.08l-0.48,0.039h-0.04l0.399,0.878l0.521-0.039l0.441-0.121
		l0.399-0.159l0.16-0.121l0.12-0.119l0.161-0.159l0.08-0.16l0.199-0.398l0.08-0.438l0.04-0.519v-4.109h-1.121V124.073
		L84.506,124.073z"/>
	<path id="path189" fill="#878787" d="M89.874,126.189l-0.12,0.04l-0.12,0.08l-0.079,0.08l-0.08,0.119l-0.04,0.12v0.16v0.119
		l0.04,0.159l0.08,0.119l0.079,0.08l0.12,0.08l0.12,0.04l0.161,0.04l0.16,0.04l0.28-0.04l0.279-0.119l0.161-0.16l0.161-0.159v-0.64
		l-0.2-0.08l-0.201-0.08l-0.239-0.04h-0.241h-0.16L89.874,126.189z M89.674,128.343l-0.279-0.039l-0.281-0.121l-0.24-0.159
		l-0.241-0.239l-0.159-0.28l-0.12-0.319l-0.04-0.397l0.04-0.399l0.12-0.319l0.199-0.238l0.241-0.199l0.28-0.161l0.281-0.08
		l0.32-0.08h0.321h0.241l0.28,0.039l0.24,0.08l0.2,0.08v-0.319v-0.119l-0.04-0.159l-0.08-0.12l-0.08-0.08l-0.12-0.08l-0.16-0.039
		l-0.321-0.04l-0.321,0.04l-0.321,0.039l-0.28,0.121l-0.241,0.119l-0.441-0.76l0.4-0.199l0.4-0.16l0.44-0.08h0.441h0.399l0.361,0.08
		l0.32,0.16l0.28,0.159l0.2,0.239l0.161,0.241l0.08,0.319l0.04,0.358v3.032h-1.122v-0.36l-0.241,0.2l-0.319,0.16l-0.28,0.08
		l-0.241,0.04L89.674,128.343z"/>
	<path id="path191" fill="#878787" d="M89.434,126.788L89.434,126.788v-0.16l0.04-0.119l0.08-0.119l0.079-0.08l0.12-0.08l0.12-0.04
		l0.161-0.04h0.16h0.241l0.239,0.04l0.201,0.08l0.2,0.08v0.639l-0.161,0.16l-0.161,0.159l-0.279,0.121l-0.28,0.04l-0.16-0.04
		l-0.161-0.04l-0.12-0.04l-0.12-0.08l-0.079-0.08l-0.08-0.119l-0.04-0.159V126.788L89.434,126.788z M89.113,124.872L89.113,124.872
		l0.241-0.119l0.28-0.121l0.321-0.04l0.321-0.039l0.321,0.039l0.16,0.04l0.12,0.08l0.08,0.08l0.08,0.12l0.04,0.159v0.119v0.319
		l-0.2-0.08l-0.24-0.08l-0.28-0.039h-0.241h-0.321l-0.32,0.08l-0.281,0.08l-0.28,0.16l-0.241,0.2l-0.199,0.238l-0.12,0.319
		l-0.04,0.399l0.04,0.397l0.12,0.319l0.159,0.28l0.241,0.239l0.24,0.159l0.281,0.121l0.279,0.039l0.321,0.04l0.241-0.04l0.28-0.08
		l0.32-0.16l0.241-0.2v0.36H92.2v-3.032l-0.04-0.358l-0.08-0.319l-0.161-0.241l-0.199-0.238l-0.281-0.16l-0.32-0.16l-0.361-0.08
		h-0.399h-0.441l-0.44,0.08l-0.4,0.16l-0.4,0.199L89.113,124.872z"/>
	<path id="path193" fill="#878787" d="M101.413,124.633l-0.161,0.04l-0.161,0.08l-0.119,0.119l-0.08,0.119l-0.08,0.159l-0.08,0.2
		v0.2h1.683l-0.04-0.36l-0.08-0.159l-0.08-0.12l-0.12-0.12l-0.159-0.119l-0.161-0.04l-0.2-0.04L101.413,124.633z M101.252,128.343
		l-0.44-0.16l-0.361-0.2l-0.281-0.238l-0.279-0.36l-0.16-0.399l-0.12-0.438l-0.04-0.52l0.04-0.518l0.12-0.439l0.16-0.398l0.24-0.36
		l0.32-0.279l0.32-0.199l0.399-0.119l0.441-0.04l0.4,0.04l0.359,0.119l0.321,0.199l0.28,0.279l0.24,0.319l0.161,0.399l0.08,0.479
		l0.04,0.518v0.319h-2.804l0.08,0.319l0.081,0.238l0.161,0.16l0.119,0.119l0.2,0.08l0.12,0.039l0.281,0.04l0.28-0.04l0.24-0.08
		l0.2-0.12l0.161-0.159l0.722,0.719l-0.199,0.159l-0.161,0.159l-0.2,0.12l-0.2,0.08l-0.4,0.16l-0.439,0.04L101.252,128.343z"/>
	<path id="path195" fill="#878787" d="M100.732,125.551L100.732,125.551v-0.2l0.08-0.2l0.08-0.159l0.08-0.119l0.119-0.119
		l0.161-0.08l0.161-0.04l0.16-0.04l0.2,0.04l0.161,0.04l0.16,0.119l0.119,0.12l0.08,0.121l0.08,0.158l0.04,0.36L100.732,125.551
		L100.732,125.551z M102.615,126.947L102.615,126.947l-0.161,0.159l-0.2,0.12l-0.24,0.08l-0.28,0.04l-0.281-0.04l-0.12-0.039
		l-0.2-0.08l-0.119-0.119l-0.161-0.16l-0.081-0.238l-0.08-0.319h2.804v-0.319l-0.04-0.518l-0.08-0.479l-0.161-0.4l-0.24-0.319
		l-0.281-0.278l-0.321-0.2l-0.36-0.119l-0.399-0.04l-0.441,0.04l-0.399,0.119l-0.32,0.2l-0.32,0.278l-0.24,0.36l-0.16,0.397
		l-0.12,0.439l-0.04,0.518l0.04,0.52l0.12,0.438l0.16,0.399l0.279,0.36l0.281,0.238l0.361,0.2l0.44,0.16l0.481,0.04l0.439-0.04
		l0.4-0.16l0.2-0.08l0.201-0.12l0.16-0.158l0.2-0.16L102.615,126.947z"/>
	<path id="path197" fill="#878787" d="M112.191,124.633l-0.161,0.04l-0.12,0.08l-0.12,0.121l-0.12,0.119l-0.08,0.159l-0.04,0.2v0.2
		h1.684l-0.08-0.36l-0.04-0.158l-0.081-0.121l-0.12-0.12l-0.161-0.119l-0.16-0.04l-0.199-0.04L112.191,124.633z M112.07,128.343
		l-0.442-0.16l-0.359-0.2l-0.321-0.238l-0.241-0.36l-0.2-0.399l-0.081-0.438l-0.04-0.52l0.04-0.518l0.081-0.439l0.2-0.397
		l0.241-0.36l0.28-0.278l0.361-0.2l0.4-0.121l0.4-0.039l0.439,0.039l0.362,0.121l0.321,0.2l0.28,0.278l0.2,0.319l0.16,0.399
		l0.12,0.479l0.04,0.518v0.319h-2.806l0.04,0.319l0.12,0.238l0.12,0.16l0.16,0.119l0.161,0.08l0.161,0.039l0.241,0.04l0.28-0.04
		l0.24-0.08l0.2-0.12l0.2-0.159l0.681,0.719l-0.161,0.159l-0.2,0.159l-0.16,0.12l-0.199,0.08l-0.442,0.16l-0.441,0.04
		L112.07,128.343z"/>
	<path id="path199" fill="#878787" d="M111.549,125.55L111.549,125.55v-0.2l0.04-0.2l0.08-0.16l0.12-0.12l0.12-0.119l0.12-0.08
		l0.161-0.04l0.2-0.04l0.199,0.04l0.16,0.04l0.161,0.119l0.12,0.12l0.081,0.12l0.04,0.159l0.08,0.359h-1.683L111.549,125.55
		L111.549,125.55z M113.431,126.947L113.431,126.947l-0.2,0.159l-0.2,0.12l-0.24,0.08l-0.28,0.04l-0.241-0.04l-0.161-0.039
		l-0.161-0.08l-0.16-0.119l-0.12-0.16l-0.12-0.238l-0.04-0.319h2.806v-0.319l-0.04-0.518l-0.12-0.479l-0.16-0.4l-0.2-0.319
		l-0.28-0.278l-0.321-0.2l-0.362-0.121l-0.439-0.039l-0.4,0.039l-0.4,0.121l-0.361,0.2l-0.28,0.278l-0.241,0.36l-0.2,0.397
		l-0.081,0.439l-0.04,0.518l0.04,0.52l0.081,0.438l0.2,0.399l0.241,0.36l0.321,0.238l0.359,0.2l0.442,0.16l0.44,0.04l0.441-0.04
		l0.442-0.16l0.199-0.08l0.16-0.12l0.2-0.158l0.161-0.16L113.431,126.947z"/>
	<polygon id="polygon201" fill="#878787" points="108.624,128.343 108.344,128.224 108.144,128.104 107.983,127.905 
		107.864,127.705 107.783,127.465 107.743,127.226 107.702,126.987 107.702,124.792 107.022,124.792 107.022,123.755 
		107.702,123.755 107.702,122.598 108.824,122.039 108.824,123.755 109.867,123.755 109.867,124.792 108.824,124.792 
		108.824,126.707 108.866,126.987 108.945,127.147 109.025,127.226 109.105,127.266 109.305,127.305 109.506,127.305 
		109.667,127.266 109.986,127.106 109.867,128.144 109.667,128.263 109.425,128.304 109.185,128.343 108.904,128.383 	"/>
	<polygon id="polygon203" fill="#878787" points="108.824,124.792 109.867,124.792 109.867,123.755 108.824,123.755 
		108.824,122.039 107.702,122.598 107.702,123.755 107.022,123.755 107.022,124.792 107.702,124.792 107.702,126.987 
		107.743,127.226 107.783,127.465 107.864,127.705 107.983,127.905 108.144,128.104 108.344,128.223 108.624,128.343 
		108.904,128.383 109.185,128.343 109.425,128.304 109.667,128.263 109.867,128.144 109.986,127.106 109.667,127.266 
		109.506,127.305 109.306,127.305 109.105,127.266 109.025,127.226 108.945,127.147 108.866,126.987 108.824,126.707 	"/>
	<polygon id="polygon205" fill="#878787" points="105.419,128.343 105.14,128.223 104.939,128.104 104.778,127.905 104.658,127.705 
		104.578,127.465 104.538,127.226 104.498,126.987 104.498,124.792 103.817,124.792 103.817,123.755 104.498,123.755 
		104.498,122.598 105.619,122.039 105.619,123.755 106.581,123.755 106.581,124.792 105.619,124.792 105.619,126.707 
		105.66,126.987 105.74,127.147 105.82,127.226 105.899,127.266 106.1,127.305 106.3,127.305 106.461,127.266 106.781,127.106 
		106.662,128.144 106.461,128.263 106.221,128.304 105.98,128.343 105.699,128.383 	"/>
	<polygon id="polygon207" fill="#878787" points="106.781,127.106 106.781,127.106 106.461,127.266 106.3,127.305 106.1,127.305 
		105.899,127.266 105.82,127.226 105.74,127.147 105.66,126.987 105.619,126.707 105.619,124.792 106.581,124.792 106.581,123.755 
		105.619,123.755 105.619,122.039 104.498,122.598 104.498,123.755 103.817,123.755 103.817,124.792 104.498,124.792 
		104.498,126.987 104.538,127.226 104.578,127.465 104.658,127.705 104.778,127.905 104.939,128.104 105.14,128.223 
		105.419,128.342 105.699,128.383 105.98,128.342 106.221,128.304 106.461,128.263 106.662,128.144 	"/>
	<polygon id="polygon209" fill="#878787" points="115.034,128.263 115.034,123.755 116.156,123.755 116.156,124.153 
		116.356,123.914 116.598,123.794 116.878,123.675 117.158,123.675 117.358,123.675 117.599,123.714 117.8,123.835 118,123.914 
		117.679,125.031 117.519,124.912 117.358,124.832 117.158,124.792 116.957,124.792 116.757,124.792 116.598,124.832 
		116.477,124.912 116.356,125.031 116.277,125.191 116.197,125.35 116.156,125.591 116.156,125.829 116.156,128.263 	"/>
	<polygon id="polygon211" fill="#878787" points="118,123.914 118,123.914 117.8,123.835 117.599,123.714 117.358,123.675 
		117.158,123.675 116.878,123.675 116.598,123.794 116.356,123.914 116.156,124.153 116.156,123.755 115.034,123.755 
		115.034,128.263 116.156,128.263 116.156,125.829 116.156,125.591 116.197,125.35 116.277,125.191 116.356,125.031 
		116.477,124.912 116.598,124.832 116.757,124.792 116.957,124.792 117.158,124.792 117.358,124.832 117.52,124.912 
		117.679,125.031 	"/>
	<rect id="rect213" x="66.037" y="121.999" fill="#878787" width="1.121" height="1.116"/>
	<rect id="rect215" x="66.037" y="121.999" fill="#878787" width="1.121" height="1.116"/>
	<rect id="rect217" x="74.931" y="123.754" fill="#878787" width="1.121" height="4.509"/>
	<rect id="rect219" x="74.931" y="123.754" fill="#878787" width="1.121" height="4.509"/>
	<rect id="rect221" x="74.931" y="121.999" fill="#878787" width="1.121" height="1.116"/>
	<rect id="rect223" x="74.931" y="121.999" fill="#878787" width="1.121" height="1.116"/>
	<path id="path225" fill="#878787" d="M105.699,132.612l-0.12,0.08l-0.12,0.12l-0.12,0.159l-0.08,0.2l-0.08,0.318v0.319v0.399
		l0.08,0.318l0.08,0.241l0.12,0.2l0.12,0.119l0.161,0.08l0.12,0.039h0.16h0.279l0.2-0.119l0.161-0.16l0.16-0.159v-1.756l-0.12-0.16
		l-0.2-0.119l-0.2-0.121l-0.279-0.04h-0.16L105.699,132.612z M105.78,136.243l-0.4-0.039l-0.32-0.121l-0.32-0.2l-0.241-0.279
		l-0.2-0.318l-0.159-0.438l-0.081-0.439l-0.04-0.559l0.04-0.519l0.081-0.439l0.159-0.398l0.2-0.319l0.241-0.279l0.32-0.2l0.36-0.119
		l0.4-0.039l0.241,0.039l0.279,0.08l0.241,0.119l0.241,0.2v-1.636l1.122-0.56v6.385h-1.122v-0.359l-0.241,0.2l-0.281,0.159
		l-0.239,0.08H105.78L105.78,136.243L105.78,136.243z"/>
	<path id="path227" fill="#878787" d="M106.02,135.205L106.02,135.205h-0.16l-0.12-0.039l-0.161-0.08l-0.12-0.119l-0.12-0.2
		l-0.08-0.239l-0.08-0.318v-0.399v-0.319l0.08-0.318l0.08-0.2l0.12-0.159l0.12-0.12l0.12-0.08l0.161-0.04h0.16l0.279,0.04l0.2,0.121
		l0.2,0.119l0.12,0.16v1.755l-0.16,0.16l-0.161,0.159l-0.2,0.12L106.02,135.205L106.02,135.205z M106.821,131.974L106.821,131.974
		l-0.241-0.2l-0.241-0.119l-0.279-0.079l-0.241-0.04l-0.4,0.04l-0.359,0.119l-0.321,0.199l-0.241,0.28l-0.2,0.319l-0.159,0.398
		l-0.081,0.439l-0.04,0.519l0.04,0.558l0.081,0.439l0.159,0.438l0.2,0.318l0.241,0.279l0.321,0.2l0.319,0.121l0.4,0.039h0.281
		l0.239-0.08l0.281-0.159l0.241-0.2v0.359h1.122v-6.385l-1.122,0.56V131.974L106.821,131.974z"/>
	<polygon id="polygon229" fill="#878787" points="66.117,136.163 66.117,131.654 67.239,131.654 67.239,132.053 67.439,131.814 
		67.679,131.654 67.92,131.575 68.24,131.534 68.441,131.575 68.681,131.614 68.882,131.694 69.082,131.814 68.761,132.891 
		68.601,132.811 68.4,132.732 68.24,132.691 68.04,132.652 67.84,132.691 67.679,132.732 67.519,132.811 67.439,132.931 
		67.319,133.051 67.279,133.25 67.239,133.448 67.239,133.729 67.239,136.163 	"/>
	<polygon id="polygon231" fill="#878787" points="69.082,131.814 69.082,131.814 68.882,131.693 68.681,131.614 68.441,131.575 
		68.24,131.534 67.92,131.575 67.679,131.654 67.439,131.814 67.239,132.053 67.239,131.654 66.117,131.654 66.117,136.163 
		67.239,136.163 67.239,133.728 67.239,133.448 67.279,133.25 67.319,133.05 67.439,132.931 67.519,132.811 67.679,132.731 
		67.84,132.691 68.04,132.652 68.24,132.691 68.4,132.731 68.601,132.811 68.761,132.891 	"/>
	<polygon id="polygon233" fill="#878787" points="58.825,136.163 58.345,134.287 58.064,133.291 57.824,134.327 57.343,136.163 
		56.381,136.163 56.342,136.122 55.143,131.812 55.143,131.654 56.221,131.654 56.662,133.33 56.862,134.447 57.022,133.849 
		57.143,133.291 57.624,131.654 58.585,131.654 59.025,133.291 59.306,134.447 59.546,133.291 59.947,131.654 61.069,131.654 
		59.787,136.163 	"/>
	<g id="g235">
		<polygon id="polygon237" fill="#878787" points="59.546,133.291 59.546,133.291 59.306,134.447 59.025,133.291 58.585,131.654 
			57.624,131.654 57.143,133.291 57.022,133.849 56.862,134.447 56.662,133.33 56.221,131.654 55.099,131.654 56.342,136.122 
			56.381,136.163 57.343,136.163 57.824,134.327 58.064,133.291 58.345,134.287 58.825,136.163 59.787,136.163 61.069,131.654 
			59.947,131.654 		"/>
	</g>
	<path id="path239" fill="#878787" d="M62.992,132.691l-0.16,0.12l-0.161,0.119l-0.08,0.2l-0.079,0.239l-0.04,0.238l-0.04,0.279
		l0.04,0.28l0.04,0.278l0.079,0.2l0.08,0.2l0.161,0.159l0.16,0.12l0.161,0.04l0.2,0.039l0.2-0.039l0.16-0.04l0.16-0.12l0.161-0.159
		l0.08-0.2l0.08-0.2l0.08-0.278v-0.28v-0.279l-0.08-0.238l-0.08-0.239l-0.08-0.2l-0.161-0.119l-0.16-0.12l-0.16-0.08h-0.2h-0.2
		L62.992,132.691z M62.912,136.204l-0.399-0.121l-0.321-0.2l-0.321-0.279l-0.241-0.359l-0.199-0.398l-0.08-0.439l-0.04-0.519
		l0.04-0.479l0.08-0.439l0.199-0.439l0.241-0.318l0.321-0.279l0.321-0.2l0.399-0.159l0.441-0.039l0.44,0.039l0.4,0.159l0.321,0.2
		l0.32,0.279l0.24,0.318l0.2,0.439l0.08,0.439l0.04,0.479l-0.04,0.519l-0.08,0.439l-0.2,0.398l-0.24,0.359l-0.32,0.279l-0.321,0.2
		l-0.4,0.121l-0.44,0.039L62.912,136.204z"/>
	<path id="path241" fill="#878787" d="M63.353,135.205L63.353,135.205l-0.2-0.04l-0.161-0.039l-0.16-0.12l-0.161-0.16l-0.08-0.2
		l-0.079-0.2l-0.04-0.279l-0.04-0.279l0.04-0.279l0.04-0.238l0.079-0.241l0.08-0.199l0.161-0.119l0.16-0.12l0.161-0.08h0.2h0.2
		l0.159,0.08l0.161,0.12l0.161,0.119l0.08,0.199l0.08,0.241l0.08,0.238v0.279v0.279l-0.08,0.279l-0.08,0.2l-0.08,0.2l-0.161,0.16
		l-0.161,0.12l-0.159,0.039L63.353,135.205z M63.353,131.534L63.353,131.534l-0.441,0.039l-0.399,0.159l-0.321,0.2l-0.321,0.279
		l-0.241,0.318l-0.199,0.439l-0.08,0.439l-0.04,0.479l0.04,0.519l0.08,0.439l0.199,0.399l0.241,0.359l0.321,0.279l0.321,0.2
		l0.399,0.119l0.441,0.04l0.44-0.04l0.4-0.119l0.321-0.2l0.32-0.279l0.24-0.359l0.2-0.399l0.08-0.439l0.04-0.519l-0.04-0.479
		l-0.08-0.439l-0.2-0.439l-0.24-0.318l-0.32-0.279l-0.321-0.2l-0.4-0.159L63.353,131.534z"/>
	<polygon id="polygon243" fill="#878787" points="98.609,136.163 98.609,131.653 99.731,131.653 99.731,132.053 99.97,131.814 
		100.211,131.653 100.451,131.575 100.732,131.534 100.972,131.575 101.213,131.614 101.413,131.693 101.573,131.814 
		101.293,132.891 101.133,132.811 100.933,132.731 100.732,132.691 100.532,132.651 100.371,132.691 100.211,132.731 
		100.051,132.811 99.931,132.931 99.851,133.05 99.811,133.25 99.77,133.448 99.731,133.728 99.731,136.163 	"/>
	<polygon id="polygon245" fill="#878787" points="101.573,131.814 101.573,131.814 101.413,131.693 101.213,131.614 
		100.972,131.575 100.732,131.534 100.451,131.575 100.211,131.653 99.97,131.814 99.731,132.053 99.731,131.653 98.609,131.653 
		98.609,136.163 99.731,136.163 99.731,133.728 99.77,133.448 99.811,133.25 99.851,133.05 99.931,132.931 100.051,132.811 
		100.211,132.731 100.371,132.691 100.532,132.651 100.732,132.691 100.933,132.731 101.133,132.811 101.293,132.891 	"/>
	<polygon id="polygon247" fill="#878787" points="91.357,136.163 90.836,134.287 90.595,133.289 90.355,134.327 89.835,136.163 
		88.873,136.163 88.873,136.122 87.591,131.653 88.753,131.653 89.153,133.329 89.394,134.447 89.514,133.849 89.674,133.289 
		90.155,131.653 91.076,131.653 91.558,133.289 91.838,134.447 92.078,133.289 92.48,131.653 93.601,131.653 92.319,136.163 	"/>
	<polygon id="polygon249" fill="#878787" points="92.078,133.289 92.078,133.289 91.838,134.447 91.558,133.289 91.076,131.653 
		90.155,131.653 89.674,133.289 89.514,133.849 89.394,134.447 89.153,133.329 88.753,131.653 87.591,131.653 88.873,136.122 
		88.873,136.163 89.835,136.163 90.355,134.327 90.595,133.289 90.836,134.287 91.357,136.163 92.319,136.163 93.601,131.653 
		92.48,131.653 	"/>
	<path id="path251" fill="#878787" d="M95.484,132.691l-0.161,0.119l-0.12,0.119l-0.12,0.2l-0.08,0.24l-0.04,0.238v0.28v0.279
		l0.04,0.278l0.08,0.2l0.12,0.2l0.12,0.16l0.161,0.119l0.2,0.039l0.199,0.04l0.2-0.04l0.16-0.039l0.161-0.119l0.12-0.16l0.12-0.2
		l0.08-0.2l0.04-0.278v-0.279v-0.28l-0.04-0.238l-0.08-0.24l-0.12-0.2l-0.12-0.119l-0.161-0.119l-0.16-0.08h-0.2h-0.199
		L95.484,132.691z M95.443,136.202l-0.4-0.119l-0.359-0.2l-0.28-0.279l-0.241-0.359l-0.2-0.399l-0.12-0.439l-0.039-0.519
		l0.039-0.479l0.12-0.438l0.2-0.4l0.241-0.358l0.28-0.28l0.359-0.2l0.4-0.16l0.441-0.039l0.4,0.039l0.4,0.16l0.36,0.2l0.28,0.28
		l0.281,0.358l0.16,0.4l0.12,0.438l0.04,0.479l-0.04,0.519l-0.12,0.439l-0.16,0.399l-0.281,0.359l-0.28,0.279l-0.36,0.2l-0.4,0.119
		l-0.4,0.04L95.443,136.202z"/>
	<path id="path253" fill="#878787" d="M95.884,135.205L95.884,135.205l-0.199-0.04l-0.2-0.039l-0.161-0.119l-0.12-0.16l-0.12-0.2
		l-0.08-0.2l-0.04-0.278v-0.28v-0.279l0.04-0.238l0.08-0.241l0.12-0.2l0.12-0.119l0.161-0.119l0.2-0.08h0.199h0.2l0.16,0.08
		l0.161,0.119l0.12,0.119l0.12,0.2l0.08,0.241l0.04,0.238v0.279v0.28l-0.04,0.278l-0.08,0.2l-0.12,0.2l-0.12,0.16l-0.161,0.119
		l-0.16,0.039L95.884,135.205z M95.884,131.534L95.884,131.534l-0.441,0.038l-0.4,0.16l-0.359,0.2l-0.28,0.28l-0.241,0.358l-0.2,0.4
		l-0.12,0.438l-0.04,0.479l0.04,0.521l0.12,0.438l0.2,0.398l0.241,0.358l0.28,0.28l0.359,0.2l0.4,0.119l0.441,0.04l0.4-0.04
		l0.4-0.119l0.36-0.2l0.28-0.28l0.281-0.358l0.16-0.398l0.12-0.438l0.039-0.521l-0.039-0.479l-0.12-0.438l-0.16-0.4l-0.281-0.358
		l-0.28-0.28l-0.36-0.2l-0.4-0.16L95.884,131.534z"/>
	<polygon id="polygon255" fill="#878787" points="72.247,136.163 71.285,134.048 70.724,134.806 70.724,136.163 69.602,136.163 
		69.602,130.337 70.724,129.779 70.724,133.369 71.125,132.811 72.006,131.653 73.328,131.653 72.126,133.13 73.488,136.163 	"/>
	<polygon id="polygon257" fill="#878787" points="73.328,131.653 72.006,131.653 71.125,132.811 70.724,133.369 70.724,129.779 
		69.602,130.337 69.602,136.163 70.724,136.163 70.724,134.806 71.285,134.048 72.247,136.163 73.488,136.163 72.126,133.13 	"/>
	<polygon id="polygon259" fill="#878787" points="79.098,136.163 79.098,133.649 79.098,133.409 79.057,133.17 78.977,132.97 
		78.898,132.851 78.777,132.731 78.657,132.651 78.496,132.571 78.296,132.571 78.096,132.571 77.896,132.651 77.775,132.731 
		77.655,132.851 77.535,133.01 77.495,133.17 77.455,133.409 77.415,133.649 77.415,136.163 76.293,136.163 76.293,131.653 
		77.415,131.653 77.415,132.013 77.655,131.814 77.936,131.653 78.216,131.573 78.577,131.534 78.937,131.573 79.298,131.693 
		79.578,131.852 79.819,132.053 79.979,132.372 80.099,132.731 80.18,133.13 80.219,133.608 80.219,136.163 	"/>
	<polygon id="polygon261" fill="#878787" points="77.415,133.649 77.415,133.649 77.455,133.409 77.495,133.169 77.535,133.01 
		77.656,132.851 77.775,132.731 77.896,132.651 78.096,132.571 78.296,132.571 78.496,132.571 78.657,132.651 78.777,132.731 
		78.898,132.851 78.977,132.97 79.057,133.169 79.098,133.409 79.098,133.649 79.098,136.163 80.219,136.163 80.219,133.608 
		80.18,133.13 80.099,132.731 79.979,132.372 79.819,132.053 79.578,131.852 79.298,131.693 78.937,131.573 78.577,131.534 
		78.216,131.573 77.936,131.653 77.656,131.814 77.415,132.012 77.415,131.653 76.293,131.653 76.293,136.163 77.415,136.163 	"/>
	<path id="path263" fill="#878787" d="M82.663,132.611l-0.161,0.08l-0.12,0.119l-0.119,0.161l-0.08,0.199l-0.04,0.318l-0.04,0.319
		l0.04,0.399l0.04,0.318l0.08,0.239l0.119,0.2l0.161,0.12l0.12,0.08l0.161,0.04h0.12h0.28l0.199-0.119l0.2-0.16l0.12-0.16v-1.756
		l-0.12-0.159l-0.161-0.12l-0.24-0.119l-0.28-0.04h-0.12L82.663,132.611z M82.263,137.12h0.04l0.48-0.04l0.361-0.08l0.241-0.159
		l0.199-0.16l0.08-0.159l0.08-0.2v-0.398v-0.119l-0.2,0.199l-0.28,0.121l-0.24,0.12h-0.28l-0.399-0.04l-0.361-0.119l-0.281-0.2
		l-0.28-0.279l-0.199-0.318l-0.12-0.44l-0.08-0.479l-0.04-0.52l0.04-0.518l0.08-0.439l0.161-0.398l0.199-0.319l0.24-0.279l0.321-0.2
		l0.321-0.119l0.399-0.04l0.28,0.04l0.28,0.079l0.24,0.121l0.2,0.2v-0.319h1.121v4.07l-0.04,0.521l-0.08,0.479l-0.16,0.399
		l-0.12,0.159l-0.119,0.119l-0.16,0.159l-0.161,0.121l-0.4,0.16l-0.44,0.119L82.663,138L82.263,137.12z"/>
	<g id="g265">
		<path id="path267" fill="#878787" d="M83.745,133.01v1.756l-0.12,0.16l-0.2,0.16l-0.199,0.119h-0.28h-0.12l-0.161-0.04l-0.12-0.08
			l-0.161-0.12l-0.119-0.2l-0.08-0.239l-0.04-0.318l-0.04-0.399l0.04-0.319l0.04-0.318l0.08-0.2l0.119-0.16l0.12-0.119l0.16-0.08
			l0.161-0.039h0.12l0.28,0.039l0.24,0.12l0.161,0.12L83.745,133.01z M83.745,131.972L83.745,131.972l-0.2-0.2l-0.24-0.121
			l-0.28-0.08l-0.28-0.04l-0.399,0.04l-0.321,0.12l-0.321,0.2l-0.24,0.279l-0.199,0.318l-0.161,0.399l-0.08,0.439l-0.04,0.518
			l0.04,0.519l0.08,0.479l0.12,0.44l0.199,0.318l0.28,0.279l0.281,0.2l0.36,0.119l0.4,0.039h0.28l0.24-0.119l0.281-0.12l0.2-0.2
			v0.12v0.398l-0.08,0.2l-0.08,0.159l-0.2,0.16l-0.24,0.16l-0.361,0.08l-0.479,0.04h-0.04l0.399,0.878l0.521-0.04l0.44-0.121
			l0.4-0.159l0.161-0.121l0.16-0.159l0.119-0.12l0.12-0.158l0.16-0.399l0.08-0.479l0.04-0.52v-4.07h-1.121V131.972L83.745,131.972z"
			/>
	</g>
	<rect id="rect269" x="74.17" y="131.653" fill="#878787" width="1.122" height="4.51"/>
	<rect id="rect271" x="74.17" y="131.653" fill="#878787" width="1.122" height="4.51"/>
	<rect id="rect273" x="74.17" y="129.897" fill="#878787" width="1.122" height="1.117"/>
	<rect id="rect275" x="74.17" y="129.897" fill="#878787" width="1.122" height="1.117"/>
	<polygon id="polygon277" fill="#878787" points="102.135,136.162 102.135,130.337 103.255,129.778 103.255,136.162 	"/>
	<polygon id="polygon279" fill="#878787" points="102.135,136.162 103.255,136.162 103.255,129.778 102.135,130.337 	"/>
	<polygon id="polygon281" fill="#878787" points="10,105.637 80.501,80 80.509,80 80.509,93.244 10,105.646 	"/>
	<polygon id="polygon283" fill="#878787" points="10.397,136.575 10.397,111.198 24.86,111.198 28.225,117.023 18.009,117.023 
		18.009,121.213 27.264,121.213 27.264,126.559 18.009,126.559 18.009,130.749 30.789,130.749 30.789,136.575 	"/>
	<polygon id="polygon285" fill="#878787" points="18.009,126.559 27.264,126.559 27.264,121.213 18.009,121.213 18.009,117.023 
		28.225,117.023 24.86,111.198 10.397,111.198 10.397,136.575 30.789,136.575 30.789,130.749 18.009,130.749 	"/>
	<polygon id="polygon287" fill="#878787" points="36.158,136.575 36.158,126.559 27.264,111.198 35.718,111.198 40.004,119.497 
		44.331,111.198 52.704,111.198 43.77,126.559 43.77,136.575 	"/>
	<polygon id="polygon289" fill="#878787" points="44.331,111.198 40.004,119.497 35.718,111.198 27.264,111.198 36.158,126.559 
		36.158,136.575 43.77,136.575 43.77,126.559 52.704,111.198 	"/>
</g>
</svg>
