<?xml version="1.0" encoding="utf-8"?>
<!-- Generator: Adobe Illustrator 16.0.0, SVG Export Plug-In . SVG Version: 6.00 Build 0)  -->
<!DOCTYPE svg PUBLIC "-//W3C//DTD SVG 1.1//EN" "http://www.w3.org/Graphics/SVG/1.1/DTD/svg11.dtd">
<svg version="1.1"
	 id="Шар_1" xmlns:sodipodi="http://sodipodi.sourceforge.net/DTD/sodipodi-0.dtd" xmlns:cc="http://creativecommons.org/ns#" xmlns:rdf="http://www.w3.org/1999/02/22-rdf-syntax-ns#" xmlns:inkscape="http://www.inkscape.org/namespaces/inkscape" xmlns:svg="http://www.w3.org/2000/svg" xmlns:dc="http://purl.org/dc/elements/1.1/" inkscape:version="0.91 r13725" sodipodi:docname="partners.svg"
	 xmlns="http://www.w3.org/2000/svg" xmlns:xlink="http://www.w3.org/1999/xlink" x="0px" y="0px" width="148px" height="50px"
	 viewBox="10 10 148 50" enable-background="new 10 10 148 50" xml:space="preserve">
<sodipodi:namedview  id="namedview616" objecttolerance="10" guidetolerance="10" bordercolor="#666666" inkscape:cx="687.02301" borderopacity="1" inkscape:zoom="0.20304997" pagecolor="#ffffff" showgrid="false" inkscape:cy="367.284" gridtolerance="10" inkscape:current-layer="Шар_1" inkscape:window-x="0" inkscape:window-height="480" inkscape:pageshadow="2" inkscape:window-width="640" inkscape:window-y="0" inkscape:pageopacity="0" inkscape:window-maximized="0">
	</sodipodi:namedview>
<g>
	<path fill="#878787" d="M71.592,23.268c-0.182,0-0.338,0.064-0.467,0.193c-0.13,0.129-0.192,0.285-0.192,0.467v9.96L62.85,23.507
		c-0.145-0.158-0.314-0.238-0.514-0.238c-0.182,0-0.338,0.064-0.467,0.193c-0.13,0.129-0.194,0.285-0.194,0.467v11.883
		c0,0.183,0.065,0.336,0.194,0.465c0.13,0.129,0.285,0.195,0.467,0.195c0.184,0,0.338-0.066,0.469-0.195
		c0.13-0.129,0.192-0.283,0.192-0.465v-9.953l8.101,10.397c0.138,0.144,0.303,0.216,0.494,0.216c0.184,0,0.34-0.066,0.469-0.195
		c0.13-0.129,0.192-0.283,0.192-0.465V23.929c0-0.183-0.063-0.338-0.192-0.467C71.929,23.333,71.774,23.268,71.592,23.268z"/>
	<path fill="#878787" d="M87.568,34.538c1.292-1.29,1.938-2.847,1.938-4.667c0-1.821-0.646-3.376-1.938-4.667
		c-1.292-1.29-2.854-1.936-4.674-1.936c-1.824,0-3.382,0.646-4.674,1.936s-1.938,2.846-1.938,4.667c0,1.82,0.646,3.377,1.938,4.667
		s2.851,1.937,4.674,1.937C84.719,36.473,86.276,35.828,87.568,34.538z M77.605,29.871c0-1.457,0.518-2.703,1.55-3.732
		c1.033-1.032,2.279-1.55,3.74-1.55c1.46,0,2.707,0.516,3.737,1.55c1.033,1.03,1.553,2.274,1.553,3.732s-0.52,2.701-1.553,3.732
		c-1.03,1.031-2.276,1.549-3.737,1.549c-1.46,0-2.707-0.516-3.74-1.549C78.123,32.572,77.605,31.329,77.605,29.871z"/>
	<path fill="#878787" d="M102.843,23.268c-0.293,0-0.492,0.127-0.604,0.38l-4.022,10.34l-4.023-10.34
		c-0.111-0.254-0.313-0.38-0.604-0.38c-0.182,0-0.338,0.064-0.467,0.193c-0.131,0.129-0.193,0.285-0.193,0.467
		c0,0.12,0.027,0.244,0.082,0.371l4.604,11.762c0.032,0.088,0.079,0.158,0.141,0.213c0.127,0.133,0.281,0.199,0.463,0.199
		c0.184,0,0.341-0.066,0.473-0.199c0.055-0.055,0.1-0.125,0.133-0.213l4.604-11.762c0.057-0.127,0.082-0.251,0.082-0.371
		c0-0.183-0.063-0.338-0.191-0.467C103.181,23.333,103.025,23.268,102.843,23.268z"/>
	<path fill="#878787" d="M116.13,23.268c-0.227,0-0.403,0.091-0.537,0.271l-3.43,5.133l-3.431-5.133
		c-0.133-0.182-0.313-0.271-0.537-0.271c-0.182,0-0.338,0.064-0.467,0.193c-0.13,0.129-0.194,0.285-0.194,0.467
		c0,0.138,0.036,0.262,0.108,0.371l3.856,5.77v5.744c0,0.184,0.065,0.338,0.194,0.467c0.13,0.13,0.285,0.193,0.468,0.193
		c0.184,0,0.338-0.063,0.467-0.193c0.129-0.129,0.193-0.284,0.193-0.467v-5.744l3.859-5.77c0.07-0.11,0.105-0.233,0.105-0.371
		c0-0.183-0.063-0.338-0.191-0.467C116.466,23.333,116.312,23.268,116.13,23.268z"/>
	<path fill="#878787" d="M125.119,35.813c0,0.184,0.065,0.338,0.194,0.467c0.13,0.13,0.285,0.193,0.467,0.193
		c0.183,0,0.339-0.063,0.468-0.193c0.129-0.129,0.193-0.284,0.193-0.467V24.59h3.637c0.182,0,0.338-0.064,0.467-0.193
		s0.193-0.284,0.193-0.466c0-0.183-0.064-0.337-0.193-0.467c-0.131-0.129-0.287-0.193-0.467-0.193h-8.596
		c-0.184,0-0.338,0.064-0.467,0.193c-0.13,0.13-0.194,0.284-0.194,0.467c0,0.182,0.065,0.337,0.194,0.466
		c0.13,0.129,0.283,0.193,0.467,0.193h3.637V35.813L125.119,35.813z"/>
	<path fill="#878787" d="M143.365,24.59c0.182,0,0.338-0.064,0.467-0.193c0.131-0.129,0.194-0.284,0.194-0.466
		c0-0.183-0.065-0.337-0.194-0.467c-0.129-0.129-0.285-0.193-0.467-0.193h-7.934c-0.184,0-0.34,0.064-0.469,0.195
		c-0.131,0.13-0.192,0.285-0.192,0.467v11.883c0,0.183,0.063,0.336,0.192,0.465c0.129,0.131,0.285,0.195,0.469,0.195h7.934
		c0.182,0,0.338-0.064,0.467-0.195c0.131-0.129,0.194-0.282,0.194-0.465c0-0.184-0.065-0.338-0.194-0.467s-0.285-0.193-0.467-0.193
		h-7.273v-4.62h5.291c0.184,0,0.34-0.063,0.469-0.194c0.13-0.129,0.191-0.283,0.191-0.466s-0.063-0.337-0.191-0.466
		c-0.13-0.131-0.286-0.194-0.469-0.194h-5.291V24.59H143.365z"/>
	<path fill="#878787" d="M157.289,33.882c-0.144,0-0.27,0.038-0.379,0.115c-0.943,0.771-2.045,1.155-3.307,1.155
		c-1.46,0-2.707-0.516-3.74-1.549c-1.033-1.031-1.55-2.274-1.55-3.732c0-1.457,0.517-2.703,1.55-3.732
		c1.033-1.032,2.279-1.55,3.74-1.55c1.245,0,2.333,0.375,3.264,1.123c0.133,0.134,0.289,0.198,0.471,0.198
		c0.185,0,0.338-0.064,0.47-0.194c0.13-0.129,0.192-0.284,0.192-0.466s-0.063-0.339-0.188-0.471c-1.229-1.007-2.631-1.51-4.207-1.51
		c-1.824,0-3.382,0.646-4.674,1.936s-1.938,2.848-1.938,4.667c0,1.821,0.646,3.377,1.938,4.667s2.85,1.936,4.674,1.936
		c1.542,0,2.929-0.488,4.155-1.47c0.129-0.126,0.189-0.278,0.189-0.462s-0.064-0.337-0.193-0.466
		C157.626,33.945,157.47,33.882,157.289,33.882z"/>
	<path fill="#878787" d="M64.766,45.307c-0.154-0.066-0.429-0.152-0.818-0.256c-0.27-0.072-0.433-0.119-0.488-0.142
		c-0.096-0.038-0.167-0.089-0.212-0.146c-0.045-0.059-0.066-0.121-0.066-0.193c0-0.112,0.054-0.211,0.161-0.295
		c0.108-0.082,0.289-0.125,0.545-0.125c0.215,0,0.381,0.047,0.497,0.142c0.118,0.095,0.188,0.226,0.215,0.394l0.539-0.074
		c-0.035-0.211-0.1-0.379-0.19-0.504c-0.09-0.127-0.235-0.227-0.428-0.299c-0.194-0.074-0.418-0.111-0.674-0.111
		c-0.171,0-0.328,0.021-0.479,0.066c-0.146,0.043-0.265,0.098-0.351,0.159c-0.115,0.082-0.205,0.185-0.271,0.31
		c-0.064,0.123-0.099,0.258-0.099,0.401c0,0.16,0.041,0.306,0.121,0.437c0.08,0.133,0.198,0.236,0.354,0.311
		c0.157,0.074,0.438,0.162,0.842,0.266c0.303,0.076,0.488,0.139,0.564,0.188c0.109,0.069,0.163,0.169,0.163,0.294
		c0,0.141-0.063,0.262-0.186,0.361c-0.122,0.104-0.31,0.154-0.563,0.154c-0.252,0-0.448-0.059-0.588-0.174
		c-0.142-0.117-0.227-0.285-0.256-0.505l-0.546,0.087c0.062,0.346,0.201,0.604,0.423,0.78c0.221,0.175,0.544,0.265,0.967,0.265
		c0.255,0,0.484-0.045,0.687-0.135c0.203-0.088,0.358-0.214,0.467-0.376c0.107-0.162,0.159-0.336,0.159-0.521
		c0-0.188-0.044-0.344-0.132-0.471C65.041,45.471,64.921,45.374,64.766,45.307z"/>
	<path fill="#878787" d="M70.583,43.697c-0.413,0-0.748,0.189-1.006,0.57c-0.063-0.182-0.172-0.32-0.326-0.42
		c-0.152-0.102-0.353-0.15-0.594-0.15c-0.216,0-0.41,0.05-0.579,0.146c-0.169,0.096-0.305,0.225-0.408,0.383V43.77h-0.494v3.254
		l0.552-0.002v-1.688c0-0.296,0.027-0.521,0.089-0.682c0.06-0.155,0.155-0.274,0.287-0.356s0.274-0.123,0.431-0.123
		c0.204,0,0.353,0.062,0.442,0.185s0.135,0.308,0.135,0.554v2.112h0.552v-1.892c0-0.335,0.075-0.577,0.229-0.729
		c0.149-0.151,0.341-0.229,0.568-0.229c0.127,0,0.237,0.029,0.332,0.091c0.096,0.059,0.159,0.137,0.195,0.233
		c0.035,0.099,0.053,0.256,0.053,0.478v2.049h0.549V44.79c0-0.372-0.087-0.646-0.261-0.825
		C71.154,43.787,70.906,43.697,70.583,43.697z"/>
	<path fill="#878787" d="M76.304,45.662v-0.734c0-0.244-0.012-0.414-0.028-0.51c-0.032-0.15-0.09-0.275-0.172-0.375
		s-0.209-0.182-0.384-0.247c-0.176-0.063-0.4-0.099-0.68-0.099c-0.278,0-0.525,0.037-0.737,0.115
		c-0.214,0.076-0.375,0.186-0.487,0.326c-0.113,0.143-0.194,0.327-0.243,0.559l0.54,0.074c0.059-0.229,0.151-0.392,0.274-0.48
		c0.124-0.091,0.313-0.137,0.573-0.137c0.278,0,0.488,0.063,0.629,0.188c0.104,0.094,0.156,0.252,0.156,0.477
		c0,0.021,0,0.068-0.002,0.145c-0.211,0.073-0.539,0.139-0.986,0.189c-0.219,0.025-0.381,0.055-0.488,0.082
		c-0.147,0.041-0.28,0.103-0.397,0.183c-0.117,0.08-0.212,0.187-0.285,0.317c-0.071,0.132-0.107,0.277-0.107,0.437
		c0,0.271,0.096,0.494,0.289,0.669c0.191,0.176,0.467,0.264,0.822,0.264c0.22,0,0.423-0.035,0.609-0.106
		c0.189-0.071,0.387-0.192,0.592-0.368c0.018,0.152,0.055,0.287,0.11,0.4h0.576c-0.069-0.123-0.116-0.254-0.142-0.391
		C76.316,46.498,76.304,46.174,76.304,45.662z M75.656,46.146c-0.078,0.162-0.199,0.287-0.365,0.381s-0.354,0.14-0.564,0.14
		c-0.217,0-0.378-0.049-0.489-0.146c-0.112-0.101-0.167-0.223-0.167-0.369c0-0.096,0.026-0.184,0.077-0.262
		c0.051-0.078,0.124-0.139,0.218-0.18c0.094-0.041,0.255-0.078,0.481-0.109c0.397-0.059,0.698-0.127,0.899-0.209v0.203
		C75.746,45.837,75.716,46.021,75.656,46.146z"/>
	<path fill="#878787" d="M79.257,43.807c-0.105,0.073-0.225,0.228-0.35,0.457v-0.492H78.41v3.252h0.553V45.32
		c0-0.231,0.031-0.446,0.094-0.643c0.041-0.131,0.107-0.23,0.206-0.304c0.096-0.071,0.202-0.108,0.323-0.108
		c0.138,0,0.271,0.041,0.406,0.121l0.189-0.514c-0.192-0.118-0.383-0.18-0.567-0.18C79.483,43.695,79.365,43.732,79.257,43.807z"/>
	<path fill="#878787" d="M82.728,46.553c-0.081,0-0.146-0.015-0.188-0.041c-0.045-0.025-0.076-0.063-0.097-0.107
		s-0.028-0.146-0.028-0.303V44.2h0.557V43.77h-0.557v-1.137l-0.549,0.331v0.808H81.46v0.43h0.406v1.869
		c0,0.33,0.022,0.55,0.067,0.652c0.044,0.104,0.122,0.188,0.231,0.25c0.11,0.063,0.268,0.094,0.465,0.094
		c0.123,0,0.265-0.016,0.418-0.049l-0.078-0.486C82.869,46.545,82.789,46.553,82.728,46.553z"/>
	<path fill="#878787" d="M89.089,43.697c-0.4,0-0.741,0.121-1.022,0.361c-0.335,0.291-0.503,0.735-0.503,1.34
		c0,0.549,0.141,0.971,0.421,1.264c0.281,0.292,0.647,0.438,1.104,0.438c0.283,0,0.545-0.066,0.785-0.199
		c0.24-0.131,0.424-0.317,0.549-0.56c0.127-0.239,0.189-0.569,0.189-0.987c0-0.518-0.142-0.922-0.427-1.213
		C89.904,43.846,89.539,43.697,89.089,43.697z M89.775,46.332c-0.184,0.208-0.41,0.313-0.686,0.313
		c-0.274,0-0.504-0.104-0.687-0.312c-0.182-0.208-0.272-0.521-0.272-0.937c0-0.418,0.093-0.729,0.272-0.936
		c0.181-0.206,0.411-0.311,0.687-0.311c0.272,0,0.5,0.104,0.686,0.313c0.184,0.207,0.273,0.514,0.273,0.914
		C90.048,45.807,89.957,46.124,89.775,46.332z"/>
	<path fill="#878787" d="M94.596,45.514c0,0.276-0.03,0.488-0.093,0.635c-0.06,0.146-0.162,0.263-0.308,0.348
		s-0.301,0.127-0.466,0.127s-0.307-0.041-0.417-0.124c-0.112-0.083-0.188-0.194-0.222-0.343c-0.022-0.1-0.032-0.293-0.032-0.582
		V43.77h-0.554v2.018c0,0.234,0.012,0.404,0.033,0.516c0.031,0.161,0.09,0.299,0.17,0.408s0.203,0.203,0.371,0.275
		c0.166,0.074,0.349,0.111,0.539,0.111c0.437,0,0.779-0.185,1.033-0.553v0.479h0.494V43.77h-0.552v1.744H94.596z"/>
	<path fill="#878787" d="M98.232,46.553c-0.081,0-0.146-0.015-0.188-0.041c-0.045-0.025-0.076-0.063-0.097-0.107
		c-0.019-0.045-0.028-0.146-0.028-0.303V44.2h0.557V43.77h-0.557v-1.137l-0.549,0.331v0.808h-0.406v0.43h0.406v1.869
		c0,0.33,0.022,0.55,0.067,0.652c0.044,0.104,0.122,0.188,0.231,0.25c0.11,0.063,0.268,0.094,0.468,0.094
		c0.12,0,0.262-0.016,0.417-0.049l-0.08-0.486C98.375,46.545,98.294,46.553,98.232,46.553z"/>
	<path fill="#878787" d="M102.261,45.307c-0.154-0.066-0.428-0.152-0.818-0.256c-0.271-0.072-0.436-0.119-0.488-0.142
		c-0.096-0.038-0.166-0.089-0.211-0.146c-0.045-0.059-0.068-0.121-0.068-0.193c0-0.112,0.057-0.211,0.162-0.295
		c0.109-0.082,0.289-0.125,0.543-0.125c0.219,0,0.384,0.047,0.5,0.142c0.117,0.095,0.188,0.226,0.211,0.394l0.541-0.074
		c-0.033-0.211-0.098-0.379-0.188-0.504c-0.093-0.127-0.235-0.227-0.428-0.299c-0.194-0.074-0.418-0.111-0.677-0.111
		c-0.17,0-0.326,0.021-0.477,0.066c-0.15,0.043-0.265,0.098-0.351,0.159c-0.115,0.082-0.205,0.185-0.271,0.31
		c-0.068,0.123-0.101,0.258-0.101,0.401c0,0.16,0.041,0.306,0.121,0.437c0.079,0.134,0.198,0.236,0.354,0.311
		s0.438,0.162,0.842,0.266c0.301,0.076,0.487,0.139,0.563,0.188c0.106,0.069,0.162,0.169,0.162,0.294
		c0,0.141-0.063,0.262-0.187,0.361c-0.123,0.102-0.311,0.154-0.563,0.154s-0.448-0.059-0.588-0.174
		c-0.143-0.117-0.227-0.285-0.256-0.505l-0.549,0.087c0.063,0.346,0.203,0.604,0.428,0.78c0.221,0.175,0.545,0.265,0.967,0.265
		c0.256,0,0.482-0.045,0.688-0.135c0.203-0.088,0.357-0.214,0.465-0.376s0.16-0.336,0.16-0.521c0-0.188-0.043-0.344-0.131-0.471
		C102.537,45.471,102.416,45.374,102.261,45.307z"/>
	<path fill="#878787" d="M105.992,43.697c-0.404,0-0.744,0.121-1.025,0.361c-0.336,0.291-0.504,0.735-0.504,1.34
		c0,0.549,0.144,0.971,0.422,1.264c0.281,0.292,0.65,0.438,1.105,0.438c0.284,0,0.547-0.066,0.787-0.199
		c0.24-0.131,0.424-0.317,0.549-0.56c0.127-0.239,0.189-0.569,0.189-0.987c0-0.518-0.145-0.922-0.428-1.213
		C106.805,43.848,106.439,43.697,105.992,43.697z M106.675,46.332c-0.182,0.208-0.407,0.313-0.684,0.313
		c-0.275,0-0.505-0.104-0.687-0.312c-0.185-0.208-0.274-0.521-0.274-0.937c0-0.418,0.092-0.729,0.274-0.936
		c0.182-0.206,0.409-0.311,0.687-0.311c0.272,0,0.5,0.104,0.684,0.313c0.185,0.207,0.275,0.514,0.275,0.914
		C106.949,45.807,106.858,46.124,106.675,46.332z"/>
	<path fill="#878787" d="M111.496,45.514c0,0.276-0.029,0.488-0.09,0.635c-0.06,0.146-0.162,0.263-0.308,0.348
		s-0.304,0.127-0.468,0.127c-0.166,0-0.305-0.041-0.418-0.124c-0.109-0.083-0.186-0.194-0.221-0.343
		c-0.021-0.1-0.033-0.293-0.033-0.582V43.77h-0.551v2.018c0,0.234,0.01,0.404,0.032,0.516c0.032,0.161,0.09,0.299,0.17,0.408
		c0.081,0.109,0.204,0.203,0.371,0.275c0.167,0.074,0.347,0.111,0.539,0.111c0.435,0,0.778-0.185,1.034-0.553v0.479h0.492V43.77
		h-0.553v1.744H111.496z"/>
	<path fill="#878787" d="M115.012,43.807c-0.108,0.073-0.228,0.228-0.353,0.457v-0.492h-0.498v3.252h0.553V45.32
		c0-0.231,0.031-0.446,0.095-0.643c0.04-0.131,0.106-0.23,0.205-0.304c0.096-0.071,0.205-0.108,0.323-0.108
		c0.138,0,0.271,0.041,0.406,0.121l0.189-0.514c-0.191-0.118-0.381-0.18-0.566-0.18C115.237,43.695,115.119,43.732,115.012,43.807z"
		/>
	<path fill="#878787" d="M119.369,46.445c-0.145,0.135-0.326,0.199-0.543,0.199c-0.271,0-0.488-0.1-0.656-0.297
		s-0.252-0.516-0.252-0.953c0-0.432,0.088-0.746,0.264-0.943c0.173-0.199,0.396-0.301,0.678-0.301c0.184,0,0.342,0.057,0.471,0.166
		c0.129,0.111,0.219,0.274,0.271,0.494l0.537-0.084c-0.063-0.328-0.208-0.582-0.435-0.762c-0.225-0.178-0.515-0.27-0.869-0.27
		c-0.277,0-0.539,0.066-0.775,0.197c-0.239,0.133-0.415,0.33-0.532,0.594c-0.116,0.264-0.175,0.57-0.175,0.923
		c0,0.543,0.136,0.96,0.404,1.251c0.271,0.29,0.629,0.438,1.074,0.438c0.356,0,0.656-0.107,0.9-0.318s0.396-0.504,0.455-0.877
		l-0.542-0.07C119.605,46.107,119.513,46.313,119.369,46.445z"/>
	<rect x="121.919" y="42.533" fill="#878787" width="0.554" height="0.634"/>
	<rect x="121.919" y="43.771" fill="#878787" width="0.554" height="3.252"/>
	<path fill="#878787" d="M127.013,44.081c-0.081-0.114-0.204-0.207-0.369-0.276c-0.164-0.07-0.346-0.105-0.541-0.105
		c-0.452,0-0.798,0.179-1.038,0.535v-0.463h-0.497v3.254h0.553V45.25c0-0.417,0.084-0.7,0.254-0.85
		c0.172-0.148,0.375-0.223,0.609-0.223c0.146,0,0.273,0.031,0.385,0.098c0.109,0.065,0.188,0.156,0.229,0.268
		c0.044,0.109,0.063,0.279,0.063,0.504v1.979h0.551v-2c0-0.254-0.01-0.434-0.028-0.535
		C127.152,44.331,127.094,44.195,127.013,44.081z"/>
	<path fill="#878787" d="M131.468,44.164c-0.247-0.313-0.565-0.467-0.949-0.467c-0.289,0-0.539,0.07-0.753,0.215
		c-0.216,0.145-0.376,0.345-0.489,0.607c-0.111,0.264-0.169,0.549-0.169,0.857c0,0.451,0.123,0.839,0.368,1.161
		c0.244,0.321,0.592,0.483,1.04,0.483c0.358,0,0.659-0.144,0.901-0.426c0.002,0.357-0.012,0.594-0.041,0.707
		c-0.049,0.184-0.143,0.325-0.283,0.428c-0.139,0.104-0.336,0.154-0.592,0.154c-0.234,0-0.424-0.052-0.561-0.154
		c-0.104-0.074-0.165-0.194-0.188-0.359l-0.537-0.08c-0.008,0.352,0.109,0.613,0.351,0.789c0.238,0.175,0.554,0.264,0.938,0.264
		c0.328,0,0.604-0.063,0.828-0.186c0.226-0.122,0.389-0.289,0.49-0.5s0.154-0.57,0.154-1.077v-2.813h-0.512v0.396H131.468z
		 M131.205,46.275c-0.172,0.195-0.385,0.293-0.638,0.293c-0.256,0-0.469-0.098-0.638-0.295c-0.172-0.194-0.258-0.508-0.258-0.936
		c0-0.393,0.086-0.688,0.261-0.886c0.171-0.199,0.38-0.3,0.625-0.3c0.249,0,0.463,0.102,0.64,0.304
		c0.178,0.202,0.266,0.503,0.266,0.899C131.462,45.773,131.376,46.08,131.205,46.275z"/>
	<polygon fill="#878787" points="31.098,24.81 31.098,17.165 24.317,21.487 24.317,29.131 	"/>
	<polygon fill="#878787" points="40.14,47.549 46.701,43.921 40.14,39.783 	"/>
	<polygon fill="#878787" points="23.563,21.605 16.782,18.677 16.782,25.559 16.797,25.568 16.797,26.529 16.782,26.52 
		16.782,34.549 23.563,38.207 	"/>
	<polygon fill="#878787" points="23.563,39.063 16.782,35.404 16.782,43.491 23.563,47.15 	"/>
	<polygon fill="#878787" points="46.922,26.418 46.406,25.805 31.852,17.142 31.852,24.803 40.155,29.719 40.155,30.219 
		40.14,30.227 40.14,38.893 46.922,43.171 	"/>
	<polygon fill="#878787" points="31.48,25.459 24.51,29.9 31.665,33.918 38.917,29.928 	"/>
	<polygon fill="#878787" points="24.317,38.613 24.317,48.412 16.028,43.939 16.028,34.143 16.028,26.091 10,22.658 10,47.977 
		31.098,59.988 31.098,34.672 24.317,30.811 	"/>
	<polygon fill="#878787" points="47.675,25.994 47.675,43.645 47.675,44.242 39.387,48.826 39.387,38.418 39.387,30.65 
		31.852,34.882 31.852,60 53.703,47.973 53.703,22.648 50.24,24.554 	"/>
	<polygon fill="#878787" points="16.028,18.885 10.463,22.01 16.028,25.136 	"/>
	<polygon fill="#878787" points="31.468,16.037 47.171,25.383 53.231,22.01 31.847,10 17.39,18.121 23.834,20.902 	"/>
</g>
</svg>
