<?xml version="1.0" encoding="utf-8"?>
<!-- Generator: Adobe Illustrator 16.0.0, SVG Export Plug-In . SVG Version: 6.00 Build 0)  -->
<!DOCTYPE svg PUBLIC "-//W3C//DTD SVG 1.1//EN" "http://www.w3.org/Graphics/SVG/1.1/DTD/svg11.dtd">
<svg version="1.1"
	 id="Шар_1" xmlns:sodipodi="http://sodipodi.sourceforge.net/DTD/sodipodi-0.dtd" xmlns:cc="http://creativecommons.org/ns#" xmlns:rdf="http://www.w3.org/1999/02/22-rdf-syntax-ns#" xmlns:inkscape="http://www.inkscape.org/namespaces/inkscape" xmlns:svg="http://www.w3.org/2000/svg" xmlns:dc="http://purl.org/dc/elements/1.1/" sodipodi:docname="partners.svg" inkscape:version="0.91 r13725"
	 xmlns="http://www.w3.org/2000/svg" xmlns:xlink="http://www.w3.org/1999/xlink" x="0px" y="0px" width="44px" height="60px"
	 viewBox="160 80 44 60" enable-background="new 160 80 44 60" xml:space="preserve">
<g>
	<polygon fill="#878787" points="193.167,131.277 190.886,136.424 188.601,131.277 186.288,131.277 190.146,140 191.618,140 
		195.468,131.277 	"/>
	<path fill="#878787" d="M164.934,131.364c-1.122,0-2.281,0.532-2.944,1.356v-1.387H160V140h1.99v-5.253
		c0.663-0.911,0.969-1.583,1.953-1.583c1.174,0,2.027,0.957,2.027,2.137V140h2.653v-5.111
		C168.624,132.942,166.871,131.364,164.934,131.364z"/>
	<path fill="#878787" d="M174.22,131.364c-1.122,0-1.615,0.532-2.942,1.356v-1.387h-1.99V140h1.99v-5.253
		c0.663-0.911,1.249-1.583,2.233-1.583c0.51,0,1.066,0.181,1.433,0.48l1.139-1.765C175.553,131.555,174.887,131.364,174.22,131.364z
		"/>
	<path fill="#878787" d="M203.784,80H160v45.333h43.784V80z M193.951,114h-9.775l-0.457-3.128l2.153-1.328v-9.748
		c0,0-0.249-3.524-3.607-3.524c-3.357,0-4.354,1.425-4.354,1.425v11.697l2.386,1.479l-0.3,3.128H169.85l-0.334-3.128l2.426-1.328
		V96.797l-2.389-1.5l0.363-3.404c0,0,2.215-0.72,3.708-0.795s3.625,0,3.625,0v2.399c0,0,3.119-2.434,7.148-2.434
		c4.028,0,7.446,2.657,7.446,7.308c0,4.649,0,11.322,0,11.322l2.434,1.029L193.951,114z"/>
	<path fill="#878787" d="M183.219,132.007c-0.663-0.605-1.687-0.968-2.73-0.968c-2.459,0-4.437,2.003-4.437,4.474
		s1.97,4.474,4.429,4.474c1.044,0,2.074-0.362,2.738-0.968V140h1.989v-1.513v-3.739v-2.027v-1.387h-1.989V132.007L183.219,132.007z
		 M180.669,138.188c-1.441,0-2.611-1.175-2.611-2.625c0-1.449,1.17-2.625,2.611-2.625c1.442,0,2.612,1.175,2.612,2.625
		S182.111,138.188,180.669,138.188z"/>
	<path fill="#878787" d="M199.548,131.039c-2.459,0-4.451,2.003-4.451,4.474s1.992,4.474,4.451,4.474s4.452-2.003,4.452-4.474
		C204,133.043,202.007,131.039,199.548,131.039z M199.697,138.188c-1.442,0-2.612-1.175-2.612-2.625
		c0-1.449,1.169-2.625,2.612-2.625c1.442,0,2.612,1.175,2.612,2.625S201.139,138.188,199.697,138.188z"/>
</g>
</svg>
