<?xml version="1.0" encoding="utf-8"?>
<!-- Generator: Adobe Illustrator 16.0.0, SVG Export Plug-In . SVG Version: 6.00 Build 0)  -->
<!DOCTYPE svg PUBLIC "-//W3C//DTD SVG 1.1//EN" "http://www.w3.org/Graphics/SVG/1.1/DTD/svg11.dtd">
<svg version="1.1"
	 id="Шар_1" xmlns:sodipodi="http://sodipodi.sourceforge.net/DTD/sodipodi-0.dtd" xmlns:cc="http://creativecommons.org/ns#" xmlns:rdf="http://www.w3.org/1999/02/22-rdf-syntax-ns#" xmlns:inkscape="http://www.inkscape.org/namespaces/inkscape" xmlns:svg="http://www.w3.org/2000/svg" xmlns:dc="http://purl.org/dc/elements/1.1/" sodipodi:docname="partners.svg" inkscape:version="0.91 r13725"
	 xmlns="http://www.w3.org/2000/svg" xmlns:xlink="http://www.w3.org/1999/xlink" x="0px" y="0px" width="141.999px" height="28px"
	 viewBox="10 180 141.999 28" enable-background="new 10 180 141.999 28" xml:space="preserve">
<sodipodi:namedview  gridtolerance="10" inkscape:cy="367.284" showgrid="false" pagecolor="#ffffff" inkscape:zoom="0.20304997" borderopacity="1" inkscape:cx="687.02301" bordercolor="#666666" guidetolerance="10" objecttolerance="10" id="namedview616" inkscape:pageshadow="2" inkscape:window-height="480" inkscape:window-maximized="0" inkscape:pageopacity="0" inkscape:window-y="0" inkscape:window-width="640" inkscape:window-x="0" inkscape:current-layer="Шар_1">
	</sodipodi:namedview>
<g id="g427">
	<g id="g429">
		<path id="path431" fill="#878787" d="M24.039,180C16.286,180,10,186.268,10,194c0,7.731,6.286,14,14.039,14
			s14.039-6.269,14.039-14C38.079,186.268,31.793,180,24.039,180z M23.666,201.92c-2.17,0-4.046-1.242-4.963-3.049l7.907-7.203
			c1.572,0.979,2.622,2.718,2.622,4.703C29.231,199.435,26.739,201.92,23.666,201.92z M21.469,196.334
			c-0.199-0.124-0.39-0.262-0.571-0.408c-0.037-0.03-0.069-0.066-0.106-0.098c-0.141-0.121-0.28-0.244-0.409-0.38
			c-0.031-0.032-0.058-0.07-0.089-0.104c-0.126-0.139-0.251-0.281-0.362-0.433c-0.028-0.037-0.05-0.078-0.076-0.116
			c-0.108-0.153-0.212-0.309-0.305-0.474c-0.002-0.005-0.005-0.008-0.008-0.012l0.002-0.001c-0.442-0.794-0.697-1.707-0.697-2.68
			c0-3.065,2.49-5.549,5.564-5.549c1.7,0,3.212,0.769,4.232,1.968l0.005-0.004c0.06,0.07,0.112,0.147,0.169,0.222
			c0.068,0.088,0.139,0.172,0.2,0.264c0.127,0.187,0.244,0.381,0.348,0.582l-0.001,0.001c0.003,0.006,0.007,0.012,0.009,0.017
			L21.469,196.334z"/>
		<path id="path433" fill="#878787" d="M29.367,189.114c-0.103-0.201-0.221-0.395-0.348-0.583c-0.063-0.091-0.133-0.177-0.2-0.264
			c-0.057-0.074-0.114-0.147-0.174-0.218l-9.099,6.262c0.002,0.005,0.004,0.009,0.007,0.013c0.092,0.164,0.196,0.319,0.304,0.474
			c0.025,0.038,0.049,0.079,0.076,0.116c0.111,0.15,0.236,0.293,0.362,0.433c0.031,0.034,0.058,0.071,0.089,0.105
			c0.129,0.135,0.269,0.258,0.409,0.379c0.036,0.031,0.069,0.066,0.106,0.098c0.181,0.148,0.372,0.284,0.571,0.408l7.708-7.022
			L29.367,189.114z"/>
	</g>
	<g id="g435">
		<path id="path437" fill="#878787" d="M41.867,198.625c0.965,0.592,2.375,1.085,3.858,1.085c2.2,0,3.486-1.159,3.486-2.836
			c0-1.555-0.891-2.442-3.141-3.306c-2.721-0.962-4.403-2.366-4.403-4.711c0-2.59,2.152-4.513,5.393-4.513
			c1.706,0,2.942,0.394,3.686,0.813l-0.594,1.752c-0.544-0.297-1.657-0.79-3.166-0.79c-2.275,0-3.141,1.355-3.141,2.49
			c0,1.555,1.014,2.318,3.313,3.206c2.82,1.085,4.255,2.442,4.255,4.885c0,2.564-1.904,4.784-5.838,4.784
			c-1.608,0-3.364-0.468-4.255-1.06L41.867,198.625z"/>
		<path id="path439" fill="#878787" d="M54.406,183.727h2.177v7.449h0.049c0.347-0.617,0.892-1.159,1.559-1.529
			c0.643-0.37,1.41-0.617,2.226-0.617c1.608,0,4.181,0.986,4.181,5.105v7.104H62.42v-6.856c0-1.924-0.717-3.551-2.77-3.551
			c-1.41,0-2.523,0.985-2.918,2.171c-0.123,0.296-0.149,0.617-0.149,1.036v7.201h-2.177V183.727L54.406,183.727z"/>
		<path id="path441" fill="#878787" d="M79.09,195.171c0,4.415-3.066,6.34-5.961,6.34c-3.239,0-5.737-2.368-5.737-6.142
			c0-3.996,2.622-6.34,5.936-6.34C76.765,189.03,79.09,191.521,79.09,195.171z M69.592,195.295c0,2.614,1.51,4.587,3.637,4.587
			c2.078,0,3.635-1.948,3.635-4.637c0-2.023-1.014-4.589-3.586-4.589C70.705,190.658,69.592,193.026,69.592,195.295z"/>
		<path id="path443" fill="#878787" d="M81.958,193.198c0-1.528-0.049-2.763-0.099-3.897h1.954l0.099,2.048h0.049
			c0.892-1.456,2.302-2.318,4.255-2.318c2.895,0,5.07,2.442,5.07,6.067c0,4.292-2.622,6.413-5.44,6.413
			c-1.583,0-2.97-0.69-3.687-1.875H84.11v6.487h-2.152C81.958,206.123,81.958,193.198,81.958,193.198z M84.11,196.38
			c0,0.321,0.049,0.617,0.099,0.888c0.396,1.505,1.706,2.54,3.266,2.54c2.3,0,3.636-1.875,3.636-4.612
			c0-2.393-1.261-4.439-3.562-4.439c-1.483,0-2.868,1.06-3.289,2.688c-0.073,0.271-0.148,0.593-0.148,0.889L84.11,196.38
			L84.11,196.38z"/>
		<path id="path445" fill="#878787" d="M96.055,201.239c0.049-0.813,0.099-2.022,0.099-3.083v-14.429h2.152v7.498h0.049
			c0.766-1.332,2.151-2.195,4.081-2.195c2.969,0,5.069,2.468,5.046,6.093c0,4.267-2.696,6.389-5.367,6.389
			c-1.732,0-3.117-0.666-4.007-2.244h-0.074l-0.099,1.973L96.055,201.239L96.055,201.239z M98.306,196.454
			c0,0.271,0.049,0.543,0.099,0.789c0.42,1.505,1.682,2.539,3.265,2.539c2.275,0,3.637-1.85,3.637-4.587
			c0-2.393-1.237-4.439-3.562-4.439c-1.483,0-2.869,1.011-3.313,2.663c-0.05,0.247-0.124,0.543-0.124,0.888L98.306,196.454
			L98.306,196.454z"/>
		<path id="path447" fill="#878787" d="M111.562,195.665c0.049,2.936,1.929,4.144,4.105,4.144c1.559,0,2.498-0.271,3.314-0.617
			l0.371,1.555c-0.767,0.345-2.077,0.739-3.982,0.739c-3.686,0-5.887-2.417-5.887-6.018s2.127-6.438,5.615-6.438
			c3.907,0,4.946,3.429,4.946,5.624c0,0.444-0.049,0.79-0.073,1.012L111.562,195.665L111.562,195.665z M117.944,194.111
			c0.025-1.381-0.569-3.526-3.019-3.526c-2.2,0-3.166,2.021-3.339,3.526H117.944z"/>
		<path id="path449" fill="#878787" d="M129.494,201.239l-0.173-1.505h-0.074c-0.668,0.938-1.954,1.776-3.661,1.776
			c-2.424,0-3.661-1.702-3.661-3.428c0-2.887,2.572-4.464,7.198-4.44v-0.247c0-0.985-0.271-2.763-2.721-2.763
			c-1.113,0-2.275,0.345-3.117,0.888l-0.495-1.431c0.989-0.642,2.424-1.061,3.934-1.061c3.66,0,4.551,2.491,4.551,4.885v4.465
			c0,1.036,0.049,2.047,0.198,2.86H129.494L129.494,201.239z M129.172,195.146c-2.374-0.049-5.069,0.37-5.069,2.689
			c0,1.405,0.939,2.07,2.053,2.07c1.558,0,2.548-0.985,2.894-1.998c0.074-0.222,0.123-0.469,0.123-0.689V195.146z"/>
		<path id="path451" fill="#878787" d="M134.909,192.531c0-1.232-0.025-2.243-0.099-3.23h1.903l0.1,1.924h0.074
			c0.668-1.135,1.78-2.195,3.76-2.195c1.632,0,2.869,0.986,3.389,2.393h0.049c0.371-0.666,0.84-1.185,1.335-1.554
			c0.719-0.544,1.51-0.839,2.646-0.839c1.583,0,3.933,1.036,3.933,5.181v7.028h-2.127v-6.759c0-2.294-0.841-3.675-2.597-3.675
			c-1.237,0-2.201,0.913-2.572,1.973c-0.099,0.296-0.173,0.69-0.173,1.085v7.375h-2.127v-7.152c0-1.899-0.841-3.28-2.498-3.28
			c-1.36,0-2.35,1.085-2.696,2.171c-0.123,0.321-0.173,0.69-0.173,1.061v7.201h-2.127V192.531L134.909,192.531L134.909,192.531z"/>
	</g>
</g>
</svg>
