<?xml version="1.0" encoding="utf-8"?>
<!-- Generator: Adobe Illustrator 16.0.0, SVG Export Plug-In . SVG Version: 6.00 Build 0)  -->
<!DOCTYPE svg PUBLIC "-//W3C//DTD SVG 1.1//EN" "http://www.w3.org/Graphics/SVG/1.1/DTD/svg11.dtd">
<svg version="1.1" id="Шар_1" xmlns="http://www.w3.org/2000/svg" xmlns:xlink="http://www.w3.org/1999/xlink" x="0px" y="0px"
	 width="111.85px" height="42.001px" viewBox="541.129 870.001 111.85 42.001"
	 enable-background="new 541.129 870.001 111.85 42.001" xml:space="preserve">
<g>
	<path fill="#B3B3B3" d="M629.615,898.987c3.222,0,5.266-2.942,5.266-6.641c0-3.823-1.852-6.82-5.266-6.82
		c-3.328,0-5.175,2.926-5.175,6.701C624.44,895.975,626.266,898.987,629.615,898.987z M629.615,888.01
		c0.729,0,1.268,0.325,1.526,1.167c0.3,0.97,0.329,2.18,0.329,3.201c0,1.555-0.072,4.128-1.855,4.128
		c-1.803,0-1.795-3.187-1.795-4.667C627.82,890.36,627.921,888.01,629.615,888.01z"/>
	<path fill="#B3B3B3" d="M622.914,895.457c-1.32-0.76-2.854-0.992-4.308-0.956l3.919-5.744c0.363-0.517,0.566-0.827,0.568-1.077
		v-1.496c0-0.257-0.176-0.449-0.419-0.449h-7.568c-0.234,0-0.418,0.186-0.419,0.449v1.735c0.001,0.259,0.18,0.446,0.419,0.448h3.949
		l-4.518,6.671c-0.275,0.431-0.299,0.917-0.299,1.197v1.766c0,0.254,0.276,0.53,0.538,0.389c2.574-1.405,5.659-1.28,7.987-0.03
		c0.282,0.154,0.567-0.135,0.567-0.389v-1.855C623.31,895.867,623.214,895.63,622.914,895.457z"/>
	<path fill="#B3B3B3" d="M642.747,885.526L642.747,885.526c-1.59,0-2.499,0.795-3.141,2.453h-0.03v-1.855
		c-0.041-0.188-0.218-0.317-0.419-0.328h-2.124c-0.231,0-0.428,0.168-0.449,0.389V898.3c0,0.229,0.188,0.433,0.42,0.448h2.272
		c0.245,0,0.445-0.203,0.449-0.448v-6.521c0-0.817,0.069-1.563,0.389-2.303c0.257-0.587,0.757-0.957,1.316-0.957
		c1.587,0,1.436,1.934,1.436,3.261v6.581c0.023,0.206,0.208,0.375,0.419,0.389h2.303c0.228,0,0.423-0.173,0.449-0.389v-7.628
		c0-1.173,0.003-2.801-0.598-3.769C644.797,885.915,643.776,885.526,642.747,885.526z"/>
	<path fill="#B3B3B3" d="M599.881,898.3v-7.658c0-1.301,0.131-2.778-0.599-3.799c-0.644-0.917-1.696-1.316-2.662-1.316
		c-1.354,0-2.612,0.714-3.171,2.244c-0.644-1.529-1.553-2.244-2.991-2.244c-1.415,0-2.464,0.714-3.021,2.244h-0.03v-1.586
		c-0.014-0.221-0.194-0.407-0.419-0.419h-2.154c-0.243,0-0.448,0.207-0.448,0.449v12.114c0.018,0.216,0.2,0.404,0.419,0.419h2.303
		c0.246,0,0.448-0.204,0.449-0.448v-6.433c0-1.401-0.068-3.319,1.586-3.319c1.632,0,1.406,1.971,1.406,3.319v6.433
		c0,0.229,0.187,0.433,0.419,0.448h2.303c0.245,0,0.449-0.204,0.449-0.448v-6.433c0-0.688-0.028-1.69,0.209-2.303
		c0.235-0.613,0.816-1.017,1.376-1.017c0.666,0,1.175,0.231,1.346,1.047c0.107,0.483,0.06,1.764,0.06,2.272v6.433
		c0,0.229,0.188,0.433,0.419,0.448h2.304C599.677,898.748,599.881,898.544,599.881,898.3z"/>
	<path fill="#B3B3B3" d="M608.645,890.552c-1.333,0.152-3.059,0.246-4.308,0.808c-1.442,0.64-2.453,1.943-2.453,3.859
		c0,2.454,1.505,3.68,3.439,3.68c1.633,0,2.537-0.384,3.799-1.705c0.416,0.622,0.553,0.905,1.316,1.556
		c0.171,0.093,0.386,0.084,0.538-0.06v0.03c0.46-0.418,1.295-1.182,1.765-1.585c0.188-0.157,0.146-0.415,0-0.628
		c-0.42-0.596-0.866-1.076-0.866-2.185v-3.68c0-1.558,0.101-2.995-1.018-4.068c-0.883-0.868-2.322-1.167-3.439-1.167
		c-2.19,0-4.633,0.845-5.146,3.62c-0.055,0.295,0.14,0.437,0.329,0.479l2.244,0.269c0.208-0.011,0.35-0.236,0.389-0.449
		c0.192-0.955,0.979-1.405,1.855-1.405c0.475,0,1.006,0.163,1.286,0.598c0.32,0.485,0.269,1.145,0.269,1.705V890.552
		L608.645,890.552z M608.645,892.944c0,0.92,0.033,1.694-0.419,2.513c-0.366,0.665-0.938,1.077-1.585,1.077
		c-0.882,0-1.406-0.715-1.406-1.734c0-2.012,1.746-2.363,3.41-2.363V892.944L608.645,892.944z"/>
	<path fill="#B3B3B3" d="M574.183,891.359c-1.441,0.64-2.453,1.943-2.453,3.859c0,2.454,1.504,3.68,3.44,3.68
		c1.635,0,2.538-0.384,3.799-1.705c0.418,0.622,0.552,0.905,1.315,1.556c0.17,0.093,0.387,0.084,0.538-0.06v0.03
		c0.459-0.418,1.295-1.182,1.766-1.585c0.188-0.157,0.146-0.415,0-0.628c-0.42-0.596-0.868-1.076-0.868-2.185v-3.68
		c0-1.558,0.132-2.995-0.987-4.068c-0.882-0.868-2.352-1.167-3.47-1.167c-2.189,0-4.633,0.845-5.146,3.62
		c-0.055,0.295,0.141,0.437,0.329,0.479l2.244,0.269c0.208-0.011,0.35-0.236,0.389-0.449c0.191-0.955,0.979-1.405,1.855-1.405
		c0.474,0,1.006,0.163,1.286,0.598c0.322,0.485,0.299,1.145,0.299,1.705v0.329C577.188,890.704,575.432,890.798,574.183,891.359z
		 M578.491,892.944c0,0.92,0.033,1.694-0.419,2.513c-0.366,0.665-0.939,1.077-1.585,1.077c-0.881,0-1.406-0.715-1.406-1.734
		c0-2.012,1.747-2.363,3.41-2.363V892.944L578.491,892.944z"/>
	<polygon fill="#B3B3B3" points="579.179,908.021 578.79,909.757 578.431,908.021 577.414,902.846 576.219,902.846 575.141,908.081 
		574.782,909.936 574.363,908.021 573.286,902.846 572.09,902.846 574.183,911.792 575.41,911.792 576.786,904.91 577.025,906.436 
		578.133,911.792 579.329,911.792 581.453,902.846 580.346,902.846 	"/>
	<path fill="#B3B3B3" d="M594.226,903.176c-0.438-0.343-0.933-0.538-1.466-0.538c-0.381,0-0.737,0.1-1.047,0.299
		c-0.312,0.199-0.563,0.523-0.809,0.927v-4.427h-1.167v12.354h1.077v-1.106c0.23,0.438,0.491,0.766,0.808,0.987
		c0.316,0.221,0.68,0.328,1.077,0.328c0.791,0,1.474-0.403,2.064-1.227c0.591-0.822,0.896-2.015,0.896-3.53
		c0-0.993-0.128-1.815-0.389-2.513C595.012,904.035,594.663,903.518,594.226,903.176z M593.927,909.876
		c-0.37,0.575-0.811,0.868-1.286,0.868c-0.351,0-0.669-0.118-0.957-0.358c-0.289-0.241-0.501-0.588-0.658-1.047
		c-0.157-0.461-0.239-1.168-0.239-2.095c0-1.089,0.194-1.907,0.568-2.482s0.81-0.868,1.286-0.868c0.519,0,0.96,0.288,1.315,0.838
		c0.356,0.55,0.51,1.399,0.51,2.573C594.466,908.448,594.297,909.302,593.927,909.876z"/>
	<path fill="#B3B3B3" d="M585.222,902.637c-0.926,0-1.67,0.416-2.273,1.227c-0.604,0.812-0.927,1.987-0.927,3.53
		c0,1.487,0.299,2.622,0.897,3.41c0.598,0.788,1.396,1.197,2.362,1.197c0.769,0,1.396-0.264,1.915-0.748
		c0.52-0.485,0.878-1.199,1.077-2.154l-1.167-0.18c-0.34,1.223-0.958,1.822-1.825,1.824c-0.554,0-1.019-0.237-1.406-0.747
		c-0.387-0.512-0.61-1.27-0.657-2.274h5.085l0.029-0.419c0-1.51-0.307-2.673-0.896-3.47
		C586.846,903.036,586.104,902.637,585.222,902.637z M583.307,906.467c0.036-0.786,0.23-1.421,0.598-1.886
		c0.366-0.463,0.798-0.688,1.316-0.688c0.574,0,1.036,0.281,1.406,0.838c0.256,0.382,0.426,0.961,0.479,1.735H583.307z"/>
	<path fill="#B3B3B3" d="M614.3,902.637c-0.225,0.205-0.479,0.628-0.748,1.256v-1.376h-1.047v8.944h1.167v-4.667
		c0-0.651,0.061-1.277,0.209-1.855c0.084-0.331,0.242-0.593,0.448-0.778c0.206-0.185,0.44-0.269,0.688-0.269
		c0.275,0,0.548,0.11,0.838,0.329l0.389-1.406c-0.406-0.326-0.806-0.479-1.196-0.479C614.767,902.339,614.523,902.432,614.3,902.637
		z"/>
	<path fill="#B3B3B3" d="M652.35,902.936l-0.808,2.393c-0.081,0.239-0.14,0.412-0.18,0.538l-0.18-0.509l-0.809-2.423h-0.657v3.41
		h0.419v-2.902l0.986,2.902h0.42l0.986-2.842v2.842h0.449v-3.41L652.35,902.936L652.35,902.936z"/>
	<polygon fill="#B3B3B3" points="646.548,903.355 647.683,903.355 647.683,906.346 648.133,906.346 648.133,903.355 
		649.269,903.355 649.269,902.936 646.548,902.936 	"/>
	<path fill="#B3B3B3" d="M630.453,909.876c-0.314,0.362-0.693,0.538-1.137,0.538c-0.564,0-1.045-0.263-1.406-0.808
		c-0.36-0.544-0.538-1.415-0.538-2.633c0-1.179,0.191-2.031,0.568-2.573s0.861-0.838,1.436-0.838c0.386,0,0.714,0.15,0.987,0.449
		c0.276,0.299,0.458,0.772,0.568,1.376l1.137-0.239c-0.137-0.943-0.439-1.653-0.927-2.124c-0.489-0.472-1.083-0.688-1.795-0.688
		c-0.924,0-1.686,0.389-2.274,1.166c-0.588,0.777-0.896,1.945-0.896,3.5c0,1.544,0.313,2.712,0.896,3.5
		c0.584,0.788,1.313,1.168,2.214,1.168c0.744,0,1.384-0.277,1.915-0.839c0.531-0.561,0.855-1.387,0.987-2.452l-1.137-0.181
		C630.968,908.965,630.768,909.512,630.453,909.876z"/>
	<path fill="#B3B3B3" d="M602.842,906.825c-0.284-0.192-0.918-0.451-1.886-0.777c-0.702-0.246-1.113-0.427-1.256-0.538
		c-0.237-0.19-0.358-0.448-0.358-0.778c0-0.336,0.11-0.622,0.358-0.838c0.248-0.214,0.63-0.329,1.138-0.329
		c0.892,0,1.39,0.489,1.496,1.466l1.137-0.18c-0.078-0.617-0.213-1.105-0.419-1.437s-0.511-0.609-0.897-0.808
		c-0.389-0.196-0.834-0.269-1.346-0.269c-0.813,0-1.456,0.239-1.914,0.718c-0.459,0.477-0.688,1.092-0.688,1.854
		c0,0.443,0.1,0.818,0.269,1.167c0.169,0.35,0.413,0.631,0.718,0.838c0.307,0.209,0.917,0.48,1.825,0.778
		c0.628,0.202,1.003,0.374,1.167,0.509c0.237,0.196,0.359,0.454,0.359,0.809c0,0.41-0.143,0.751-0.419,1.017
		c-0.277,0.268-0.661,0.39-1.167,0.39c-0.507,0-0.922-0.142-1.228-0.449c-0.305-0.308-0.469-0.774-0.538-1.406l-1.167,0.239
		c0.265,1.919,1.222,2.873,2.872,2.872c0.881,0,1.555-0.249,2.064-0.778c0.509-0.528,0.777-1.239,0.777-2.094
		c0-0.461-0.081-0.862-0.238-1.197C603.343,907.268,603.125,907.019,602.842,906.825z"/>
	<path fill="#B3B3B3" d="M636.017,902.339c-0.934,0-1.724,0.386-2.333,1.196c-0.609,0.812-0.897,1.987-0.897,3.53
		c0,1.487,0.293,2.651,0.897,3.44c0.604,0.788,1.387,1.167,2.363,1.167c0.773,0,1.419-0.233,1.943-0.719
		c0.525-0.484,0.906-1.198,1.107-2.153l-1.197-0.209c-0.344,1.223-0.95,1.823-1.825,1.825c-0.559,0-1.045-0.238-1.436-0.748
		c-0.392-0.512-0.61-1.27-0.658-2.273h5.145v-0.419c0-1.51-0.301-2.643-0.896-3.44C637.635,902.737,636.909,902.339,636.017,902.339
		z M634.043,906.137c0.035-0.786,0.258-1.392,0.628-1.855c0.368-0.463,0.794-0.718,1.315-0.718c0.579,0,1.062,0.281,1.437,0.838
		c0.258,0.382,0.426,0.961,0.479,1.735H634.043z"/>
	<path fill="#B3B3B3" d="M644.931,906.825c-0.283-0.192-0.888-0.451-1.855-0.777c-0.703-0.246-1.145-0.427-1.285-0.538
		c-0.238-0.19-0.359-0.448-0.359-0.778c0-0.336,0.141-0.623,0.389-0.838c0.248-0.214,0.631-0.329,1.137-0.329
		c0.892,0,1.391,0.489,1.496,1.466l1.138-0.18c-0.079-0.617-0.212-1.105-0.419-1.437c-0.206-0.331-0.511-0.609-0.897-0.808
		c-0.388-0.196-0.835-0.269-1.346-0.269c-0.813,0-1.456,0.239-1.915,0.718c-0.459,0.477-0.688,1.092-0.688,1.854
		c0,0.443,0.07,0.818,0.239,1.167s0.412,0.631,0.718,0.838c0.306,0.209,0.917,0.48,1.825,0.778c0.627,0.202,1.033,0.374,1.197,0.509
		c0.237,0.196,0.359,0.454,0.359,0.809c0,0.41-0.143,0.751-0.42,1.017c-0.275,0.268-0.661,0.39-1.166,0.39
		c-0.507,0-0.922-0.142-1.227-0.449c-0.304-0.308-0.5-0.774-0.568-1.406l-1.167,0.239c0.264,1.919,1.221,2.873,2.872,2.872
		c0.883,0,1.585-0.249,2.095-0.778c0.509-0.528,0.777-1.239,0.777-2.094c0-0.461-0.081-0.862-0.238-1.197
		C645.464,907.268,645.217,907.019,644.931,906.825z"/>
	<path fill="#B3B3B3" d="M607.957,902.339c-0.934,0-1.725,0.386-2.333,1.196c-0.609,0.812-0.896,1.987-0.896,3.53
		c0,1.487,0.293,2.651,0.896,3.44c0.604,0.788,1.388,1.167,2.363,1.167c0.775,0,1.42-0.233,1.944-0.719
		c0.525-0.484,0.906-1.198,1.106-2.153l-1.196-0.209c-0.345,1.223-0.979,1.823-1.855,1.825c-0.559,0-1.015-0.238-1.406-0.748
		c-0.391-0.512-0.61-1.27-0.658-2.273h5.146v-0.419c0-1.51-0.301-2.643-0.897-3.44C609.573,902.737,608.849,902.339,607.957,902.339
		z M605.982,906.137c0.036-0.786,0.259-1.392,0.628-1.855c0.369-0.463,0.794-0.718,1.316-0.718c0.581,0,1.061,0.281,1.436,0.838
		c0.258,0.382,0.426,0.961,0.479,1.735H605.982z"/>
	<path fill="#B3B3B3" d="M619.834,907.991c-0.186,0.662-0.349,1.233-0.449,1.705c-0.127-0.594-0.249-1.219-0.419-1.825l-1.496-5.354
		h-1.228l2.604,8.944h1.106l2.604-8.944h-1.197L619.834,907.991z"/>
	<rect x="623.572" y="902.517" fill="#B3B3B3" width="1.167" height="8.944"/>
	<rect x="623.572" y="899.137" fill="#B3B3B3" width="1.167" height="1.734"/>
	<polygon fill="#B3B3B3" points="555.322,894.41 550.865,896.325 554.993,898.091 559.779,896.325 	"/>
	<polygon fill="#B3B3B3" points="548.472,905.42 554.993,908.292 554.993,899.346 548.621,896.803 	"/>
	<polygon fill="#B3B3B3" points="556.131,907.483 562.023,905.091 562.023,896.803 556.131,899.048 	"/>
	<polygon fill="#B3B3B3" points="573.51,871.915 569.053,870.001 564.566,871.915 568.724,873.679 	"/>
	<polygon fill="#B3B3B3" points="568.574,874.936 562.831,872.544 562.831,881.158 568.395,882.774 	"/>
	<polygon fill="#B3B3B3" points="575.275,873.021 570.01,875.265 570.01,883.731 575.275,881.339 	"/>
	<polygon fill="#B3B3B3" points="541.129,893.135 547.649,896.007 547.649,887.062 541.277,884.519 	"/>
	<polygon fill="#B3B3B3" points="548.786,895.198 554.679,892.805 554.679,884.519 548.786,886.762 	"/>
	<polygon fill="#B3B3B3" points="547.978,882.126 543.521,884.04 547.649,885.805 552.435,884.04 	"/>
	<polygon fill="#B3B3B3" points="566.795,883.722 562.338,881.807 557.881,883.722 562.009,885.487 	"/>
	<polygon fill="#B3B3B3" points="562.009,886.743 555.636,884.201 555.487,892.816 562.009,895.688 	"/>
	<polygon fill="#B3B3B3" points="563.145,894.881 569.038,892.487 569.038,884.201 563.145,886.444 	"/>
	<polygon fill="#B3B3B3" points="587.536,871.915 583.078,870.001 578.621,871.915 582.75,873.679 	"/>
	<polygon fill="#B3B3B3" points="583.886,883.073 589.779,880.679 589.779,872.393 583.886,874.637 	"/>
	<polygon fill="#B3B3B3" points="582.75,874.936 576.378,872.393 576.228,881.01 582.75,883.881 	"/>
</g>
</svg>
