<?xml version="1.0" encoding="utf-8"?>
<!-- Generator: Adobe Illustrator 16.0.0, SVG Export Plug-In . SVG Version: 6.00 Build 0)  -->
<svg version="1.2" baseProfile="tiny" id="Шар_1"
	 xmlns="http://www.w3.org/2000/svg" xmlns:xlink="http://www.w3.org/1999/xlink" x="0px" y="0px" width="97.602px" height="33.6px"
	 viewBox="562.001 560.001 97.602 33.6" xml:space="preserve">
<g>
	<path fill="#B3B3B3" d="M598.031,569.914h5.59l-2.758-7.461h-0.054L598.031,569.914z M603.992,570.927h-6.344l-1.425,3.847h-1.18
		l5.262-13.789h1.074l5.219,13.789h-1.176L603.992,570.927z"/>
	<path fill="#B3B3B3" d="M609.414,564.527l0.106,1.789c0.328-0.633,0.773-1.121,1.335-1.465c0.559-0.343,1.223-0.515,1.993-0.515
		c1.117,0,1.964,0.34,2.547,1.019c0.585,0.68,0.875,1.738,0.875,3.176v6.242h-1.141v-6.246c0-1.176-0.22-2.008-0.66-2.492
		c-0.442-0.487-1.067-0.73-1.879-0.73c-0.797,0-1.449,0.207-1.953,0.629s-0.867,0.98-1.09,1.676v7.164h-1.142v-10.246H609.414
		L609.414,564.527z"/>
	<path fill="#B3B3B3" d="M619.941,569.933c0,1.243,0.25,2.235,0.747,2.969c0.5,0.734,1.246,1.103,2.25,1.103
		c0.734,0,1.347-0.164,1.839-0.493c0.493-0.332,0.875-0.789,1.146-1.371v-4.832c-0.259-0.593-0.625-1.078-1.103-1.449
		c-0.476-0.371-1.097-0.558-1.863-0.558c-1.004,0-1.754,0.41-2.258,1.233c-0.504,0.82-0.758,1.888-0.758,3.199V569.933
		L619.941,569.933z M618.802,569.734c0-1.637,0.347-2.94,1.043-3.926c0.69-0.98,1.66-1.472,2.901-1.472
		c0.72,0,1.341,0.151,1.867,0.457c0.524,0.3,0.961,0.729,1.313,1.284v-6.077h1.133v14.772h-1.012l-0.095-1.488
		c-0.344,0.543-0.78,0.961-1.319,1.25s-1.177,0.434-1.903,0.434c-1.23,0-2.195-0.453-2.886-1.367
		c-0.696-0.91-1.043-2.133-1.043-3.668V569.734L618.802,569.734z"/>
	<path fill="#B3B3B3" d="M634.824,565.501l-0.844-0.056c-0.718,0-1.304,0.199-1.765,0.603c-0.461,0.397-0.789,0.953-0.985,1.651
		v7.074h-1.14v-10.246h1l0.14,1.703v0.113c0.297-0.628,0.7-1.121,1.2-1.477s1.097-0.53,1.789-0.53c0.144,0,0.285,0.011,0.422,0.034
		c0.136,0.023,0.25,0.043,0.336,0.07L634.824,565.501z"/>
	<path fill="#B3B3B3" d="M637.031,569.804c0,1.188,0.301,2.184,0.903,2.989c0.604,0.808,1.445,1.211,2.522,1.211
		c1.06,0,1.892-0.403,2.496-1.211c0.606-0.806,0.906-1.802,0.906-2.989v-0.313c0-1.164-0.304-2.155-0.914-2.969
		c-0.608-0.812-1.445-1.219-2.511-1.219c-1.063,0-1.899,0.407-2.5,1.219c-0.603,0.813-0.903,1.805-0.903,2.969V569.804z
		 M635.891,569.496c0-1.508,0.414-2.745,1.246-3.711c0.828-0.965,1.929-1.448,3.301-1.448c1.374,0,2.476,0.483,3.308,1.448
		c0.828,0.966,1.246,2.203,1.246,3.711v0.313c0,1.516-0.414,2.758-1.242,3.719c-0.827,0.961-1.926,1.445-3.293,1.445
		c-1.383,0-2.491-0.484-3.319-1.445c-0.832-0.961-1.246-2.203-1.246-3.719V569.496L635.891,569.496z"/>
	<path fill="#B3B3B3" d="M648.645,574.773h-1.133v-10.246h1.133V574.773z M648.645,561.591h-1.133v-1.59h1.133V561.591z"/>
	<path fill="#B3B3B3" d="M652.488,569.933c0,1.243,0.246,2.235,0.746,2.969c0.496,0.734,1.246,1.103,2.246,1.103
		c0.739,0,1.352-0.164,1.84-0.493c0.492-0.332,0.875-0.789,1.149-1.371v-4.832c-0.263-0.593-0.629-1.078-1.106-1.449
		c-0.472-0.371-1.093-0.558-1.863-0.558c-1,0-1.754,0.41-2.258,1.233c-0.504,0.82-0.758,1.888-0.758,3.199v0.199H652.488
		L652.488,569.933z M651.344,569.734c0-1.637,0.347-2.94,1.043-3.926c0.69-0.98,1.66-1.472,2.906-1.472
		c0.715,0,1.336,0.151,1.862,0.457c0.528,0.3,0.965,0.729,1.313,1.284v-6.077h1.133v14.772h-1.008l-0.099-1.488
		c-0.34,0.543-0.78,0.961-1.319,1.25s-1.172,0.434-1.903,0.434c-1.23,0-2.191-0.453-2.886-1.367
		c-0.696-0.91-1.043-2.133-1.043-3.668V569.734L651.344,569.734z"/>
	<path fill="#B3B3B3" d="M604.953,587.841c0-0.864-0.315-1.556-0.957-2.071c-0.637-0.519-1.737-0.992-3.312-1.422
		c-1.579-0.421-2.735-0.906-3.465-1.445c-0.735-0.539-1.103-1.328-1.103-2.362c0-1.028,0.435-1.849,1.293-2.462
		c0.863-0.609,1.966-0.918,3.302-0.918c1.351,0,2.452,0.375,3.312,1.13c0.856,0.75,1.271,1.715,1.243,2.897l-0.021,0.055h-0.437
		c0-1.026-0.379-1.879-1.141-2.555c-0.763-0.676-1.746-1.015-2.957-1.015c-1.255,0-2.25,0.28-2.981,0.839
		c-0.734,0.559-1.097,1.23-1.097,2.012s0.301,1.435,0.905,1.949c0.606,0.52,1.699,0.98,3.285,1.383
		c1.535,0.406,2.696,0.899,3.478,1.481c0.785,0.586,1.176,1.414,1.176,2.487c0,1.091-0.45,1.949-1.344,2.578
		c-0.896,0.629-2.013,0.945-3.356,0.945c-1.39,0-2.582-0.324-3.586-0.972c-1.003-0.646-1.488-1.664-1.457-3.052l0.021-0.059h0.43
		c0,1.25,0.461,2.157,1.386,2.723c0.926,0.566,1.996,0.849,3.207,0.849c1.219,0,2.219-0.278,3-0.832
		C604.562,589.445,604.953,588.726,604.953,587.841z"/>
	<path fill="#B3B3B3" d="M609.07,578.136v2.762h2.532v0.524h-2.532v7.082c0,0.839,0.146,1.437,0.43,1.793
		c0.285,0.358,0.66,0.534,1.134,0.534c0.168,0,0.319-0.004,0.453-0.016c0.137-0.015,0.315-0.035,0.555-0.065l0.093,0.461
		c-0.16,0.05-0.324,0.086-0.496,0.104c-0.168,0.021-0.362,0.027-0.578,0.027c-0.69,0-1.215-0.223-1.573-0.671
		c-0.359-0.446-0.539-1.173-0.539-2.168v-7.082h-1.899v-0.524h1.899v-2.762H609.07L609.07,578.136z"/>
	<path fill="#B3B3B3" d="M620.941,589.308c-0.324,0.653-0.785,1.153-1.386,1.508c-0.599,0.353-1.325,0.527-2.181,0.527
		c-1.063,0-1.891-0.371-2.487-1.121c-0.599-0.746-0.899-1.906-0.899-3.48v-5.84h0.513v5.859c0,1.391,0.258,2.415,0.772,3.079
		c0.512,0.664,1.207,0.996,2.082,0.996c1.071,0,1.896-0.263,2.469-0.785c0.574-0.524,0.938-1.22,1.099-2.086v-7.063h0.522v10.246
		h-0.429L620.941,589.308z"/>
	<path fill="#B3B3B3" d="M624.742,586.212c0,1.418,0.281,2.539,0.845,3.375c0.559,0.832,1.387,1.245,2.476,1.245
		c0.895,0,1.637-0.198,2.231-0.605c0.594-0.402,1.022-0.941,1.288-1.617v-4.801c-0.245-0.734-0.647-1.347-1.198-1.843
		c-0.552-0.493-1.317-0.743-2.302-0.743c-1.09,0-1.918,0.445-2.487,1.332c-0.567,0.887-0.853,2.039-0.853,3.461V586.212
		L624.742,586.212z M624.212,586.011c0-1.621,0.344-2.91,1.026-3.867c0.688-0.953,1.637-1.433,2.856-1.433
		c0.804,0,1.5,0.179,2.086,0.539c0.586,0.358,1.054,0.851,1.401,1.476v-6.351h0.517v14.769h-0.496l-0.021-1.59
		c-0.344,0.551-0.812,0.984-1.414,1.309c-0.598,0.32-1.297,0.48-2.094,0.48c-1.211,0-2.16-0.46-2.84-1.382
		c-0.683-0.923-1.023-2.169-1.023-3.75L624.212,586.011L624.212,586.011z"/>
	<path fill="#B3B3B3" d="M635.984,591.144h-0.511v-10.242h0.511V591.144z M635.984,577.679h-0.511v-1.304h0.511V577.679z"/>
	<path fill="#B3B3B3" d="M639.066,586.222c0,1.289,0.364,2.379,1.086,3.27c0.723,0.895,1.696,1.341,2.918,1.341
		c1.203,0,2.168-0.446,2.892-1.345c0.723-0.895,1.086-1.983,1.086-3.266v-0.398c0-1.258-0.367-2.336-1.095-3.241
		c-0.729-0.906-1.694-1.36-2.901-1.36c-1.211,0-2.177,0.454-2.899,1.36c-0.726,0.905-1.086,1.983-1.086,3.241V586.222
		L639.066,586.222z M638.555,585.824c0-1.5,0.414-2.73,1.25-3.684c0.832-0.953,1.914-1.429,3.246-1.429
		c1.34,0,2.426,0.476,3.258,1.429s1.25,2.184,1.25,3.684v0.398c0,1.508-0.414,2.739-1.25,3.691c-0.832,0.953-1.914,1.43-3.239,1.43
		c-1.336,0-2.425-0.477-3.261-1.43c-0.836-0.952-1.254-2.184-1.254-3.691V585.824L638.555,585.824z"/>
	<path fill="#B3B3B3" d="M565.125,590.453c-0.065,0.121-0.104,0.242-0.12,0.38l-0.188,2.504c-0.015,0.093,0.039,0.175,0.122,0.229
		c0.082,0.055,0.175,0.039,0.257-0.015l2.082-1.399c0.11-0.082,0.203-0.176,0.271-0.285l2.069-3.565
		c-0.819-0.461-1.597-0.997-2.312-1.599L565.125,590.453z"/>
	<path fill="#B3B3B3" d="M588.759,590.466l-2.211-3.821c-0.707,0.598-1.474,1.133-2.281,1.598l2.097,3.613
		c0.067,0.121,0.164,0.215,0.271,0.281l2.086,1.415c0.082,0.054,0.176,0.054,0.258,0.015c0.082-0.055,0.121-0.137,0.121-0.229
		l-0.219-2.493C588.867,590.707,588.828,590.587,588.759,590.466z"/>
	<path fill="#B3B3B3" d="M573.044,575.344c-0.177-0.175-0.255-0.32-0.242-0.457h-0.013v-3.52c0-0.848,0.703-1.547,1.556-1.547h0.879
		v-2.776h3.453v2.776h0.867c0.852,0,1.555,0.699,1.555,1.547v3.52h-0.012c0,0.122-0.066,0.282-0.246,0.457l-0.539,0.54l2.679,4.608
		c1.204-1.401,1.934-3.207,1.934-5.176h2.777c0,3.008-1.257,5.731-3.261,7.672l2.117,3.656c3.198-2.718,5.229-6.765,5.229-11.281
		c0-8.187-6.668-14.828-14.886-14.828c-8.228,0-14.891,6.642-14.891,14.828c0,4.551,2.062,8.621,5.305,11.34l6.281-10.816
		L573.044,575.344z"/>
	<path fill="#B3B3B3" d="M576.957,586.019c-1.895,0-3.684-0.5-5.227-1.363l-2.109,3.646c2.149,1.199,4.629,1.886,7.271,1.886
		c2.683,0,5.199-0.711,7.375-1.945l-2.086-3.586C580.637,585.519,578.852,586.019,576.957,586.019z"/>
	<path fill="#B3B3B3" d="M577.716,578.445c-0.203,0.215-0.488,0.324-0.774,0.324l-0.011-0.015v0.015
		c-0.271,0-0.555-0.109-0.771-0.324l-0.53-0.526l-2.517,4.34c1.121,0.621,2.435,0.983,3.828,0.983c1.396,0,2.711-0.352,3.821-0.969
		l-2.521-4.354L577.716,578.445z"/>
	<path fill="#B3B3B3" d="M576.941,575.332h0.016c1.138-0.016,2.07-0.93,2.07-2.073c0-1.149-0.933-2.063-2.07-2.079l-0.016-0.027
		v0.027c-1.148,0-2.07,0.918-2.07,2.079C574.871,574.402,575.805,575.332,576.941,575.332z"/>
</g>
</svg>
