<?xml version="1.0" encoding="utf-8"?>
<!-- Generator: Adobe Illustrator 16.0.0, SVG Export Plug-In . SVG Version: 6.00 Build 0)  -->
<svg version="1.2" baseProfile="tiny" id="Шар_1"
	 xmlns="http://www.w3.org/2000/svg" xmlns:xlink="http://www.w3.org/1999/xlink" x="0px" y="0px" width="33.603px"
	 height="38.397px" viewBox="354 560.001 33.603 38.397" xml:space="preserve">
<g>
	<path fill="#B3B3B3" d="M376.27,566.234c1.28-1.617,2.257-3.897,1.901-6.233c-2.094,0.14-4.547,1.452-5.977,3.159
		c-1.297,1.547-2.371,3.845-1.953,6.078C372.527,569.308,374.895,567.966,376.27,566.234z"/>
	<path fill="#B3B3B3" d="M386.461,572.886c-2.016-2.468-4.844-3.898-7.512-3.898c-3.531,0-5.023,1.648-7.472,1.648
		c-2.524,0-4.446-1.645-7.5-1.645c-3,0-6.188,1.789-8.211,4.849c-2.845,4.3-2.364,12.397,2.25,19.293
		c1.651,2.468,3.854,5.242,6.737,5.265c2.559,0.024,3.285-1.604,6.759-1.625c3.476-0.015,4.133,1.646,6.69,1.621
		c2.883-0.027,5.207-3.097,6.856-5.566c1.183-1.766,1.625-2.655,2.543-4.655C380.93,585.695,379.855,576.437,386.461,572.886z"/>
</g>
</svg>
