<?xml version="1.0" encoding="utf-8"?>
<!-- Generator: Adobe Illustrator 16.0.0, SVG Export Plug-In . SVG Version: 6.00 Build 0)  -->
<svg version="1.2" baseProfile="tiny" id="Шар_1"
	 xmlns="http://www.w3.org/2000/svg" xmlns:xlink="http://www.w3.org/1999/xlink" x="0px" y="0px" width="30.398px"
	 height="42.909px" viewBox="11.202 660.001 30.398 42.909" xml:space="preserve">
<g>
	<polygon fill="#B3B3B3" points="28.749,664.437 26.128,661.591 28.647,661.591 28.647,660.001 23.347,660.001 23.347,661.359 
		25.968,664.203 23.347,664.203 23.347,665.794 28.749,665.794 	"/>
	<polygon fill="#B3B3B3" points="35.124,664.437 32.503,661.591 35.026,661.591 35.026,660.001 29.722,660.001 29.722,661.359 
		32.343,664.203 29.722,664.203 29.722,665.794 35.124,665.794 	"/>
	<polygon fill="#B3B3B3" points="22.335,664.136 19.612,664.136 19.612,661.652 22.335,661.652 22.335,660.001 17.679,660.001 
		17.679,665.794 22.335,665.794 	"/>
	<path fill="#B3B3B3" d="M35.854,675.531l-0.922,10.328l-0.012,0.137v0.023l-0.648,7.239l-0.059,0.64l-7.789,2.16l-0.02,0.004
		l-7.793-2.164l-0.535-5.972h3.82l0.273,3.035l4.238,1.144v-0.004l4.246-1.144l0.445-4.935h-8.883l-0.077-0.854l-0.173-1.931
		l-0.09-1.02h9.559l0.352-3.898H17.222l-0.075-0.854l-0.175-1.931l-0.091-1.023h19.063L35.854,675.531z M11.202,668.433
		l2.766,31.032l12.414,3.444l12.449-3.448l2.77-31.028H11.202z"/>
</g>
</svg>
