<?xml version="1.0" encoding="utf-8"?>
<!-- Generator: Adobe Illustrator 16.0.0, SVG Export Plug-In . SVG Version: 6.00 Build 0)  -->
<svg version="1.2" baseProfile="tiny" id="Шар_1"
	 xmlns="http://www.w3.org/2000/svg" xmlns:xlink="http://www.w3.org/1999/xlink" x="0px" y="0px" width="82.961px"
	 height="36.801px" viewBox="282 800.001 82.961 36.801" xml:space="preserve">
<g>
	<path fill="#B3B3B3" d="M348.215,817.929l-2.18-0.77c-0.89-0.323-1.336-0.766-1.336-1.323c0-0.325,0.121-0.591,0.367-0.802
		c0.25-0.207,0.602-0.313,1.071-0.313c1.315,0,2.952,0.442,4.922,1.325c0.444-0.325,0.819-0.879,1.125-1.657
		c0.304-0.777,0.433-1.488,0.386-2.14c-0.797-0.392-1.816-1.11-3.058-1.399c-1.242-0.289-2.375-0.433-3.407-0.433
		c-2.082,0-3.742,0.886-4.973,1.922c-1.227,1.031-1.844,2.429-1.844,4.19c0,2.414,1.465,4.156,4.392,5.224l1.937,0.729
		c1.074,0.349,1.617,0.871,1.617,1.567c0,0.371-0.175,0.667-0.527,0.886c-0.352,0.223-0.858,0.332-1.512,0.332
		c-1.383,0-3.011-0.488-4.886-1.461c-0.396,0.418-0.743,0.989-1.036,1.703c-0.293,0.719-0.449,1.383-0.472,1.984
		c2.034,1.138,4.245,1.832,6.64,1.832c2.391,0,4.227-0.637,5.516-1.655c1.289-1.024,1.935-2.403,1.935-4.142
		C352.891,820.886,351.332,819.019,348.215,817.929z"/>
	<path fill="#B3B3B3" d="M332.652,817.929l-2.183-0.77c-0.892-0.323-1.337-0.766-1.337-1.323c0-0.325,0.125-0.591,0.367-0.802
		c0.246-0.207,0.603-0.313,1.074-0.313c1.313,0,2.949,0.442,4.918,1.325c0.446-0.325,0.82-0.879,1.125-1.657
		c0.305-0.777,0.434-1.488,0.387-2.14c-0.797-0.392-1.813-1.11-3.055-1.399s-2.379-0.433-3.41-0.433
		c-2.082,0-3.738,0.886-4.969,1.922c-1.23,1.031-1.843,2.429-1.843,4.19c0,2.414,1.464,4.156,4.39,5.224l1.935,0.729
		c1.077,0.349,1.616,0.871,1.616,1.567c0,0.371-0.176,0.667-0.526,0.886c-0.353,0.223-0.856,0.332-1.513,0.332
		c-1.383,0-3.008-0.488-4.883-1.461c-0.397,0.418-0.742,0.989-1.035,1.703c-0.297,0.719-0.453,1.383-0.477,1.984
		c2.036,1.138,4.254,1.832,6.641,1.832c2.392,0,4.228-0.637,5.517-1.655c1.289-1.024,1.933-2.403,1.933-4.142
		C337.324,820.886,335.766,819.019,332.652,817.929z"/>
	<path fill="#B3B3B3" d="M319.332,812.884c-0.633-0.649-1.397-1.161-2.301-1.532c-0.902-0.371-1.914-0.929-3.039-0.929
		c-1.336,0-2.5,0.604-3.496,1.069c-0.996,0.466-1.815,1.102-2.457,1.914c-0.647,0.813-1.129,1.771-1.44,2.871
		c-0.317,1.103-0.478,2.301-0.478,3.603c0,1.343,0.129,2.586,0.387,3.722c0.259,1.137,0.695,2.121,1.316,2.957
		s1.43,1.484,2.426,1.946c0.996,0.464,2.23,0.819,3.707,0.819c2.719,0,5.013-0.785,6.888-2.105
		c-0.185-1.344-0.664-2.414-1.435-3.203c-0.957,0.359-1.805,0.618-2.539,0.773c-0.733,0.156-1.383,0.234-1.94,0.234
		c-1.121,0-1.927-0.285-2.414-0.859c-0.489-0.573-0.759-1.254-0.806-2.28h9.134c0.304-0.978,0.456-2.298,0.456-3.711
		c0-1.067-0.172-2.052-0.512-2.957C320.453,814.308,319.965,813.535,319.332,812.884z M316.277,818.414h-4.602
		c0.07-1.184,0.285-2.448,0.645-2.973c0.36-0.522,0.91-0.781,1.657-0.781c0.765,0,1.343,0.277,1.726,0.832
		c0.383,0.56,0.574,1.681,0.574,2.539V818.414L316.277,818.414z"/>
	<path fill="#B3B3B3" d="M362.43,815.699c-0.931-0.895-1.474-2.262-1.474-4.098v-5.207c0-0.66-0.031-1.351-0.254-2.074
		c-0.391-1.258-1.055-2.254-1.996-2.992c-0.858-0.672-1.848-1.319-3.031-1.309c-0.766,0-1.434,0.012-2.75,0v2.844
		c1.078,0.234,1.531,0.543,1.923,0.931c0.597,0.593,1.082,1.636,1.082,3.12v4.5c0,1.449,0.008,2.602,0.401,3.453
		c0.664,1.438,1.974,2.602,3.922,3.492c-1.766,0.711-2.953,1.539-3.559,2.481c-0.609,0.944-0.738,2.253-0.761,3.921v4.907
		c0,1.433-0.539,2.468-1.243,3.101c-0.386,0.375-0.789,0.707-1.761,0.992v3.027l1.104,0.009c1.863-0.052,3.5-0.571,4.899-1.629
		c1.405-1.056,2.026-2.595,2.026-4.614v-6.078c0-1.633,0.574-2.879,1.566-3.746c0.602-0.531,1.309-0.953,2.434-1.265v-2.353
		C363.691,816.687,362.953,816.216,362.43,815.699z"/>
	<path fill="#B3B3B3" d="M292.648,800.023c-0.375,0-0.718,0-0.992,0c-1.179-0.012-2.168,0.633-3.031,1.31
		c-0.937,0.737-1.742,1.698-1.996,2.987c-0.141,0.758-0.108,1.418-0.108,2.078v5.207c0,1.836-0.688,3.203-1.614,4.094
		c-0.523,0.52-1.636,0.992-2.906,1.418v2.352c1.125,0.309,2.207,0.73,2.81,1.262c0.991,0.871,1.707,2.117,1.707,3.75v6.078
		c0,2.02,0.483,3.559,1.882,4.614c1.402,1.054,3.036,1.578,4.902,1.629l1.246-0.008v-3.032c-0.973-0.285-1.512-0.613-1.901-0.988
		c-0.704-0.637-1.103-1.668-1.103-3.101v-4.911c-0.026-1.668-0.297-2.972-0.901-3.918c-0.61-0.941-1.798-1.77-3.56-2.48
		c1.945-0.895,3.254-2.059,3.922-3.491c0.392-0.853,0.539-2.005,0.539-3.453v-4.5c0-1.485,0.349-2.528,0.945-3.121
		c0.321-0.325,0.899-0.59,1.7-0.806l1.269,0.009v-2.978l-2.809-0.004V800.023L292.648,800.023z"/>
	<path fill="#B3B3B3" d="M303.383,824.679c-1.03,0-1.422-0.543-1.422-1.632v-20.024c0-1.203-0.348-2.051-0.793-2.539
		c-0.444-0.483-1.215-0.479-2.315-0.479h-2.146l-0.254-0.004v24.015c0,1.672,0.375,2.895,1.043,3.676
		c0.668,0.774,1.797,1.164,3.392,1.164c1.101,0,2.354-0.117,3.758-0.351c0.069-0.235,0.104-0.735,0.104-1.509
		c0.004-0.773-0.141-1.543-0.418-2.316H303.383z"/>
</g>
</svg>
