<?xml version="1.0" encoding="utf-8"?>
<!-- Generator: Adobe Illustrator 16.0.0, SVG Export Plug-In . SVG Version: 6.00 Build 0)  -->
<svg version="1.2" baseProfile="tiny" id="Шар_1"
	 xmlns="http://www.w3.org/2000/svg" xmlns:xlink="http://www.w3.org/1999/xlink" x="0px" y="0px" width="110.945px"
	 height="27.198px" viewBox="130 800.001 110.945 27.198" xml:space="preserve">
<g>
	<path fill="#B3B3B3" d="M171.676,819.048c-1.155,0-2.066,0.358-2.723,1.082c-0.656,0.718-0.983,1.737-0.983,3.054
		c0,1.282,0.354,2.27,1.065,2.969c0.707,0.699,1.695,1.047,2.957,1.047c0.61,0,1.129-0.043,1.555-0.137
		c0.422-0.09,0.824-0.23,1.195-0.418v-1.66c-0.457,0.215-0.894,0.375-1.316,0.473c-0.418,0.098-0.866,0.148-1.336,0.148
		c-0.609,0-1.082-0.172-1.418-0.515c-0.336-0.345-0.516-0.817-0.539-1.427h5.052v-1.043c0-1.116-0.31-1.991-0.922-2.625
		C173.645,819.363,172.781,819.048,171.676,819.048z M170.184,822.234c0.039-0.531,0.183-0.937,0.44-1.226
		c0.258-0.29,0.613-0.435,1.066-0.435c0.45,0,0.813,0.145,1.079,0.435c0.265,0.289,0.401,0.694,0.414,1.226H170.184z"/>
	<path fill="#B3B3B3" d="M186.121,819.048c-0.512,0-0.976,0.101-1.383,0.3c-0.41,0.204-0.718,0.489-0.929,0.852h-0.188
		c-0.414-0.766-1.211-1.151-2.383-1.151c-0.511,0-0.968,0.101-1.363,0.308c-0.397,0.203-0.703,0.485-0.91,0.844h-0.12l-0.285-1.004
		h-1.634v7.863h2.137v-3.699c0-0.926,0.126-1.586,0.372-1.992c0.246-0.401,0.644-0.602,1.19-0.602c0.406,0,0.703,0.141,0.892,0.426
		c0.19,0.281,0.284,0.707,0.284,1.274v4.593h2.138v-3.945c0-0.815,0.128-1.41,0.39-1.785c0.258-0.375,0.649-0.563,1.172-0.563
		c0.406,0,0.703,0.141,0.896,0.426c0.187,0.281,0.28,0.707,0.28,1.274v4.593h2.145v-5.125c0-1.011-0.226-1.742-0.683-2.199
		S187.008,819.048,186.121,819.048z"/>
	<path fill="#B3B3B3" d="M195.531,818.441c0.371,0,0.754,0.07,1.141,0.203c0.388,0.137,0.773,0.297,1.156,0.481l0.699-1.774
		c-1.004-0.484-2.004-0.722-2.996-0.722c-0.976,0-1.828,0.211-2.554,0.64c-0.728,0.43-1.286,1.047-1.672,1.852
		c-0.388,0.806-0.582,1.742-0.582,2.809c0,1.7,0.394,3,1.183,3.911c0.789,0.905,1.93,1.358,3.418,1.358
		c1.039,0,1.978-0.176,2.817-0.526v-1.829c-1.024,0.359-1.896,0.543-2.614,0.543c-1.715,0-2.57-1.148-2.57-3.441
		c0-1.102,0.228-1.961,0.672-2.578C194.078,818.751,194.711,818.441,195.531,818.441z"/>
	<path fill="#B3B3B3" d="M203.363,819.035c-1.097,0-2.097,0.234-3,0.707l0.707,1.449c0.848-0.379,1.582-0.566,2.207-0.566
		c0.813,0,1.219,0.398,1.219,1.195v0.344l-1.358,0.043c-1.173,0.039-2.048,0.262-2.63,0.656c-0.581,0.398-0.87,1.013-0.87,1.849
		c0,0.797,0.215,1.409,0.647,1.843c0.43,0.43,1.024,0.645,1.774,0.645c0.612,0,1.108-0.086,1.487-0.262
		c0.384-0.176,0.755-0.492,1.113-0.949h0.055l0.414,1.07h1.492v-5.238c0-0.94-0.281-1.637-0.84-2.098
		C205.219,819.261,204.414,819.035,203.363,819.035z M204.496,824.062c0,0.473-0.147,0.856-0.445,1.141
		c-0.297,0.285-0.691,0.431-1.188,0.431c-0.691,0-1.035-0.306-1.035-0.911c0-0.421,0.152-0.734,0.453-0.941
		c0.305-0.207,0.766-0.319,1.391-0.336l0.824-0.031V824.062z"/>
	<path fill="#B3B3B3" d="M212.188,820.777c0.289,0,0.582,0.043,0.871,0.129c0.289,0.09,0.601,0.199,0.937,0.336l0.629-1.659
		c-0.719-0.356-1.53-0.535-2.437-0.535c-1.235,0-2.188,0.354-2.853,1.058c-0.66,0.707-0.991,1.728-0.991,3.063
		c0,2.687,1.218,4.03,3.655,4.03c0.535,0,0.98-0.043,1.332-0.125c0.356-0.086,0.703-0.237,1.047-0.457v-1.836
		c-0.348,0.234-0.698,0.406-1.047,0.517c-0.352,0.108-0.733,0.168-1.144,0.168c-1.11,0-1.668-0.771-1.668-2.31
		C210.523,821.57,211.078,820.777,212.188,820.777z"/>
	<path fill="#B3B3B3" d="M220.617,819.048c-1.039,0-1.793,0.386-2.269,1.151h-0.114l0.051-0.633c0.031-0.64,0.047-1.047,0.047-1.223
		v-2.23h-2.137v10.945h2.137v-3.699c0-0.914,0.133-1.574,0.398-1.983c0.27-0.407,0.7-0.61,1.297-0.61c0.84,0,1.262,0.567,1.262,1.7
		v4.593h2.137v-5.125c0-0.929-0.237-1.644-0.715-2.14C222.234,819.298,221.535,819.048,220.617,819.048z"/>
	<path fill="#B3B3B3" d="M228.855,819.048c-1.16,0-2.066,0.358-2.723,1.082c-0.655,0.718-0.984,1.737-0.984,3.054
		c0,1.282,0.355,2.27,1.066,2.969c0.707,0.699,1.695,1.047,2.953,1.047c0.613,0,1.133-0.043,1.56-0.137
		c0.421-0.09,0.824-0.23,1.194-0.418v-1.66c-0.457,0.215-0.895,0.375-1.316,0.473c-0.417,0.098-0.867,0.148-1.335,0.148
		c-0.61,0-1.079-0.172-1.415-0.515c-0.335-0.345-0.52-0.817-0.543-1.427h5.055v-1.043c0-1.116-0.308-1.991-0.926-2.625
		C230.824,819.363,229.961,819.048,228.855,819.048z M227.363,822.234c0.039-0.531,0.184-0.937,0.442-1.226
		c0.257-0.29,0.612-0.435,1.065-0.435s0.813,0.145,1.078,0.435c0.266,0.289,0.403,0.694,0.414,1.226H227.363z"/>
	<path fill="#B3B3B3" d="M238.805,816.113L238.805,816.113v2.521c0,0.46,0.054,0.979,0.159,1.569h-0.069
		c-0.521-0.77-1.271-1.155-2.258-1.155c-0.938,0-1.673,0.358-2.207,1.082c-0.535,0.718-0.806,1.722-0.806,3.011
		c0,1.273,0.263,2.266,0.789,2.984c0.524,0.719,1.246,1.074,2.168,1.074c0.992,0,1.734-0.387,2.219-1.16h0.095l0.414,1.02h1.636
		v-10.945H238.805L238.805,816.113z M238.953,823.386h-0.004c-0.022,0.766-0.16,1.309-0.414,1.625
		c-0.258,0.32-0.656,0.48-1.203,0.48c-0.496,0-0.875-0.194-1.141-0.582c-0.266-0.387-0.398-0.969-0.398-1.741
		c0-0.774,0.129-1.364,0.396-1.767c0.265-0.406,0.632-0.608,1.108-0.608c0.586,0,1.004,0.183,1.266,0.547
		c0.258,0.367,0.391,0.972,0.391,1.815V823.386z"/>
	<path fill="#B3B3B3" d="M160.031,815.054c-1.008,0-1.761,0.364-2.261,1.086c-0.5,0.727-0.75,1.875-0.75,3.45v7.608h5.285v-8.858
		c0-1.095-0.185-1.914-0.548-2.465C161.391,815.328,160.816,815.054,160.031,815.054z"/>
	<path fill="#B3B3B3" d="M158.043,800.001h-3.434v12.276c0.789,0.371,1.391,0.935,1.801,1.691h0.363
		c0.407-0.703,1.004-1.25,1.793-1.641c0.789-0.387,1.676-0.582,2.668-0.582c1.711,0,3.008,0.441,3.887,1.324
		c0.406,0.406,0.715,0.938,0.935,1.578v-6.601C166.055,803.601,162.469,800.001,158.043,800.001z"/>
	<path fill="#B3B3B3" d="M142.594,827.199h0.897v-15.168h3.149l0.554,1.938h0.23c0.402-0.695,0.988-1.242,1.755-1.632
		c0.765-0.396,1.644-0.595,2.636-0.595c0.379,0,0.739,0.023,1.079,0.066v-11.808h-10.301V827.199z"/>
	<path fill="#B3B3B3" d="M150.625,815.054c-1.055,0-1.819,0.391-2.297,1.168c-0.476,0.778-0.715,2.059-0.715,3.84v7.137h5.282
		v-9.039c-0.021-1.004-0.2-1.766-0.547-2.284C151.984,815.328,151.41,815.054,150.625,815.054z"/>
	<path fill="#B3B3B3" d="M130,808.044v19.155h10.875v-27.198h-2.862C133.586,800.001,130,803.601,130,808.044z"/>
</g>
</svg>
