<?xml version="1.0" encoding="utf-8"?>
<!-- Generator: Adobe Illustrator 16.0.0, SVG Export Plug-In . SVG Version: 6.00 Build 0)  -->
<svg version="1.2" baseProfile="tiny" id="Шар_1"
	 xmlns="http://www.w3.org/2000/svg" xmlns:xlink="http://www.w3.org/1999/xlink" x="0px" y="0px" width="78.332px" height="40px"
	 viewBox="350.12 730.001 78.332 40" xml:space="preserve">
<g>
	<path fill="#B3B3B3" d="M366.882,754.669c-1.969-0.586-3.281-0.078-3.875,1.229l-3.957,8.685l-3.82-8.685
		c-0.574-1.308-1.906-1.815-3.898-1.229c-0.813,0.254-1.211,0.722-1.211,1.698v10.074h2.586v-10.074l4.035,8.785
		c0.457,1.055,1.113,1.445,2.387,1.445s1.891-0.391,2.367-1.445l4.016-8.785v10.074h2.605v-10.074
		C368.116,755.39,367.718,754.923,366.882,754.669z"/>
	<path fill="#B3B3B3" d="M380.03,764.816c-0.043,0-4.914,0.021-5.648,0c-1.414-0.019-1.531-0.723-1.512-1.035v-5.535h-2.605
		c0.059,0.039,0,5.595,0,5.712c0.02,1.269,1.672,2.386,4.234,2.405h5.513v0.664c0,0.274,0.198,1.094-1.474,1.271h-8.215v1.703h8.195
		c1.313-0.021,4.118-0.509,4.118-2.739v-9.055h-2.606V764.816L380.03,764.816z"/>
	<path fill="#B3B3B3" d="M428.136,757.544c-0.2-0.196-0.399-0.371-0.599-0.567c-0.577-0.765-1.293-1.429-2.069-1.976
		c-0.633-0.431-2.028-1.017-2.286-1.742c0,0-0.02-0.021-0.039-0.04c0.438-0.039,0.954-0.195,1.371-0.313
		c0.676-0.176,1.293-0.137,1.989-0.313c0.319-0.078,0.637-0.175,0.952-0.273v-0.176c-0.355-0.351-0.616-0.82-0.991-1.152
		c-1.017-0.862-2.129-1.703-3.282-2.405c-0.617-0.392-1.414-0.646-2.07-0.978c-0.238-0.117-0.637-0.176-0.773-0.375
		c-0.359-0.43-0.559-0.996-0.816-1.504c-0.578-1.074-1.132-2.269-1.629-3.402c-0.359-0.762-0.578-1.526-1.016-2.23
		c-2.047-3.324-4.277-5.339-7.695-7.316c-0.738-0.41-1.609-0.586-2.547-0.801c-0.495-0.019-0.992-0.058-1.492-0.078
		c-0.316-0.137-0.633-0.508-0.914-0.684c-1.132-0.703-4.055-2.23-4.891-0.214c-0.539,1.269,0.793,2.522,1.254,3.168
		c0.336,0.448,0.773,0.957,1.012,1.464c0.141,0.332,0.18,0.688,0.32,1.04c0.316,0.858,0.617,1.815,1.035,2.621
		c0.215,0.409,0.457,0.839,0.734,1.211c0.16,0.214,0.438,0.312,0.496,0.664c-0.277,0.39-0.297,0.979-0.457,1.468
		c-0.715,2.207-0.438,4.946,0.578,6.571c0.316,0.487,1.07,1.562,2.086,1.151c0.895-0.352,0.695-1.465,0.957-2.445
		c0.059-0.234,0.02-0.391,0.137-0.547v0.039c0.277,0.547,0.559,1.078,0.816,1.625c0.617,0.957,1.691,1.957,2.586,2.621
		c0.477,0.353,0.855,0.957,1.449,1.172v-0.059h-0.038c-0.118-0.176-0.298-0.254-0.457-0.391c-0.36-0.352-0.755-0.781-1.036-1.172
		c-0.836-1.098-1.57-2.309-2.227-3.563c-0.316-0.605-0.598-1.27-0.855-1.875c-0.117-0.234-0.117-0.586-0.316-0.703
		c-0.301,0.43-0.738,0.801-0.957,1.328c-0.375,0.84-0.418,1.879-0.555,2.953c-0.082,0.02-0.039,0-0.082,0.039
		c-0.637-0.156-0.855-0.801-1.094-1.352c-0.594-1.387-0.695-3.617-0.18-5.219c0.141-0.41,0.738-1.703,0.5-2.094
		c-0.121-0.371-0.52-0.586-0.738-0.879c-0.258-0.375-0.535-0.844-0.715-1.253c-0.477-1.095-0.715-2.31-1.234-3.403
		c-0.238-0.508-0.656-1.035-0.992-1.508c-0.379-0.527-0.797-0.898-1.094-1.523c-0.102-0.215-0.238-0.565-0.078-0.801
		c0.039-0.156,0.117-0.215,0.278-0.254c0.257-0.216,0.991,0.059,1.253,0.176c0.734,0.293,1.352,0.565,1.969,0.977
		c0.278,0.195,0.574,0.566,0.934,0.664h0.418c0.637,0.137,1.352,0.039,1.949,0.216c1.051,0.331,2.008,0.823,2.863,1.351
		c2.605,1.621,4.75,3.93,6.203,6.688c0.238,0.449,0.34,0.859,0.559,1.328c0.418,0.961,0.935,1.938,1.353,2.875
		c0.418,0.922,0.815,1.859,1.409,2.621c0.301,0.41,1.492,0.629,2.031,0.844c0.395,0.176,1.013,0.332,1.371,0.547
		c0.677,0.41,1.353,0.879,1.988,1.328c0.321,0.234,1.313,0.723,1.371,1.113c-1.589-0.039-2.824,0.117-3.855,0.547
		c-0.301,0.121-0.776,0.121-0.815,0.492c0.16,0.156,0.179,0.41,0.315,0.625c0.238,0.391,0.656,0.918,1.035,1.191
		c0.418,0.313,0.836,0.625,1.274,0.898c0.772,0.472,1.647,0.746,2.406,1.215c0.437,0.273,0.875,0.625,1.312,0.918
		c0.219,0.156,0.36,0.41,0.637,0.508v-0.059C428.311,757.992,428.272,757.738,428.136,757.544z"/>
	<path fill="#B3B3B3" d="M405.046,734.933v0.039h0.039c0.16,0.313,0.438,0.528,0.638,0.801c0.159,0.313,0.3,0.625,0.457,0.942
		c0.019-0.021,0.043-0.039,0.043-0.039c0.276-0.196,0.414-0.513,0.414-0.981c-0.118-0.137-0.138-0.272-0.239-0.41
		c-0.117-0.194-0.375-0.293-0.535-0.448C405.522,734.837,405.284,734.876,405.046,734.933z"/>
	<path fill="#B3B3B3" d="M386.87,754.884c-1.531,0.468-2.207,1.21-2.207,2.522v1.484c0,1.157,1.313,2.133,3.539,2.368
		c0.238,0.019,0.496,0.019,0.758,0.019h2.684c0.098,0,0.2,0,0.277,0.021c0.816,0.078,1.177,0.214,1.414,0.507
		c0.16,0.157,0.199,0.297,0.199,0.473v1.484c0,0.176-0.121,0.411-0.359,0.605c-0.238,0.199-0.617,0.336-1.113,0.355
		c-0.098,0-0.16,0.016-0.257,0.016h-7.181v1.703h7.477c0.875,0,1.711-0.176,2.387-0.488c1.137-0.508,1.672-1.191,1.672-2.094v-1.879
		c0-0.722-0.617-1.406-1.852-1.875c-0.632-0.234-1.43-0.371-2.207-0.371h-3.141c-1.055,0-1.551-0.312-1.691-1
		c-0.02-0.078-0.02-0.156-0.02-0.233v-1.153c0-0.058,0-0.136,0.02-0.214c0.141-0.528,0.418-0.665,1.332-0.763h7.656v-1.702h-7.277
		C387.925,754.669,387.366,754.726,386.87,754.884z"/>
	<path fill="#B3B3B3" d="M414.948,763.469v-8.8h-2.605v8.819c0,1.738,1.337,2.72,4,2.914c0.258,0.021,0.496,0.039,0.755,0.039h6.761
		v-1.703h-6.82C415.526,764.738,414.948,764.367,414.948,763.469z"/>
	<path fill="#B3B3B3" d="M410.714,763.566v-6.062c0-1.548-1.094-2.485-3.262-2.778c-0.258-0.02-0.477-0.039-0.734-0.039h-4.934
		c-0.219,0-0.457,0.02-0.695,0.039c-2.168,0.293-3.281,1.23-3.281,2.778v6.062c0,1.406,0.816,2.271,2.465,2.719
		c0.535,0.138,1.055,0.195,1.512,0.195h2.785l2.086-0.117l2.07,1.836h3l-2.543-2.266
		C410.257,765.48,410.714,764.816,410.714,763.566z M408.288,763.469c0,0.079,0,0.176-0.02,0.254
		c-0.078,0.352-0.3,0.625-0.656,0.821l-1.89-1.681h-3.005l2.148,1.914h-2.344c-1.035,0-1.711-0.391-1.852-1.094
		c-0.02-0.097-0.059-0.175-0.059-0.254v-5.77c0-0.78,0.754-1.27,1.906-1.27h3.918c1.016,0,1.691,0.371,1.832,1.036
		c0.02,0.078,0.02,0.156,0.02,0.233V763.469z"/>
	<polygon fill="#B3B3B3" points="427.319,765.914 426.844,764.738 426.323,764.738 426.323,766.462 426.663,766.462 
		426.663,765.148 426.682,765.148 427.179,766.462 427.436,766.462 427.936,765.148 427.936,766.462 428.293,766.462 
		428.293,764.738 427.758,764.738 	"/>
	<polygon fill="#B3B3B3" points="424.534,765.031 425.051,765.031 425.051,766.462 425.429,766.462 425.429,765.031 
		425.929,765.031 425.929,764.738 424.534,764.738 	"/>
</g>
</svg>
