<?xml version="1.0" encoding="utf-8"?>
<!-- Generator: Adobe Illustrator 16.0.0, SVG Export Plug-In . SVG Version: 6.00 Build 0)  -->
<!DOCTYPE svg PUBLIC "-//W3C//DTD SVG 1.1//EN" "http://www.w3.org/Graphics/SVG/1.1/DTD/svg11.dtd">
<svg version="1.1" id="Шар_1" xmlns="http://www.w3.org/2000/svg" xmlns:xlink="http://www.w3.org/1999/xlink" x="0px" y="0px"
	 width="114px" height="23.999px" viewBox="285.986 870.001 114 23.999" enable-background="new 285.986 870.001 114 23.999"
	 xml:space="preserve">
<g>
	<path fill="#B3B3B3" d="M307.347,870.007c-1.368,0-2.478,1.113-2.478,2.487v12.964l-14.656-14.722
		c-0.709-0.712-1.773-0.923-2.698-0.539c-0.927,0.385-1.529,1.292-1.529,2.298v18.971c0,1.374,1.109,2.487,2.477,2.487
		c1.368,0,2.478-1.114,2.478-2.487v-12.965l14.656,14.723c0.474,0.476,1.107,0.729,1.752,0.729c0.318,0,0.641-0.062,0.946-0.188
		c0.927-0.386,1.529-1.292,1.529-2.298v-18.971C309.824,871.12,308.715,870.007,307.347,870.007z"/>
	<path fill="#B3B3B3" d="M324.946,880.976c-1.308-0.019-2.512,1.173-2.512,2.488c0,1.313,1.204,2.506,2.512,2.487l6.068-0.03
		l-1.486,3.016h-7.801l-3.87-6.841l3.9-7.09h8.3l1.935,3.987h4.984l-3.143-7.563l-0.681-1.399h-1.548h-11.302h-1.486l-0.681,1.275
		l-5.264,9.607l-0.681,1.213l0.681,1.214l5.264,9.297l0.712,1.274h1.455h10.772h1.548l0.682-1.398l3.932-7.96l1.765-3.607h-3.993
		L324.946,880.976z"/>
	<path fill="#B3B3B3" d="M343.906,870.001c-1.297,0.016-2.462,1.216-2.446,2.519v6.481h4.953v-6.481
		C346.43,871.195,345.223,869.984,343.906,870.001z"/>
	<path fill="#B3B3B3" d="M371.678,870.245c-0.925-0.384-1.99-0.172-2.699,0.539l-14.656,14.723v-12.965
		c0-1.373-1.109-2.487-2.477-2.487c-1.368,0-2.478,1.114-2.478,2.487v18.971c0,1.006,0.604,1.913,1.529,2.298
		c0.306,0.127,0.628,0.188,0.947,0.188c0.644,0,1.277-0.253,1.752-0.729l14.655-14.722v12.964c0,1.374,1.109,2.487,2.478,2.487
		s2.477-1.113,2.477-2.487v-18.971C373.207,871.537,372.604,870.63,371.678,870.245z"/>
	<path fill="#B3B3B3" d="M391.553,882.009l7.703-7.711c0.97-0.971,0.973-2.544,0.007-3.519c-0.967-0.973-2.534-0.976-3.503-0.006
		l-7.717,7.723l-7.716-7.723c-0.969-0.97-2.538-0.968-3.503,0.006s-0.963,2.548,0.006,3.519l7.704,7.711l-7.682,7.688
		c-0.969,0.97-0.973,2.544-0.006,3.519c0.483,0.487,1.118,0.731,1.754,0.731c0.632,0,1.265-0.242,1.748-0.726l7.693-7.701
		l7.694,7.701c0.483,0.483,1.115,0.726,1.748,0.726c0.635,0,1.271-0.244,1.754-0.731c0.966-0.974,0.963-2.548-0.006-3.519
		L391.553,882.009z"/>
	<path fill="#B3B3B3" d="M341.46,891.41c-0.016,1.303,1.149,2.502,2.446,2.52c1.317,0.017,2.524-1.195,2.508-2.52v-10.412h-4.953
		L341.46,891.41L341.46,891.41z"/>
</g>
</svg>
