<?xml version="1.0" encoding="utf-8"?>
<!-- Generator: Adobe Illustrator 16.0.0, SVG Export Plug-In . SVG Version: 6.00 Build 0)  -->
<!DOCTYPE svg PUBLIC "-//W3C//DTD SVG 1.1//EN" "http://www.w3.org/Graphics/SVG/1.1/DTD/svg11.dtd">
<svg version="1.1" id="Шар_1" xmlns="http://www.w3.org/2000/svg" xmlns:xlink="http://www.w3.org/1999/xlink" x="0px" y="0px"
	 width="34px" height="42.832px" viewBox="70 870.001 34 42.832" enable-background="new 70 870.001 34 42.832"
	 xml:space="preserve">
<g>
	<path fill="#B3B3B3" d="M77.887,907.929c0-2.184-1.648-2.466-3.551-2.466h-2.405v7.369h1.88v-1.92l1.711,1.711h2.884l-2.287-2.286
		C76.117,910.336,77.763,910.309,77.887,907.929z M75.521,908.774H73.9v-1.313h1.621V908.774z"/>
	<path fill="#B3B3B3" d="M82.442,905.492c-0.125,0-0.261,0.001-0.408,0c-1.029-0.006-2.456,0.089-2.456,2.029v5.122h1.929v-1.253
		h1.87v1.223h1.939v-5.37C85.316,905.558,83.445,905.492,82.442,905.492z M83.347,909.361h-1.811v-2.019h1.811V909.361z"/>
	<rect x="87.249" y="905.497" fill="#B3B3B3" width="1.996" height="7.051"/>
	<polygon fill="#B3B3B3" points="93.301,905.56 91.336,905.592 91.336,912.64 96.139,912.64 96.139,910.769 93.301,910.769 	"/>
	<path fill="#B3B3B3" d="M100.662,908.117c-0.717,0-1.372,0-1.372,0v-0.686h3.213v-1.903c0,0-1.028-0.032-2.775-0.032
		s-2.62,0.655-2.62,2.402s1.684,2.193,2.592,2.193s1.355,0.116,1.355,0.362c0,0.248-0.049,0.532-0.923,0.532c-0.873,0-2.9,0-2.9,0
		v1.716c0,0,0.436,0,2.525,0c2.091,0,3.119-0.125,3.119-2.371C102.877,908.087,101.379,908.117,100.662,908.117z"/>
	<path fill="#B3B3B3" d="M92.833,871.996c-6.238,0.562-10.543,4.68-13.226,9.67c-2.684,4.991-4.242,8.484-5.303,13.726
		c-1.061,5.24-0.624,7.984-0.624,7.984h16.595c0,0-3.681-8.359-2.745-16.032s6.987-11.167,10.418-11.541
		c3.431-0.375,5.303,1.747,5.303,1.747l0.749-1.123C104,876.426,99.071,871.435,92.833,871.996z"/>
	<polygon fill="#B3B3B3" points="73.618,895.266 70.374,895.016 70,898.135 73.057,898.51 	"/>
	<polygon fill="#B3B3B3" points="76.363,885.721 73.494,884.598 72.558,887.219 75.49,888.154 	"/>
	<polygon fill="#B3B3B3" points="81.229,877.799 79.046,876.363 77.299,878.298 79.545,879.795 	"/>
	<polygon fill="#B3B3B3" points="87.53,872.682 86.033,870.998 83.974,872.059 85.471,873.868 	"/>
	<polygon fill="#B3B3B3" points="94.206,871.747 93.956,870.126 91.273,870.001 91.648,871.81 	"/>
	<polygon fill="#B3B3B3" points="102.004,873.431 99.945,871.934 99.883,873.057 101.629,873.992 	"/>
	<polygon fill="#B3B3B3" points="101.255,877.112 99.57,876.738 99.57,877.674 101.255,877.86 	"/>
	<polygon fill="#B3B3B3" points="94.206,877.55 95.017,879.047 96.202,878.11 95.952,877.112 	"/>
	<polygon fill="#B3B3B3" points="92.895,881.354 91.647,879.483 90.337,880.669 92.146,882.664 	"/>
	<polygon fill="#B3B3B3" points="88.341,886.283 90.462,888.093 90.961,886.033 89.152,884.66 	"/>
	<polygon fill="#B3B3B3" points="88.154,892.521 90.774,893.644 90.649,891.586 88.279,890.338 	"/>
	<polygon fill="#B3B3B3" points="92.958,900.508 91.772,898.073 89.027,898.073 89.651,900.32 	"/>
</g>
</svg>
