<?xml version="1.0" encoding="utf-8"?>
<!-- Generator: Adobe Illustrator 16.0.0, SVG Export Plug-In . SVG Version: 6.00 Build 0)  -->
<svg version="1.2" baseProfile="tiny" id="Шар_1"
	 xmlns="http://www.w3.org/2000/svg" xmlns:xlink="http://www.w3.org/1999/xlink" x="0px" y="0px" width="98.703px"
	 height="15.999px" viewBox="11.202 730.001 98.703 15.999" xml:space="preserve">
<g>
	<path fill="#B3B3B3" d="M24.167,743.496c-0.133-0.188-0.203-0.452-0.203-0.797v-0.789c0-0.93-0.199-1.711-0.602-2.344
		c-0.402-0.629-1.066-1.078-1.984-1.348c0.813-0.359,1.43-0.824,1.848-1.402c0.422-0.574,0.633-1.254,0.633-2.039
		c0-1.426-0.504-2.543-1.508-3.351c-1.003-0.81-2.391-1.211-4.156-1.211h-6.992v1.878l1.656,0.32v11.16l-1.656,0.32v1.879v0.004
		h6.445v-1.883l-1.668-0.32v-4.094h2.555c0.734,0.024,1.305,0.246,1.707,0.68c0.402,0.431,0.602,1.02,0.602,1.773v0.887
		c0,0.871,0.207,1.582,0.621,2.133c0.414,0.548,1.129,0.824,2.148,0.824h1.613v-1.894l-0.383-0.052
		C24.526,743.798,24.304,743.683,24.167,743.496z M20.097,736.519c-0.438,0.371-1.091,0.555-1.957,0.555h-2.161v-4.457h2.215
		c0.84,0,1.477,0.211,1.906,0.625c0.43,0.418,0.645,0.977,0.645,1.672C20.745,735.613,20.53,736.148,20.097,736.519z"/>
	<polygon fill="#B3B3B3" points="36.05,743.371 31.026,743.371 31.026,738.933 36.296,738.933 36.296,736.531 31.026,736.531 
		31.026,732.617 36.007,732.617 36.147,734.476 38.542,734.476 38.542,730.216 26.249,730.216 26.249,732.094 27.909,732.414 
		27.909,743.574 26.249,743.894 26.249,745.773 38.561,745.773 38.561,741.523 36.19,741.523 	"/>
	<path fill="#B3B3B3" d="M47.042,736.695c-1.191-0.375-2.035-0.733-2.52-1.069c-0.488-0.337-0.73-0.771-0.73-1.294
		c0-0.57,0.23-1.03,0.699-1.391c0.465-0.359,1.121-0.539,1.977-0.539c0.582,0,1.133,0.066,1.652,0.195
		c0.521,0.125,0.914,0.273,1.185,0.446l0.405,2.129h2.332v-3.172c-0.668-0.606-1.496-1.095-2.477-1.457
		c-0.984-0.364-2.074-0.543-3.27-0.543c-1.616,0.019-2.957,0.433-4.023,1.229c-1.07,0.801-1.602,1.832-1.602,3.09
		c0,1.273,0.47,2.273,1.41,3.004c0.945,0.73,2.344,1.359,4.203,1.895c1.063,0.32,1.801,0.661,2.228,1.02
		c0.421,0.363,0.632,0.845,0.632,1.438c0,0.585-0.223,1.05-0.664,1.397c-0.445,0.349-1.093,0.52-1.949,0.52
		c-0.668,0-1.273-0.082-1.816-0.25c-0.543-0.167-0.973-0.378-1.284-0.632l-0.364-2.203h-2.363v3.237
		c0.664,0.703,1.492,1.255,2.488,1.652c0.992,0.403,2.105,0.602,3.34,0.602c1.719,0,3.106-0.391,4.16-1.163
		c1.051-0.778,1.574-1.837,1.574-3.181c0-1.27-0.441-2.297-1.324-3.078C50.057,737.798,48.757,737.173,47.042,736.695z"/>
	<polygon fill="#B3B3B3" points="53.335,734.359 55.729,734.359 55.858,732.617 58.698,732.617 58.698,743.574 57.034,743.894 
		57.034,745.773 63.487,745.773 63.487,743.894 61.819,743.574 61.819,732.617 64.682,732.617 64.811,734.359 67.206,734.359 
		67.206,730.216 53.335,730.216 	"/>
	<path fill="#B3B3B3" d="M82.472,730.216h-3.2l-4.734,13.526l-1.108,0.152v1.879h5.3v-1.879l-1.082-0.183l0.684-2.028h5.047
		l0.684,2.028l-1.078,0.183v1.879h5.301v-1.879l-1.113-0.152L82.472,730.216z M79.069,739.277l1.754-5.483h0.067l1.75,5.483H79.069z
		"/>
	<path fill="#B3B3B3" d="M96.718,730.216h-7.406v1.878l1.656,0.32v11.16l-1.656,0.32v1.879v0.004h6.445v-1.883l-1.668-0.32v-3.44
		h2.629c1.781,0,3.188-0.454,4.215-1.36c1.031-0.901,1.547-2.101,1.547-3.59c0-1.48-0.516-2.679-1.547-3.597
		C99.905,730.673,98.499,730.216,96.718,730.216z M98.69,737.015c-0.445,0.477-1.102,0.711-1.973,0.711h-2.629v-5.109h2.629
		c0.871,0,1.527,0.246,1.973,0.734c0.446,0.489,0.668,1.106,0.668,1.852C99.358,735.937,99.136,736.544,98.69,737.015z"/>
	<polygon fill="#B3B3B3" points="109.905,732.094 109.905,730.216 103.472,730.216 103.472,732.094 105.128,732.414 
		105.128,743.574 103.472,743.894 103.472,745.773 109.905,745.773 109.905,743.894 108.249,743.574 108.249,732.414 	"/>
</g>
</svg>
