<?xml version="1.0" encoding="utf-8"?>
<!-- Generator: Adobe Illustrator 16.0.0, SVG Export Plug-In . SVG Version: 6.00 Build 0)  -->
<!DOCTYPE svg PUBLIC "-//W3C//DTD SVG 1.1//EN" "http://www.w3.org/Graphics/SVG/1.1/DTD/svg11.dtd">
<svg version="1.1"
	 id="Шар_1" xmlns:sodipodi="http://sodipodi.sourceforge.net/DTD/sodipodi-0.dtd" xmlns:cc="http://creativecommons.org/ns#" xmlns:rdf="http://www.w3.org/1999/02/22-rdf-syntax-ns#" xmlns:inkscape="http://www.inkscape.org/namespaces/inkscape" xmlns:svg="http://www.w3.org/2000/svg" xmlns:dc="http://purl.org/dc/elements/1.1/" sodipodi:docname="partners.svg" inkscape:version="0.91 r13725"
	 xmlns="http://www.w3.org/2000/svg" xmlns:xlink="http://www.w3.org/1999/xlink" x="0px" y="0px" width="41.999px" height="42px"
	 viewBox="10.001 270 41.999 42" enable-background="new 10.001 270 41.999 42" xml:space="preserve">
<sodipodi:namedview  gridtolerance="10" inkscape:cy="367.284" showgrid="false" pagecolor="#ffffff" inkscape:zoom="0.20304997" borderopacity="1" inkscape:cx="687.02301" bordercolor="#666666" guidetolerance="10" objecttolerance="10" id="namedview616" inkscape:pageshadow="2" inkscape:window-height="480" inkscape:window-maximized="0" inkscape:pageopacity="0" inkscape:window-y="0" inkscape:window-width="640" inkscape:window-x="0" inkscape:current-layer="Шар_1">
	</sodipodi:namedview>
<g id="g453">
	<path id="path455" fill="#adadad" d="M34.749,283.372c-0.302,0.464-0.623,0.931-0.963,1.397l1.057-1.018L34.749,283.372z"/>
	<polygon id="polygon457" fill="#adadad" points="35.128,284.898 24.243,295.379 39.025,300.563 	"/>
	<path id="path459" fill="#adadad" d="M30.868,307.496l7.395-5.646c0.121-0.112,0.243-0.228,0.365-0.342l-14.484-5.08l5.65,11.708
		C30.151,307.932,30.509,307.718,30.868,307.496z"/>
	<path id="path461" fill="#adadad" d="M12.629,297.923l1.909-0.513c-0.879-0.056-1.667-0.266-2.343-0.636L12.629,297.923z"/>
	<path id="path463" fill="#adadad" d="M11.636,298.19L11.636,298.19l-1.242-3.288c-0.004-0.009-0.008-0.017-0.013-0.025
		c-0.271,1.911-0.387,3.763-0.381,5.479l1.727-1.927L11.636,298.19z"/>
	<path id="path465" fill="#adadad" d="M34.974,283.025l0.155,0.102l0.244-0.753C35.244,282.589,35.112,282.807,34.974,283.025z"/>
	<path id="path467" fill="#adadad" d="M46.805,291.88l-10.588-6.833l3.77,15.154c0.044-0.044,0.088-0.087,0.132-0.131
		C42.75,297.426,44.996,294.644,46.805,291.88z"/>
	<path id="path469" fill="#adadad" d="M38.712,272.067l0.017-0.048l0.292,0.237l3.501-2.209c-1.809-0.093-3.836-0.053-5.962,0.161
		c0.059,0.053,0.12,0.103,0.176,0.16c0.214,0.215,0.399,0.448,0.563,0.701L38.712,272.067z"/>
	<path id="path471" fill="#adadad" d="M38.381,273.086l-0.396-0.281c0.072,0.355,0.112,0.729,0.125,1.12L38.381,273.086z"/>
	<path id="path473" fill="#adadad" d="M24.211,293.99c-0.859,0.569-1.712,1.072-2.55,1.506l1.369-0.369l0.276-0.267l0.032-0.095
		l0.021,0.043L24.211,293.99z"/>
	<path id="path475" fill="#adadad" d="M29.247,288.507c6.069-6.101,9.171-13.417,7.281-16.729l-1.887-1.334
		c-4.335,0.649-8.926,2.073-12.849,4.667c-1.052,0.84-2.094,1.771-3.102,2.785c-1.917,1.927-3.536,3.977-4.798,5.983
		c-1.447,2.679-2.426,5.531-3.035,8.335c-0.002,0.551,0.06,1.06,0.188,1.521l0.271,0.715c0.16,0.322,0.36,0.611,0.607,0.861
		C14.785,298.185,22.718,295.07,29.247,288.507z"/>
	<polygon id="polygon477" fill="#adadad" points="17.652,311.152 22.826,296.243 12.993,298.887 	"/>
	<path id="path479" fill="#adadad" d="M47.356,291.016c1.59-2.556,2.798-5.08,3.583-7.453l-13.926,0.777L47.356,291.016z"/>
	<path id="path481" fill="#adadad" d="M51.339,282.238c0.746-2.76,0.874-5.266,0.313-7.308l-10.965-1.322L51.339,282.238z"/>
	<path id="path483" fill="#adadad" d="M10.039,301.847c0.085,1.869,0.312,3.53,0.625,4.869l0.915-6.589L10.039,301.847z"/>
	<polygon id="polygon485" fill="#adadad" points="36.126,283.362 50.134,282.58 39.24,273.751 	"/>
	<path id="path487" fill="#adadad" d="M40.477,272.548l10.795,1.302c-0.336-0.766-0.784-1.451-1.362-2.032
		c-0.702-0.706-2.806-1.34-5.68-1.638L40.477,272.548z"/>
	<path id="path489" fill="#adadad" d="M50.563,305.766l0.354-19.418c-0.757,1.773-1.714,3.596-2.859,5.426L50.563,305.766z"/>
	<path id="path491" fill="#adadad" d="M11.387,308.929c0.199,0.427,0.409,0.764,0.626,0.981c1.222,1.228,2.889,1.896,4.857,2.061
		l-4.325-11.388L11.387,308.929z"/>
	<path id="path493" fill="#adadad" d="M23.493,297.436L18.439,312c3.062-0.132,6.688-1.297,10.463-3.357L23.493,297.436z"/>
	<path id="path495" fill="#adadad" d="M38.904,302.649c-2.368,2.162-4.818,4.017-7.252,5.535l-0.626,0.479l18.399,1.66l-9.695-8.306
		L38.904,302.649z"/>
	<path id="path497" fill="#adadad" d="M40.841,300.796c-0.148,0.149-0.3,0.293-0.449,0.44l9.832,8.423l-2.979-16.632
		C45.476,295.662,43.331,298.293,40.841,300.796z"/>
	<path id="path499" fill="#adadad" d="M29.481,309.843l-0.148-0.306c-1.852,0.998-3.673,1.79-5.423,2.362l19.885-1.053
		l-13.975-1.262L29.481,309.843z"/>
</g>
</svg>
