<?xml version="1.0" encoding="utf-8"?>
<!-- Generator: Adobe Illustrator 16.0.0, SVG Export Plug-In . SVG Version: 6.00 Build 0)  -->
<svg version="1.2" baseProfile="tiny" id="Шар_1"
	 xmlns="http://www.w3.org/2000/svg" xmlns:xlink="http://www.w3.org/1999/xlink" x="0px" y="0px" width="61.603px" height="24px"
	 viewBox="579.202 660.001 61.603 24" xml:space="preserve">
<g>
	<polygon fill="#B3B3B3" points="579.202,663.621 584.168,663.621 584.168,683.73 588.913,683.73 588.913,663.621 593.879,663.621 
		593.879,660.269 579.202,660.269 	"/>
	<polygon fill="#B3B3B3" points="611.577,678.902 609.202,660.265 604.629,660.265 602.34,678.769 599.793,660.265 595.176,660.265 
		598.543,683.73 605.061,683.73 606.788,671.23 608.514,683.73 614.815,683.73 618.182,660.265 614.038,660.265 	"/>
	<rect x="619.694" y="660.269" fill="#B3B3B3" width="4.746" height="23.461"/>
	<path fill="#B3B3B3" d="M640.804,668.179v-2.277c0-1.901-0.599-3.358-1.793-4.375c-1.196-1.016-2.957-1.526-5.289-1.526
		c-2.329,0-4.094,0.508-5.286,1.526c-1.195,1.017-1.793,2.474-1.793,4.375v12.199c0,1.899,0.598,3.36,1.793,4.375
		c1.192,1.016,2.957,1.524,5.286,1.524c2.332,0,4.093-0.505,5.289-1.509c1.194-1.008,1.793-2.461,1.793-4.358v-7.442h-6.649v3.356
		h2.156v4.323c0,0.848-0.222,1.441-0.668,1.773c-0.445,0.336-1.043,0.504-1.789,0.504c-0.75,0-1.347-0.168-1.793-0.504
		c-0.445-0.336-0.668-0.929-0.668-1.777v-12.694c0-0.853,0.223-1.45,0.668-1.797c0.446-0.349,1.043-0.524,1.793-0.524
		c0.746,0,1.344,0.176,1.789,0.52c0.446,0.348,0.668,0.945,0.668,1.794v2.515H640.804L640.804,668.179z"/>
</g>
</svg>
