<?xml version="1.0" encoding="utf-8"?>
<!-- Generator: Adobe Illustrator 16.0.0, SVG Export Plug-In . SVG Version: 6.00 Build 0)  -->
<!DOCTYPE svg PUBLIC "-//W3C//DTD SVG 1.1//EN" "http://www.w3.org/Graphics/SVG/1.1/DTD/svg11.dtd">
<svg version="1.1"
	 id="Шар_1" xmlns:sodipodi="http://sodipodi.sourceforge.net/DTD/sodipodi-0.dtd" xmlns:cc="http://creativecommons.org/ns#" xmlns:rdf="http://www.w3.org/1999/02/22-rdf-syntax-ns#" xmlns:inkscape="http://www.inkscape.org/namespaces/inkscape" xmlns:svg="http://www.w3.org/2000/svg" xmlns:dc="http://purl.org/dc/elements/1.1/" sodipodi:docname="partners.svg" inkscape:version="0.91 r13725"
	 xmlns="http://www.w3.org/2000/svg" xmlns:xlink="http://www.w3.org/1999/xlink" x="0px" y="0px" width="46px" height="54.001px"
	 viewBox="110 350 46 54.001" enable-background="new 110 350 46 54.001" xml:space="preserve">
<sodipodi:namedview  gridtolerance="10" inkscape:cy="367.284" showgrid="false" pagecolor="#ffffff" inkscape:zoom="0.20304997" borderopacity="1" inkscape:cx="687.02301" bordercolor="#666666" guidetolerance="10" objecttolerance="10" id="namedview616" inkscape:pageshadow="2" inkscape:window-height="480" inkscape:window-maximized="0" inkscape:pageopacity="0" inkscape:window-y="0" inkscape:window-width="640" inkscape:window-x="0" inkscape:current-layer="Шар_1">
	</sodipodi:namedview>
<g>
	<path fill="#1B7164" d="M113.341,367.531c-1.845,0-3.341,1.476-3.341,3.296v5.604v2.636v5.604c0.001,1.82,1.496,3.295,3.341,3.295
		c1.847,0,3.343-1.475,3.343-3.295v-5.604v-2.636v-5.604C116.682,369.005,115.186,367.531,113.341,367.531z"/>
	<path fill="#1B7164" d="M152.659,367.531c-1.845,0-3.34,1.476-3.341,3.296v5.604v2.636v5.604c0.001,1.82,1.496,3.295,3.341,3.295
		s3.341-1.475,3.341-3.295v-5.604v-2.636v-5.604C155.999,369.006,154.504,367.531,152.659,367.531z"/>
	<path fill="#1B7164" d="M118.046,368.106h-0.166v21.729c0,1.813,1.504,3.296,3.343,3.296h2.814v1.97v5.604
		c0.001,1.819,1.496,3.295,3.341,3.295c1.847,0,3.343-1.476,3.343-3.295V395.1v-1.97h4.56v1.97v5.604
		c0.001,1.819,1.496,3.295,3.341,3.295s3.34-1.476,3.341-3.295V395.1v-1.97h2.816c1.838,0,3.341-1.483,3.341-3.296v-21.729h-0.054
		L118.046,368.106L118.046,368.106z"/>
	<path fill="#1B7164" d="M148.092,366.952v-1.59c-0.044-0.45-0.111-0.896-0.204-1.332c-0.827-3.864-3.563-7.14-7.313-9.041
		l2.307-4.197c0.145-0.261,0.047-0.585-0.219-0.727c-0.264-0.142-0.593-0.044-0.734,0.216l-2.338,4.252
		c-1.983-0.843-4.211-1.313-6.563-1.313c-2.37,0-4.612,0.479-6.609,1.332l-2.346-4.271c-0.143-0.26-0.473-0.355-0.736-0.216
		c-0.264,0.142-0.36,0.466-0.219,0.727l2.319,4.222c-3.574,1.825-6.221,4.902-7.157,8.548c-0.243,0.944-0.373,1.929-0.373,2.939
		c0,0.15,0.004,0.303,0.009,0.452H148.092L148.092,366.952z M139.878,358.876c0.785,0,1.42,0.627,1.42,1.4s-0.636,1.401-1.42,1.401
		c-0.785,0-1.42-0.628-1.42-1.401S139.093,358.876,139.878,358.876z M126.122,358.876c0.785,0,1.42,0.627,1.42,1.4
		s-0.636,1.401-1.42,1.401c-0.785,0-1.42-0.628-1.42-1.401S125.338,358.876,126.122,358.876z"/>
</g>
</svg>
