<?xml version="1.0" encoding="utf-8"?>
<!-- Generator: Adobe Illustrator 16.0.0, SVG Export Plug-In . SVG Version: 6.00 Build 0)  -->
<!DOCTYPE svg PUBLIC "-//W3C//DTD SVG 1.1//EN" "http://www.w3.org/Graphics/SVG/1.1/DTD/svg11.dtd">
<svg version="1.1"
	 id="Шар_1" xmlns:sodipodi="http://sodipodi.sourceforge.net/DTD/sodipodi-0.dtd" xmlns:cc="http://creativecommons.org/ns#" xmlns:rdf="http://www.w3.org/1999/02/22-rdf-syntax-ns#" xmlns:inkscape="http://www.inkscape.org/namespaces/inkscape" xmlns:svg="http://www.w3.org/2000/svg" xmlns:dc="http://purl.org/dc/elements/1.1/" sodipodi:docname="partners.svg" inkscape:version="0.91 r13725"
	 xmlns="http://www.w3.org/2000/svg" xmlns:xlink="http://www.w3.org/1999/xlink" x="0px" y="0px" width="42px" height="48px"
	 viewBox="189.999 350 42 48" enable-background="new 189.999 350 42 48" xml:space="preserve">
<sodipodi:namedview  gridtolerance="10" inkscape:cy="367.284" showgrid="false" pagecolor="#ffffff" inkscape:zoom="0.20304997" borderopacity="1" inkscape:cx="687.02301" bordercolor="#666666" guidetolerance="10" objecttolerance="10" id="namedview616" inkscape:pageshadow="2" inkscape:window-height="480" inkscape:window-maximized="0" inkscape:pageopacity="0" inkscape:window-y="0" inkscape:window-width="640" inkscape:window-x="0" inkscape:current-layer="Шар_1">
	</sodipodi:namedview>
<g>
	<path fill="#1B7164" d="M217.837,357.793c1.604-2.021,2.821-4.875,2.379-7.793c-2.617,0.179-5.683,1.814-7.471,3.947
		c-1.623,1.938-2.964,4.81-2.44,7.603C213.161,361.636,216.12,359.958,217.837,357.793z"/>
	<path fill="#1B7164" d="M230.574,366.106c-2.519-3.084-6.054-4.869-9.388-4.869c-4.413,0-6.279,2.06-9.341,2.06
		c-3.156,0-5.557-2.057-9.373-2.057c-3.749,0-7.736,2.237-10.266,6.061c-3.556,5.379-2.954,15.497,2.813,24.118
		c2.062,3.082,4.815,6.551,8.419,6.581c3.201,0.028,4.105-2.007,8.45-2.029c4.344-0.023,5.164,2.053,8.364,2.023
		c3.603-0.034,6.509-3.872,8.569-6.956c1.479-2.208,2.028-3.323,3.176-5.822C223.661,382.121,222.321,370.548,230.574,366.106z"/>
</g>
</svg>
