<?xml version="1.0" encoding="utf-8"?>
<!-- Generator: Adobe Illustrator 16.0.0, SVG Export Plug-In . SVG Version: 6.00 Build 0)  -->
<!DOCTYPE svg PUBLIC "-//W3C//DTD SVG 1.1//EN" "http://www.w3.org/Graphics/SVG/1.1/DTD/svg11.dtd">
<svg version="1.1"
	 id="Шар_1" xmlns:sodipodi="http://sodipodi.sourceforge.net/DTD/sodipodi-0.dtd" xmlns:cc="http://creativecommons.org/ns#" xmlns:rdf="http://www.w3.org/1999/02/22-rdf-syntax-ns#" xmlns:inkscape="http://www.inkscape.org/namespaces/inkscape" xmlns:svg="http://www.w3.org/2000/svg" xmlns:dc="http://purl.org/dc/elements/1.1/" sodipodi:docname="partners.svg" inkscape:version="0.91 r13725"
	 xmlns="http://www.w3.org/2000/svg" xmlns:xlink="http://www.w3.org/1999/xlink" x="0px" y="0px" width="40px" height="56px"
	 viewBox="340.002 260 40 56" enable-background="new 340.002 260 40 56" xml:space="preserve">
<sodipodi:namedview  gridtolerance="10" inkscape:cy="367.284" showgrid="false" pagecolor="#ffffff" inkscape:zoom="0.20304997" borderopacity="1" inkscape:cx="687.02301" bordercolor="#666666" guidetolerance="10" objecttolerance="10" id="namedview616" inkscape:pageshadow="2" inkscape:window-height="480" inkscape:window-maximized="0" inkscape:pageopacity="0" inkscape:window-y="0" inkscape:window-width="640" inkscape:window-x="0" inkscape:current-layer="Шар_1">
	</sodipodi:namedview>
<g>
	<polygon fill="#1B7164" points="362.826,263.781 364.581,266.5 364.589,266.506 364.594,266.5 366.396,263.704 366.396,267.55 
		368.867,267.55 368.867,260 368.693,260 366.397,260 366.172,260 364.59,262.582 363.009,260 362.828,260 360.476,260 360.356,260 
		360.356,267.55 362.826,267.55 	"/>
	<polygon fill="#1B7164" points="354.468,262.541 354.468,267.55 357.021,267.55 357.021,262.541 359.24,262.541 359.24,260 
		352.245,260 352.246,262.541 	"/>
	<polygon fill="#1B7164" points="372.719,267.552 376.274,267.552 376.274,265.011 372.719,265.011 372.719,260.001 
		370.171,260.001 370.171,267.552 370.813,267.552 	"/>
	<polygon fill="#1B7164" points="346.272,265.045 348.581,265.045 348.581,267.55 351.132,267.55 351.132,260 348.581,260 
		348.581,262.505 346.272,262.505 346.272,260 343.719,260 343.719,267.55 346.272,267.55 	"/>
	<path fill="#1B7164" d="M359.999,270.976h-19.997l3.746,40.441L360.002,316l16.244-4.582l3.756-40.441H359.999z M372.114,284.261
		h-19.187l0.471,5.068h18.245l-1.408,15.201l-10.233,2.893l-10.235-2.891l-0.722-7.746h5.056l0.334,3.876l5.568,1.597l5.482-1.573
		l0.563-6.405h-17.194l-0.029,0.096l-1.406-15.144h25.167L372.114,284.261z"/>
</g>
</svg>
