<?xml version="1.0" encoding="utf-8"?>
<!-- Generator: Adobe Illustrator 16.0.0, SVG Export Plug-In . SVG Version: 6.00 Build 0)  -->
<!DOCTYPE svg PUBLIC "-//W3C//DTD SVG 1.1//EN" "http://www.w3.org/Graphics/SVG/1.1/DTD/svg11.dtd">
<svg version="1.1"
	 id="Шар_1" xmlns:sodipodi="http://sodipodi.sourceforge.net/DTD/sodipodi-0.dtd" xmlns:cc="http://creativecommons.org/ns#" xmlns:rdf="http://www.w3.org/1999/02/22-rdf-syntax-ns#" xmlns:inkscape="http://www.inkscape.org/namespaces/inkscape" xmlns:svg="http://www.w3.org/2000/svg" xmlns:dc="http://purl.org/dc/elements/1.1/" sodipodi:docname="partners.svg" inkscape:version="0.91 r13725"
	 xmlns="http://www.w3.org/2000/svg" xmlns:xlink="http://www.w3.org/1999/xlink" x="0px" y="0px" width="46.001px"
	 height="45.998px" viewBox="399.999 270.001 46.001 45.998" enable-background="new 399.999 270.001 46.001 45.998"
	 xml:space="preserve">
<sodipodi:namedview  gridtolerance="10" inkscape:cy="367.284" showgrid="false" pagecolor="#ffffff" inkscape:zoom="0.20304997" borderopacity="1" inkscape:cx="687.02301" bordercolor="#666666" guidetolerance="10" objecttolerance="10" id="namedview616" inkscape:pageshadow="2" inkscape:window-height="480" inkscape:window-maximized="0" inkscape:pageopacity="0" inkscape:window-y="0" inkscape:window-width="640" inkscape:window-x="0" inkscape:current-layer="Шар_1">
	</sodipodi:namedview>
<g>
	<path fill="#1B7164" d="M417.426,292.179h11.083c3.085,0,5.548-2.513,5.548-5.576v-10.45c0-2.974-2.536-5.208-5.548-5.705
		c-1.906-0.313-3.886-0.455-5.781-0.447c-1.897,0.01-3.708,0.169-5.302,0.447c-4.695,0.821-5.548,2.537-5.548,5.705v4.183h11.095
		v1.395h-11.095h-4.164c-3.227,0-6.05,1.917-6.934,5.563c-1.019,4.181-1.063,6.789,0,11.153c0.789,3.248,2.672,5.564,5.897,5.564
		h3.813v-5.014C410.493,295.375,413.661,292.179,417.426,292.179z M416.726,277.547c-1.15,0-2.082-0.933-2.082-2.085
		c0-1.156,0.932-2.098,2.082-2.098c1.146,0,2.082,0.94,2.082,2.098C418.808,276.614,417.873,277.547,416.726,277.547z"/>
	<path fill="#1B7164" d="M445.15,287.293c-0.797-3.174-2.318-5.563-5.548-5.563h-4.164v4.873c0,3.778-3.239,6.958-6.932,6.958
		h-11.083c-3.036,0-5.55,2.569-5.55,5.576v10.449c0,2.975,2.615,4.725,5.55,5.576c3.513,1.021,6.88,1.207,11.083,0
		c2.794-0.801,5.548-2.41,5.548-5.576v-4.183h-11.083v-1.395h11.083h5.548c3.225,0,4.426-2.225,5.548-5.563
		C446.308,295.01,446.26,291.703,445.15,287.293z M429.205,308.192c1.15,0,2.082,0.933,2.082,2.085c0,1.157-0.932,2.098-2.082,2.098
		c-1.146,0-2.082-0.939-2.082-2.098C427.123,309.125,428.059,308.192,429.205,308.192z"/>
</g>
</svg>
