<?xml version="1.0" encoding="utf-8"?>
<!-- Generator: Adobe Illustrator 16.0.0, SVG Export Plug-In . SVG Version: 6.00 Build 0)  -->
<!DOCTYPE svg PUBLIC "-//W3C//DTD SVG 1.1//EN" "http://www.w3.org/Graphics/SVG/1.1/DTD/svg11.dtd">
<svg version="1.1"
	 id="Шар_1" xmlns:sodipodi="http://sodipodi.sourceforge.net/DTD/sodipodi-0.dtd" xmlns:cc="http://creativecommons.org/ns#" xmlns:rdf="http://www.w3.org/1999/02/22-rdf-syntax-ns#" xmlns:inkscape="http://www.inkscape.org/namespaces/inkscape" xmlns:svg="http://www.w3.org/2000/svg" xmlns:dc="http://purl.org/dc/elements/1.1/" sodipodi:docname="partners.svg" inkscape:version="0.91 r13725"
	 xmlns="http://www.w3.org/2000/svg" xmlns:xlink="http://www.w3.org/1999/xlink" x="0px" y="0px" width="88px" height="26px"
	 viewBox="160 280 88 26" enable-background="new 160 280 88 26" xml:space="preserve">
<sodipodi:namedview  gridtolerance="10" inkscape:cy="367.284" showgrid="false" pagecolor="#ffffff" inkscape:zoom="0.20304997" borderopacity="1" inkscape:cx="687.02301" bordercolor="#666666" guidetolerance="10" objecttolerance="10" id="namedview616" inkscape:pageshadow="2" inkscape:window-height="480" inkscape:window-maximized="0" inkscape:pageopacity="0" inkscape:window-y="0" inkscape:window-width="640" inkscape:window-x="0" inkscape:current-layer="Шар_1">
	</sodipodi:namedview>
<g>
	<path fill="#1B7164" d="M187.869,291.554c-2.599-0.988-3.733-1.556-3.733-2.844c0-1.047,0.955-1.945,2.928-1.945
		c1.972,0,3.406,0.569,4.212,0.958l1.016-3.683c-1.195-0.539-2.869-1.02-5.139-1.02c-4.75,0-7.618,2.636-7.618,6.078
		c0,2.934,2.181,4.791,5.527,5.958c2.42,0.867,3.375,1.586,3.375,2.844c0,1.317-1.105,2.187-3.196,2.187
		c-1.941,0-3.823-0.63-5.048-1.258l-0.929,3.771c1.135,0.63,3.405,1.229,5.706,1.229c5.526,0,8.126-2.875,8.126-6.259
		C193.097,294.727,191.424,292.871,187.869,291.554z"/>
	<path fill="#1B7164" d="M204.417,292.064c1.196,0,2.002,0.209,2.54,0.449l0.717-3.383c-0.956-0.359-2.271-0.569-3.466-0.569
		c-5.437,0-8.363,3.503-8.363,7.784c0,4.611,3.018,7.484,7.737,7.484c1.732,0,3.257-0.301,4.063-0.659l-0.539-3.353
		c-0.688,0.27-1.523,0.449-2.6,0.449c-2.209,0-4.002-1.408-4.002-4.102C200.474,293.771,202.027,292.064,204.417,292.064z"/>
	<path fill="#1B7164" d="M222.909,294.879c0-3.444-1.554-6.317-6.423-6.317c-2.66,0-4.66,0.719-5.676,1.287l0.837,2.934
		c0.957-0.599,2.54-1.107,4.033-1.107c2.239,0,2.657,1.107,2.657,1.886v0.209c-5.168-0.03-8.572,1.796-8.572,5.6
		c0,2.335,1.762,4.49,4.719,4.49c1.732,0,3.227-0.63,4.183-1.797h0.089l0.269,1.467h4.094c-0.149-0.808-0.209-2.154-0.209-3.563
		V294.879L222.909,294.879z M218.489,298.202c0,0.269-0.031,0.538-0.09,0.777c-0.299,0.929-1.226,1.677-2.36,1.677
		c-1.016,0-1.793-0.568-1.793-1.735c0-1.768,1.853-2.336,4.242-2.307h0.001V298.202L218.489,298.202z"/>
	<rect x="226.94" y="282.273" fill="#1B7164" width="4.54" height="21.256"/>
	<path fill="#1B7164" d="M247.791,299.968v-5.089c0-3.444-1.554-6.317-6.423-6.317c-2.66,0-4.66,0.719-5.676,1.287l0.837,2.934
		c0.956-0.599,2.54-1.107,4.033-1.107c2.24,0,2.658,1.107,2.658,1.886v0.209c-5.168-0.03-8.573,1.796-8.573,5.6
		c0,2.335,1.762,4.49,4.719,4.49c1.734,0,3.228-0.63,4.183-1.797h0.09l0.27,1.467H248
		C247.85,302.722,247.791,301.375,247.791,299.968z M243.37,298.202c0,0.269-0.03,0.538-0.089,0.777
		c-0.299,0.929-1.225,1.677-2.36,1.677c-1.016,0-1.793-0.568-1.793-1.735c0-1.768,1.853-2.336,4.242-2.307V298.202z"/>
	<path fill="#1B7164" d="M160,299.743V306h0.45c8.604-0.577,14.825-1.935,15.531-3.548v-6.286
		C175.262,297.807,168.837,299.183,160,299.743z"/>
	<path fill="#1B7164" d="M160,291.66v6.257h0.45c8.604-0.577,14.825-1.935,15.531-3.548v-6.286
		C175.262,289.724,168.837,291.1,160,291.66z"/>
	<path fill="#1B7164" d="M160,283.577v6.256h0.45c8.604-0.577,14.825-1.935,15.531-3.548V280
		C175.262,281.641,168.837,283.017,160,283.577z"/>
</g>
</svg>
